G04 (created by PCBNEW (2013-09-06 BZR 4312)-stable) date T 02 sept  2014 10:34:50 EEST*
%MOIN*%
G04 Gerber Fmt 3.4, Leading zero omitted, Abs format*
%FSLAX34Y34*%
G01*
G70*
G90*
G04 APERTURE LIST*
%ADD10C,0.000787*%
%ADD11C,0.180000*%
%ADD12R,0.070866X0.070866*%
%ADD13C,0.070866*%
%ADD14R,0.060000X0.060000*%
%ADD15C,0.060000*%
G04 APERTURE END LIST*
G54D10*
G54D11*
X44250Y-30750D03*
X70250Y-29500D03*
X70250Y-48500D03*
X44250Y-47250D03*
G54D12*
X68250Y-29000D03*
G54D13*
X68250Y-30000D03*
X67250Y-29000D03*
X67250Y-30000D03*
X66250Y-29000D03*
X66250Y-30000D03*
X65250Y-29000D03*
X65250Y-30000D03*
X64250Y-29000D03*
X64250Y-30000D03*
X63250Y-29000D03*
X63250Y-30000D03*
X62250Y-29000D03*
X62250Y-30000D03*
X61250Y-29000D03*
X61250Y-30000D03*
X60250Y-29000D03*
X60250Y-30000D03*
X59250Y-29000D03*
X59250Y-30000D03*
X58250Y-29000D03*
X58250Y-30000D03*
X57250Y-29000D03*
X57250Y-30000D03*
X56250Y-29000D03*
X56250Y-30000D03*
X55250Y-29000D03*
X55250Y-30000D03*
X54250Y-29000D03*
X54250Y-30000D03*
X53250Y-29000D03*
X53250Y-30000D03*
X52250Y-29000D03*
X52250Y-30000D03*
X51250Y-29000D03*
X51250Y-30000D03*
X50250Y-29000D03*
X50250Y-30000D03*
X49250Y-29000D03*
X49250Y-30000D03*
X48250Y-29000D03*
X48250Y-30000D03*
X47250Y-29000D03*
X47250Y-30000D03*
X46250Y-29000D03*
X46250Y-30000D03*
G54D12*
X68250Y-48000D03*
G54D13*
X68250Y-49000D03*
X67250Y-48000D03*
X67250Y-49000D03*
X66250Y-48000D03*
X66250Y-49000D03*
X65250Y-48000D03*
X65250Y-49000D03*
X64250Y-48000D03*
X64250Y-49000D03*
X63250Y-48000D03*
X63250Y-49000D03*
X62250Y-48000D03*
X62250Y-49000D03*
X61250Y-48000D03*
X61250Y-49000D03*
X60250Y-48000D03*
X60250Y-49000D03*
X59250Y-48000D03*
X59250Y-49000D03*
X58250Y-48000D03*
X58250Y-49000D03*
X57250Y-48000D03*
X57250Y-49000D03*
X56250Y-48000D03*
X56250Y-49000D03*
X55250Y-48000D03*
X55250Y-49000D03*
X54250Y-48000D03*
X54250Y-49000D03*
X53250Y-48000D03*
X53250Y-49000D03*
X52250Y-48000D03*
X52250Y-49000D03*
X51250Y-48000D03*
X51250Y-49000D03*
X50250Y-48000D03*
X50250Y-49000D03*
X49250Y-48000D03*
X49250Y-49000D03*
X48250Y-48000D03*
X48250Y-49000D03*
X47250Y-48000D03*
X47250Y-49000D03*
X46250Y-48000D03*
X46250Y-49000D03*
X70250Y-31500D03*
X70250Y-32500D03*
X69250Y-31500D03*
X69250Y-32500D03*
G54D14*
X64000Y-33500D03*
G54D15*
X65000Y-33500D03*
X64000Y-34500D03*
X65000Y-34500D03*
X64000Y-35500D03*
X65000Y-35500D03*
X64000Y-36500D03*
X65000Y-36500D03*
X64000Y-37500D03*
X65000Y-37500D03*
G54D14*
X64000Y-40500D03*
G54D15*
X65000Y-40500D03*
X64000Y-41500D03*
X65000Y-41500D03*
X64000Y-42500D03*
X65000Y-42500D03*
X64000Y-43500D03*
X65000Y-43500D03*
X64000Y-44500D03*
X65000Y-44500D03*
M02*
