M48
INCH,TZ

T1C0.025
T2C0.039
T3C0.040
T4C0.043
T5C0.125
%
G90
G05
M72
T1
X44700Y-34250

X46500Y-31700

X46650Y-32800

X46750Y-30450

X47250Y-30900

X49600Y-31800

X51850Y-32000

X57100Y-39000

X57650Y-44050

X58600Y-38950

X58650Y-43550

X60150Y-44450

X61150Y-34500

X61400Y-39300

X61500Y-44500

X62150Y-39300

X62200Y-34850

X63000Y-33900

X63150Y-44000

X64000Y-39050

X66500Y-33500

T2
X49600Y-35200

X49600Y-36200

X49600Y-37400

X49600Y-38400

X49600Y-39600

X49600Y-40600

X49600Y-41800

X49600Y-42800

T3
X64000Y-33500

X64000Y-34500

X64000Y-35500

X64000Y-36500

X64000Y-37500

X64000Y-40500

X64000Y-41500

X64000Y-42500

X64000Y-43500

X64000Y-44500

X65000Y-33500

X65000Y-34500

X65000Y-35500

X65000Y-36500

X65000Y-37500

X65000Y-40500

X65000Y-41500

X65000Y-42500

X65000Y-43500

X65000Y-44500

T4
X46250Y-29000

X46250Y-30000

X46250Y-48000

X46250Y-49000

X47250Y-29000

X47250Y-30000

X47250Y-48000

X47250Y-49000

X48250Y-29000

X48250Y-30000

X48250Y-48000

X48250Y-49000

X49250Y-29000

X49250Y-30000

X49250Y-48000

X49250Y-49000

X50250Y-29000

X50250Y-30000

X50250Y-48000

X50250Y-49000

X51250Y-29000

X51250Y-30000

X51250Y-48000

X51250Y-49000

X52250Y-29000

X52250Y-30000

X52250Y-48000

X52250Y-49000

X53250Y-29000

X53250Y-30000

X53250Y-48000

X53250Y-49000

X54250Y-29000

X54250Y-30000

X54250Y-48000

X54250Y-49000

X55250Y-29000

X55250Y-30000

X55250Y-48000

X55250Y-49000

X56250Y-29000

X56250Y-30000

X56250Y-48000

X56250Y-49000

X57250Y-29000

X57250Y-30000

X57250Y-48000

X57250Y-49000

X58250Y-29000

X58250Y-30000

X58250Y-48000

X58250Y-49000

X59250Y-29000

X59250Y-30000

X59250Y-48000

X59250Y-49000

X60250Y-29000

X60250Y-30000

X60250Y-48000

X60250Y-49000

X61250Y-29000

X61250Y-30000

X61250Y-48000

X61250Y-49000

X62250Y-29000

X62250Y-30000

X62250Y-48000

X62250Y-49000

X63250Y-29000

X63250Y-30000

X63250Y-48000

X63250Y-49000

X64250Y-29000

X64250Y-30000

X64250Y-48000

X64250Y-49000

X65250Y-29000

X65250Y-30000

X65250Y-48000

X65250Y-49000

X66250Y-29000

X66250Y-30000

X66250Y-48000

X66250Y-49000

X67250Y-29000

X67250Y-30000

X67250Y-48000

X67250Y-49000

X68250Y-29000

X68250Y-30000

X68250Y-48000

X68250Y-49000

X69250Y-31500

X69250Y-32500

X70250Y-31500

X70250Y-32500

T5
X44250Y-30750

X44250Y-47250

X70250Y-29500

X70250Y-48500

T0
M30
