G04 (created by PCBNEW (2013-09-06 BZR 4312)-stable) date T 02 sept  2014 10:34:50 EEST*
%MOIN*%
G04 Gerber Fmt 3.4, Leading zero omitted, Abs format*
%FSLAX34Y34*%
G01*
G70*
G90*
G04 APERTURE LIST*
%ADD10C,0.000787*%
%ADD11C,0.009843*%
%ADD12C,0.011811*%
%ADD13C,0.007000*%
%ADD14C,0.010000*%
%ADD15C,0.015000*%
%ADD16C,0.004700*%
%ADD17C,0.012000*%
%ADD18C,0.005000*%
%ADD19C,0.008000*%
%ADD20C,0.000100*%
%ADD21C,0.005906*%
G04 APERTURE END LIST*
G54D10*
G54D11*
X66328Y-43493D02*
X65934Y-43493D01*
X65934Y-43343D01*
X65953Y-43306D01*
X65971Y-43287D01*
X66009Y-43268D01*
X66065Y-43268D01*
X66103Y-43287D01*
X66121Y-43306D01*
X66140Y-43343D01*
X66140Y-43493D01*
X65934Y-43024D02*
X65934Y-42949D01*
X65953Y-42912D01*
X65990Y-42874D01*
X66065Y-42856D01*
X66196Y-42856D01*
X66271Y-42874D01*
X66309Y-42912D01*
X66328Y-42949D01*
X66328Y-43024D01*
X66309Y-43062D01*
X66271Y-43099D01*
X66196Y-43118D01*
X66065Y-43118D01*
X65990Y-43099D01*
X65953Y-43062D01*
X65934Y-43024D01*
X66328Y-42462D02*
X66140Y-42593D01*
X66328Y-42687D02*
X65934Y-42687D01*
X65934Y-42537D01*
X65953Y-42500D01*
X65971Y-42481D01*
X66009Y-42462D01*
X66065Y-42462D01*
X66103Y-42481D01*
X66121Y-42500D01*
X66140Y-42537D01*
X66140Y-42687D01*
X65934Y-42350D02*
X65934Y-42125D01*
X66328Y-42237D02*
X65934Y-42237D01*
X65971Y-41712D02*
X65953Y-41693D01*
X65934Y-41656D01*
X65934Y-41562D01*
X65953Y-41525D01*
X65971Y-41506D01*
X66009Y-41487D01*
X66046Y-41487D01*
X66103Y-41506D01*
X66328Y-41731D01*
X66328Y-41487D01*
X66328Y-36493D02*
X65934Y-36493D01*
X65934Y-36343D01*
X65953Y-36306D01*
X65971Y-36287D01*
X66009Y-36268D01*
X66065Y-36268D01*
X66103Y-36287D01*
X66121Y-36306D01*
X66140Y-36343D01*
X66140Y-36493D01*
X65934Y-36024D02*
X65934Y-35949D01*
X65953Y-35912D01*
X65990Y-35874D01*
X66065Y-35856D01*
X66196Y-35856D01*
X66271Y-35874D01*
X66309Y-35912D01*
X66328Y-35949D01*
X66328Y-36024D01*
X66309Y-36062D01*
X66271Y-36099D01*
X66196Y-36118D01*
X66065Y-36118D01*
X65990Y-36099D01*
X65953Y-36062D01*
X65934Y-36024D01*
X66328Y-35462D02*
X66140Y-35593D01*
X66328Y-35687D02*
X65934Y-35687D01*
X65934Y-35537D01*
X65953Y-35500D01*
X65971Y-35481D01*
X66009Y-35462D01*
X66065Y-35462D01*
X66103Y-35481D01*
X66121Y-35500D01*
X66140Y-35537D01*
X66140Y-35687D01*
X65934Y-35350D02*
X65934Y-35125D01*
X66328Y-35237D02*
X65934Y-35237D01*
X66328Y-34487D02*
X66328Y-34712D01*
X66328Y-34600D02*
X65934Y-34600D01*
X65990Y-34637D01*
X66028Y-34675D01*
X66046Y-34712D01*
G54D12*
X47773Y-41792D02*
X48226Y-41792D01*
X48000Y-42018D02*
X48000Y-41566D01*
X47773Y-39592D02*
X48226Y-39592D01*
X48000Y-39818D02*
X48000Y-39366D01*
X47773Y-37342D02*
X48226Y-37342D01*
X48000Y-37568D02*
X48000Y-37116D01*
X47773Y-35242D02*
X48226Y-35242D01*
X48000Y-35468D02*
X48000Y-35016D01*
G54D13*
X44568Y-37857D02*
X44355Y-37933D01*
X44568Y-38009D01*
X44370Y-38253D02*
X44355Y-38222D01*
X44355Y-38161D01*
X44370Y-38131D01*
X44400Y-38116D01*
X44522Y-38116D01*
X44553Y-38131D01*
X44568Y-38161D01*
X44568Y-38222D01*
X44553Y-38253D01*
X44522Y-38268D01*
X44492Y-38268D01*
X44461Y-38116D01*
X44355Y-38405D02*
X44568Y-38405D01*
X44507Y-38405D02*
X44538Y-38420D01*
X44553Y-38436D01*
X44568Y-38466D01*
X44568Y-38497D01*
X44370Y-38588D02*
X44355Y-38619D01*
X44355Y-38680D01*
X44370Y-38710D01*
X44400Y-38725D01*
X44416Y-38725D01*
X44446Y-38710D01*
X44461Y-38680D01*
X44461Y-38634D01*
X44477Y-38603D01*
X44507Y-38588D01*
X44522Y-38588D01*
X44553Y-38603D01*
X44568Y-38634D01*
X44568Y-38680D01*
X44553Y-38710D01*
X44355Y-38862D02*
X44568Y-38862D01*
X44675Y-38862D02*
X44660Y-38847D01*
X44644Y-38862D01*
X44660Y-38878D01*
X44675Y-38862D01*
X44644Y-38862D01*
X44355Y-39060D02*
X44370Y-39030D01*
X44385Y-39015D01*
X44416Y-39000D01*
X44507Y-39000D01*
X44538Y-39015D01*
X44553Y-39030D01*
X44568Y-39060D01*
X44568Y-39106D01*
X44553Y-39137D01*
X44538Y-39152D01*
X44507Y-39167D01*
X44416Y-39167D01*
X44385Y-39152D01*
X44370Y-39137D01*
X44355Y-39106D01*
X44355Y-39060D01*
X44568Y-39304D02*
X44355Y-39304D01*
X44538Y-39304D02*
X44553Y-39320D01*
X44568Y-39350D01*
X44568Y-39396D01*
X44553Y-39426D01*
X44522Y-39441D01*
X44355Y-39441D01*
X44385Y-39594D02*
X44370Y-39609D01*
X44355Y-39594D01*
X44370Y-39579D01*
X44385Y-39594D01*
X44355Y-39594D01*
X44553Y-39594D02*
X44538Y-39609D01*
X44522Y-39594D01*
X44538Y-39579D01*
X44553Y-39594D01*
X44522Y-39594D01*
X44446Y-39975D02*
X44446Y-40127D01*
X44355Y-39944D02*
X44675Y-40051D01*
X44355Y-40158D01*
G54D14*
X46528Y-37350D02*
X46042Y-37350D01*
X45985Y-37378D01*
X45957Y-37407D01*
X45928Y-37464D01*
X45928Y-37578D01*
X45957Y-37635D01*
X45985Y-37664D01*
X46042Y-37692D01*
X46528Y-37692D01*
X45957Y-37950D02*
X45928Y-38035D01*
X45928Y-38178D01*
X45957Y-38235D01*
X45985Y-38264D01*
X46042Y-38292D01*
X46100Y-38292D01*
X46157Y-38264D01*
X46185Y-38235D01*
X46214Y-38178D01*
X46242Y-38064D01*
X46271Y-38007D01*
X46300Y-37978D01*
X46357Y-37950D01*
X46414Y-37950D01*
X46471Y-37978D01*
X46500Y-38007D01*
X46528Y-38064D01*
X46528Y-38207D01*
X46500Y-38292D01*
X46242Y-38750D02*
X46214Y-38835D01*
X46185Y-38864D01*
X46128Y-38892D01*
X46042Y-38892D01*
X45985Y-38864D01*
X45957Y-38835D01*
X45928Y-38778D01*
X45928Y-38550D01*
X46528Y-38550D01*
X46528Y-38750D01*
X46500Y-38807D01*
X46471Y-38835D01*
X46414Y-38864D01*
X46357Y-38864D01*
X46300Y-38835D01*
X46271Y-38807D01*
X46242Y-38750D01*
X46242Y-38550D01*
X46100Y-39121D02*
X46100Y-39407D01*
X45928Y-39064D02*
X46528Y-39264D01*
X45928Y-39464D01*
X45957Y-39635D02*
X45928Y-39721D01*
X45928Y-39864D01*
X45957Y-39921D01*
X45985Y-39950D01*
X46042Y-39978D01*
X46100Y-39978D01*
X46157Y-39950D01*
X46185Y-39921D01*
X46214Y-39864D01*
X46242Y-39750D01*
X46271Y-39692D01*
X46300Y-39664D01*
X46357Y-39635D01*
X46414Y-39635D01*
X46471Y-39664D01*
X46500Y-39692D01*
X46528Y-39750D01*
X46528Y-39892D01*
X46500Y-39978D01*
X45928Y-40235D02*
X46528Y-40235D01*
X46528Y-40464D01*
X46500Y-40521D01*
X46471Y-40550D01*
X46414Y-40578D01*
X46328Y-40578D01*
X46271Y-40550D01*
X46242Y-40521D01*
X46214Y-40464D01*
X46214Y-40235D01*
X45045Y-38307D02*
X45017Y-38278D01*
X44988Y-38192D01*
X44988Y-38135D01*
X45017Y-38050D01*
X45074Y-37992D01*
X45131Y-37964D01*
X45245Y-37935D01*
X45331Y-37935D01*
X45445Y-37964D01*
X45502Y-37992D01*
X45560Y-38050D01*
X45588Y-38135D01*
X45588Y-38192D01*
X45560Y-38278D01*
X45531Y-38307D01*
X45160Y-38535D02*
X45160Y-38821D01*
X44988Y-38478D02*
X45588Y-38678D01*
X44988Y-38878D01*
X44988Y-39078D02*
X45588Y-39078D01*
X45588Y-39307D01*
X45560Y-39364D01*
X45531Y-39392D01*
X45474Y-39421D01*
X45388Y-39421D01*
X45331Y-39392D01*
X45302Y-39364D01*
X45274Y-39307D01*
X45274Y-39078D01*
X45302Y-39678D02*
X45302Y-39878D01*
X44988Y-39964D02*
X44988Y-39678D01*
X45588Y-39678D01*
X45588Y-39964D01*
G54D15*
X73250Y-43650D02*
X73250Y-43500D01*
X73250Y-43500D02*
X68000Y-43500D01*
X68000Y-43500D02*
X68000Y-36500D01*
X68000Y-36500D02*
X76000Y-36500D01*
X76000Y-36500D02*
X76000Y-36350D01*
X47000Y-49750D02*
X73250Y-49750D01*
X73250Y-49750D02*
X73250Y-43650D01*
X76000Y-36350D02*
X76000Y-31250D01*
X76000Y-30750D02*
X76000Y-31250D01*
X47000Y-28250D02*
X73500Y-28250D01*
X42000Y-33250D02*
X42000Y-44750D01*
X47000Y-28250D02*
G75*
G03X42000Y-33250I0J-5000D01*
G74*
G01*
X42000Y-44750D02*
G75*
G03X47000Y-49750I5000J0D01*
G74*
G01*
X76000Y-30750D02*
G75*
G03X73500Y-28250I-2500J0D01*
G74*
G01*
G54D16*
X57603Y-38744D02*
X57328Y-38744D01*
X57997Y-38744D02*
X58272Y-38744D01*
X57603Y-39256D02*
X57328Y-39256D01*
X58272Y-39256D02*
X57997Y-39256D01*
X57328Y-39250D02*
X57328Y-38750D01*
X58272Y-38750D02*
X58272Y-39250D01*
X58103Y-43744D02*
X57828Y-43744D01*
X58497Y-43744D02*
X58772Y-43744D01*
X58103Y-44256D02*
X57828Y-44256D01*
X58772Y-44256D02*
X58497Y-44256D01*
X57828Y-44250D02*
X57828Y-43750D01*
X58772Y-43750D02*
X58772Y-44250D01*
G54D14*
X49100Y-34700D02*
X49100Y-36700D01*
X50850Y-34700D02*
X50850Y-36700D01*
X48350Y-36700D02*
X48350Y-34700D01*
X48350Y-36700D02*
X50850Y-36700D01*
X48350Y-34700D02*
X50850Y-34700D01*
X49100Y-36900D02*
X49100Y-38900D01*
X50850Y-36900D02*
X50850Y-38900D01*
X48350Y-38900D02*
X48350Y-36900D01*
X48350Y-38900D02*
X50850Y-38900D01*
X48350Y-36900D02*
X50850Y-36900D01*
X49100Y-39100D02*
X49100Y-41100D01*
X50850Y-39100D02*
X50850Y-41100D01*
X48350Y-41100D02*
X48350Y-39100D01*
X48350Y-41100D02*
X50850Y-41100D01*
X48350Y-39100D02*
X50850Y-39100D01*
X49100Y-41300D02*
X49100Y-43300D01*
X50850Y-41300D02*
X50850Y-43300D01*
X48350Y-43300D02*
X48350Y-41300D01*
X48350Y-43300D02*
X50850Y-43300D01*
X48350Y-41300D02*
X50850Y-41300D01*
G54D17*
X65500Y-33000D02*
X65500Y-38000D01*
X65500Y-38000D02*
X63500Y-38000D01*
X63500Y-38000D02*
X63500Y-33000D01*
X63500Y-33000D02*
X65500Y-33000D01*
X65500Y-40000D02*
X65500Y-45000D01*
X65500Y-45000D02*
X63500Y-45000D01*
X63500Y-45000D02*
X63500Y-40000D01*
X63500Y-40000D02*
X65500Y-40000D01*
G54D18*
X58103Y-44525D02*
X57825Y-44525D01*
X57825Y-44525D02*
X57825Y-45075D01*
X57825Y-45075D02*
X58103Y-45075D01*
X58775Y-44525D02*
X58497Y-44525D01*
X58775Y-44525D02*
X58775Y-45075D01*
X58775Y-45075D02*
X58497Y-45075D01*
X58103Y-45325D02*
X57825Y-45325D01*
X57825Y-45325D02*
X57825Y-45875D01*
X57825Y-45875D02*
X58103Y-45875D01*
X58775Y-45325D02*
X58497Y-45325D01*
X58775Y-45325D02*
X58775Y-45875D01*
X58775Y-45875D02*
X58497Y-45875D01*
G54D19*
X59600Y-38800D02*
X59600Y-38500D01*
X59600Y-38500D02*
X60200Y-38500D01*
X60200Y-38500D02*
X60200Y-38800D01*
X59000Y-34400D02*
X60800Y-34400D01*
X60800Y-34400D02*
X60800Y-38800D01*
X60800Y-38800D02*
X59000Y-38800D01*
X59000Y-38800D02*
X59000Y-34400D01*
X59600Y-43600D02*
X59600Y-43300D01*
X59600Y-43300D02*
X60200Y-43300D01*
X60200Y-43300D02*
X60200Y-43600D01*
X59000Y-39200D02*
X60800Y-39200D01*
X60800Y-39200D02*
X60800Y-43600D01*
X60800Y-43600D02*
X59000Y-43600D01*
X59000Y-43600D02*
X59000Y-39200D01*
G54D18*
X68025Y-32197D02*
X68025Y-32475D01*
X68025Y-32475D02*
X68575Y-32475D01*
X68575Y-32475D02*
X68575Y-32197D01*
X68025Y-31525D02*
X68025Y-31803D01*
X68025Y-31525D02*
X68575Y-31525D01*
X68575Y-31525D02*
X68575Y-31803D01*
G54D16*
X48406Y-32853D02*
X48406Y-32578D01*
X48406Y-33247D02*
X48406Y-33522D01*
X47894Y-32853D02*
X47894Y-32578D01*
X47894Y-33522D02*
X47894Y-33247D01*
X47900Y-32578D02*
X48400Y-32578D01*
X48400Y-33522D02*
X47900Y-33522D01*
X47053Y-31294D02*
X46778Y-31294D01*
X47447Y-31294D02*
X47722Y-31294D01*
X47053Y-31806D02*
X46778Y-31806D01*
X47722Y-31806D02*
X47447Y-31806D01*
X46778Y-31800D02*
X46778Y-31300D01*
X47722Y-31300D02*
X47722Y-31800D01*
G54D18*
X50050Y-32050D02*
X49150Y-32050D01*
X49150Y-32050D02*
X49150Y-32700D01*
X50050Y-33400D02*
X50050Y-34050D01*
X50050Y-34050D02*
X49150Y-34050D01*
X49150Y-34050D02*
X49150Y-33400D01*
X50050Y-32700D02*
X50050Y-32050D01*
X48647Y-34275D02*
X48925Y-34275D01*
X48925Y-34275D02*
X48925Y-33725D01*
X48925Y-33725D02*
X48647Y-33725D01*
X47975Y-34275D02*
X48253Y-34275D01*
X47975Y-34275D02*
X47975Y-33725D01*
X47975Y-33725D02*
X48253Y-33725D01*
X48647Y-32375D02*
X48925Y-32375D01*
X48925Y-32375D02*
X48925Y-31825D01*
X48925Y-31825D02*
X48647Y-31825D01*
X47975Y-32375D02*
X48253Y-32375D01*
X47975Y-32375D02*
X47975Y-31825D01*
X47975Y-31825D02*
X48253Y-31825D01*
X45703Y-34225D02*
X45425Y-34225D01*
X45425Y-34225D02*
X45425Y-34775D01*
X45425Y-34775D02*
X45703Y-34775D01*
X46375Y-34225D02*
X46097Y-34225D01*
X46375Y-34225D02*
X46375Y-34775D01*
X46375Y-34775D02*
X46097Y-34775D01*
X45703Y-34975D02*
X45425Y-34975D01*
X45425Y-34975D02*
X45425Y-35525D01*
X45425Y-35525D02*
X45703Y-35525D01*
X46375Y-34975D02*
X46097Y-34975D01*
X46375Y-34975D02*
X46375Y-35525D01*
X46375Y-35525D02*
X46097Y-35525D01*
X45050Y-34050D02*
X45050Y-32050D01*
X45050Y-32050D02*
X46850Y-32050D01*
X46850Y-32050D02*
X46850Y-34050D01*
X46850Y-34050D02*
X45050Y-34050D01*
X45650Y-34050D02*
X45650Y-33850D01*
X45650Y-33850D02*
X46150Y-33850D01*
X46150Y-33850D02*
X46150Y-34050D01*
G54D20*
G36*
X58087Y-41387D02*
X58065Y-41346D01*
X58007Y-41253D01*
X57921Y-41122D01*
X57817Y-40967D01*
X57712Y-40811D01*
X57626Y-40682D01*
X57568Y-40593D01*
X57547Y-40555D01*
X57554Y-40535D01*
X57590Y-40461D01*
X57646Y-40353D01*
X57679Y-40291D01*
X57721Y-40192D01*
X57730Y-40143D01*
X57716Y-40135D01*
X57641Y-40099D01*
X57512Y-40042D01*
X57341Y-39968D01*
X57141Y-39883D01*
X56926Y-39792D01*
X56706Y-39700D01*
X56496Y-39613D01*
X56308Y-39536D01*
X56155Y-39474D01*
X56048Y-39434D01*
X56002Y-39419D01*
X55993Y-39423D01*
X55945Y-39473D01*
X55880Y-39559D01*
X55729Y-39745D01*
X55499Y-39929D01*
X55238Y-40041D01*
X54949Y-40078D01*
X54680Y-40046D01*
X54421Y-39941D01*
X54189Y-39761D01*
X54016Y-39543D01*
X53907Y-39287D01*
X53872Y-39001D01*
X53903Y-38725D01*
X54007Y-38461D01*
X54184Y-38229D01*
X54297Y-38132D01*
X54532Y-37996D01*
X54785Y-37919D01*
X54849Y-37911D01*
X55125Y-37922D01*
X55390Y-38004D01*
X55628Y-38150D01*
X55822Y-38353D01*
X55840Y-38378D01*
X55910Y-38472D01*
X55958Y-38535D01*
X55999Y-38584D01*
X56846Y-38232D01*
X56981Y-38176D01*
X57213Y-38080D01*
X57412Y-37994D01*
X57571Y-37927D01*
X57677Y-37880D01*
X57720Y-37859D01*
X57722Y-37857D01*
X57728Y-37826D01*
X57704Y-37761D01*
X57647Y-37643D01*
X57607Y-37565D01*
X57563Y-37475D01*
X57547Y-37434D01*
X57566Y-37400D01*
X57622Y-37313D01*
X57706Y-37187D01*
X57809Y-37036D01*
X57907Y-36892D01*
X57995Y-36759D01*
X58057Y-36662D01*
X58082Y-36615D01*
X58082Y-36608D01*
X58059Y-36566D01*
X57995Y-36490D01*
X57886Y-36374D01*
X57725Y-36211D01*
X57700Y-36186D01*
X57563Y-36052D01*
X57449Y-35943D01*
X57367Y-35870D01*
X57330Y-35843D01*
X57330Y-35843D01*
X57284Y-35867D01*
X57188Y-35928D01*
X57053Y-36016D01*
X56896Y-36124D01*
X56488Y-36404D01*
X56103Y-36250D01*
X55985Y-36203D01*
X55842Y-36143D01*
X55740Y-36098D01*
X55696Y-36075D01*
X55681Y-36033D01*
X55656Y-35928D01*
X55624Y-35775D01*
X55590Y-35593D01*
X55558Y-35420D01*
X55529Y-35263D01*
X55506Y-35150D01*
X55496Y-35099D01*
X55489Y-35087D01*
X55464Y-35076D01*
X55411Y-35070D01*
X55316Y-35066D01*
X55166Y-35064D01*
X54949Y-35064D01*
X54925Y-35064D01*
X54718Y-35066D01*
X54553Y-35069D01*
X54444Y-35075D01*
X54402Y-35082D01*
X54401Y-35083D01*
X54389Y-35132D01*
X54366Y-35242D01*
X54335Y-35399D01*
X54300Y-35586D01*
X54297Y-35597D01*
X54262Y-35784D01*
X54229Y-35940D01*
X54204Y-36049D01*
X54190Y-36095D01*
X54176Y-36105D01*
X54104Y-36142D01*
X53988Y-36196D01*
X53847Y-36258D01*
X53701Y-36318D01*
X53570Y-36371D01*
X53471Y-36406D01*
X53427Y-36417D01*
X53426Y-36416D01*
X53381Y-36388D01*
X53285Y-36324D01*
X53151Y-36234D01*
X52992Y-36125D01*
X52980Y-36117D01*
X52823Y-36010D01*
X52690Y-35923D01*
X52595Y-35865D01*
X52552Y-35843D01*
X52549Y-35844D01*
X52502Y-35879D01*
X52413Y-35960D01*
X52293Y-36074D01*
X52154Y-36212D01*
X52111Y-36256D01*
X51962Y-36409D01*
X51864Y-36515D01*
X51812Y-36581D01*
X51800Y-36613D01*
X51801Y-36614D01*
X51830Y-36662D01*
X51894Y-36761D01*
X51986Y-36896D01*
X52094Y-37056D01*
X52102Y-37067D01*
X52209Y-37224D01*
X52297Y-37355D01*
X52359Y-37448D01*
X52384Y-37489D01*
X52384Y-37496D01*
X52365Y-37560D01*
X52326Y-37672D01*
X52272Y-37810D01*
X52214Y-37955D01*
X52158Y-38087D01*
X52113Y-38187D01*
X52086Y-38234D01*
X52084Y-38235D01*
X52028Y-38252D01*
X51910Y-38279D01*
X51748Y-38312D01*
X51555Y-38349D01*
X51524Y-38355D01*
X51336Y-38390D01*
X51182Y-38420D01*
X51074Y-38442D01*
X51030Y-38453D01*
X51024Y-38479D01*
X51017Y-38572D01*
X51014Y-38712D01*
X51012Y-38881D01*
X51013Y-39060D01*
X51017Y-39234D01*
X51022Y-39383D01*
X51029Y-39489D01*
X51038Y-39533D01*
X51041Y-39535D01*
X51099Y-39551D01*
X51217Y-39577D01*
X51380Y-39610D01*
X51573Y-39647D01*
X51607Y-39654D01*
X51794Y-39689D01*
X51948Y-39720D01*
X52053Y-39743D01*
X52095Y-39755D01*
X52104Y-39772D01*
X52137Y-39849D01*
X52189Y-39974D01*
X52252Y-40130D01*
X52398Y-40491D01*
X52095Y-40932D01*
X52068Y-40973D01*
X51960Y-41132D01*
X51873Y-41262D01*
X51814Y-41353D01*
X51793Y-41391D01*
X51794Y-41394D01*
X51833Y-41438D01*
X51915Y-41525D01*
X52031Y-41645D01*
X52170Y-41784D01*
X52273Y-41887D01*
X52397Y-42009D01*
X52480Y-42086D01*
X52534Y-42128D01*
X52566Y-42143D01*
X52588Y-42139D01*
X52633Y-42111D01*
X52730Y-42046D01*
X52864Y-41955D01*
X53020Y-41847D01*
X53151Y-41759D01*
X53299Y-41663D01*
X53405Y-41600D01*
X53457Y-41579D01*
X53478Y-41584D01*
X53565Y-41615D01*
X53696Y-41668D01*
X53851Y-41734D01*
X54201Y-41888D01*
X54245Y-42117D01*
X54272Y-42256D01*
X54309Y-42450D01*
X54345Y-42636D01*
X54401Y-42927D01*
X55469Y-42937D01*
X55488Y-42892D01*
X55500Y-42849D01*
X55524Y-42741D01*
X55554Y-42588D01*
X55589Y-42407D01*
X55617Y-42252D01*
X55647Y-42097D01*
X55668Y-41985D01*
X55679Y-41936D01*
X55696Y-41923D01*
X55771Y-41884D01*
X55891Y-41829D01*
X56035Y-41767D01*
X56184Y-41705D01*
X56322Y-41650D01*
X56427Y-41612D01*
X56481Y-41597D01*
X56522Y-41619D01*
X56614Y-41677D01*
X56744Y-41763D01*
X56899Y-41869D01*
X57053Y-41975D01*
X57185Y-42064D01*
X57280Y-42126D01*
X57324Y-42152D01*
X57353Y-42139D01*
X57428Y-42077D01*
X57549Y-41961D01*
X57721Y-41787D01*
X57748Y-41759D01*
X57881Y-41621D01*
X57988Y-41504D01*
X58061Y-41423D01*
X58087Y-41387D01*
X58087Y-41387D01*
G37*
G36*
X73501Y-32383D02*
X73499Y-32404D01*
X73496Y-32423D01*
X73495Y-32425D01*
X73494Y-32429D01*
X73491Y-32437D01*
X73487Y-32449D01*
X73482Y-32464D01*
X73475Y-32483D01*
X73468Y-32506D01*
X73459Y-32531D01*
X73449Y-32559D01*
X73439Y-32589D01*
X73427Y-32622D01*
X73416Y-32656D01*
X73403Y-32692D01*
X73390Y-32729D01*
X73377Y-32768D01*
X73363Y-32807D01*
X73349Y-32847D01*
X73335Y-32888D01*
X73321Y-32928D01*
X73307Y-32968D01*
X73293Y-33008D01*
X73279Y-33047D01*
X73266Y-33085D01*
X73253Y-33122D01*
X73240Y-33158D01*
X73228Y-33191D01*
X73217Y-33223D01*
X73207Y-33253D01*
X73197Y-33280D01*
X73189Y-33304D01*
X73181Y-33325D01*
X73175Y-33343D01*
X73170Y-33357D01*
X73166Y-33368D01*
X73164Y-33375D01*
X73163Y-33375D01*
X73153Y-33396D01*
X73139Y-33419D01*
X73122Y-33441D01*
X73102Y-33463D01*
X73081Y-33484D01*
X73065Y-33497D01*
X73057Y-33503D01*
X73050Y-33508D01*
X73045Y-33512D01*
X73043Y-33513D01*
X73042Y-33511D01*
X73039Y-33504D01*
X73035Y-33494D01*
X73029Y-33480D01*
X73023Y-33464D01*
X73015Y-33444D01*
X73006Y-33421D01*
X72996Y-33396D01*
X72986Y-33369D01*
X72975Y-33341D01*
X72963Y-33311D01*
X72957Y-33294D01*
X72943Y-33258D01*
X72931Y-33226D01*
X72920Y-33198D01*
X72911Y-33173D01*
X72903Y-33152D01*
X72896Y-33135D01*
X72890Y-33119D01*
X72886Y-33107D01*
X72882Y-33097D01*
X72880Y-33088D01*
X72878Y-33082D01*
X72876Y-33077D01*
X72875Y-33073D01*
X72875Y-33070D01*
X72875Y-33068D01*
X72875Y-33067D01*
X72875Y-33067D01*
X72876Y-33063D01*
X72879Y-33056D01*
X72883Y-33044D01*
X72888Y-33029D01*
X72894Y-33011D01*
X72902Y-32989D01*
X72910Y-32965D01*
X72920Y-32938D01*
X72930Y-32909D01*
X72941Y-32878D01*
X72952Y-32846D01*
X72964Y-32812D01*
X72974Y-32782D01*
X72986Y-32747D01*
X72998Y-32714D01*
X73009Y-32681D01*
X73020Y-32651D01*
X73030Y-32622D01*
X73039Y-32596D01*
X73047Y-32572D01*
X73054Y-32552D01*
X73060Y-32534D01*
X73065Y-32520D01*
X73068Y-32509D01*
X73070Y-32503D01*
X73071Y-32500D01*
X73071Y-32498D01*
X73071Y-32496D01*
X73070Y-32494D01*
X73069Y-32493D01*
X73067Y-32491D01*
X73064Y-32490D01*
X73059Y-32489D01*
X73053Y-32489D01*
X73044Y-32488D01*
X73033Y-32488D01*
X73020Y-32487D01*
X73003Y-32487D01*
X72984Y-32487D01*
X72960Y-32487D01*
X72933Y-32487D01*
X72902Y-32487D01*
X72867Y-32487D01*
X72848Y-32487D01*
X72635Y-32487D01*
X72490Y-32899D01*
X72475Y-32942D01*
X72461Y-32984D01*
X72447Y-33024D01*
X72433Y-33062D01*
X72420Y-33099D01*
X72408Y-33133D01*
X72397Y-33166D01*
X72387Y-33195D01*
X72377Y-33222D01*
X72369Y-33246D01*
X72362Y-33267D01*
X72355Y-33284D01*
X72351Y-33298D01*
X72347Y-33308D01*
X72345Y-33314D01*
X72345Y-33315D01*
X72345Y-33316D01*
X72348Y-33316D01*
X72353Y-33317D01*
X72360Y-33317D01*
X72370Y-33317D01*
X72384Y-33318D01*
X72400Y-33318D01*
X72420Y-33318D01*
X72444Y-33318D01*
X72472Y-33318D01*
X72505Y-33318D01*
X72511Y-33318D01*
X72678Y-33318D01*
X72681Y-33325D01*
X72682Y-33329D01*
X72685Y-33337D01*
X72689Y-33348D01*
X72695Y-33362D01*
X72701Y-33379D01*
X72707Y-33398D01*
X72715Y-33417D01*
X72722Y-33438D01*
X72730Y-33459D01*
X72738Y-33480D01*
X72745Y-33501D01*
X72752Y-33521D01*
X72759Y-33539D01*
X72765Y-33555D01*
X72770Y-33568D01*
X72774Y-33579D01*
X72776Y-33586D01*
X72778Y-33589D01*
X72778Y-33589D01*
X72778Y-33590D01*
X72777Y-33590D01*
X72776Y-33591D01*
X72774Y-33591D01*
X72771Y-33591D01*
X72767Y-33592D01*
X72761Y-33592D01*
X72754Y-33592D01*
X72744Y-33593D01*
X72733Y-33593D01*
X72719Y-33593D01*
X72703Y-33593D01*
X72685Y-33593D01*
X72663Y-33593D01*
X72639Y-33593D01*
X72611Y-33593D01*
X72580Y-33593D01*
X72545Y-33593D01*
X72506Y-33593D01*
X72464Y-33594D01*
X72417Y-33594D01*
X72366Y-33594D01*
X72324Y-33594D01*
X72278Y-33594D01*
X72233Y-33593D01*
X72190Y-33593D01*
X72148Y-33593D01*
X72109Y-33593D01*
X72071Y-33593D01*
X72036Y-33593D01*
X72004Y-33593D01*
X71975Y-33593D01*
X71948Y-33593D01*
X71925Y-33593D01*
X71906Y-33592D01*
X71890Y-33592D01*
X71879Y-33592D01*
X71872Y-33592D01*
X71869Y-33592D01*
X71869Y-33592D01*
X71870Y-33589D01*
X71872Y-33583D01*
X71876Y-33572D01*
X71881Y-33557D01*
X71887Y-33539D01*
X71895Y-33517D01*
X71904Y-33492D01*
X71913Y-33464D01*
X71924Y-33433D01*
X71936Y-33399D01*
X71949Y-33363D01*
X71962Y-33324D01*
X71976Y-33284D01*
X71991Y-33241D01*
X72007Y-33197D01*
X72023Y-33151D01*
X72039Y-33104D01*
X72049Y-33075D01*
X72230Y-32560D01*
X72162Y-32387D01*
X72152Y-32359D01*
X72141Y-32333D01*
X72132Y-32309D01*
X72123Y-32286D01*
X72115Y-32266D01*
X72109Y-32249D01*
X72103Y-32234D01*
X72099Y-32223D01*
X72096Y-32216D01*
X72095Y-32212D01*
X72095Y-32212D01*
X72097Y-32212D01*
X72104Y-32212D01*
X72115Y-32212D01*
X72131Y-32212D01*
X72150Y-32212D01*
X72173Y-32212D01*
X72200Y-32212D01*
X72230Y-32212D01*
X72263Y-32212D01*
X72299Y-32211D01*
X72338Y-32211D01*
X72380Y-32211D01*
X72424Y-32212D01*
X72470Y-32212D01*
X72518Y-32212D01*
X72568Y-32212D01*
X72619Y-32212D01*
X72672Y-32212D01*
X72710Y-32212D01*
X73326Y-32212D01*
X73346Y-32217D01*
X73379Y-32227D01*
X73408Y-32240D01*
X73433Y-32255D01*
X73455Y-32272D01*
X73472Y-32292D01*
X73486Y-32314D01*
X73495Y-32337D01*
X73497Y-32345D01*
X73500Y-32363D01*
X73501Y-32383D01*
X73501Y-32383D01*
X73501Y-32383D01*
G37*
G36*
X73760Y-32290D02*
X73758Y-32308D01*
X73751Y-32325D01*
X73743Y-32337D01*
X73743Y-32282D01*
X73739Y-32267D01*
X73732Y-32252D01*
X73723Y-32242D01*
X73710Y-32233D01*
X73697Y-32228D01*
X73682Y-32226D01*
X73678Y-32225D01*
X73660Y-32228D01*
X73645Y-32233D01*
X73632Y-32243D01*
X73622Y-32255D01*
X73615Y-32270D01*
X73613Y-32286D01*
X73613Y-32287D01*
X73615Y-32305D01*
X73621Y-32320D01*
X73630Y-32333D01*
X73642Y-32343D01*
X73656Y-32350D01*
X73672Y-32353D01*
X73688Y-32352D01*
X73701Y-32349D01*
X73716Y-32341D01*
X73728Y-32329D01*
X73738Y-32314D01*
X73742Y-32298D01*
X73743Y-32282D01*
X73743Y-32337D01*
X73741Y-32340D01*
X73728Y-32352D01*
X73711Y-32360D01*
X73695Y-32365D01*
X73685Y-32367D01*
X73677Y-32368D01*
X73670Y-32367D01*
X73660Y-32365D01*
X73658Y-32365D01*
X73639Y-32358D01*
X73623Y-32348D01*
X73610Y-32334D01*
X73603Y-32323D01*
X73598Y-32310D01*
X73596Y-32295D01*
X73596Y-32280D01*
X73599Y-32265D01*
X73600Y-32261D01*
X73608Y-32247D01*
X73619Y-32234D01*
X73633Y-32223D01*
X73641Y-32219D01*
X73648Y-32216D01*
X73654Y-32214D01*
X73661Y-32213D01*
X73671Y-32212D01*
X73678Y-32212D01*
X73689Y-32212D01*
X73698Y-32213D01*
X73704Y-32214D01*
X73711Y-32217D01*
X73715Y-32219D01*
X73732Y-32229D01*
X73745Y-32242D01*
X73754Y-32258D01*
X73759Y-32276D01*
X73760Y-32290D01*
X73760Y-32290D01*
X73760Y-32290D01*
G37*
G36*
X73719Y-32334D02*
X73717Y-32334D01*
X73712Y-32335D01*
X73710Y-32335D01*
X73706Y-32334D01*
X73702Y-32333D01*
X73699Y-32331D01*
X73695Y-32325D01*
X73689Y-32317D01*
X73689Y-32316D01*
X73682Y-32307D01*
X73678Y-32301D01*
X73674Y-32298D01*
X73671Y-32297D01*
X73669Y-32297D01*
X73662Y-32297D01*
X73662Y-32316D01*
X73662Y-32335D01*
X73654Y-32335D01*
X73646Y-32335D01*
X73646Y-32288D01*
X73646Y-32242D01*
X73666Y-32242D01*
X73684Y-32243D01*
X73697Y-32245D01*
X73707Y-32248D01*
X73713Y-32254D01*
X73716Y-32262D01*
X73717Y-32270D01*
X73716Y-32278D01*
X73713Y-32284D01*
X73710Y-32287D01*
X73704Y-32292D01*
X73700Y-32294D01*
X73700Y-32273D01*
X73700Y-32267D01*
X73696Y-32261D01*
X73691Y-32258D01*
X73685Y-32257D01*
X73677Y-32256D01*
X73662Y-32256D01*
X73662Y-32269D01*
X73662Y-32282D01*
X73676Y-32282D01*
X73687Y-32282D01*
X73694Y-32279D01*
X73695Y-32279D01*
X73700Y-32273D01*
X73700Y-32294D01*
X73699Y-32294D01*
X73698Y-32294D01*
X73696Y-32295D01*
X73696Y-32296D01*
X73697Y-32300D01*
X73701Y-32306D01*
X73706Y-32313D01*
X73712Y-32322D01*
X73716Y-32328D01*
X73719Y-32333D01*
X73719Y-32334D01*
X73719Y-32334D01*
X73719Y-32334D01*
G37*
G54D21*
X57346Y-38564D02*
X57331Y-38579D01*
X57285Y-38594D01*
X57255Y-38594D01*
X57209Y-38579D01*
X57179Y-38549D01*
X57163Y-38518D01*
X57148Y-38457D01*
X57148Y-38411D01*
X57163Y-38350D01*
X57179Y-38320D01*
X57209Y-38290D01*
X57255Y-38274D01*
X57285Y-38274D01*
X57331Y-38290D01*
X57346Y-38305D01*
X57651Y-38594D02*
X57468Y-38594D01*
X57560Y-38594D02*
X57560Y-38274D01*
X57529Y-38320D01*
X57499Y-38350D01*
X57468Y-38366D01*
X57996Y-43514D02*
X57981Y-43529D01*
X57935Y-43544D01*
X57905Y-43544D01*
X57859Y-43529D01*
X57829Y-43499D01*
X57813Y-43468D01*
X57798Y-43407D01*
X57798Y-43361D01*
X57813Y-43300D01*
X57829Y-43270D01*
X57859Y-43240D01*
X57905Y-43224D01*
X57935Y-43224D01*
X57981Y-43240D01*
X57996Y-43255D01*
X58118Y-43255D02*
X58133Y-43240D01*
X58164Y-43224D01*
X58240Y-43224D01*
X58270Y-43240D01*
X58286Y-43255D01*
X58301Y-43285D01*
X58301Y-43316D01*
X58286Y-43361D01*
X58103Y-43544D01*
X58301Y-43544D01*
X48244Y-36686D02*
X47924Y-36686D01*
X47924Y-36564D01*
X47940Y-36533D01*
X47955Y-36518D01*
X47985Y-36503D01*
X48031Y-36503D01*
X48061Y-36518D01*
X48077Y-36533D01*
X48092Y-36564D01*
X48092Y-36686D01*
X48244Y-36198D02*
X48244Y-36381D01*
X48244Y-36289D02*
X47924Y-36289D01*
X47970Y-36320D01*
X48000Y-36350D01*
X48016Y-36381D01*
X48244Y-38886D02*
X47924Y-38886D01*
X47924Y-38764D01*
X47940Y-38733D01*
X47955Y-38718D01*
X47985Y-38703D01*
X48031Y-38703D01*
X48061Y-38718D01*
X48077Y-38733D01*
X48092Y-38764D01*
X48092Y-38886D01*
X47955Y-38581D02*
X47940Y-38566D01*
X47924Y-38535D01*
X47924Y-38459D01*
X47940Y-38429D01*
X47955Y-38413D01*
X47985Y-38398D01*
X48016Y-38398D01*
X48061Y-38413D01*
X48244Y-38596D01*
X48244Y-38398D01*
X48244Y-41086D02*
X47924Y-41086D01*
X47924Y-40964D01*
X47940Y-40933D01*
X47955Y-40918D01*
X47985Y-40903D01*
X48031Y-40903D01*
X48061Y-40918D01*
X48077Y-40933D01*
X48092Y-40964D01*
X48092Y-41086D01*
X47924Y-40796D02*
X47924Y-40598D01*
X48046Y-40705D01*
X48046Y-40659D01*
X48061Y-40629D01*
X48077Y-40613D01*
X48107Y-40598D01*
X48183Y-40598D01*
X48214Y-40613D01*
X48229Y-40629D01*
X48244Y-40659D01*
X48244Y-40750D01*
X48229Y-40781D01*
X48214Y-40796D01*
X48244Y-43286D02*
X47924Y-43286D01*
X47924Y-43164D01*
X47940Y-43133D01*
X47955Y-43118D01*
X47985Y-43103D01*
X48031Y-43103D01*
X48061Y-43118D01*
X48077Y-43133D01*
X48092Y-43164D01*
X48092Y-43286D01*
X48031Y-42829D02*
X48244Y-42829D01*
X47909Y-42905D02*
X48138Y-42981D01*
X48138Y-42783D01*
X66144Y-38036D02*
X65824Y-38036D01*
X65824Y-37914D01*
X65840Y-37883D01*
X65855Y-37868D01*
X65885Y-37853D01*
X65931Y-37853D01*
X65961Y-37868D01*
X65977Y-37883D01*
X65992Y-37914D01*
X65992Y-38036D01*
X65824Y-37563D02*
X65824Y-37716D01*
X65977Y-37731D01*
X65961Y-37716D01*
X65946Y-37685D01*
X65946Y-37609D01*
X65961Y-37579D01*
X65977Y-37563D01*
X66007Y-37548D01*
X66083Y-37548D01*
X66114Y-37563D01*
X66129Y-37579D01*
X66144Y-37609D01*
X66144Y-37685D01*
X66129Y-37716D01*
X66114Y-37731D01*
X66144Y-44986D02*
X65824Y-44986D01*
X65824Y-44864D01*
X65840Y-44833D01*
X65855Y-44818D01*
X65885Y-44803D01*
X65931Y-44803D01*
X65961Y-44818D01*
X65977Y-44833D01*
X65992Y-44864D01*
X65992Y-44986D01*
X65824Y-44529D02*
X65824Y-44589D01*
X65840Y-44620D01*
X65855Y-44635D01*
X65900Y-44666D01*
X65961Y-44681D01*
X66083Y-44681D01*
X66114Y-44666D01*
X66129Y-44650D01*
X66144Y-44620D01*
X66144Y-44559D01*
X66129Y-44529D01*
X66114Y-44513D01*
X66083Y-44498D01*
X66007Y-44498D01*
X65977Y-44513D01*
X65961Y-44529D01*
X65946Y-44559D01*
X65946Y-44620D01*
X65961Y-44650D01*
X65977Y-44666D01*
X66007Y-44681D01*
X57346Y-44944D02*
X57240Y-44792D01*
X57163Y-44944D02*
X57163Y-44624D01*
X57285Y-44624D01*
X57316Y-44640D01*
X57331Y-44655D01*
X57346Y-44685D01*
X57346Y-44731D01*
X57331Y-44761D01*
X57316Y-44777D01*
X57285Y-44792D01*
X57163Y-44792D01*
X57651Y-44944D02*
X57468Y-44944D01*
X57560Y-44944D02*
X57560Y-44624D01*
X57529Y-44670D01*
X57499Y-44700D01*
X57468Y-44716D01*
X57346Y-45744D02*
X57240Y-45592D01*
X57163Y-45744D02*
X57163Y-45424D01*
X57285Y-45424D01*
X57316Y-45440D01*
X57331Y-45455D01*
X57346Y-45485D01*
X57346Y-45531D01*
X57331Y-45561D01*
X57316Y-45577D01*
X57285Y-45592D01*
X57163Y-45592D01*
X57468Y-45455D02*
X57483Y-45440D01*
X57514Y-45424D01*
X57590Y-45424D01*
X57620Y-45440D01*
X57636Y-45455D01*
X57651Y-45485D01*
X57651Y-45516D01*
X57636Y-45561D01*
X57453Y-45744D01*
X57651Y-45744D01*
X59656Y-33874D02*
X59656Y-34133D01*
X59671Y-34164D01*
X59686Y-34179D01*
X59717Y-34194D01*
X59778Y-34194D01*
X59808Y-34179D01*
X59823Y-34164D01*
X59839Y-34133D01*
X59839Y-33874D01*
X59976Y-33905D02*
X59991Y-33890D01*
X60021Y-33874D01*
X60098Y-33874D01*
X60128Y-33890D01*
X60143Y-33905D01*
X60159Y-33935D01*
X60159Y-33966D01*
X60143Y-34011D01*
X59960Y-34194D01*
X60159Y-34194D01*
X59656Y-43774D02*
X59656Y-44033D01*
X59671Y-44064D01*
X59686Y-44079D01*
X59717Y-44094D01*
X59778Y-44094D01*
X59808Y-44079D01*
X59823Y-44064D01*
X59839Y-44033D01*
X59839Y-43774D01*
X59960Y-43774D02*
X60159Y-43774D01*
X60052Y-43896D01*
X60098Y-43896D01*
X60128Y-43911D01*
X60143Y-43927D01*
X60159Y-43957D01*
X60159Y-44033D01*
X60143Y-44064D01*
X60128Y-44079D01*
X60098Y-44094D01*
X60006Y-44094D01*
X59976Y-44079D01*
X59960Y-44064D01*
X67894Y-32053D02*
X67742Y-32159D01*
X67894Y-32236D02*
X67574Y-32236D01*
X67574Y-32114D01*
X67590Y-32083D01*
X67605Y-32068D01*
X67635Y-32053D01*
X67681Y-32053D01*
X67711Y-32068D01*
X67727Y-32083D01*
X67742Y-32114D01*
X67742Y-32236D01*
X67574Y-31946D02*
X67574Y-31748D01*
X67696Y-31855D01*
X67696Y-31809D01*
X67711Y-31779D01*
X67727Y-31763D01*
X67757Y-31748D01*
X67833Y-31748D01*
X67864Y-31763D01*
X67879Y-31779D01*
X67894Y-31809D01*
X67894Y-31900D01*
X67879Y-31931D01*
X67864Y-31946D01*
X48864Y-33103D02*
X48879Y-33118D01*
X48894Y-33164D01*
X48894Y-33194D01*
X48879Y-33240D01*
X48849Y-33270D01*
X48818Y-33286D01*
X48757Y-33301D01*
X48711Y-33301D01*
X48650Y-33286D01*
X48620Y-33270D01*
X48590Y-33240D01*
X48574Y-33194D01*
X48574Y-33164D01*
X48590Y-33118D01*
X48605Y-33103D01*
X48574Y-32996D02*
X48574Y-32798D01*
X48696Y-32905D01*
X48696Y-32859D01*
X48711Y-32829D01*
X48727Y-32813D01*
X48757Y-32798D01*
X48833Y-32798D01*
X48864Y-32813D01*
X48879Y-32829D01*
X48894Y-32859D01*
X48894Y-32950D01*
X48879Y-32981D01*
X48864Y-32996D01*
X47896Y-31114D02*
X47881Y-31129D01*
X47835Y-31144D01*
X47805Y-31144D01*
X47759Y-31129D01*
X47729Y-31099D01*
X47713Y-31068D01*
X47698Y-31007D01*
X47698Y-30961D01*
X47713Y-30900D01*
X47729Y-30870D01*
X47759Y-30840D01*
X47805Y-30824D01*
X47835Y-30824D01*
X47881Y-30840D01*
X47896Y-30855D01*
X48170Y-30931D02*
X48170Y-31144D01*
X48094Y-30809D02*
X48018Y-31038D01*
X48216Y-31038D01*
X50494Y-33103D02*
X50342Y-33209D01*
X50494Y-33286D02*
X50174Y-33286D01*
X50174Y-33164D01*
X50190Y-33133D01*
X50205Y-33118D01*
X50235Y-33103D01*
X50281Y-33103D01*
X50311Y-33118D01*
X50327Y-33133D01*
X50342Y-33164D01*
X50342Y-33286D01*
X50281Y-32829D02*
X50494Y-32829D01*
X50159Y-32905D02*
X50388Y-32981D01*
X50388Y-32783D01*
X47846Y-34694D02*
X47740Y-34542D01*
X47663Y-34694D02*
X47663Y-34374D01*
X47785Y-34374D01*
X47816Y-34390D01*
X47831Y-34405D01*
X47846Y-34435D01*
X47846Y-34481D01*
X47831Y-34511D01*
X47816Y-34527D01*
X47785Y-34542D01*
X47663Y-34542D01*
X48136Y-34374D02*
X47983Y-34374D01*
X47968Y-34527D01*
X47983Y-34511D01*
X48014Y-34496D01*
X48090Y-34496D01*
X48120Y-34511D01*
X48136Y-34527D01*
X48151Y-34557D01*
X48151Y-34633D01*
X48136Y-34664D01*
X48120Y-34679D01*
X48090Y-34694D01*
X48014Y-34694D01*
X47983Y-34679D01*
X47968Y-34664D01*
X48396Y-31694D02*
X48290Y-31542D01*
X48213Y-31694D02*
X48213Y-31374D01*
X48335Y-31374D01*
X48366Y-31390D01*
X48381Y-31405D01*
X48396Y-31435D01*
X48396Y-31481D01*
X48381Y-31511D01*
X48366Y-31527D01*
X48335Y-31542D01*
X48213Y-31542D01*
X48670Y-31374D02*
X48610Y-31374D01*
X48579Y-31390D01*
X48564Y-31405D01*
X48533Y-31450D01*
X48518Y-31511D01*
X48518Y-31633D01*
X48533Y-31664D01*
X48549Y-31679D01*
X48579Y-31694D01*
X48640Y-31694D01*
X48670Y-31679D01*
X48686Y-31664D01*
X48701Y-31633D01*
X48701Y-31557D01*
X48686Y-31527D01*
X48670Y-31511D01*
X48640Y-31496D01*
X48579Y-31496D01*
X48549Y-31511D01*
X48533Y-31527D01*
X48518Y-31557D01*
X46746Y-34644D02*
X46640Y-34492D01*
X46563Y-34644D02*
X46563Y-34324D01*
X46685Y-34324D01*
X46716Y-34340D01*
X46731Y-34355D01*
X46746Y-34385D01*
X46746Y-34431D01*
X46731Y-34461D01*
X46716Y-34477D01*
X46685Y-34492D01*
X46563Y-34492D01*
X46853Y-34324D02*
X47066Y-34324D01*
X46929Y-34644D01*
X46746Y-35394D02*
X46640Y-35242D01*
X46563Y-35394D02*
X46563Y-35074D01*
X46685Y-35074D01*
X46716Y-35090D01*
X46731Y-35105D01*
X46746Y-35135D01*
X46746Y-35181D01*
X46731Y-35211D01*
X46716Y-35227D01*
X46685Y-35242D01*
X46563Y-35242D01*
X46929Y-35211D02*
X46899Y-35196D01*
X46883Y-35181D01*
X46868Y-35150D01*
X46868Y-35135D01*
X46883Y-35105D01*
X46899Y-35090D01*
X46929Y-35074D01*
X46990Y-35074D01*
X47020Y-35090D01*
X47036Y-35105D01*
X47051Y-35135D01*
X47051Y-35150D01*
X47036Y-35181D01*
X47020Y-35196D01*
X46990Y-35211D01*
X46929Y-35211D01*
X46899Y-35227D01*
X46883Y-35242D01*
X46868Y-35272D01*
X46868Y-35333D01*
X46883Y-35364D01*
X46899Y-35379D01*
X46929Y-35394D01*
X46990Y-35394D01*
X47020Y-35379D01*
X47036Y-35364D01*
X47051Y-35333D01*
X47051Y-35272D01*
X47036Y-35242D01*
X47020Y-35227D01*
X46990Y-35211D01*
X45406Y-31524D02*
X45406Y-31783D01*
X45421Y-31814D01*
X45436Y-31829D01*
X45467Y-31844D01*
X45528Y-31844D01*
X45558Y-31829D01*
X45573Y-31814D01*
X45589Y-31783D01*
X45589Y-31524D01*
X45878Y-31631D02*
X45878Y-31844D01*
X45802Y-31509D02*
X45726Y-31738D01*
X45924Y-31738D01*
M02*
