G04 (created by PCBNEW (2013-09-06 BZR 4312)-stable) date T 02 sept  2014 10:34:50 EEST*
%MOIN*%
G04 Gerber Fmt 3.4, Leading zero omitted, Abs format*
%FSLAX34Y34*%
G01*
G70*
G90*
G04 APERTURE LIST*
%ADD10C,0.000787*%
%ADD11C,0.180000*%
%ADD12R,0.070866X0.070866*%
%ADD13C,0.070866*%
%ADD14O,0.118700X0.059300*%
%ADD15R,0.060000X0.060000*%
%ADD16C,0.060000*%
%ADD17C,0.035000*%
%ADD18C,0.024000*%
%ADD19C,0.012000*%
%ADD20C,0.010000*%
G04 APERTURE END LIST*
G54D10*
G54D11*
X44250Y-30750D03*
X70250Y-29500D03*
X70250Y-48500D03*
X44250Y-47250D03*
G54D12*
X68250Y-29000D03*
G54D13*
X68250Y-30000D03*
X67250Y-29000D03*
X67250Y-30000D03*
X66250Y-29000D03*
X66250Y-30000D03*
X65250Y-29000D03*
X65250Y-30000D03*
X64250Y-29000D03*
X64250Y-30000D03*
X63250Y-29000D03*
X63250Y-30000D03*
X62250Y-29000D03*
X62250Y-30000D03*
X61250Y-29000D03*
X61250Y-30000D03*
X60250Y-29000D03*
X60250Y-30000D03*
X59250Y-29000D03*
X59250Y-30000D03*
X58250Y-29000D03*
X58250Y-30000D03*
X57250Y-29000D03*
X57250Y-30000D03*
X56250Y-29000D03*
X56250Y-30000D03*
X55250Y-29000D03*
X55250Y-30000D03*
X54250Y-29000D03*
X54250Y-30000D03*
X53250Y-29000D03*
X53250Y-30000D03*
X52250Y-29000D03*
X52250Y-30000D03*
X51250Y-29000D03*
X51250Y-30000D03*
X50250Y-29000D03*
X50250Y-30000D03*
X49250Y-29000D03*
X49250Y-30000D03*
X48250Y-29000D03*
X48250Y-30000D03*
X47250Y-29000D03*
X47250Y-30000D03*
X46250Y-29000D03*
X46250Y-30000D03*
G54D12*
X68250Y-48000D03*
G54D13*
X68250Y-49000D03*
X67250Y-48000D03*
X67250Y-49000D03*
X66250Y-48000D03*
X66250Y-49000D03*
X65250Y-48000D03*
X65250Y-49000D03*
X64250Y-48000D03*
X64250Y-49000D03*
X63250Y-48000D03*
X63250Y-49000D03*
X62250Y-48000D03*
X62250Y-49000D03*
X61250Y-48000D03*
X61250Y-49000D03*
X60250Y-48000D03*
X60250Y-49000D03*
X59250Y-48000D03*
X59250Y-49000D03*
X58250Y-48000D03*
X58250Y-49000D03*
X57250Y-48000D03*
X57250Y-49000D03*
X56250Y-48000D03*
X56250Y-49000D03*
X55250Y-48000D03*
X55250Y-49000D03*
X54250Y-48000D03*
X54250Y-49000D03*
X53250Y-48000D03*
X53250Y-49000D03*
X52250Y-48000D03*
X52250Y-49000D03*
X51250Y-48000D03*
X51250Y-49000D03*
X50250Y-48000D03*
X50250Y-49000D03*
X49250Y-48000D03*
X49250Y-49000D03*
X48250Y-48000D03*
X48250Y-49000D03*
X47250Y-48000D03*
X47250Y-49000D03*
X46250Y-48000D03*
X46250Y-49000D03*
X70250Y-31500D03*
X70250Y-32500D03*
X69250Y-31500D03*
X69250Y-32500D03*
G54D14*
X49600Y-36200D03*
X49600Y-35200D03*
X49600Y-38400D03*
X49600Y-37400D03*
X49600Y-40600D03*
X49600Y-39600D03*
X49600Y-42800D03*
X49600Y-41800D03*
G54D15*
X64000Y-33500D03*
G54D16*
X65000Y-33500D03*
X64000Y-34500D03*
X65000Y-34500D03*
X64000Y-35500D03*
X65000Y-35500D03*
X64000Y-36500D03*
X65000Y-36500D03*
X64000Y-37500D03*
X65000Y-37500D03*
G54D15*
X64000Y-40500D03*
G54D16*
X65000Y-40500D03*
X64000Y-41500D03*
X65000Y-41500D03*
X64000Y-42500D03*
X65000Y-42500D03*
X64000Y-43500D03*
X65000Y-43500D03*
X64000Y-44500D03*
X65000Y-44500D03*
G54D17*
X51850Y-32000D03*
X58650Y-43550D03*
X58600Y-38950D03*
X66500Y-33500D03*
X49600Y-31800D03*
X63150Y-44000D03*
X61400Y-39300D03*
X62150Y-39300D03*
X61150Y-34500D03*
X57650Y-44050D03*
X57100Y-39000D03*
X46650Y-32800D03*
X44700Y-34250D03*
X46500Y-31700D03*
X46750Y-30450D03*
X47250Y-30900D03*
X61500Y-44500D03*
X60150Y-44450D03*
X64000Y-39050D03*
X62200Y-34850D03*
X63000Y-33900D03*
G54D18*
X66500Y-32500D02*
X66000Y-32000D01*
X66000Y-32000D02*
X52200Y-32000D01*
X66500Y-32500D02*
X66500Y-33500D01*
X51850Y-32000D02*
X52200Y-32000D01*
X59500Y-38050D02*
X59500Y-42700D01*
X59500Y-42700D02*
X58650Y-43550D01*
X66500Y-33450D02*
X65650Y-32600D01*
X59500Y-38050D02*
X58600Y-38950D01*
X59500Y-33900D02*
X59500Y-38050D01*
X60800Y-32600D02*
X59500Y-33900D01*
X65650Y-32600D02*
X60800Y-32600D01*
X66500Y-33500D02*
X66500Y-33450D01*
X66500Y-33450D02*
X66500Y-39000D01*
X66500Y-39000D02*
X65000Y-40500D01*
X66500Y-33500D02*
X65000Y-33500D01*
X49600Y-31800D02*
X49600Y-31200D01*
X49950Y-30850D02*
X50300Y-30850D01*
X70250Y-31350D02*
X70250Y-31500D01*
X69750Y-30850D02*
X50300Y-30850D01*
X70250Y-31350D02*
X69750Y-30850D01*
X49600Y-31200D02*
X49950Y-30850D01*
X49600Y-31800D02*
X49600Y-31750D01*
X70250Y-32500D02*
X70250Y-31500D01*
X49600Y-36200D02*
X49900Y-36200D01*
X69150Y-31500D02*
X69000Y-31350D01*
X69000Y-31350D02*
X52700Y-31350D01*
X69150Y-31500D02*
X69250Y-31500D01*
X51650Y-31350D02*
X52700Y-31350D01*
X50850Y-32150D02*
X51650Y-31350D01*
X50850Y-35250D02*
X50850Y-32150D01*
X49900Y-36200D02*
X50850Y-35250D01*
G54D19*
X65000Y-44500D02*
X64500Y-44000D01*
X64500Y-44000D02*
X63150Y-44000D01*
X62150Y-39300D02*
X61400Y-39300D01*
X59750Y-29500D02*
X47000Y-29500D01*
X47000Y-29500D02*
X46750Y-29750D01*
X46750Y-29750D02*
X46750Y-30450D01*
X60250Y-29000D02*
X59750Y-29500D01*
X60250Y-30050D02*
X59750Y-30550D01*
X59750Y-30550D02*
X47700Y-30550D01*
X60250Y-30050D02*
X60250Y-30000D01*
X47600Y-30550D02*
X47700Y-30550D01*
X47250Y-30900D02*
X47600Y-30550D01*
X61500Y-44500D02*
X61450Y-44450D01*
X61450Y-44450D02*
X60150Y-44450D01*
X64000Y-39050D02*
X64000Y-40500D01*
X64500Y-36000D02*
X65000Y-35500D01*
X63350Y-36000D02*
X64500Y-36000D01*
X62200Y-34850D02*
X63350Y-36000D01*
X64500Y-34000D02*
X65000Y-34500D01*
X63100Y-34000D02*
X64500Y-34000D01*
G54D20*
X63000Y-33900D02*
X63100Y-34000D01*
G54D10*
G36*
X47326Y-30005D02*
X47255Y-30076D01*
X47250Y-30070D01*
X47244Y-30076D01*
X47173Y-30005D01*
X47179Y-30000D01*
X47173Y-29994D01*
X47244Y-29923D01*
X47250Y-29929D01*
X47255Y-29923D01*
X47326Y-29994D01*
X47320Y-30000D01*
X47326Y-30005D01*
X47326Y-30005D01*
G37*
G54D20*
X47326Y-30005D02*
X47255Y-30076D01*
X47250Y-30070D01*
X47244Y-30076D01*
X47173Y-30005D01*
X47179Y-30000D01*
X47173Y-29994D01*
X47244Y-29923D01*
X47250Y-29929D01*
X47255Y-29923D01*
X47326Y-29994D01*
X47320Y-30000D01*
X47326Y-30005D01*
G54D10*
G36*
X76850Y-49850D02*
X71400Y-49850D01*
X71400Y-48724D01*
X71400Y-29724D01*
X71399Y-29267D01*
X71227Y-28851D01*
X71069Y-28751D01*
X70998Y-28821D01*
X70998Y-28680D01*
X70898Y-28522D01*
X70474Y-28349D01*
X70017Y-28350D01*
X69601Y-28522D01*
X69501Y-28680D01*
X70250Y-29429D01*
X70998Y-28680D01*
X70998Y-28821D01*
X70320Y-29500D01*
X71069Y-30248D01*
X71227Y-30148D01*
X71400Y-29724D01*
X71400Y-48724D01*
X71399Y-48267D01*
X71227Y-47851D01*
X71069Y-47751D01*
X70998Y-47821D01*
X70998Y-47680D01*
X70998Y-30319D01*
X70250Y-29570D01*
X70179Y-29641D01*
X70179Y-29500D01*
X69430Y-28751D01*
X69272Y-28851D01*
X69099Y-29275D01*
X69100Y-29732D01*
X69272Y-30148D01*
X69430Y-30248D01*
X70179Y-29500D01*
X70179Y-29641D01*
X69501Y-30319D01*
X69601Y-30477D01*
X70025Y-30650D01*
X70482Y-30649D01*
X70898Y-30477D01*
X70998Y-30319D01*
X70998Y-47680D01*
X70898Y-47522D01*
X70734Y-47455D01*
X70734Y-32404D01*
X70660Y-32226D01*
X70524Y-32089D01*
X70500Y-32079D01*
X70500Y-31920D01*
X70523Y-31910D01*
X70660Y-31774D01*
X70734Y-31596D01*
X70734Y-31404D01*
X70660Y-31226D01*
X70524Y-31089D01*
X70346Y-31015D01*
X70269Y-31015D01*
X69926Y-30673D01*
X69845Y-30619D01*
X69750Y-30600D01*
X68858Y-30600D01*
X68858Y-30094D01*
X68854Y-29987D01*
X68848Y-29854D01*
X68776Y-29679D01*
X68675Y-29645D01*
X68720Y-29600D01*
X68703Y-29583D01*
X68745Y-29566D01*
X68816Y-29495D01*
X68854Y-29404D01*
X68854Y-29304D01*
X68854Y-29112D01*
X68854Y-28887D01*
X68854Y-28695D01*
X68854Y-28595D01*
X68816Y-28504D01*
X68745Y-28433D01*
X68654Y-28395D01*
X68362Y-28395D01*
X68300Y-28458D01*
X68300Y-28950D01*
X68791Y-28950D01*
X68854Y-28887D01*
X68854Y-29112D01*
X68791Y-29050D01*
X68300Y-29050D01*
X68300Y-29057D01*
X68200Y-29057D01*
X68200Y-29050D01*
X68192Y-29050D01*
X68192Y-28950D01*
X68200Y-28950D01*
X68200Y-28458D01*
X68137Y-28395D01*
X67845Y-28395D01*
X67754Y-28433D01*
X67683Y-28504D01*
X67645Y-28595D01*
X67645Y-28695D01*
X67645Y-28710D01*
X67524Y-28589D01*
X67346Y-28515D01*
X67154Y-28515D01*
X66976Y-28589D01*
X66839Y-28725D01*
X66765Y-28903D01*
X66765Y-29095D01*
X66839Y-29273D01*
X66975Y-29410D01*
X67153Y-29484D01*
X67345Y-29484D01*
X67523Y-29410D01*
X67645Y-29289D01*
X67645Y-29304D01*
X67645Y-29404D01*
X67683Y-29495D01*
X67754Y-29566D01*
X67796Y-29583D01*
X67779Y-29600D01*
X67824Y-29645D01*
X67723Y-29679D01*
X67685Y-29784D01*
X67660Y-29726D01*
X67524Y-29589D01*
X67346Y-29515D01*
X67154Y-29515D01*
X66976Y-29589D01*
X66839Y-29725D01*
X66765Y-29903D01*
X66765Y-30095D01*
X66839Y-30273D01*
X66975Y-30410D01*
X67153Y-30484D01*
X67345Y-30484D01*
X67523Y-30410D01*
X67660Y-30274D01*
X67682Y-30221D01*
X67723Y-30320D01*
X67824Y-30354D01*
X68179Y-30000D01*
X68173Y-29994D01*
X68244Y-29923D01*
X68250Y-29929D01*
X68255Y-29923D01*
X68326Y-29994D01*
X68320Y-30000D01*
X68675Y-30354D01*
X68776Y-30320D01*
X68858Y-30094D01*
X68858Y-30600D01*
X68365Y-30600D01*
X68395Y-30598D01*
X68570Y-30526D01*
X68604Y-30425D01*
X68250Y-30070D01*
X68179Y-30141D01*
X67895Y-30425D01*
X67929Y-30526D01*
X68131Y-30600D01*
X66734Y-30600D01*
X66734Y-29904D01*
X66734Y-28904D01*
X66660Y-28726D01*
X66524Y-28589D01*
X66346Y-28515D01*
X66154Y-28515D01*
X65976Y-28589D01*
X65839Y-28725D01*
X65765Y-28903D01*
X65765Y-29095D01*
X65839Y-29273D01*
X65975Y-29410D01*
X66153Y-29484D01*
X66345Y-29484D01*
X66523Y-29410D01*
X66660Y-29274D01*
X66734Y-29096D01*
X66734Y-28904D01*
X66734Y-29904D01*
X66660Y-29726D01*
X66524Y-29589D01*
X66346Y-29515D01*
X66154Y-29515D01*
X65976Y-29589D01*
X65839Y-29725D01*
X65765Y-29903D01*
X65765Y-30095D01*
X65839Y-30273D01*
X65975Y-30410D01*
X66153Y-30484D01*
X66345Y-30484D01*
X66523Y-30410D01*
X66660Y-30274D01*
X66734Y-30096D01*
X66734Y-29904D01*
X66734Y-30600D01*
X65734Y-30600D01*
X65734Y-29904D01*
X65734Y-28904D01*
X65660Y-28726D01*
X65524Y-28589D01*
X65346Y-28515D01*
X65154Y-28515D01*
X64976Y-28589D01*
X64839Y-28725D01*
X64765Y-28903D01*
X64765Y-29095D01*
X64839Y-29273D01*
X64975Y-29410D01*
X65153Y-29484D01*
X65345Y-29484D01*
X65523Y-29410D01*
X65660Y-29274D01*
X65734Y-29096D01*
X65734Y-28904D01*
X65734Y-29904D01*
X65660Y-29726D01*
X65524Y-29589D01*
X65346Y-29515D01*
X65154Y-29515D01*
X64976Y-29589D01*
X64839Y-29725D01*
X64765Y-29903D01*
X64765Y-30095D01*
X64839Y-30273D01*
X64975Y-30410D01*
X65153Y-30484D01*
X65345Y-30484D01*
X65523Y-30410D01*
X65660Y-30274D01*
X65734Y-30096D01*
X65734Y-29904D01*
X65734Y-30600D01*
X64734Y-30600D01*
X64734Y-29904D01*
X64734Y-28904D01*
X64660Y-28726D01*
X64524Y-28589D01*
X64346Y-28515D01*
X64154Y-28515D01*
X63976Y-28589D01*
X63839Y-28725D01*
X63765Y-28903D01*
X63765Y-29095D01*
X63839Y-29273D01*
X63975Y-29410D01*
X64153Y-29484D01*
X64345Y-29484D01*
X64523Y-29410D01*
X64660Y-29274D01*
X64734Y-29096D01*
X64734Y-28904D01*
X64734Y-29904D01*
X64660Y-29726D01*
X64524Y-29589D01*
X64346Y-29515D01*
X64154Y-29515D01*
X63976Y-29589D01*
X63839Y-29725D01*
X63765Y-29903D01*
X63765Y-30095D01*
X63839Y-30273D01*
X63975Y-30410D01*
X64153Y-30484D01*
X64345Y-30484D01*
X64523Y-30410D01*
X64660Y-30274D01*
X64734Y-30096D01*
X64734Y-29904D01*
X64734Y-30600D01*
X63734Y-30600D01*
X63734Y-29904D01*
X63734Y-28904D01*
X63660Y-28726D01*
X63524Y-28589D01*
X63346Y-28515D01*
X63154Y-28515D01*
X62976Y-28589D01*
X62839Y-28725D01*
X62765Y-28903D01*
X62765Y-29095D01*
X62839Y-29273D01*
X62975Y-29410D01*
X63153Y-29484D01*
X63345Y-29484D01*
X63523Y-29410D01*
X63660Y-29274D01*
X63734Y-29096D01*
X63734Y-28904D01*
X63734Y-29904D01*
X63660Y-29726D01*
X63524Y-29589D01*
X63346Y-29515D01*
X63154Y-29515D01*
X62976Y-29589D01*
X62839Y-29725D01*
X62765Y-29903D01*
X62765Y-30095D01*
X62839Y-30273D01*
X62975Y-30410D01*
X63153Y-30484D01*
X63345Y-30484D01*
X63523Y-30410D01*
X63660Y-30274D01*
X63734Y-30096D01*
X63734Y-29904D01*
X63734Y-30600D01*
X62734Y-30600D01*
X62734Y-29904D01*
X62734Y-28904D01*
X62660Y-28726D01*
X62524Y-28589D01*
X62346Y-28515D01*
X62154Y-28515D01*
X61976Y-28589D01*
X61839Y-28725D01*
X61765Y-28903D01*
X61765Y-29095D01*
X61839Y-29273D01*
X61975Y-29410D01*
X62153Y-29484D01*
X62345Y-29484D01*
X62523Y-29410D01*
X62660Y-29274D01*
X62734Y-29096D01*
X62734Y-28904D01*
X62734Y-29904D01*
X62660Y-29726D01*
X62524Y-29589D01*
X62346Y-29515D01*
X62154Y-29515D01*
X61976Y-29589D01*
X61839Y-29725D01*
X61765Y-29903D01*
X61765Y-30095D01*
X61839Y-30273D01*
X61975Y-30410D01*
X62153Y-30484D01*
X62345Y-30484D01*
X62523Y-30410D01*
X62660Y-30274D01*
X62734Y-30096D01*
X62734Y-29904D01*
X62734Y-30600D01*
X61734Y-30600D01*
X61734Y-29904D01*
X61734Y-28904D01*
X61660Y-28726D01*
X61524Y-28589D01*
X61346Y-28515D01*
X61154Y-28515D01*
X60976Y-28589D01*
X60839Y-28725D01*
X60765Y-28903D01*
X60765Y-29095D01*
X60839Y-29273D01*
X60975Y-29410D01*
X61153Y-29484D01*
X61345Y-29484D01*
X61523Y-29410D01*
X61660Y-29274D01*
X61734Y-29096D01*
X61734Y-28904D01*
X61734Y-29904D01*
X61660Y-29726D01*
X61524Y-29589D01*
X61346Y-29515D01*
X61154Y-29515D01*
X60976Y-29589D01*
X60839Y-29725D01*
X60765Y-29903D01*
X60765Y-30095D01*
X60839Y-30273D01*
X60975Y-30410D01*
X61153Y-30484D01*
X61345Y-30484D01*
X61523Y-30410D01*
X61660Y-30274D01*
X61734Y-30096D01*
X61734Y-29904D01*
X61734Y-30600D01*
X59968Y-30600D01*
X60104Y-30464D01*
X60153Y-30484D01*
X60345Y-30484D01*
X60523Y-30410D01*
X60660Y-30274D01*
X60734Y-30096D01*
X60734Y-29904D01*
X60660Y-29726D01*
X60524Y-29589D01*
X60346Y-29515D01*
X60154Y-29515D01*
X59976Y-29589D01*
X59839Y-29725D01*
X59765Y-29903D01*
X59765Y-30095D01*
X59815Y-30216D01*
X59671Y-30360D01*
X59574Y-30360D01*
X59660Y-30274D01*
X59734Y-30096D01*
X59734Y-29904D01*
X59660Y-29726D01*
X59624Y-29690D01*
X59750Y-29690D01*
X59822Y-29675D01*
X59884Y-29634D01*
X60069Y-29449D01*
X60153Y-29484D01*
X60345Y-29484D01*
X60523Y-29410D01*
X60660Y-29274D01*
X60734Y-29096D01*
X60734Y-28904D01*
X60660Y-28726D01*
X60524Y-28589D01*
X60346Y-28515D01*
X60154Y-28515D01*
X59976Y-28589D01*
X59839Y-28725D01*
X59765Y-28903D01*
X59765Y-29095D01*
X59800Y-29180D01*
X59671Y-29310D01*
X59625Y-29310D01*
X59660Y-29274D01*
X59734Y-29096D01*
X59734Y-28904D01*
X59660Y-28726D01*
X59524Y-28589D01*
X59346Y-28515D01*
X59154Y-28515D01*
X58976Y-28589D01*
X58839Y-28725D01*
X58765Y-28903D01*
X58765Y-29095D01*
X58839Y-29273D01*
X58875Y-29310D01*
X58625Y-29310D01*
X58660Y-29274D01*
X58734Y-29096D01*
X58734Y-28904D01*
X58660Y-28726D01*
X58524Y-28589D01*
X58346Y-28515D01*
X58154Y-28515D01*
X57976Y-28589D01*
X57839Y-28725D01*
X57765Y-28903D01*
X57765Y-29095D01*
X57839Y-29273D01*
X57875Y-29310D01*
X57625Y-29310D01*
X57660Y-29274D01*
X57734Y-29096D01*
X57734Y-28904D01*
X57660Y-28726D01*
X57524Y-28589D01*
X57346Y-28515D01*
X57154Y-28515D01*
X56976Y-28589D01*
X56839Y-28725D01*
X56765Y-28903D01*
X56765Y-29095D01*
X56839Y-29273D01*
X56875Y-29310D01*
X56625Y-29310D01*
X56660Y-29274D01*
X56734Y-29096D01*
X56734Y-28904D01*
X56660Y-28726D01*
X56524Y-28589D01*
X56346Y-28515D01*
X56154Y-28515D01*
X55976Y-28589D01*
X55839Y-28725D01*
X55765Y-28903D01*
X55765Y-29095D01*
X55839Y-29273D01*
X55875Y-29310D01*
X55625Y-29310D01*
X55660Y-29274D01*
X55734Y-29096D01*
X55734Y-28904D01*
X55660Y-28726D01*
X55524Y-28589D01*
X55346Y-28515D01*
X55154Y-28515D01*
X54976Y-28589D01*
X54839Y-28725D01*
X54765Y-28903D01*
X54765Y-29095D01*
X54839Y-29273D01*
X54875Y-29310D01*
X54625Y-29310D01*
X54660Y-29274D01*
X54734Y-29096D01*
X54734Y-28904D01*
X54660Y-28726D01*
X54524Y-28589D01*
X54346Y-28515D01*
X54154Y-28515D01*
X53976Y-28589D01*
X53839Y-28725D01*
X53765Y-28903D01*
X53765Y-29095D01*
X53839Y-29273D01*
X53875Y-29310D01*
X53625Y-29310D01*
X53660Y-29274D01*
X53734Y-29096D01*
X53734Y-28904D01*
X53660Y-28726D01*
X53524Y-28589D01*
X53346Y-28515D01*
X53154Y-28515D01*
X52976Y-28589D01*
X52839Y-28725D01*
X52765Y-28903D01*
X52765Y-29095D01*
X52839Y-29273D01*
X52875Y-29310D01*
X52625Y-29310D01*
X52660Y-29274D01*
X52734Y-29096D01*
X52734Y-28904D01*
X52660Y-28726D01*
X52524Y-28589D01*
X52346Y-28515D01*
X52154Y-28515D01*
X51976Y-28589D01*
X51839Y-28725D01*
X51765Y-28903D01*
X51765Y-29095D01*
X51839Y-29273D01*
X51875Y-29310D01*
X51625Y-29310D01*
X51660Y-29274D01*
X51734Y-29096D01*
X51734Y-28904D01*
X51660Y-28726D01*
X51524Y-28589D01*
X51346Y-28515D01*
X51154Y-28515D01*
X50976Y-28589D01*
X50839Y-28725D01*
X50765Y-28903D01*
X50765Y-29095D01*
X50839Y-29273D01*
X50875Y-29310D01*
X50625Y-29310D01*
X50660Y-29274D01*
X50734Y-29096D01*
X50734Y-28904D01*
X50660Y-28726D01*
X50524Y-28589D01*
X50346Y-28515D01*
X50154Y-28515D01*
X49976Y-28589D01*
X49839Y-28725D01*
X49765Y-28903D01*
X49765Y-29095D01*
X49839Y-29273D01*
X49875Y-29310D01*
X49625Y-29310D01*
X49660Y-29274D01*
X49734Y-29096D01*
X49734Y-28904D01*
X49660Y-28726D01*
X49524Y-28589D01*
X49346Y-28515D01*
X49154Y-28515D01*
X48976Y-28589D01*
X48839Y-28725D01*
X48765Y-28903D01*
X48765Y-29095D01*
X48839Y-29273D01*
X48875Y-29310D01*
X48625Y-29310D01*
X48660Y-29274D01*
X48734Y-29096D01*
X48734Y-28904D01*
X48660Y-28726D01*
X48524Y-28589D01*
X48346Y-28515D01*
X48154Y-28515D01*
X47976Y-28589D01*
X47839Y-28725D01*
X47817Y-28778D01*
X47776Y-28679D01*
X47675Y-28645D01*
X47604Y-28716D01*
X47604Y-28574D01*
X47570Y-28473D01*
X47344Y-28391D01*
X47104Y-28401D01*
X46929Y-28473D01*
X46895Y-28574D01*
X47250Y-28929D01*
X47604Y-28574D01*
X47604Y-28716D01*
X47320Y-29000D01*
X47326Y-29005D01*
X47255Y-29076D01*
X47250Y-29070D01*
X47244Y-29076D01*
X47179Y-29011D01*
X47173Y-29005D01*
X47179Y-29000D01*
X46824Y-28645D01*
X46750Y-28670D01*
X46675Y-28645D01*
X46604Y-28716D01*
X46604Y-28574D01*
X46570Y-28473D01*
X46344Y-28391D01*
X46104Y-28401D01*
X45929Y-28473D01*
X45895Y-28574D01*
X46250Y-28929D01*
X46604Y-28574D01*
X46604Y-28716D01*
X46320Y-29000D01*
X46675Y-29354D01*
X46750Y-29329D01*
X46824Y-29354D01*
X46779Y-29399D01*
X46805Y-29425D01*
X46675Y-29555D01*
X46649Y-29529D01*
X46604Y-29574D01*
X46579Y-29500D01*
X46604Y-29425D01*
X46250Y-29070D01*
X46179Y-29141D01*
X46179Y-29000D01*
X45824Y-28645D01*
X45723Y-28679D01*
X45641Y-28905D01*
X45651Y-29145D01*
X45723Y-29320D01*
X45824Y-29354D01*
X46179Y-29000D01*
X46179Y-29141D01*
X45895Y-29425D01*
X45920Y-29500D01*
X45895Y-29574D01*
X46250Y-29929D01*
X46255Y-29923D01*
X46326Y-29994D01*
X46320Y-30000D01*
X46326Y-30005D01*
X46255Y-30076D01*
X46250Y-30070D01*
X46179Y-30141D01*
X46179Y-30000D01*
X45824Y-29645D01*
X45723Y-29679D01*
X45641Y-29905D01*
X45651Y-30145D01*
X45723Y-30320D01*
X45824Y-30354D01*
X46179Y-30000D01*
X46179Y-30141D01*
X45895Y-30425D01*
X45929Y-30526D01*
X46155Y-30608D01*
X46395Y-30598D01*
X46468Y-30568D01*
X46491Y-30622D01*
X46577Y-30708D01*
X46689Y-30754D01*
X46810Y-30755D01*
X46922Y-30708D01*
X47008Y-30622D01*
X47032Y-30564D01*
X47155Y-30608D01*
X47156Y-30608D01*
X47077Y-30641D01*
X46991Y-30727D01*
X46945Y-30839D01*
X46944Y-30960D01*
X46991Y-31072D01*
X47077Y-31158D01*
X47189Y-31204D01*
X47310Y-31205D01*
X47422Y-31158D01*
X47508Y-31072D01*
X47554Y-30960D01*
X47555Y-30863D01*
X47678Y-30740D01*
X47700Y-30740D01*
X49706Y-30740D01*
X49423Y-31023D01*
X49369Y-31104D01*
X49350Y-31200D01*
X49350Y-31618D01*
X49341Y-31627D01*
X49295Y-31739D01*
X49294Y-31860D01*
X49341Y-31972D01*
X49427Y-32058D01*
X49539Y-32104D01*
X49660Y-32105D01*
X49772Y-32058D01*
X49858Y-31972D01*
X49904Y-31860D01*
X49905Y-31739D01*
X49858Y-31627D01*
X49850Y-31618D01*
X49850Y-31303D01*
X50053Y-31100D01*
X50300Y-31100D01*
X51650Y-31100D01*
X51554Y-31119D01*
X51473Y-31173D01*
X50673Y-31973D01*
X50619Y-32054D01*
X50600Y-32150D01*
X50600Y-35146D01*
X50337Y-35408D01*
X50337Y-35200D01*
X50305Y-35036D01*
X50212Y-34898D01*
X50074Y-34805D01*
X49911Y-34773D01*
X49288Y-34773D01*
X49125Y-34805D01*
X48987Y-34898D01*
X48894Y-35036D01*
X48862Y-35200D01*
X48894Y-35363D01*
X48987Y-35501D01*
X49125Y-35594D01*
X49288Y-35626D01*
X49911Y-35626D01*
X50074Y-35594D01*
X50212Y-35501D01*
X50305Y-35363D01*
X50337Y-35200D01*
X50337Y-35408D01*
X49962Y-35783D01*
X49911Y-35773D01*
X49288Y-35773D01*
X49125Y-35805D01*
X48987Y-35898D01*
X48894Y-36036D01*
X48862Y-36200D01*
X48894Y-36363D01*
X48987Y-36501D01*
X49125Y-36594D01*
X49288Y-36626D01*
X49911Y-36626D01*
X50074Y-36594D01*
X50212Y-36501D01*
X50305Y-36363D01*
X50337Y-36200D01*
X50323Y-36129D01*
X51026Y-35426D01*
X51080Y-35345D01*
X51080Y-35345D01*
X51100Y-35250D01*
X51100Y-32253D01*
X51753Y-31600D01*
X52700Y-31600D01*
X68767Y-31600D01*
X68839Y-31773D01*
X68975Y-31910D01*
X69153Y-31984D01*
X69345Y-31984D01*
X69523Y-31910D01*
X69660Y-31774D01*
X69734Y-31596D01*
X69734Y-31404D01*
X69660Y-31226D01*
X69535Y-31100D01*
X69646Y-31100D01*
X69819Y-31273D01*
X69765Y-31403D01*
X69765Y-31595D01*
X69839Y-31773D01*
X69975Y-31910D01*
X70000Y-31920D01*
X70000Y-32079D01*
X69976Y-32089D01*
X69839Y-32225D01*
X69765Y-32403D01*
X69765Y-32595D01*
X69839Y-32773D01*
X69975Y-32910D01*
X70153Y-32984D01*
X70345Y-32984D01*
X70523Y-32910D01*
X70660Y-32774D01*
X70734Y-32596D01*
X70734Y-32404D01*
X70734Y-47455D01*
X70474Y-47349D01*
X70017Y-47350D01*
X69734Y-47467D01*
X69734Y-32404D01*
X69660Y-32226D01*
X69524Y-32089D01*
X69346Y-32015D01*
X69154Y-32015D01*
X68976Y-32089D01*
X68839Y-32225D01*
X68765Y-32403D01*
X68765Y-32595D01*
X68839Y-32773D01*
X68975Y-32910D01*
X69153Y-32984D01*
X69345Y-32984D01*
X69523Y-32910D01*
X69660Y-32774D01*
X69734Y-32596D01*
X69734Y-32404D01*
X69734Y-47467D01*
X69601Y-47522D01*
X69501Y-47680D01*
X70250Y-48429D01*
X70998Y-47680D01*
X70998Y-47821D01*
X70320Y-48500D01*
X71069Y-49248D01*
X71227Y-49148D01*
X71400Y-48724D01*
X71400Y-49850D01*
X70998Y-49850D01*
X70998Y-49319D01*
X70250Y-48570D01*
X70179Y-48641D01*
X70179Y-48500D01*
X69430Y-47751D01*
X69272Y-47851D01*
X69099Y-48275D01*
X69100Y-48732D01*
X69272Y-49148D01*
X69430Y-49248D01*
X70179Y-48500D01*
X70179Y-48641D01*
X69501Y-49319D01*
X69601Y-49477D01*
X70025Y-49650D01*
X70482Y-49649D01*
X70898Y-49477D01*
X70998Y-49319D01*
X70998Y-49850D01*
X68858Y-49850D01*
X68858Y-49094D01*
X68854Y-48987D01*
X68848Y-48854D01*
X68776Y-48679D01*
X68675Y-48645D01*
X68720Y-48600D01*
X68703Y-48583D01*
X68745Y-48566D01*
X68816Y-48495D01*
X68854Y-48404D01*
X68854Y-48304D01*
X68854Y-48112D01*
X68854Y-47887D01*
X68854Y-47695D01*
X68854Y-47595D01*
X68816Y-47504D01*
X68745Y-47433D01*
X68654Y-47395D01*
X68362Y-47395D01*
X68300Y-47458D01*
X68300Y-47950D01*
X68791Y-47950D01*
X68854Y-47887D01*
X68854Y-48112D01*
X68791Y-48050D01*
X68300Y-48050D01*
X68300Y-48057D01*
X68200Y-48057D01*
X68200Y-48050D01*
X68192Y-48050D01*
X68192Y-47950D01*
X68200Y-47950D01*
X68200Y-47458D01*
X68137Y-47395D01*
X67845Y-47395D01*
X67754Y-47433D01*
X67683Y-47504D01*
X67645Y-47595D01*
X67645Y-47695D01*
X67645Y-47710D01*
X67524Y-47589D01*
X67346Y-47515D01*
X67154Y-47515D01*
X66976Y-47589D01*
X66839Y-47725D01*
X66805Y-47808D01*
X66805Y-33439D01*
X66758Y-33327D01*
X66750Y-33318D01*
X66750Y-32500D01*
X66730Y-32404D01*
X66676Y-32323D01*
X66176Y-31823D01*
X66095Y-31769D01*
X66000Y-31750D01*
X52200Y-31750D01*
X52031Y-31750D01*
X52022Y-31741D01*
X51910Y-31695D01*
X51789Y-31694D01*
X51677Y-31741D01*
X51591Y-31827D01*
X51545Y-31939D01*
X51544Y-32060D01*
X51591Y-32172D01*
X51677Y-32258D01*
X51789Y-32304D01*
X51910Y-32305D01*
X52022Y-32258D01*
X52031Y-32250D01*
X52200Y-32250D01*
X65896Y-32250D01*
X66250Y-32603D01*
X66250Y-32846D01*
X65826Y-32423D01*
X65745Y-32369D01*
X65650Y-32350D01*
X60800Y-32350D01*
X60704Y-32369D01*
X60623Y-32423D01*
X59323Y-33723D01*
X59269Y-33804D01*
X59250Y-33900D01*
X59250Y-37946D01*
X58551Y-38644D01*
X58539Y-38644D01*
X58427Y-38691D01*
X58341Y-38777D01*
X58295Y-38889D01*
X58294Y-39010D01*
X58341Y-39122D01*
X58427Y-39208D01*
X58539Y-39254D01*
X58660Y-39255D01*
X58772Y-39208D01*
X58858Y-39122D01*
X58904Y-39010D01*
X58904Y-38998D01*
X59250Y-38653D01*
X59250Y-42596D01*
X58601Y-43244D01*
X58589Y-43244D01*
X58477Y-43291D01*
X58391Y-43377D01*
X58345Y-43489D01*
X58344Y-43610D01*
X58391Y-43722D01*
X58477Y-43808D01*
X58589Y-43854D01*
X58710Y-43855D01*
X58822Y-43808D01*
X58908Y-43722D01*
X58954Y-43610D01*
X58954Y-43598D01*
X59676Y-42876D01*
X59730Y-42795D01*
X59750Y-42700D01*
X59750Y-38050D01*
X59750Y-34003D01*
X60903Y-32850D01*
X65546Y-32850D01*
X65946Y-33250D01*
X65358Y-33250D01*
X65243Y-33135D01*
X65085Y-33070D01*
X64914Y-33069D01*
X64756Y-33135D01*
X64635Y-33256D01*
X64570Y-33414D01*
X64569Y-33585D01*
X64635Y-33743D01*
X64756Y-33864D01*
X64914Y-33929D01*
X65085Y-33930D01*
X65243Y-33864D01*
X65358Y-33750D01*
X66250Y-33750D01*
X66250Y-38896D01*
X65554Y-39591D01*
X65554Y-37581D01*
X65554Y-36581D01*
X65543Y-36363D01*
X65481Y-36212D01*
X65430Y-36197D01*
X65430Y-35414D01*
X65430Y-34414D01*
X65364Y-34256D01*
X65243Y-34135D01*
X65085Y-34070D01*
X64914Y-34069D01*
X64860Y-34092D01*
X64634Y-33865D01*
X64572Y-33824D01*
X64500Y-33810D01*
X64430Y-33810D01*
X64430Y-33774D01*
X64430Y-33174D01*
X64410Y-33126D01*
X64373Y-33089D01*
X64325Y-33070D01*
X64274Y-33070D01*
X63674Y-33070D01*
X63626Y-33089D01*
X63589Y-33126D01*
X63570Y-33174D01*
X63570Y-33225D01*
X63570Y-33810D01*
X63292Y-33810D01*
X63258Y-33727D01*
X63172Y-33641D01*
X63060Y-33595D01*
X62939Y-33594D01*
X62827Y-33641D01*
X62741Y-33727D01*
X62695Y-33839D01*
X62694Y-33960D01*
X62741Y-34072D01*
X62827Y-34158D01*
X62939Y-34204D01*
X63060Y-34205D01*
X63097Y-34189D01*
X63100Y-34190D01*
X63701Y-34190D01*
X63635Y-34256D01*
X63570Y-34414D01*
X63569Y-34585D01*
X63635Y-34743D01*
X63756Y-34864D01*
X63914Y-34929D01*
X64085Y-34930D01*
X64243Y-34864D01*
X64364Y-34743D01*
X64429Y-34585D01*
X64430Y-34414D01*
X64364Y-34256D01*
X64298Y-34190D01*
X64421Y-34190D01*
X64592Y-34360D01*
X64570Y-34414D01*
X64569Y-34585D01*
X64635Y-34743D01*
X64756Y-34864D01*
X64914Y-34929D01*
X65085Y-34930D01*
X65243Y-34864D01*
X65364Y-34743D01*
X65429Y-34585D01*
X65430Y-34414D01*
X65430Y-35414D01*
X65364Y-35256D01*
X65243Y-35135D01*
X65085Y-35070D01*
X64914Y-35069D01*
X64756Y-35135D01*
X64635Y-35256D01*
X64570Y-35414D01*
X64569Y-35585D01*
X64592Y-35639D01*
X64421Y-35810D01*
X64298Y-35810D01*
X64364Y-35743D01*
X64429Y-35585D01*
X64430Y-35414D01*
X64364Y-35256D01*
X64243Y-35135D01*
X64085Y-35070D01*
X63914Y-35069D01*
X63756Y-35135D01*
X63635Y-35256D01*
X63570Y-35414D01*
X63569Y-35585D01*
X63635Y-35743D01*
X63701Y-35810D01*
X63428Y-35810D01*
X62504Y-34886D01*
X62505Y-34789D01*
X62458Y-34677D01*
X62372Y-34591D01*
X62260Y-34545D01*
X62139Y-34544D01*
X62027Y-34591D01*
X61941Y-34677D01*
X61895Y-34789D01*
X61894Y-34910D01*
X61941Y-35022D01*
X62027Y-35108D01*
X62139Y-35154D01*
X62236Y-35155D01*
X63215Y-36134D01*
X63277Y-36175D01*
X63350Y-36190D01*
X63350Y-36190D01*
X63350Y-36190D01*
X63701Y-36190D01*
X63635Y-36256D01*
X63570Y-36414D01*
X63569Y-36585D01*
X63635Y-36743D01*
X63756Y-36864D01*
X63914Y-36929D01*
X64085Y-36930D01*
X64243Y-36864D01*
X64364Y-36743D01*
X64429Y-36585D01*
X64430Y-36414D01*
X64364Y-36256D01*
X64298Y-36190D01*
X64500Y-36190D01*
X64572Y-36175D01*
X64591Y-36162D01*
X64614Y-36184D01*
X64518Y-36212D01*
X64445Y-36418D01*
X64456Y-36636D01*
X64518Y-36787D01*
X64614Y-36815D01*
X64929Y-36500D01*
X64923Y-36494D01*
X64994Y-36423D01*
X65000Y-36429D01*
X65315Y-36114D01*
X65287Y-36018D01*
X65081Y-35945D01*
X64863Y-35956D01*
X64776Y-35992D01*
X64860Y-35907D01*
X64914Y-35929D01*
X65085Y-35930D01*
X65243Y-35864D01*
X65364Y-35743D01*
X65429Y-35585D01*
X65430Y-35414D01*
X65430Y-36197D01*
X65385Y-36184D01*
X65070Y-36500D01*
X65385Y-36815D01*
X65481Y-36787D01*
X65554Y-36581D01*
X65554Y-37581D01*
X65543Y-37363D01*
X65481Y-37212D01*
X65385Y-37184D01*
X65315Y-37255D01*
X65315Y-37114D01*
X65287Y-37018D01*
X65239Y-37001D01*
X65287Y-36981D01*
X65315Y-36885D01*
X65000Y-36570D01*
X64929Y-36641D01*
X64684Y-36885D01*
X64712Y-36981D01*
X64760Y-36998D01*
X64712Y-37018D01*
X64684Y-37114D01*
X65000Y-37429D01*
X65315Y-37114D01*
X65315Y-37255D01*
X65070Y-37500D01*
X65385Y-37815D01*
X65481Y-37787D01*
X65554Y-37581D01*
X65554Y-39591D01*
X65315Y-39831D01*
X65315Y-37885D01*
X65000Y-37570D01*
X64929Y-37641D01*
X64929Y-37500D01*
X64614Y-37184D01*
X64518Y-37212D01*
X64445Y-37418D01*
X64456Y-37636D01*
X64518Y-37787D01*
X64614Y-37815D01*
X64929Y-37500D01*
X64929Y-37641D01*
X64684Y-37885D01*
X64712Y-37981D01*
X64918Y-38054D01*
X65136Y-38043D01*
X65287Y-37981D01*
X65315Y-37885D01*
X65315Y-39831D01*
X65076Y-40070D01*
X64914Y-40069D01*
X64756Y-40135D01*
X64635Y-40256D01*
X64570Y-40414D01*
X64569Y-40585D01*
X64635Y-40743D01*
X64756Y-40864D01*
X64914Y-40929D01*
X65085Y-40930D01*
X65243Y-40864D01*
X65364Y-40743D01*
X65429Y-40585D01*
X65430Y-40423D01*
X66676Y-39176D01*
X66730Y-39095D01*
X66750Y-39000D01*
X66750Y-39000D01*
X66750Y-38999D01*
X66750Y-33681D01*
X66758Y-33672D01*
X66804Y-33560D01*
X66805Y-33439D01*
X66805Y-47808D01*
X66765Y-47903D01*
X66765Y-48095D01*
X66839Y-48273D01*
X66975Y-48410D01*
X67153Y-48484D01*
X67345Y-48484D01*
X67523Y-48410D01*
X67645Y-48289D01*
X67645Y-48304D01*
X67645Y-48404D01*
X67683Y-48495D01*
X67754Y-48566D01*
X67796Y-48583D01*
X67779Y-48600D01*
X67824Y-48645D01*
X67723Y-48679D01*
X67685Y-48784D01*
X67660Y-48726D01*
X67524Y-48589D01*
X67346Y-48515D01*
X67154Y-48515D01*
X66976Y-48589D01*
X66839Y-48725D01*
X66765Y-48903D01*
X66765Y-49095D01*
X66839Y-49273D01*
X66975Y-49410D01*
X67153Y-49484D01*
X67345Y-49484D01*
X67523Y-49410D01*
X67660Y-49274D01*
X67682Y-49221D01*
X67723Y-49320D01*
X67824Y-49354D01*
X68179Y-49000D01*
X68173Y-48994D01*
X68244Y-48923D01*
X68250Y-48929D01*
X68255Y-48923D01*
X68326Y-48994D01*
X68320Y-49000D01*
X68675Y-49354D01*
X68776Y-49320D01*
X68858Y-49094D01*
X68858Y-49850D01*
X68604Y-49850D01*
X68604Y-49425D01*
X68250Y-49070D01*
X68179Y-49141D01*
X67895Y-49425D01*
X67929Y-49526D01*
X68155Y-49608D01*
X68395Y-49598D01*
X68570Y-49526D01*
X68604Y-49425D01*
X68604Y-49850D01*
X66734Y-49850D01*
X66734Y-48904D01*
X66734Y-47904D01*
X66660Y-47726D01*
X66524Y-47589D01*
X66346Y-47515D01*
X66154Y-47515D01*
X65976Y-47589D01*
X65839Y-47725D01*
X65765Y-47903D01*
X65765Y-48095D01*
X65839Y-48273D01*
X65975Y-48410D01*
X66153Y-48484D01*
X66345Y-48484D01*
X66523Y-48410D01*
X66660Y-48274D01*
X66734Y-48096D01*
X66734Y-47904D01*
X66734Y-48904D01*
X66660Y-48726D01*
X66524Y-48589D01*
X66346Y-48515D01*
X66154Y-48515D01*
X65976Y-48589D01*
X65839Y-48725D01*
X65765Y-48903D01*
X65765Y-49095D01*
X65839Y-49273D01*
X65975Y-49410D01*
X66153Y-49484D01*
X66345Y-49484D01*
X66523Y-49410D01*
X66660Y-49274D01*
X66734Y-49096D01*
X66734Y-48904D01*
X66734Y-49850D01*
X65734Y-49850D01*
X65734Y-48904D01*
X65734Y-47904D01*
X65660Y-47726D01*
X65554Y-47619D01*
X65554Y-44581D01*
X65554Y-43581D01*
X65543Y-43363D01*
X65481Y-43212D01*
X65430Y-43197D01*
X65430Y-42414D01*
X65430Y-41414D01*
X65364Y-41256D01*
X65243Y-41135D01*
X65085Y-41070D01*
X64914Y-41069D01*
X64756Y-41135D01*
X64635Y-41256D01*
X64570Y-41414D01*
X64569Y-41585D01*
X64635Y-41743D01*
X64756Y-41864D01*
X64914Y-41929D01*
X65085Y-41930D01*
X65243Y-41864D01*
X65364Y-41743D01*
X65429Y-41585D01*
X65430Y-41414D01*
X65430Y-42414D01*
X65364Y-42256D01*
X65243Y-42135D01*
X65085Y-42070D01*
X64914Y-42069D01*
X64756Y-42135D01*
X64635Y-42256D01*
X64570Y-42414D01*
X64569Y-42585D01*
X64635Y-42743D01*
X64756Y-42864D01*
X64914Y-42929D01*
X65085Y-42930D01*
X65243Y-42864D01*
X65364Y-42743D01*
X65429Y-42585D01*
X65430Y-42414D01*
X65430Y-43197D01*
X65385Y-43184D01*
X65315Y-43255D01*
X65315Y-43114D01*
X65287Y-43018D01*
X65081Y-42945D01*
X64863Y-42956D01*
X64712Y-43018D01*
X64684Y-43114D01*
X65000Y-43429D01*
X65315Y-43114D01*
X65315Y-43255D01*
X65070Y-43500D01*
X65385Y-43815D01*
X65481Y-43787D01*
X65554Y-43581D01*
X65554Y-44581D01*
X65543Y-44363D01*
X65481Y-44212D01*
X65385Y-44184D01*
X65315Y-44255D01*
X65315Y-44114D01*
X65287Y-44018D01*
X65239Y-44001D01*
X65287Y-43981D01*
X65315Y-43885D01*
X65000Y-43570D01*
X64929Y-43641D01*
X64929Y-43500D01*
X64614Y-43184D01*
X64518Y-43212D01*
X64445Y-43418D01*
X64456Y-43636D01*
X64518Y-43787D01*
X64614Y-43815D01*
X64929Y-43500D01*
X64929Y-43641D01*
X64684Y-43885D01*
X64712Y-43981D01*
X64760Y-43998D01*
X64712Y-44018D01*
X64684Y-44114D01*
X65000Y-44429D01*
X65315Y-44114D01*
X65315Y-44255D01*
X65070Y-44500D01*
X65385Y-44815D01*
X65481Y-44787D01*
X65554Y-44581D01*
X65554Y-47619D01*
X65524Y-47589D01*
X65346Y-47515D01*
X65315Y-47515D01*
X65315Y-44885D01*
X65000Y-44570D01*
X64929Y-44641D01*
X64929Y-44500D01*
X64614Y-44184D01*
X64518Y-44212D01*
X64445Y-44418D01*
X64456Y-44636D01*
X64518Y-44787D01*
X64614Y-44815D01*
X64929Y-44500D01*
X64929Y-44641D01*
X64684Y-44885D01*
X64712Y-44981D01*
X64918Y-45054D01*
X65136Y-45043D01*
X65287Y-44981D01*
X65315Y-44885D01*
X65315Y-47515D01*
X65154Y-47515D01*
X64976Y-47589D01*
X64839Y-47725D01*
X64765Y-47903D01*
X64765Y-48095D01*
X64839Y-48273D01*
X64975Y-48410D01*
X65153Y-48484D01*
X65345Y-48484D01*
X65523Y-48410D01*
X65660Y-48274D01*
X65734Y-48096D01*
X65734Y-47904D01*
X65734Y-48904D01*
X65660Y-48726D01*
X65524Y-48589D01*
X65346Y-48515D01*
X65154Y-48515D01*
X64976Y-48589D01*
X64839Y-48725D01*
X64765Y-48903D01*
X64765Y-49095D01*
X64839Y-49273D01*
X64975Y-49410D01*
X65153Y-49484D01*
X65345Y-49484D01*
X65523Y-49410D01*
X65660Y-49274D01*
X65734Y-49096D01*
X65734Y-48904D01*
X65734Y-49850D01*
X64734Y-49850D01*
X64734Y-48904D01*
X64734Y-47904D01*
X64660Y-47726D01*
X64524Y-47589D01*
X64430Y-47550D01*
X64430Y-44414D01*
X64430Y-43414D01*
X64430Y-42414D01*
X64430Y-41414D01*
X64430Y-37414D01*
X64364Y-37256D01*
X64243Y-37135D01*
X64085Y-37070D01*
X63914Y-37069D01*
X63756Y-37135D01*
X63635Y-37256D01*
X63570Y-37414D01*
X63569Y-37585D01*
X63635Y-37743D01*
X63756Y-37864D01*
X63914Y-37929D01*
X64085Y-37930D01*
X64243Y-37864D01*
X64364Y-37743D01*
X64429Y-37585D01*
X64430Y-37414D01*
X64430Y-41414D01*
X64430Y-41414D01*
X64430Y-40825D01*
X64430Y-40774D01*
X64430Y-40174D01*
X64410Y-40126D01*
X64373Y-40089D01*
X64325Y-40070D01*
X64274Y-40070D01*
X64190Y-40070D01*
X64190Y-39291D01*
X64258Y-39222D01*
X64304Y-39110D01*
X64305Y-38989D01*
X64258Y-38877D01*
X64172Y-38791D01*
X64060Y-38745D01*
X63939Y-38744D01*
X63827Y-38791D01*
X63741Y-38877D01*
X63695Y-38989D01*
X63694Y-39110D01*
X63741Y-39222D01*
X63810Y-39291D01*
X63810Y-40070D01*
X63674Y-40070D01*
X63626Y-40089D01*
X63589Y-40126D01*
X63570Y-40174D01*
X63570Y-40225D01*
X63570Y-40825D01*
X63589Y-40873D01*
X63626Y-40910D01*
X63674Y-40930D01*
X63725Y-40930D01*
X64325Y-40930D01*
X64373Y-40910D01*
X64410Y-40873D01*
X64430Y-40825D01*
X64430Y-41414D01*
X64364Y-41256D01*
X64243Y-41135D01*
X64085Y-41070D01*
X63914Y-41069D01*
X63756Y-41135D01*
X63635Y-41256D01*
X63570Y-41414D01*
X63569Y-41585D01*
X63635Y-41743D01*
X63756Y-41864D01*
X63914Y-41929D01*
X64085Y-41930D01*
X64243Y-41864D01*
X64364Y-41743D01*
X64429Y-41585D01*
X64430Y-41414D01*
X64430Y-42414D01*
X64364Y-42256D01*
X64243Y-42135D01*
X64085Y-42070D01*
X63914Y-42069D01*
X63756Y-42135D01*
X63635Y-42256D01*
X63570Y-42414D01*
X63569Y-42585D01*
X63635Y-42743D01*
X63756Y-42864D01*
X63914Y-42929D01*
X64085Y-42930D01*
X64243Y-42864D01*
X64364Y-42743D01*
X64429Y-42585D01*
X64430Y-42414D01*
X64430Y-43414D01*
X64364Y-43256D01*
X64243Y-43135D01*
X64085Y-43070D01*
X63914Y-43069D01*
X63756Y-43135D01*
X63635Y-43256D01*
X63570Y-43414D01*
X63569Y-43585D01*
X63635Y-43743D01*
X63756Y-43864D01*
X63914Y-43929D01*
X64085Y-43930D01*
X64243Y-43864D01*
X64364Y-43743D01*
X64429Y-43585D01*
X64430Y-43414D01*
X64430Y-44414D01*
X64364Y-44256D01*
X64243Y-44135D01*
X64085Y-44070D01*
X63914Y-44069D01*
X63756Y-44135D01*
X63635Y-44256D01*
X63570Y-44414D01*
X63569Y-44585D01*
X63635Y-44743D01*
X63756Y-44864D01*
X63914Y-44929D01*
X64085Y-44930D01*
X64243Y-44864D01*
X64364Y-44743D01*
X64429Y-44585D01*
X64430Y-44414D01*
X64430Y-47550D01*
X64346Y-47515D01*
X64154Y-47515D01*
X63976Y-47589D01*
X63839Y-47725D01*
X63765Y-47903D01*
X63765Y-48095D01*
X63839Y-48273D01*
X63975Y-48410D01*
X64153Y-48484D01*
X64345Y-48484D01*
X64523Y-48410D01*
X64660Y-48274D01*
X64734Y-48096D01*
X64734Y-47904D01*
X64734Y-48904D01*
X64660Y-48726D01*
X64524Y-48589D01*
X64346Y-48515D01*
X64154Y-48515D01*
X63976Y-48589D01*
X63839Y-48725D01*
X63765Y-48903D01*
X63765Y-49095D01*
X63839Y-49273D01*
X63975Y-49410D01*
X64153Y-49484D01*
X64345Y-49484D01*
X64523Y-49410D01*
X64660Y-49274D01*
X64734Y-49096D01*
X64734Y-48904D01*
X64734Y-49850D01*
X63734Y-49850D01*
X63734Y-48904D01*
X63734Y-47904D01*
X63660Y-47726D01*
X63524Y-47589D01*
X63346Y-47515D01*
X63154Y-47515D01*
X62976Y-47589D01*
X62839Y-47725D01*
X62765Y-47903D01*
X62765Y-48095D01*
X62839Y-48273D01*
X62975Y-48410D01*
X63153Y-48484D01*
X63345Y-48484D01*
X63523Y-48410D01*
X63660Y-48274D01*
X63734Y-48096D01*
X63734Y-47904D01*
X63734Y-48904D01*
X63660Y-48726D01*
X63524Y-48589D01*
X63346Y-48515D01*
X63154Y-48515D01*
X62976Y-48589D01*
X62839Y-48725D01*
X62765Y-48903D01*
X62765Y-49095D01*
X62839Y-49273D01*
X62975Y-49410D01*
X63153Y-49484D01*
X63345Y-49484D01*
X63523Y-49410D01*
X63660Y-49274D01*
X63734Y-49096D01*
X63734Y-48904D01*
X63734Y-49850D01*
X62734Y-49850D01*
X62734Y-48904D01*
X62734Y-47904D01*
X62660Y-47726D01*
X62524Y-47589D01*
X62346Y-47515D01*
X62154Y-47515D01*
X61976Y-47589D01*
X61839Y-47725D01*
X61805Y-47808D01*
X61805Y-44439D01*
X61758Y-44327D01*
X61672Y-44241D01*
X61560Y-44195D01*
X61439Y-44194D01*
X61327Y-44241D01*
X61308Y-44260D01*
X60391Y-44260D01*
X60322Y-44191D01*
X60210Y-44145D01*
X60089Y-44144D01*
X59977Y-44191D01*
X59891Y-44277D01*
X59845Y-44389D01*
X59844Y-44510D01*
X59891Y-44622D01*
X59977Y-44708D01*
X60089Y-44754D01*
X60210Y-44755D01*
X60322Y-44708D01*
X60391Y-44640D01*
X61227Y-44640D01*
X61241Y-44672D01*
X61327Y-44758D01*
X61439Y-44804D01*
X61560Y-44805D01*
X61672Y-44758D01*
X61758Y-44672D01*
X61804Y-44560D01*
X61805Y-44439D01*
X61805Y-47808D01*
X61765Y-47903D01*
X61765Y-48095D01*
X61839Y-48273D01*
X61975Y-48410D01*
X62153Y-48484D01*
X62345Y-48484D01*
X62523Y-48410D01*
X62660Y-48274D01*
X62734Y-48096D01*
X62734Y-47904D01*
X62734Y-48904D01*
X62660Y-48726D01*
X62524Y-48589D01*
X62346Y-48515D01*
X62154Y-48515D01*
X61976Y-48589D01*
X61839Y-48725D01*
X61765Y-48903D01*
X61765Y-49095D01*
X61839Y-49273D01*
X61975Y-49410D01*
X62153Y-49484D01*
X62345Y-49484D01*
X62523Y-49410D01*
X62660Y-49274D01*
X62734Y-49096D01*
X62734Y-48904D01*
X62734Y-49850D01*
X61734Y-49850D01*
X61734Y-48904D01*
X61734Y-47904D01*
X61660Y-47726D01*
X61524Y-47589D01*
X61346Y-47515D01*
X61154Y-47515D01*
X60976Y-47589D01*
X60839Y-47725D01*
X60765Y-47903D01*
X60765Y-48095D01*
X60839Y-48273D01*
X60975Y-48410D01*
X61153Y-48484D01*
X61345Y-48484D01*
X61523Y-48410D01*
X61660Y-48274D01*
X61734Y-48096D01*
X61734Y-47904D01*
X61734Y-48904D01*
X61660Y-48726D01*
X61524Y-48589D01*
X61346Y-48515D01*
X61154Y-48515D01*
X60976Y-48589D01*
X60839Y-48725D01*
X60765Y-48903D01*
X60765Y-49095D01*
X60839Y-49273D01*
X60975Y-49410D01*
X61153Y-49484D01*
X61345Y-49484D01*
X61523Y-49410D01*
X61660Y-49274D01*
X61734Y-49096D01*
X61734Y-48904D01*
X61734Y-49850D01*
X60734Y-49850D01*
X60734Y-48904D01*
X60734Y-47904D01*
X60660Y-47726D01*
X60524Y-47589D01*
X60346Y-47515D01*
X60154Y-47515D01*
X59976Y-47589D01*
X59839Y-47725D01*
X59765Y-47903D01*
X59765Y-48095D01*
X59839Y-48273D01*
X59975Y-48410D01*
X60153Y-48484D01*
X60345Y-48484D01*
X60523Y-48410D01*
X60660Y-48274D01*
X60734Y-48096D01*
X60734Y-47904D01*
X60734Y-48904D01*
X60660Y-48726D01*
X60524Y-48589D01*
X60346Y-48515D01*
X60154Y-48515D01*
X59976Y-48589D01*
X59839Y-48725D01*
X59765Y-48903D01*
X59765Y-49095D01*
X59839Y-49273D01*
X59975Y-49410D01*
X60153Y-49484D01*
X60345Y-49484D01*
X60523Y-49410D01*
X60660Y-49274D01*
X60734Y-49096D01*
X60734Y-48904D01*
X60734Y-49850D01*
X59734Y-49850D01*
X59734Y-48904D01*
X59734Y-47904D01*
X59660Y-47726D01*
X59524Y-47589D01*
X59346Y-47515D01*
X59154Y-47515D01*
X58976Y-47589D01*
X58839Y-47725D01*
X58765Y-47903D01*
X58765Y-48095D01*
X58839Y-48273D01*
X58975Y-48410D01*
X59153Y-48484D01*
X59345Y-48484D01*
X59523Y-48410D01*
X59660Y-48274D01*
X59734Y-48096D01*
X59734Y-47904D01*
X59734Y-48904D01*
X59660Y-48726D01*
X59524Y-48589D01*
X59346Y-48515D01*
X59154Y-48515D01*
X58976Y-48589D01*
X58839Y-48725D01*
X58765Y-48903D01*
X58765Y-49095D01*
X58839Y-49273D01*
X58975Y-49410D01*
X59153Y-49484D01*
X59345Y-49484D01*
X59523Y-49410D01*
X59660Y-49274D01*
X59734Y-49096D01*
X59734Y-48904D01*
X59734Y-49850D01*
X58734Y-49850D01*
X58734Y-48904D01*
X58734Y-47904D01*
X58660Y-47726D01*
X58524Y-47589D01*
X58346Y-47515D01*
X58154Y-47515D01*
X57976Y-47589D01*
X57839Y-47725D01*
X57765Y-47903D01*
X57765Y-48095D01*
X57839Y-48273D01*
X57975Y-48410D01*
X58153Y-48484D01*
X58345Y-48484D01*
X58523Y-48410D01*
X58660Y-48274D01*
X58734Y-48096D01*
X58734Y-47904D01*
X58734Y-48904D01*
X58660Y-48726D01*
X58524Y-48589D01*
X58346Y-48515D01*
X58154Y-48515D01*
X57976Y-48589D01*
X57839Y-48725D01*
X57765Y-48903D01*
X57765Y-49095D01*
X57839Y-49273D01*
X57975Y-49410D01*
X58153Y-49484D01*
X58345Y-49484D01*
X58523Y-49410D01*
X58660Y-49274D01*
X58734Y-49096D01*
X58734Y-48904D01*
X58734Y-49850D01*
X57734Y-49850D01*
X57734Y-48904D01*
X57734Y-47904D01*
X57660Y-47726D01*
X57524Y-47589D01*
X57346Y-47515D01*
X57154Y-47515D01*
X56976Y-47589D01*
X56839Y-47725D01*
X56765Y-47903D01*
X56765Y-48095D01*
X56839Y-48273D01*
X56975Y-48410D01*
X57153Y-48484D01*
X57345Y-48484D01*
X57523Y-48410D01*
X57660Y-48274D01*
X57734Y-48096D01*
X57734Y-47904D01*
X57734Y-48904D01*
X57660Y-48726D01*
X57524Y-48589D01*
X57346Y-48515D01*
X57154Y-48515D01*
X56976Y-48589D01*
X56839Y-48725D01*
X56765Y-48903D01*
X56765Y-49095D01*
X56839Y-49273D01*
X56975Y-49410D01*
X57153Y-49484D01*
X57345Y-49484D01*
X57523Y-49410D01*
X57660Y-49274D01*
X57734Y-49096D01*
X57734Y-48904D01*
X57734Y-49850D01*
X56734Y-49850D01*
X56734Y-48904D01*
X56734Y-47904D01*
X56660Y-47726D01*
X56524Y-47589D01*
X56346Y-47515D01*
X56154Y-47515D01*
X55976Y-47589D01*
X55839Y-47725D01*
X55765Y-47903D01*
X55765Y-48095D01*
X55839Y-48273D01*
X55975Y-48410D01*
X56153Y-48484D01*
X56345Y-48484D01*
X56523Y-48410D01*
X56660Y-48274D01*
X56734Y-48096D01*
X56734Y-47904D01*
X56734Y-48904D01*
X56660Y-48726D01*
X56524Y-48589D01*
X56346Y-48515D01*
X56154Y-48515D01*
X55976Y-48589D01*
X55839Y-48725D01*
X55765Y-48903D01*
X55765Y-49095D01*
X55839Y-49273D01*
X55975Y-49410D01*
X56153Y-49484D01*
X56345Y-49484D01*
X56523Y-49410D01*
X56660Y-49274D01*
X56734Y-49096D01*
X56734Y-48904D01*
X56734Y-49850D01*
X55734Y-49850D01*
X55734Y-48904D01*
X55734Y-47904D01*
X55660Y-47726D01*
X55524Y-47589D01*
X55346Y-47515D01*
X55154Y-47515D01*
X54976Y-47589D01*
X54839Y-47725D01*
X54765Y-47903D01*
X54765Y-48095D01*
X54839Y-48273D01*
X54975Y-48410D01*
X55153Y-48484D01*
X55345Y-48484D01*
X55523Y-48410D01*
X55660Y-48274D01*
X55734Y-48096D01*
X55734Y-47904D01*
X55734Y-48904D01*
X55660Y-48726D01*
X55524Y-48589D01*
X55346Y-48515D01*
X55154Y-48515D01*
X54976Y-48589D01*
X54839Y-48725D01*
X54765Y-48903D01*
X54765Y-49095D01*
X54839Y-49273D01*
X54975Y-49410D01*
X55153Y-49484D01*
X55345Y-49484D01*
X55523Y-49410D01*
X55660Y-49274D01*
X55734Y-49096D01*
X55734Y-48904D01*
X55734Y-49850D01*
X54734Y-49850D01*
X54734Y-48904D01*
X54734Y-47904D01*
X54660Y-47726D01*
X54524Y-47589D01*
X54346Y-47515D01*
X54154Y-47515D01*
X53976Y-47589D01*
X53839Y-47725D01*
X53765Y-47903D01*
X53765Y-48095D01*
X53839Y-48273D01*
X53975Y-48410D01*
X54153Y-48484D01*
X54345Y-48484D01*
X54523Y-48410D01*
X54660Y-48274D01*
X54734Y-48096D01*
X54734Y-47904D01*
X54734Y-48904D01*
X54660Y-48726D01*
X54524Y-48589D01*
X54346Y-48515D01*
X54154Y-48515D01*
X53976Y-48589D01*
X53839Y-48725D01*
X53765Y-48903D01*
X53765Y-49095D01*
X53839Y-49273D01*
X53975Y-49410D01*
X54153Y-49484D01*
X54345Y-49484D01*
X54523Y-49410D01*
X54660Y-49274D01*
X54734Y-49096D01*
X54734Y-48904D01*
X54734Y-49850D01*
X53734Y-49850D01*
X53734Y-48904D01*
X53734Y-47904D01*
X53660Y-47726D01*
X53524Y-47589D01*
X53346Y-47515D01*
X53154Y-47515D01*
X52976Y-47589D01*
X52839Y-47725D01*
X52765Y-47903D01*
X52765Y-48095D01*
X52839Y-48273D01*
X52975Y-48410D01*
X53153Y-48484D01*
X53345Y-48484D01*
X53523Y-48410D01*
X53660Y-48274D01*
X53734Y-48096D01*
X53734Y-47904D01*
X53734Y-48904D01*
X53660Y-48726D01*
X53524Y-48589D01*
X53346Y-48515D01*
X53154Y-48515D01*
X52976Y-48589D01*
X52839Y-48725D01*
X52765Y-48903D01*
X52765Y-49095D01*
X52839Y-49273D01*
X52975Y-49410D01*
X53153Y-49484D01*
X53345Y-49484D01*
X53523Y-49410D01*
X53660Y-49274D01*
X53734Y-49096D01*
X53734Y-48904D01*
X53734Y-49850D01*
X52734Y-49850D01*
X52734Y-48904D01*
X52734Y-47904D01*
X52660Y-47726D01*
X52524Y-47589D01*
X52346Y-47515D01*
X52154Y-47515D01*
X51976Y-47589D01*
X51839Y-47725D01*
X51765Y-47903D01*
X51765Y-48095D01*
X51839Y-48273D01*
X51975Y-48410D01*
X52153Y-48484D01*
X52345Y-48484D01*
X52523Y-48410D01*
X52660Y-48274D01*
X52734Y-48096D01*
X52734Y-47904D01*
X52734Y-48904D01*
X52660Y-48726D01*
X52524Y-48589D01*
X52346Y-48515D01*
X52154Y-48515D01*
X51976Y-48589D01*
X51839Y-48725D01*
X51765Y-48903D01*
X51765Y-49095D01*
X51839Y-49273D01*
X51975Y-49410D01*
X52153Y-49484D01*
X52345Y-49484D01*
X52523Y-49410D01*
X52660Y-49274D01*
X52734Y-49096D01*
X52734Y-48904D01*
X52734Y-49850D01*
X51734Y-49850D01*
X51734Y-48904D01*
X51734Y-47904D01*
X51660Y-47726D01*
X51524Y-47589D01*
X51346Y-47515D01*
X51154Y-47515D01*
X50976Y-47589D01*
X50839Y-47725D01*
X50765Y-47903D01*
X50765Y-48095D01*
X50839Y-48273D01*
X50975Y-48410D01*
X51153Y-48484D01*
X51345Y-48484D01*
X51523Y-48410D01*
X51660Y-48274D01*
X51734Y-48096D01*
X51734Y-47904D01*
X51734Y-48904D01*
X51660Y-48726D01*
X51524Y-48589D01*
X51346Y-48515D01*
X51154Y-48515D01*
X50976Y-48589D01*
X50839Y-48725D01*
X50765Y-48903D01*
X50765Y-49095D01*
X50839Y-49273D01*
X50975Y-49410D01*
X51153Y-49484D01*
X51345Y-49484D01*
X51523Y-49410D01*
X51660Y-49274D01*
X51734Y-49096D01*
X51734Y-48904D01*
X51734Y-49850D01*
X50734Y-49850D01*
X50734Y-48904D01*
X50734Y-47904D01*
X50660Y-47726D01*
X50524Y-47589D01*
X50346Y-47515D01*
X50337Y-47515D01*
X50337Y-42800D01*
X50337Y-41800D01*
X50337Y-40600D01*
X50337Y-39600D01*
X50337Y-38400D01*
X50337Y-37400D01*
X50305Y-37236D01*
X50212Y-37098D01*
X50074Y-37005D01*
X49911Y-36973D01*
X49288Y-36973D01*
X49125Y-37005D01*
X48987Y-37098D01*
X48894Y-37236D01*
X48862Y-37400D01*
X48894Y-37563D01*
X48987Y-37701D01*
X49125Y-37794D01*
X49288Y-37826D01*
X49911Y-37826D01*
X50074Y-37794D01*
X50212Y-37701D01*
X50305Y-37563D01*
X50337Y-37400D01*
X50337Y-38400D01*
X50305Y-38236D01*
X50212Y-38098D01*
X50074Y-38005D01*
X49911Y-37973D01*
X49288Y-37973D01*
X49125Y-38005D01*
X48987Y-38098D01*
X48894Y-38236D01*
X48862Y-38400D01*
X48894Y-38563D01*
X48987Y-38701D01*
X49125Y-38794D01*
X49288Y-38826D01*
X49911Y-38826D01*
X50074Y-38794D01*
X50212Y-38701D01*
X50305Y-38563D01*
X50337Y-38400D01*
X50337Y-39600D01*
X50305Y-39436D01*
X50212Y-39298D01*
X50074Y-39205D01*
X49911Y-39173D01*
X49288Y-39173D01*
X49125Y-39205D01*
X48987Y-39298D01*
X48894Y-39436D01*
X48862Y-39600D01*
X48894Y-39763D01*
X48987Y-39901D01*
X49125Y-39994D01*
X49288Y-40026D01*
X49911Y-40026D01*
X50074Y-39994D01*
X50212Y-39901D01*
X50305Y-39763D01*
X50337Y-39600D01*
X50337Y-40600D01*
X50305Y-40436D01*
X50212Y-40298D01*
X50074Y-40205D01*
X49911Y-40173D01*
X49288Y-40173D01*
X49125Y-40205D01*
X48987Y-40298D01*
X48894Y-40436D01*
X48862Y-40600D01*
X48894Y-40763D01*
X48987Y-40901D01*
X49125Y-40994D01*
X49288Y-41026D01*
X49911Y-41026D01*
X50074Y-40994D01*
X50212Y-40901D01*
X50305Y-40763D01*
X50337Y-40600D01*
X50337Y-41800D01*
X50305Y-41636D01*
X50212Y-41498D01*
X50074Y-41405D01*
X49911Y-41373D01*
X49288Y-41373D01*
X49125Y-41405D01*
X48987Y-41498D01*
X48894Y-41636D01*
X48862Y-41800D01*
X48894Y-41963D01*
X48987Y-42101D01*
X49125Y-42194D01*
X49288Y-42226D01*
X49911Y-42226D01*
X50074Y-42194D01*
X50212Y-42101D01*
X50305Y-41963D01*
X50337Y-41800D01*
X50337Y-42800D01*
X50305Y-42636D01*
X50212Y-42498D01*
X50074Y-42405D01*
X49911Y-42373D01*
X49288Y-42373D01*
X49125Y-42405D01*
X48987Y-42498D01*
X48894Y-42636D01*
X48862Y-42800D01*
X48894Y-42963D01*
X48987Y-43101D01*
X49125Y-43194D01*
X49288Y-43226D01*
X49911Y-43226D01*
X50074Y-43194D01*
X50212Y-43101D01*
X50305Y-42963D01*
X50337Y-42800D01*
X50337Y-47515D01*
X50154Y-47515D01*
X49976Y-47589D01*
X49839Y-47725D01*
X49765Y-47903D01*
X49765Y-48095D01*
X49839Y-48273D01*
X49975Y-48410D01*
X50153Y-48484D01*
X50345Y-48484D01*
X50523Y-48410D01*
X50660Y-48274D01*
X50734Y-48096D01*
X50734Y-47904D01*
X50734Y-48904D01*
X50660Y-48726D01*
X50524Y-48589D01*
X50346Y-48515D01*
X50154Y-48515D01*
X49976Y-48589D01*
X49839Y-48725D01*
X49765Y-48903D01*
X49765Y-49095D01*
X49839Y-49273D01*
X49975Y-49410D01*
X50153Y-49484D01*
X50345Y-49484D01*
X50523Y-49410D01*
X50660Y-49274D01*
X50734Y-49096D01*
X50734Y-48904D01*
X50734Y-49850D01*
X49734Y-49850D01*
X49734Y-48904D01*
X49734Y-47904D01*
X49660Y-47726D01*
X49524Y-47589D01*
X49346Y-47515D01*
X49154Y-47515D01*
X48976Y-47589D01*
X48839Y-47725D01*
X48765Y-47903D01*
X48765Y-48095D01*
X48839Y-48273D01*
X48975Y-48410D01*
X49153Y-48484D01*
X49345Y-48484D01*
X49523Y-48410D01*
X49660Y-48274D01*
X49734Y-48096D01*
X49734Y-47904D01*
X49734Y-48904D01*
X49660Y-48726D01*
X49524Y-48589D01*
X49346Y-48515D01*
X49154Y-48515D01*
X48976Y-48589D01*
X48839Y-48725D01*
X48765Y-48903D01*
X48765Y-49095D01*
X48839Y-49273D01*
X48975Y-49410D01*
X49153Y-49484D01*
X49345Y-49484D01*
X49523Y-49410D01*
X49660Y-49274D01*
X49734Y-49096D01*
X49734Y-48904D01*
X49734Y-49850D01*
X48734Y-49850D01*
X48734Y-48904D01*
X48734Y-47904D01*
X48660Y-47726D01*
X48524Y-47589D01*
X48346Y-47515D01*
X48154Y-47515D01*
X47976Y-47589D01*
X47839Y-47725D01*
X47765Y-47903D01*
X47765Y-48095D01*
X47839Y-48273D01*
X47975Y-48410D01*
X48153Y-48484D01*
X48345Y-48484D01*
X48523Y-48410D01*
X48660Y-48274D01*
X48734Y-48096D01*
X48734Y-47904D01*
X48734Y-48904D01*
X48660Y-48726D01*
X48524Y-48589D01*
X48346Y-48515D01*
X48154Y-48515D01*
X47976Y-48589D01*
X47839Y-48725D01*
X47765Y-48903D01*
X47765Y-49095D01*
X47839Y-49273D01*
X47975Y-49410D01*
X48153Y-49484D01*
X48345Y-49484D01*
X48523Y-49410D01*
X48660Y-49274D01*
X48734Y-49096D01*
X48734Y-48904D01*
X48734Y-49850D01*
X47734Y-49850D01*
X47734Y-48904D01*
X47734Y-47904D01*
X47660Y-47726D01*
X47524Y-47589D01*
X47346Y-47515D01*
X47154Y-47515D01*
X46976Y-47589D01*
X46839Y-47725D01*
X46765Y-47903D01*
X46765Y-48095D01*
X46839Y-48273D01*
X46975Y-48410D01*
X47153Y-48484D01*
X47345Y-48484D01*
X47523Y-48410D01*
X47660Y-48274D01*
X47734Y-48096D01*
X47734Y-47904D01*
X47734Y-48904D01*
X47660Y-48726D01*
X47524Y-48589D01*
X47346Y-48515D01*
X47154Y-48515D01*
X46976Y-48589D01*
X46839Y-48725D01*
X46765Y-48903D01*
X46765Y-49095D01*
X46839Y-49273D01*
X46975Y-49410D01*
X47153Y-49484D01*
X47345Y-49484D01*
X47523Y-49410D01*
X47660Y-49274D01*
X47734Y-49096D01*
X47734Y-48904D01*
X47734Y-49850D01*
X46734Y-49850D01*
X46734Y-48904D01*
X46734Y-47904D01*
X46660Y-47726D01*
X46524Y-47589D01*
X46346Y-47515D01*
X46154Y-47515D01*
X45976Y-47589D01*
X45839Y-47725D01*
X45765Y-47903D01*
X45765Y-48095D01*
X45839Y-48273D01*
X45975Y-48410D01*
X46153Y-48484D01*
X46345Y-48484D01*
X46523Y-48410D01*
X46660Y-48274D01*
X46734Y-48096D01*
X46734Y-47904D01*
X46734Y-48904D01*
X46660Y-48726D01*
X46524Y-48589D01*
X46346Y-48515D01*
X46154Y-48515D01*
X45976Y-48589D01*
X45839Y-48725D01*
X45765Y-48903D01*
X45765Y-49095D01*
X45839Y-49273D01*
X45975Y-49410D01*
X46153Y-49484D01*
X46345Y-49484D01*
X46523Y-49410D01*
X46660Y-49274D01*
X46734Y-49096D01*
X46734Y-48904D01*
X46734Y-49850D01*
X45400Y-49850D01*
X45400Y-47474D01*
X45400Y-30974D01*
X45399Y-30517D01*
X45227Y-30101D01*
X45069Y-30001D01*
X44998Y-30071D01*
X44998Y-29930D01*
X44898Y-29772D01*
X44474Y-29599D01*
X44017Y-29600D01*
X43601Y-29772D01*
X43501Y-29930D01*
X44250Y-30679D01*
X44998Y-29930D01*
X44998Y-30071D01*
X44320Y-30750D01*
X45069Y-31498D01*
X45227Y-31398D01*
X45400Y-30974D01*
X45400Y-47474D01*
X45399Y-47017D01*
X45227Y-46601D01*
X45069Y-46501D01*
X44998Y-46571D01*
X44998Y-46430D01*
X44998Y-31569D01*
X44250Y-30820D01*
X44179Y-30891D01*
X44179Y-30750D01*
X43430Y-30001D01*
X43272Y-30101D01*
X43099Y-30525D01*
X43100Y-30982D01*
X43272Y-31398D01*
X43430Y-31498D01*
X44179Y-30750D01*
X44179Y-30891D01*
X43501Y-31569D01*
X43601Y-31727D01*
X44025Y-31900D01*
X44482Y-31899D01*
X44898Y-31727D01*
X44998Y-31569D01*
X44998Y-46430D01*
X44898Y-46272D01*
X44474Y-46099D01*
X44017Y-46100D01*
X43601Y-46272D01*
X43501Y-46430D01*
X44250Y-47179D01*
X44998Y-46430D01*
X44998Y-46571D01*
X44320Y-47250D01*
X45069Y-47998D01*
X45227Y-47898D01*
X45400Y-47474D01*
X45400Y-49850D01*
X44998Y-49850D01*
X44998Y-48069D01*
X44250Y-47320D01*
X44179Y-47391D01*
X44179Y-47250D01*
X43430Y-46501D01*
X43272Y-46601D01*
X43099Y-47025D01*
X43100Y-47482D01*
X43272Y-47898D01*
X43430Y-47998D01*
X44179Y-47250D01*
X44179Y-47391D01*
X43501Y-48069D01*
X43601Y-48227D01*
X44025Y-48400D01*
X44482Y-48399D01*
X44898Y-48227D01*
X44998Y-48069D01*
X44998Y-49850D01*
X40950Y-49850D01*
X40950Y-27950D01*
X76850Y-27950D01*
X76850Y-49850D01*
X76850Y-49850D01*
G37*
G54D20*
X76850Y-49850D02*
X71400Y-49850D01*
X71400Y-48724D01*
X71400Y-29724D01*
X71399Y-29267D01*
X71227Y-28851D01*
X71069Y-28751D01*
X70998Y-28821D01*
X70998Y-28680D01*
X70898Y-28522D01*
X70474Y-28349D01*
X70017Y-28350D01*
X69601Y-28522D01*
X69501Y-28680D01*
X70250Y-29429D01*
X70998Y-28680D01*
X70998Y-28821D01*
X70320Y-29500D01*
X71069Y-30248D01*
X71227Y-30148D01*
X71400Y-29724D01*
X71400Y-48724D01*
X71399Y-48267D01*
X71227Y-47851D01*
X71069Y-47751D01*
X70998Y-47821D01*
X70998Y-47680D01*
X70998Y-30319D01*
X70250Y-29570D01*
X70179Y-29641D01*
X70179Y-29500D01*
X69430Y-28751D01*
X69272Y-28851D01*
X69099Y-29275D01*
X69100Y-29732D01*
X69272Y-30148D01*
X69430Y-30248D01*
X70179Y-29500D01*
X70179Y-29641D01*
X69501Y-30319D01*
X69601Y-30477D01*
X70025Y-30650D01*
X70482Y-30649D01*
X70898Y-30477D01*
X70998Y-30319D01*
X70998Y-47680D01*
X70898Y-47522D01*
X70734Y-47455D01*
X70734Y-32404D01*
X70660Y-32226D01*
X70524Y-32089D01*
X70500Y-32079D01*
X70500Y-31920D01*
X70523Y-31910D01*
X70660Y-31774D01*
X70734Y-31596D01*
X70734Y-31404D01*
X70660Y-31226D01*
X70524Y-31089D01*
X70346Y-31015D01*
X70269Y-31015D01*
X69926Y-30673D01*
X69845Y-30619D01*
X69750Y-30600D01*
X68858Y-30600D01*
X68858Y-30094D01*
X68854Y-29987D01*
X68848Y-29854D01*
X68776Y-29679D01*
X68675Y-29645D01*
X68720Y-29600D01*
X68703Y-29583D01*
X68745Y-29566D01*
X68816Y-29495D01*
X68854Y-29404D01*
X68854Y-29304D01*
X68854Y-29112D01*
X68854Y-28887D01*
X68854Y-28695D01*
X68854Y-28595D01*
X68816Y-28504D01*
X68745Y-28433D01*
X68654Y-28395D01*
X68362Y-28395D01*
X68300Y-28458D01*
X68300Y-28950D01*
X68791Y-28950D01*
X68854Y-28887D01*
X68854Y-29112D01*
X68791Y-29050D01*
X68300Y-29050D01*
X68300Y-29057D01*
X68200Y-29057D01*
X68200Y-29050D01*
X68192Y-29050D01*
X68192Y-28950D01*
X68200Y-28950D01*
X68200Y-28458D01*
X68137Y-28395D01*
X67845Y-28395D01*
X67754Y-28433D01*
X67683Y-28504D01*
X67645Y-28595D01*
X67645Y-28695D01*
X67645Y-28710D01*
X67524Y-28589D01*
X67346Y-28515D01*
X67154Y-28515D01*
X66976Y-28589D01*
X66839Y-28725D01*
X66765Y-28903D01*
X66765Y-29095D01*
X66839Y-29273D01*
X66975Y-29410D01*
X67153Y-29484D01*
X67345Y-29484D01*
X67523Y-29410D01*
X67645Y-29289D01*
X67645Y-29304D01*
X67645Y-29404D01*
X67683Y-29495D01*
X67754Y-29566D01*
X67796Y-29583D01*
X67779Y-29600D01*
X67824Y-29645D01*
X67723Y-29679D01*
X67685Y-29784D01*
X67660Y-29726D01*
X67524Y-29589D01*
X67346Y-29515D01*
X67154Y-29515D01*
X66976Y-29589D01*
X66839Y-29725D01*
X66765Y-29903D01*
X66765Y-30095D01*
X66839Y-30273D01*
X66975Y-30410D01*
X67153Y-30484D01*
X67345Y-30484D01*
X67523Y-30410D01*
X67660Y-30274D01*
X67682Y-30221D01*
X67723Y-30320D01*
X67824Y-30354D01*
X68179Y-30000D01*
X68173Y-29994D01*
X68244Y-29923D01*
X68250Y-29929D01*
X68255Y-29923D01*
X68326Y-29994D01*
X68320Y-30000D01*
X68675Y-30354D01*
X68776Y-30320D01*
X68858Y-30094D01*
X68858Y-30600D01*
X68365Y-30600D01*
X68395Y-30598D01*
X68570Y-30526D01*
X68604Y-30425D01*
X68250Y-30070D01*
X68179Y-30141D01*
X67895Y-30425D01*
X67929Y-30526D01*
X68131Y-30600D01*
X66734Y-30600D01*
X66734Y-29904D01*
X66734Y-28904D01*
X66660Y-28726D01*
X66524Y-28589D01*
X66346Y-28515D01*
X66154Y-28515D01*
X65976Y-28589D01*
X65839Y-28725D01*
X65765Y-28903D01*
X65765Y-29095D01*
X65839Y-29273D01*
X65975Y-29410D01*
X66153Y-29484D01*
X66345Y-29484D01*
X66523Y-29410D01*
X66660Y-29274D01*
X66734Y-29096D01*
X66734Y-28904D01*
X66734Y-29904D01*
X66660Y-29726D01*
X66524Y-29589D01*
X66346Y-29515D01*
X66154Y-29515D01*
X65976Y-29589D01*
X65839Y-29725D01*
X65765Y-29903D01*
X65765Y-30095D01*
X65839Y-30273D01*
X65975Y-30410D01*
X66153Y-30484D01*
X66345Y-30484D01*
X66523Y-30410D01*
X66660Y-30274D01*
X66734Y-30096D01*
X66734Y-29904D01*
X66734Y-30600D01*
X65734Y-30600D01*
X65734Y-29904D01*
X65734Y-28904D01*
X65660Y-28726D01*
X65524Y-28589D01*
X65346Y-28515D01*
X65154Y-28515D01*
X64976Y-28589D01*
X64839Y-28725D01*
X64765Y-28903D01*
X64765Y-29095D01*
X64839Y-29273D01*
X64975Y-29410D01*
X65153Y-29484D01*
X65345Y-29484D01*
X65523Y-29410D01*
X65660Y-29274D01*
X65734Y-29096D01*
X65734Y-28904D01*
X65734Y-29904D01*
X65660Y-29726D01*
X65524Y-29589D01*
X65346Y-29515D01*
X65154Y-29515D01*
X64976Y-29589D01*
X64839Y-29725D01*
X64765Y-29903D01*
X64765Y-30095D01*
X64839Y-30273D01*
X64975Y-30410D01*
X65153Y-30484D01*
X65345Y-30484D01*
X65523Y-30410D01*
X65660Y-30274D01*
X65734Y-30096D01*
X65734Y-29904D01*
X65734Y-30600D01*
X64734Y-30600D01*
X64734Y-29904D01*
X64734Y-28904D01*
X64660Y-28726D01*
X64524Y-28589D01*
X64346Y-28515D01*
X64154Y-28515D01*
X63976Y-28589D01*
X63839Y-28725D01*
X63765Y-28903D01*
X63765Y-29095D01*
X63839Y-29273D01*
X63975Y-29410D01*
X64153Y-29484D01*
X64345Y-29484D01*
X64523Y-29410D01*
X64660Y-29274D01*
X64734Y-29096D01*
X64734Y-28904D01*
X64734Y-29904D01*
X64660Y-29726D01*
X64524Y-29589D01*
X64346Y-29515D01*
X64154Y-29515D01*
X63976Y-29589D01*
X63839Y-29725D01*
X63765Y-29903D01*
X63765Y-30095D01*
X63839Y-30273D01*
X63975Y-30410D01*
X64153Y-30484D01*
X64345Y-30484D01*
X64523Y-30410D01*
X64660Y-30274D01*
X64734Y-30096D01*
X64734Y-29904D01*
X64734Y-30600D01*
X63734Y-30600D01*
X63734Y-29904D01*
X63734Y-28904D01*
X63660Y-28726D01*
X63524Y-28589D01*
X63346Y-28515D01*
X63154Y-28515D01*
X62976Y-28589D01*
X62839Y-28725D01*
X62765Y-28903D01*
X62765Y-29095D01*
X62839Y-29273D01*
X62975Y-29410D01*
X63153Y-29484D01*
X63345Y-29484D01*
X63523Y-29410D01*
X63660Y-29274D01*
X63734Y-29096D01*
X63734Y-28904D01*
X63734Y-29904D01*
X63660Y-29726D01*
X63524Y-29589D01*
X63346Y-29515D01*
X63154Y-29515D01*
X62976Y-29589D01*
X62839Y-29725D01*
X62765Y-29903D01*
X62765Y-30095D01*
X62839Y-30273D01*
X62975Y-30410D01*
X63153Y-30484D01*
X63345Y-30484D01*
X63523Y-30410D01*
X63660Y-30274D01*
X63734Y-30096D01*
X63734Y-29904D01*
X63734Y-30600D01*
X62734Y-30600D01*
X62734Y-29904D01*
X62734Y-28904D01*
X62660Y-28726D01*
X62524Y-28589D01*
X62346Y-28515D01*
X62154Y-28515D01*
X61976Y-28589D01*
X61839Y-28725D01*
X61765Y-28903D01*
X61765Y-29095D01*
X61839Y-29273D01*
X61975Y-29410D01*
X62153Y-29484D01*
X62345Y-29484D01*
X62523Y-29410D01*
X62660Y-29274D01*
X62734Y-29096D01*
X62734Y-28904D01*
X62734Y-29904D01*
X62660Y-29726D01*
X62524Y-29589D01*
X62346Y-29515D01*
X62154Y-29515D01*
X61976Y-29589D01*
X61839Y-29725D01*
X61765Y-29903D01*
X61765Y-30095D01*
X61839Y-30273D01*
X61975Y-30410D01*
X62153Y-30484D01*
X62345Y-30484D01*
X62523Y-30410D01*
X62660Y-30274D01*
X62734Y-30096D01*
X62734Y-29904D01*
X62734Y-30600D01*
X61734Y-30600D01*
X61734Y-29904D01*
X61734Y-28904D01*
X61660Y-28726D01*
X61524Y-28589D01*
X61346Y-28515D01*
X61154Y-28515D01*
X60976Y-28589D01*
X60839Y-28725D01*
X60765Y-28903D01*
X60765Y-29095D01*
X60839Y-29273D01*
X60975Y-29410D01*
X61153Y-29484D01*
X61345Y-29484D01*
X61523Y-29410D01*
X61660Y-29274D01*
X61734Y-29096D01*
X61734Y-28904D01*
X61734Y-29904D01*
X61660Y-29726D01*
X61524Y-29589D01*
X61346Y-29515D01*
X61154Y-29515D01*
X60976Y-29589D01*
X60839Y-29725D01*
X60765Y-29903D01*
X60765Y-30095D01*
X60839Y-30273D01*
X60975Y-30410D01*
X61153Y-30484D01*
X61345Y-30484D01*
X61523Y-30410D01*
X61660Y-30274D01*
X61734Y-30096D01*
X61734Y-29904D01*
X61734Y-30600D01*
X59968Y-30600D01*
X60104Y-30464D01*
X60153Y-30484D01*
X60345Y-30484D01*
X60523Y-30410D01*
X60660Y-30274D01*
X60734Y-30096D01*
X60734Y-29904D01*
X60660Y-29726D01*
X60524Y-29589D01*
X60346Y-29515D01*
X60154Y-29515D01*
X59976Y-29589D01*
X59839Y-29725D01*
X59765Y-29903D01*
X59765Y-30095D01*
X59815Y-30216D01*
X59671Y-30360D01*
X59574Y-30360D01*
X59660Y-30274D01*
X59734Y-30096D01*
X59734Y-29904D01*
X59660Y-29726D01*
X59624Y-29690D01*
X59750Y-29690D01*
X59822Y-29675D01*
X59884Y-29634D01*
X60069Y-29449D01*
X60153Y-29484D01*
X60345Y-29484D01*
X60523Y-29410D01*
X60660Y-29274D01*
X60734Y-29096D01*
X60734Y-28904D01*
X60660Y-28726D01*
X60524Y-28589D01*
X60346Y-28515D01*
X60154Y-28515D01*
X59976Y-28589D01*
X59839Y-28725D01*
X59765Y-28903D01*
X59765Y-29095D01*
X59800Y-29180D01*
X59671Y-29310D01*
X59625Y-29310D01*
X59660Y-29274D01*
X59734Y-29096D01*
X59734Y-28904D01*
X59660Y-28726D01*
X59524Y-28589D01*
X59346Y-28515D01*
X59154Y-28515D01*
X58976Y-28589D01*
X58839Y-28725D01*
X58765Y-28903D01*
X58765Y-29095D01*
X58839Y-29273D01*
X58875Y-29310D01*
X58625Y-29310D01*
X58660Y-29274D01*
X58734Y-29096D01*
X58734Y-28904D01*
X58660Y-28726D01*
X58524Y-28589D01*
X58346Y-28515D01*
X58154Y-28515D01*
X57976Y-28589D01*
X57839Y-28725D01*
X57765Y-28903D01*
X57765Y-29095D01*
X57839Y-29273D01*
X57875Y-29310D01*
X57625Y-29310D01*
X57660Y-29274D01*
X57734Y-29096D01*
X57734Y-28904D01*
X57660Y-28726D01*
X57524Y-28589D01*
X57346Y-28515D01*
X57154Y-28515D01*
X56976Y-28589D01*
X56839Y-28725D01*
X56765Y-28903D01*
X56765Y-29095D01*
X56839Y-29273D01*
X56875Y-29310D01*
X56625Y-29310D01*
X56660Y-29274D01*
X56734Y-29096D01*
X56734Y-28904D01*
X56660Y-28726D01*
X56524Y-28589D01*
X56346Y-28515D01*
X56154Y-28515D01*
X55976Y-28589D01*
X55839Y-28725D01*
X55765Y-28903D01*
X55765Y-29095D01*
X55839Y-29273D01*
X55875Y-29310D01*
X55625Y-29310D01*
X55660Y-29274D01*
X55734Y-29096D01*
X55734Y-28904D01*
X55660Y-28726D01*
X55524Y-28589D01*
X55346Y-28515D01*
X55154Y-28515D01*
X54976Y-28589D01*
X54839Y-28725D01*
X54765Y-28903D01*
X54765Y-29095D01*
X54839Y-29273D01*
X54875Y-29310D01*
X54625Y-29310D01*
X54660Y-29274D01*
X54734Y-29096D01*
X54734Y-28904D01*
X54660Y-28726D01*
X54524Y-28589D01*
X54346Y-28515D01*
X54154Y-28515D01*
X53976Y-28589D01*
X53839Y-28725D01*
X53765Y-28903D01*
X53765Y-29095D01*
X53839Y-29273D01*
X53875Y-29310D01*
X53625Y-29310D01*
X53660Y-29274D01*
X53734Y-29096D01*
X53734Y-28904D01*
X53660Y-28726D01*
X53524Y-28589D01*
X53346Y-28515D01*
X53154Y-28515D01*
X52976Y-28589D01*
X52839Y-28725D01*
X52765Y-28903D01*
X52765Y-29095D01*
X52839Y-29273D01*
X52875Y-29310D01*
X52625Y-29310D01*
X52660Y-29274D01*
X52734Y-29096D01*
X52734Y-28904D01*
X52660Y-28726D01*
X52524Y-28589D01*
X52346Y-28515D01*
X52154Y-28515D01*
X51976Y-28589D01*
X51839Y-28725D01*
X51765Y-28903D01*
X51765Y-29095D01*
X51839Y-29273D01*
X51875Y-29310D01*
X51625Y-29310D01*
X51660Y-29274D01*
X51734Y-29096D01*
X51734Y-28904D01*
X51660Y-28726D01*
X51524Y-28589D01*
X51346Y-28515D01*
X51154Y-28515D01*
X50976Y-28589D01*
X50839Y-28725D01*
X50765Y-28903D01*
X50765Y-29095D01*
X50839Y-29273D01*
X50875Y-29310D01*
X50625Y-29310D01*
X50660Y-29274D01*
X50734Y-29096D01*
X50734Y-28904D01*
X50660Y-28726D01*
X50524Y-28589D01*
X50346Y-28515D01*
X50154Y-28515D01*
X49976Y-28589D01*
X49839Y-28725D01*
X49765Y-28903D01*
X49765Y-29095D01*
X49839Y-29273D01*
X49875Y-29310D01*
X49625Y-29310D01*
X49660Y-29274D01*
X49734Y-29096D01*
X49734Y-28904D01*
X49660Y-28726D01*
X49524Y-28589D01*
X49346Y-28515D01*
X49154Y-28515D01*
X48976Y-28589D01*
X48839Y-28725D01*
X48765Y-28903D01*
X48765Y-29095D01*
X48839Y-29273D01*
X48875Y-29310D01*
X48625Y-29310D01*
X48660Y-29274D01*
X48734Y-29096D01*
X48734Y-28904D01*
X48660Y-28726D01*
X48524Y-28589D01*
X48346Y-28515D01*
X48154Y-28515D01*
X47976Y-28589D01*
X47839Y-28725D01*
X47817Y-28778D01*
X47776Y-28679D01*
X47675Y-28645D01*
X47604Y-28716D01*
X47604Y-28574D01*
X47570Y-28473D01*
X47344Y-28391D01*
X47104Y-28401D01*
X46929Y-28473D01*
X46895Y-28574D01*
X47250Y-28929D01*
X47604Y-28574D01*
X47604Y-28716D01*
X47320Y-29000D01*
X47326Y-29005D01*
X47255Y-29076D01*
X47250Y-29070D01*
X47244Y-29076D01*
X47179Y-29011D01*
X47173Y-29005D01*
X47179Y-29000D01*
X46824Y-28645D01*
X46750Y-28670D01*
X46675Y-28645D01*
X46604Y-28716D01*
X46604Y-28574D01*
X46570Y-28473D01*
X46344Y-28391D01*
X46104Y-28401D01*
X45929Y-28473D01*
X45895Y-28574D01*
X46250Y-28929D01*
X46604Y-28574D01*
X46604Y-28716D01*
X46320Y-29000D01*
X46675Y-29354D01*
X46750Y-29329D01*
X46824Y-29354D01*
X46779Y-29399D01*
X46805Y-29425D01*
X46675Y-29555D01*
X46649Y-29529D01*
X46604Y-29574D01*
X46579Y-29500D01*
X46604Y-29425D01*
X46250Y-29070D01*
X46179Y-29141D01*
X46179Y-29000D01*
X45824Y-28645D01*
X45723Y-28679D01*
X45641Y-28905D01*
X45651Y-29145D01*
X45723Y-29320D01*
X45824Y-29354D01*
X46179Y-29000D01*
X46179Y-29141D01*
X45895Y-29425D01*
X45920Y-29500D01*
X45895Y-29574D01*
X46250Y-29929D01*
X46255Y-29923D01*
X46326Y-29994D01*
X46320Y-30000D01*
X46326Y-30005D01*
X46255Y-30076D01*
X46250Y-30070D01*
X46179Y-30141D01*
X46179Y-30000D01*
X45824Y-29645D01*
X45723Y-29679D01*
X45641Y-29905D01*
X45651Y-30145D01*
X45723Y-30320D01*
X45824Y-30354D01*
X46179Y-30000D01*
X46179Y-30141D01*
X45895Y-30425D01*
X45929Y-30526D01*
X46155Y-30608D01*
X46395Y-30598D01*
X46468Y-30568D01*
X46491Y-30622D01*
X46577Y-30708D01*
X46689Y-30754D01*
X46810Y-30755D01*
X46922Y-30708D01*
X47008Y-30622D01*
X47032Y-30564D01*
X47155Y-30608D01*
X47156Y-30608D01*
X47077Y-30641D01*
X46991Y-30727D01*
X46945Y-30839D01*
X46944Y-30960D01*
X46991Y-31072D01*
X47077Y-31158D01*
X47189Y-31204D01*
X47310Y-31205D01*
X47422Y-31158D01*
X47508Y-31072D01*
X47554Y-30960D01*
X47555Y-30863D01*
X47678Y-30740D01*
X47700Y-30740D01*
X49706Y-30740D01*
X49423Y-31023D01*
X49369Y-31104D01*
X49350Y-31200D01*
X49350Y-31618D01*
X49341Y-31627D01*
X49295Y-31739D01*
X49294Y-31860D01*
X49341Y-31972D01*
X49427Y-32058D01*
X49539Y-32104D01*
X49660Y-32105D01*
X49772Y-32058D01*
X49858Y-31972D01*
X49904Y-31860D01*
X49905Y-31739D01*
X49858Y-31627D01*
X49850Y-31618D01*
X49850Y-31303D01*
X50053Y-31100D01*
X50300Y-31100D01*
X51650Y-31100D01*
X51554Y-31119D01*
X51473Y-31173D01*
X50673Y-31973D01*
X50619Y-32054D01*
X50600Y-32150D01*
X50600Y-35146D01*
X50337Y-35408D01*
X50337Y-35200D01*
X50305Y-35036D01*
X50212Y-34898D01*
X50074Y-34805D01*
X49911Y-34773D01*
X49288Y-34773D01*
X49125Y-34805D01*
X48987Y-34898D01*
X48894Y-35036D01*
X48862Y-35200D01*
X48894Y-35363D01*
X48987Y-35501D01*
X49125Y-35594D01*
X49288Y-35626D01*
X49911Y-35626D01*
X50074Y-35594D01*
X50212Y-35501D01*
X50305Y-35363D01*
X50337Y-35200D01*
X50337Y-35408D01*
X49962Y-35783D01*
X49911Y-35773D01*
X49288Y-35773D01*
X49125Y-35805D01*
X48987Y-35898D01*
X48894Y-36036D01*
X48862Y-36200D01*
X48894Y-36363D01*
X48987Y-36501D01*
X49125Y-36594D01*
X49288Y-36626D01*
X49911Y-36626D01*
X50074Y-36594D01*
X50212Y-36501D01*
X50305Y-36363D01*
X50337Y-36200D01*
X50323Y-36129D01*
X51026Y-35426D01*
X51080Y-35345D01*
X51080Y-35345D01*
X51100Y-35250D01*
X51100Y-32253D01*
X51753Y-31600D01*
X52700Y-31600D01*
X68767Y-31600D01*
X68839Y-31773D01*
X68975Y-31910D01*
X69153Y-31984D01*
X69345Y-31984D01*
X69523Y-31910D01*
X69660Y-31774D01*
X69734Y-31596D01*
X69734Y-31404D01*
X69660Y-31226D01*
X69535Y-31100D01*
X69646Y-31100D01*
X69819Y-31273D01*
X69765Y-31403D01*
X69765Y-31595D01*
X69839Y-31773D01*
X69975Y-31910D01*
X70000Y-31920D01*
X70000Y-32079D01*
X69976Y-32089D01*
X69839Y-32225D01*
X69765Y-32403D01*
X69765Y-32595D01*
X69839Y-32773D01*
X69975Y-32910D01*
X70153Y-32984D01*
X70345Y-32984D01*
X70523Y-32910D01*
X70660Y-32774D01*
X70734Y-32596D01*
X70734Y-32404D01*
X70734Y-47455D01*
X70474Y-47349D01*
X70017Y-47350D01*
X69734Y-47467D01*
X69734Y-32404D01*
X69660Y-32226D01*
X69524Y-32089D01*
X69346Y-32015D01*
X69154Y-32015D01*
X68976Y-32089D01*
X68839Y-32225D01*
X68765Y-32403D01*
X68765Y-32595D01*
X68839Y-32773D01*
X68975Y-32910D01*
X69153Y-32984D01*
X69345Y-32984D01*
X69523Y-32910D01*
X69660Y-32774D01*
X69734Y-32596D01*
X69734Y-32404D01*
X69734Y-47467D01*
X69601Y-47522D01*
X69501Y-47680D01*
X70250Y-48429D01*
X70998Y-47680D01*
X70998Y-47821D01*
X70320Y-48500D01*
X71069Y-49248D01*
X71227Y-49148D01*
X71400Y-48724D01*
X71400Y-49850D01*
X70998Y-49850D01*
X70998Y-49319D01*
X70250Y-48570D01*
X70179Y-48641D01*
X70179Y-48500D01*
X69430Y-47751D01*
X69272Y-47851D01*
X69099Y-48275D01*
X69100Y-48732D01*
X69272Y-49148D01*
X69430Y-49248D01*
X70179Y-48500D01*
X70179Y-48641D01*
X69501Y-49319D01*
X69601Y-49477D01*
X70025Y-49650D01*
X70482Y-49649D01*
X70898Y-49477D01*
X70998Y-49319D01*
X70998Y-49850D01*
X68858Y-49850D01*
X68858Y-49094D01*
X68854Y-48987D01*
X68848Y-48854D01*
X68776Y-48679D01*
X68675Y-48645D01*
X68720Y-48600D01*
X68703Y-48583D01*
X68745Y-48566D01*
X68816Y-48495D01*
X68854Y-48404D01*
X68854Y-48304D01*
X68854Y-48112D01*
X68854Y-47887D01*
X68854Y-47695D01*
X68854Y-47595D01*
X68816Y-47504D01*
X68745Y-47433D01*
X68654Y-47395D01*
X68362Y-47395D01*
X68300Y-47458D01*
X68300Y-47950D01*
X68791Y-47950D01*
X68854Y-47887D01*
X68854Y-48112D01*
X68791Y-48050D01*
X68300Y-48050D01*
X68300Y-48057D01*
X68200Y-48057D01*
X68200Y-48050D01*
X68192Y-48050D01*
X68192Y-47950D01*
X68200Y-47950D01*
X68200Y-47458D01*
X68137Y-47395D01*
X67845Y-47395D01*
X67754Y-47433D01*
X67683Y-47504D01*
X67645Y-47595D01*
X67645Y-47695D01*
X67645Y-47710D01*
X67524Y-47589D01*
X67346Y-47515D01*
X67154Y-47515D01*
X66976Y-47589D01*
X66839Y-47725D01*
X66805Y-47808D01*
X66805Y-33439D01*
X66758Y-33327D01*
X66750Y-33318D01*
X66750Y-32500D01*
X66730Y-32404D01*
X66676Y-32323D01*
X66176Y-31823D01*
X66095Y-31769D01*
X66000Y-31750D01*
X52200Y-31750D01*
X52031Y-31750D01*
X52022Y-31741D01*
X51910Y-31695D01*
X51789Y-31694D01*
X51677Y-31741D01*
X51591Y-31827D01*
X51545Y-31939D01*
X51544Y-32060D01*
X51591Y-32172D01*
X51677Y-32258D01*
X51789Y-32304D01*
X51910Y-32305D01*
X52022Y-32258D01*
X52031Y-32250D01*
X52200Y-32250D01*
X65896Y-32250D01*
X66250Y-32603D01*
X66250Y-32846D01*
X65826Y-32423D01*
X65745Y-32369D01*
X65650Y-32350D01*
X60800Y-32350D01*
X60704Y-32369D01*
X60623Y-32423D01*
X59323Y-33723D01*
X59269Y-33804D01*
X59250Y-33900D01*
X59250Y-37946D01*
X58551Y-38644D01*
X58539Y-38644D01*
X58427Y-38691D01*
X58341Y-38777D01*
X58295Y-38889D01*
X58294Y-39010D01*
X58341Y-39122D01*
X58427Y-39208D01*
X58539Y-39254D01*
X58660Y-39255D01*
X58772Y-39208D01*
X58858Y-39122D01*
X58904Y-39010D01*
X58904Y-38998D01*
X59250Y-38653D01*
X59250Y-42596D01*
X58601Y-43244D01*
X58589Y-43244D01*
X58477Y-43291D01*
X58391Y-43377D01*
X58345Y-43489D01*
X58344Y-43610D01*
X58391Y-43722D01*
X58477Y-43808D01*
X58589Y-43854D01*
X58710Y-43855D01*
X58822Y-43808D01*
X58908Y-43722D01*
X58954Y-43610D01*
X58954Y-43598D01*
X59676Y-42876D01*
X59730Y-42795D01*
X59750Y-42700D01*
X59750Y-38050D01*
X59750Y-34003D01*
X60903Y-32850D01*
X65546Y-32850D01*
X65946Y-33250D01*
X65358Y-33250D01*
X65243Y-33135D01*
X65085Y-33070D01*
X64914Y-33069D01*
X64756Y-33135D01*
X64635Y-33256D01*
X64570Y-33414D01*
X64569Y-33585D01*
X64635Y-33743D01*
X64756Y-33864D01*
X64914Y-33929D01*
X65085Y-33930D01*
X65243Y-33864D01*
X65358Y-33750D01*
X66250Y-33750D01*
X66250Y-38896D01*
X65554Y-39591D01*
X65554Y-37581D01*
X65554Y-36581D01*
X65543Y-36363D01*
X65481Y-36212D01*
X65430Y-36197D01*
X65430Y-35414D01*
X65430Y-34414D01*
X65364Y-34256D01*
X65243Y-34135D01*
X65085Y-34070D01*
X64914Y-34069D01*
X64860Y-34092D01*
X64634Y-33865D01*
X64572Y-33824D01*
X64500Y-33810D01*
X64430Y-33810D01*
X64430Y-33774D01*
X64430Y-33174D01*
X64410Y-33126D01*
X64373Y-33089D01*
X64325Y-33070D01*
X64274Y-33070D01*
X63674Y-33070D01*
X63626Y-33089D01*
X63589Y-33126D01*
X63570Y-33174D01*
X63570Y-33225D01*
X63570Y-33810D01*
X63292Y-33810D01*
X63258Y-33727D01*
X63172Y-33641D01*
X63060Y-33595D01*
X62939Y-33594D01*
X62827Y-33641D01*
X62741Y-33727D01*
X62695Y-33839D01*
X62694Y-33960D01*
X62741Y-34072D01*
X62827Y-34158D01*
X62939Y-34204D01*
X63060Y-34205D01*
X63097Y-34189D01*
X63100Y-34190D01*
X63701Y-34190D01*
X63635Y-34256D01*
X63570Y-34414D01*
X63569Y-34585D01*
X63635Y-34743D01*
X63756Y-34864D01*
X63914Y-34929D01*
X64085Y-34930D01*
X64243Y-34864D01*
X64364Y-34743D01*
X64429Y-34585D01*
X64430Y-34414D01*
X64364Y-34256D01*
X64298Y-34190D01*
X64421Y-34190D01*
X64592Y-34360D01*
X64570Y-34414D01*
X64569Y-34585D01*
X64635Y-34743D01*
X64756Y-34864D01*
X64914Y-34929D01*
X65085Y-34930D01*
X65243Y-34864D01*
X65364Y-34743D01*
X65429Y-34585D01*
X65430Y-34414D01*
X65430Y-35414D01*
X65364Y-35256D01*
X65243Y-35135D01*
X65085Y-35070D01*
X64914Y-35069D01*
X64756Y-35135D01*
X64635Y-35256D01*
X64570Y-35414D01*
X64569Y-35585D01*
X64592Y-35639D01*
X64421Y-35810D01*
X64298Y-35810D01*
X64364Y-35743D01*
X64429Y-35585D01*
X64430Y-35414D01*
X64364Y-35256D01*
X64243Y-35135D01*
X64085Y-35070D01*
X63914Y-35069D01*
X63756Y-35135D01*
X63635Y-35256D01*
X63570Y-35414D01*
X63569Y-35585D01*
X63635Y-35743D01*
X63701Y-35810D01*
X63428Y-35810D01*
X62504Y-34886D01*
X62505Y-34789D01*
X62458Y-34677D01*
X62372Y-34591D01*
X62260Y-34545D01*
X62139Y-34544D01*
X62027Y-34591D01*
X61941Y-34677D01*
X61895Y-34789D01*
X61894Y-34910D01*
X61941Y-35022D01*
X62027Y-35108D01*
X62139Y-35154D01*
X62236Y-35155D01*
X63215Y-36134D01*
X63277Y-36175D01*
X63350Y-36190D01*
X63350Y-36190D01*
X63350Y-36190D01*
X63701Y-36190D01*
X63635Y-36256D01*
X63570Y-36414D01*
X63569Y-36585D01*
X63635Y-36743D01*
X63756Y-36864D01*
X63914Y-36929D01*
X64085Y-36930D01*
X64243Y-36864D01*
X64364Y-36743D01*
X64429Y-36585D01*
X64430Y-36414D01*
X64364Y-36256D01*
X64298Y-36190D01*
X64500Y-36190D01*
X64572Y-36175D01*
X64591Y-36162D01*
X64614Y-36184D01*
X64518Y-36212D01*
X64445Y-36418D01*
X64456Y-36636D01*
X64518Y-36787D01*
X64614Y-36815D01*
X64929Y-36500D01*
X64923Y-36494D01*
X64994Y-36423D01*
X65000Y-36429D01*
X65315Y-36114D01*
X65287Y-36018D01*
X65081Y-35945D01*
X64863Y-35956D01*
X64776Y-35992D01*
X64860Y-35907D01*
X64914Y-35929D01*
X65085Y-35930D01*
X65243Y-35864D01*
X65364Y-35743D01*
X65429Y-35585D01*
X65430Y-35414D01*
X65430Y-36197D01*
X65385Y-36184D01*
X65070Y-36500D01*
X65385Y-36815D01*
X65481Y-36787D01*
X65554Y-36581D01*
X65554Y-37581D01*
X65543Y-37363D01*
X65481Y-37212D01*
X65385Y-37184D01*
X65315Y-37255D01*
X65315Y-37114D01*
X65287Y-37018D01*
X65239Y-37001D01*
X65287Y-36981D01*
X65315Y-36885D01*
X65000Y-36570D01*
X64929Y-36641D01*
X64684Y-36885D01*
X64712Y-36981D01*
X64760Y-36998D01*
X64712Y-37018D01*
X64684Y-37114D01*
X65000Y-37429D01*
X65315Y-37114D01*
X65315Y-37255D01*
X65070Y-37500D01*
X65385Y-37815D01*
X65481Y-37787D01*
X65554Y-37581D01*
X65554Y-39591D01*
X65315Y-39831D01*
X65315Y-37885D01*
X65000Y-37570D01*
X64929Y-37641D01*
X64929Y-37500D01*
X64614Y-37184D01*
X64518Y-37212D01*
X64445Y-37418D01*
X64456Y-37636D01*
X64518Y-37787D01*
X64614Y-37815D01*
X64929Y-37500D01*
X64929Y-37641D01*
X64684Y-37885D01*
X64712Y-37981D01*
X64918Y-38054D01*
X65136Y-38043D01*
X65287Y-37981D01*
X65315Y-37885D01*
X65315Y-39831D01*
X65076Y-40070D01*
X64914Y-40069D01*
X64756Y-40135D01*
X64635Y-40256D01*
X64570Y-40414D01*
X64569Y-40585D01*
X64635Y-40743D01*
X64756Y-40864D01*
X64914Y-40929D01*
X65085Y-40930D01*
X65243Y-40864D01*
X65364Y-40743D01*
X65429Y-40585D01*
X65430Y-40423D01*
X66676Y-39176D01*
X66730Y-39095D01*
X66750Y-39000D01*
X66750Y-39000D01*
X66750Y-38999D01*
X66750Y-33681D01*
X66758Y-33672D01*
X66804Y-33560D01*
X66805Y-33439D01*
X66805Y-47808D01*
X66765Y-47903D01*
X66765Y-48095D01*
X66839Y-48273D01*
X66975Y-48410D01*
X67153Y-48484D01*
X67345Y-48484D01*
X67523Y-48410D01*
X67645Y-48289D01*
X67645Y-48304D01*
X67645Y-48404D01*
X67683Y-48495D01*
X67754Y-48566D01*
X67796Y-48583D01*
X67779Y-48600D01*
X67824Y-48645D01*
X67723Y-48679D01*
X67685Y-48784D01*
X67660Y-48726D01*
X67524Y-48589D01*
X67346Y-48515D01*
X67154Y-48515D01*
X66976Y-48589D01*
X66839Y-48725D01*
X66765Y-48903D01*
X66765Y-49095D01*
X66839Y-49273D01*
X66975Y-49410D01*
X67153Y-49484D01*
X67345Y-49484D01*
X67523Y-49410D01*
X67660Y-49274D01*
X67682Y-49221D01*
X67723Y-49320D01*
X67824Y-49354D01*
X68179Y-49000D01*
X68173Y-48994D01*
X68244Y-48923D01*
X68250Y-48929D01*
X68255Y-48923D01*
X68326Y-48994D01*
X68320Y-49000D01*
X68675Y-49354D01*
X68776Y-49320D01*
X68858Y-49094D01*
X68858Y-49850D01*
X68604Y-49850D01*
X68604Y-49425D01*
X68250Y-49070D01*
X68179Y-49141D01*
X67895Y-49425D01*
X67929Y-49526D01*
X68155Y-49608D01*
X68395Y-49598D01*
X68570Y-49526D01*
X68604Y-49425D01*
X68604Y-49850D01*
X66734Y-49850D01*
X66734Y-48904D01*
X66734Y-47904D01*
X66660Y-47726D01*
X66524Y-47589D01*
X66346Y-47515D01*
X66154Y-47515D01*
X65976Y-47589D01*
X65839Y-47725D01*
X65765Y-47903D01*
X65765Y-48095D01*
X65839Y-48273D01*
X65975Y-48410D01*
X66153Y-48484D01*
X66345Y-48484D01*
X66523Y-48410D01*
X66660Y-48274D01*
X66734Y-48096D01*
X66734Y-47904D01*
X66734Y-48904D01*
X66660Y-48726D01*
X66524Y-48589D01*
X66346Y-48515D01*
X66154Y-48515D01*
X65976Y-48589D01*
X65839Y-48725D01*
X65765Y-48903D01*
X65765Y-49095D01*
X65839Y-49273D01*
X65975Y-49410D01*
X66153Y-49484D01*
X66345Y-49484D01*
X66523Y-49410D01*
X66660Y-49274D01*
X66734Y-49096D01*
X66734Y-48904D01*
X66734Y-49850D01*
X65734Y-49850D01*
X65734Y-48904D01*
X65734Y-47904D01*
X65660Y-47726D01*
X65554Y-47619D01*
X65554Y-44581D01*
X65554Y-43581D01*
X65543Y-43363D01*
X65481Y-43212D01*
X65430Y-43197D01*
X65430Y-42414D01*
X65430Y-41414D01*
X65364Y-41256D01*
X65243Y-41135D01*
X65085Y-41070D01*
X64914Y-41069D01*
X64756Y-41135D01*
X64635Y-41256D01*
X64570Y-41414D01*
X64569Y-41585D01*
X64635Y-41743D01*
X64756Y-41864D01*
X64914Y-41929D01*
X65085Y-41930D01*
X65243Y-41864D01*
X65364Y-41743D01*
X65429Y-41585D01*
X65430Y-41414D01*
X65430Y-42414D01*
X65364Y-42256D01*
X65243Y-42135D01*
X65085Y-42070D01*
X64914Y-42069D01*
X64756Y-42135D01*
X64635Y-42256D01*
X64570Y-42414D01*
X64569Y-42585D01*
X64635Y-42743D01*
X64756Y-42864D01*
X64914Y-42929D01*
X65085Y-42930D01*
X65243Y-42864D01*
X65364Y-42743D01*
X65429Y-42585D01*
X65430Y-42414D01*
X65430Y-43197D01*
X65385Y-43184D01*
X65315Y-43255D01*
X65315Y-43114D01*
X65287Y-43018D01*
X65081Y-42945D01*
X64863Y-42956D01*
X64712Y-43018D01*
X64684Y-43114D01*
X65000Y-43429D01*
X65315Y-43114D01*
X65315Y-43255D01*
X65070Y-43500D01*
X65385Y-43815D01*
X65481Y-43787D01*
X65554Y-43581D01*
X65554Y-44581D01*
X65543Y-44363D01*
X65481Y-44212D01*
X65385Y-44184D01*
X65315Y-44255D01*
X65315Y-44114D01*
X65287Y-44018D01*
X65239Y-44001D01*
X65287Y-43981D01*
X65315Y-43885D01*
X65000Y-43570D01*
X64929Y-43641D01*
X64929Y-43500D01*
X64614Y-43184D01*
X64518Y-43212D01*
X64445Y-43418D01*
X64456Y-43636D01*
X64518Y-43787D01*
X64614Y-43815D01*
X64929Y-43500D01*
X64929Y-43641D01*
X64684Y-43885D01*
X64712Y-43981D01*
X64760Y-43998D01*
X64712Y-44018D01*
X64684Y-44114D01*
X65000Y-44429D01*
X65315Y-44114D01*
X65315Y-44255D01*
X65070Y-44500D01*
X65385Y-44815D01*
X65481Y-44787D01*
X65554Y-44581D01*
X65554Y-47619D01*
X65524Y-47589D01*
X65346Y-47515D01*
X65315Y-47515D01*
X65315Y-44885D01*
X65000Y-44570D01*
X64929Y-44641D01*
X64929Y-44500D01*
X64614Y-44184D01*
X64518Y-44212D01*
X64445Y-44418D01*
X64456Y-44636D01*
X64518Y-44787D01*
X64614Y-44815D01*
X64929Y-44500D01*
X64929Y-44641D01*
X64684Y-44885D01*
X64712Y-44981D01*
X64918Y-45054D01*
X65136Y-45043D01*
X65287Y-44981D01*
X65315Y-44885D01*
X65315Y-47515D01*
X65154Y-47515D01*
X64976Y-47589D01*
X64839Y-47725D01*
X64765Y-47903D01*
X64765Y-48095D01*
X64839Y-48273D01*
X64975Y-48410D01*
X65153Y-48484D01*
X65345Y-48484D01*
X65523Y-48410D01*
X65660Y-48274D01*
X65734Y-48096D01*
X65734Y-47904D01*
X65734Y-48904D01*
X65660Y-48726D01*
X65524Y-48589D01*
X65346Y-48515D01*
X65154Y-48515D01*
X64976Y-48589D01*
X64839Y-48725D01*
X64765Y-48903D01*
X64765Y-49095D01*
X64839Y-49273D01*
X64975Y-49410D01*
X65153Y-49484D01*
X65345Y-49484D01*
X65523Y-49410D01*
X65660Y-49274D01*
X65734Y-49096D01*
X65734Y-48904D01*
X65734Y-49850D01*
X64734Y-49850D01*
X64734Y-48904D01*
X64734Y-47904D01*
X64660Y-47726D01*
X64524Y-47589D01*
X64430Y-47550D01*
X64430Y-44414D01*
X64430Y-43414D01*
X64430Y-42414D01*
X64430Y-41414D01*
X64430Y-37414D01*
X64364Y-37256D01*
X64243Y-37135D01*
X64085Y-37070D01*
X63914Y-37069D01*
X63756Y-37135D01*
X63635Y-37256D01*
X63570Y-37414D01*
X63569Y-37585D01*
X63635Y-37743D01*
X63756Y-37864D01*
X63914Y-37929D01*
X64085Y-37930D01*
X64243Y-37864D01*
X64364Y-37743D01*
X64429Y-37585D01*
X64430Y-37414D01*
X64430Y-41414D01*
X64430Y-41414D01*
X64430Y-40825D01*
X64430Y-40774D01*
X64430Y-40174D01*
X64410Y-40126D01*
X64373Y-40089D01*
X64325Y-40070D01*
X64274Y-40070D01*
X64190Y-40070D01*
X64190Y-39291D01*
X64258Y-39222D01*
X64304Y-39110D01*
X64305Y-38989D01*
X64258Y-38877D01*
X64172Y-38791D01*
X64060Y-38745D01*
X63939Y-38744D01*
X63827Y-38791D01*
X63741Y-38877D01*
X63695Y-38989D01*
X63694Y-39110D01*
X63741Y-39222D01*
X63810Y-39291D01*
X63810Y-40070D01*
X63674Y-40070D01*
X63626Y-40089D01*
X63589Y-40126D01*
X63570Y-40174D01*
X63570Y-40225D01*
X63570Y-40825D01*
X63589Y-40873D01*
X63626Y-40910D01*
X63674Y-40930D01*
X63725Y-40930D01*
X64325Y-40930D01*
X64373Y-40910D01*
X64410Y-40873D01*
X64430Y-40825D01*
X64430Y-41414D01*
X64364Y-41256D01*
X64243Y-41135D01*
X64085Y-41070D01*
X63914Y-41069D01*
X63756Y-41135D01*
X63635Y-41256D01*
X63570Y-41414D01*
X63569Y-41585D01*
X63635Y-41743D01*
X63756Y-41864D01*
X63914Y-41929D01*
X64085Y-41930D01*
X64243Y-41864D01*
X64364Y-41743D01*
X64429Y-41585D01*
X64430Y-41414D01*
X64430Y-42414D01*
X64364Y-42256D01*
X64243Y-42135D01*
X64085Y-42070D01*
X63914Y-42069D01*
X63756Y-42135D01*
X63635Y-42256D01*
X63570Y-42414D01*
X63569Y-42585D01*
X63635Y-42743D01*
X63756Y-42864D01*
X63914Y-42929D01*
X64085Y-42930D01*
X64243Y-42864D01*
X64364Y-42743D01*
X64429Y-42585D01*
X64430Y-42414D01*
X64430Y-43414D01*
X64364Y-43256D01*
X64243Y-43135D01*
X64085Y-43070D01*
X63914Y-43069D01*
X63756Y-43135D01*
X63635Y-43256D01*
X63570Y-43414D01*
X63569Y-43585D01*
X63635Y-43743D01*
X63756Y-43864D01*
X63914Y-43929D01*
X64085Y-43930D01*
X64243Y-43864D01*
X64364Y-43743D01*
X64429Y-43585D01*
X64430Y-43414D01*
X64430Y-44414D01*
X64364Y-44256D01*
X64243Y-44135D01*
X64085Y-44070D01*
X63914Y-44069D01*
X63756Y-44135D01*
X63635Y-44256D01*
X63570Y-44414D01*
X63569Y-44585D01*
X63635Y-44743D01*
X63756Y-44864D01*
X63914Y-44929D01*
X64085Y-44930D01*
X64243Y-44864D01*
X64364Y-44743D01*
X64429Y-44585D01*
X64430Y-44414D01*
X64430Y-47550D01*
X64346Y-47515D01*
X64154Y-47515D01*
X63976Y-47589D01*
X63839Y-47725D01*
X63765Y-47903D01*
X63765Y-48095D01*
X63839Y-48273D01*
X63975Y-48410D01*
X64153Y-48484D01*
X64345Y-48484D01*
X64523Y-48410D01*
X64660Y-48274D01*
X64734Y-48096D01*
X64734Y-47904D01*
X64734Y-48904D01*
X64660Y-48726D01*
X64524Y-48589D01*
X64346Y-48515D01*
X64154Y-48515D01*
X63976Y-48589D01*
X63839Y-48725D01*
X63765Y-48903D01*
X63765Y-49095D01*
X63839Y-49273D01*
X63975Y-49410D01*
X64153Y-49484D01*
X64345Y-49484D01*
X64523Y-49410D01*
X64660Y-49274D01*
X64734Y-49096D01*
X64734Y-48904D01*
X64734Y-49850D01*
X63734Y-49850D01*
X63734Y-48904D01*
X63734Y-47904D01*
X63660Y-47726D01*
X63524Y-47589D01*
X63346Y-47515D01*
X63154Y-47515D01*
X62976Y-47589D01*
X62839Y-47725D01*
X62765Y-47903D01*
X62765Y-48095D01*
X62839Y-48273D01*
X62975Y-48410D01*
X63153Y-48484D01*
X63345Y-48484D01*
X63523Y-48410D01*
X63660Y-48274D01*
X63734Y-48096D01*
X63734Y-47904D01*
X63734Y-48904D01*
X63660Y-48726D01*
X63524Y-48589D01*
X63346Y-48515D01*
X63154Y-48515D01*
X62976Y-48589D01*
X62839Y-48725D01*
X62765Y-48903D01*
X62765Y-49095D01*
X62839Y-49273D01*
X62975Y-49410D01*
X63153Y-49484D01*
X63345Y-49484D01*
X63523Y-49410D01*
X63660Y-49274D01*
X63734Y-49096D01*
X63734Y-48904D01*
X63734Y-49850D01*
X62734Y-49850D01*
X62734Y-48904D01*
X62734Y-47904D01*
X62660Y-47726D01*
X62524Y-47589D01*
X62346Y-47515D01*
X62154Y-47515D01*
X61976Y-47589D01*
X61839Y-47725D01*
X61805Y-47808D01*
X61805Y-44439D01*
X61758Y-44327D01*
X61672Y-44241D01*
X61560Y-44195D01*
X61439Y-44194D01*
X61327Y-44241D01*
X61308Y-44260D01*
X60391Y-44260D01*
X60322Y-44191D01*
X60210Y-44145D01*
X60089Y-44144D01*
X59977Y-44191D01*
X59891Y-44277D01*
X59845Y-44389D01*
X59844Y-44510D01*
X59891Y-44622D01*
X59977Y-44708D01*
X60089Y-44754D01*
X60210Y-44755D01*
X60322Y-44708D01*
X60391Y-44640D01*
X61227Y-44640D01*
X61241Y-44672D01*
X61327Y-44758D01*
X61439Y-44804D01*
X61560Y-44805D01*
X61672Y-44758D01*
X61758Y-44672D01*
X61804Y-44560D01*
X61805Y-44439D01*
X61805Y-47808D01*
X61765Y-47903D01*
X61765Y-48095D01*
X61839Y-48273D01*
X61975Y-48410D01*
X62153Y-48484D01*
X62345Y-48484D01*
X62523Y-48410D01*
X62660Y-48274D01*
X62734Y-48096D01*
X62734Y-47904D01*
X62734Y-48904D01*
X62660Y-48726D01*
X62524Y-48589D01*
X62346Y-48515D01*
X62154Y-48515D01*
X61976Y-48589D01*
X61839Y-48725D01*
X61765Y-48903D01*
X61765Y-49095D01*
X61839Y-49273D01*
X61975Y-49410D01*
X62153Y-49484D01*
X62345Y-49484D01*
X62523Y-49410D01*
X62660Y-49274D01*
X62734Y-49096D01*
X62734Y-48904D01*
X62734Y-49850D01*
X61734Y-49850D01*
X61734Y-48904D01*
X61734Y-47904D01*
X61660Y-47726D01*
X61524Y-47589D01*
X61346Y-47515D01*
X61154Y-47515D01*
X60976Y-47589D01*
X60839Y-47725D01*
X60765Y-47903D01*
X60765Y-48095D01*
X60839Y-48273D01*
X60975Y-48410D01*
X61153Y-48484D01*
X61345Y-48484D01*
X61523Y-48410D01*
X61660Y-48274D01*
X61734Y-48096D01*
X61734Y-47904D01*
X61734Y-48904D01*
X61660Y-48726D01*
X61524Y-48589D01*
X61346Y-48515D01*
X61154Y-48515D01*
X60976Y-48589D01*
X60839Y-48725D01*
X60765Y-48903D01*
X60765Y-49095D01*
X60839Y-49273D01*
X60975Y-49410D01*
X61153Y-49484D01*
X61345Y-49484D01*
X61523Y-49410D01*
X61660Y-49274D01*
X61734Y-49096D01*
X61734Y-48904D01*
X61734Y-49850D01*
X60734Y-49850D01*
X60734Y-48904D01*
X60734Y-47904D01*
X60660Y-47726D01*
X60524Y-47589D01*
X60346Y-47515D01*
X60154Y-47515D01*
X59976Y-47589D01*
X59839Y-47725D01*
X59765Y-47903D01*
X59765Y-48095D01*
X59839Y-48273D01*
X59975Y-48410D01*
X60153Y-48484D01*
X60345Y-48484D01*
X60523Y-48410D01*
X60660Y-48274D01*
X60734Y-48096D01*
X60734Y-47904D01*
X60734Y-48904D01*
X60660Y-48726D01*
X60524Y-48589D01*
X60346Y-48515D01*
X60154Y-48515D01*
X59976Y-48589D01*
X59839Y-48725D01*
X59765Y-48903D01*
X59765Y-49095D01*
X59839Y-49273D01*
X59975Y-49410D01*
X60153Y-49484D01*
X60345Y-49484D01*
X60523Y-49410D01*
X60660Y-49274D01*
X60734Y-49096D01*
X60734Y-48904D01*
X60734Y-49850D01*
X59734Y-49850D01*
X59734Y-48904D01*
X59734Y-47904D01*
X59660Y-47726D01*
X59524Y-47589D01*
X59346Y-47515D01*
X59154Y-47515D01*
X58976Y-47589D01*
X58839Y-47725D01*
X58765Y-47903D01*
X58765Y-48095D01*
X58839Y-48273D01*
X58975Y-48410D01*
X59153Y-48484D01*
X59345Y-48484D01*
X59523Y-48410D01*
X59660Y-48274D01*
X59734Y-48096D01*
X59734Y-47904D01*
X59734Y-48904D01*
X59660Y-48726D01*
X59524Y-48589D01*
X59346Y-48515D01*
X59154Y-48515D01*
X58976Y-48589D01*
X58839Y-48725D01*
X58765Y-48903D01*
X58765Y-49095D01*
X58839Y-49273D01*
X58975Y-49410D01*
X59153Y-49484D01*
X59345Y-49484D01*
X59523Y-49410D01*
X59660Y-49274D01*
X59734Y-49096D01*
X59734Y-48904D01*
X59734Y-49850D01*
X58734Y-49850D01*
X58734Y-48904D01*
X58734Y-47904D01*
X58660Y-47726D01*
X58524Y-47589D01*
X58346Y-47515D01*
X58154Y-47515D01*
X57976Y-47589D01*
X57839Y-47725D01*
X57765Y-47903D01*
X57765Y-48095D01*
X57839Y-48273D01*
X57975Y-48410D01*
X58153Y-48484D01*
X58345Y-48484D01*
X58523Y-48410D01*
X58660Y-48274D01*
X58734Y-48096D01*
X58734Y-47904D01*
X58734Y-48904D01*
X58660Y-48726D01*
X58524Y-48589D01*
X58346Y-48515D01*
X58154Y-48515D01*
X57976Y-48589D01*
X57839Y-48725D01*
X57765Y-48903D01*
X57765Y-49095D01*
X57839Y-49273D01*
X57975Y-49410D01*
X58153Y-49484D01*
X58345Y-49484D01*
X58523Y-49410D01*
X58660Y-49274D01*
X58734Y-49096D01*
X58734Y-48904D01*
X58734Y-49850D01*
X57734Y-49850D01*
X57734Y-48904D01*
X57734Y-47904D01*
X57660Y-47726D01*
X57524Y-47589D01*
X57346Y-47515D01*
X57154Y-47515D01*
X56976Y-47589D01*
X56839Y-47725D01*
X56765Y-47903D01*
X56765Y-48095D01*
X56839Y-48273D01*
X56975Y-48410D01*
X57153Y-48484D01*
X57345Y-48484D01*
X57523Y-48410D01*
X57660Y-48274D01*
X57734Y-48096D01*
X57734Y-47904D01*
X57734Y-48904D01*
X57660Y-48726D01*
X57524Y-48589D01*
X57346Y-48515D01*
X57154Y-48515D01*
X56976Y-48589D01*
X56839Y-48725D01*
X56765Y-48903D01*
X56765Y-49095D01*
X56839Y-49273D01*
X56975Y-49410D01*
X57153Y-49484D01*
X57345Y-49484D01*
X57523Y-49410D01*
X57660Y-49274D01*
X57734Y-49096D01*
X57734Y-48904D01*
X57734Y-49850D01*
X56734Y-49850D01*
X56734Y-48904D01*
X56734Y-47904D01*
X56660Y-47726D01*
X56524Y-47589D01*
X56346Y-47515D01*
X56154Y-47515D01*
X55976Y-47589D01*
X55839Y-47725D01*
X55765Y-47903D01*
X55765Y-48095D01*
X55839Y-48273D01*
X55975Y-48410D01*
X56153Y-48484D01*
X56345Y-48484D01*
X56523Y-48410D01*
X56660Y-48274D01*
X56734Y-48096D01*
X56734Y-47904D01*
X56734Y-48904D01*
X56660Y-48726D01*
X56524Y-48589D01*
X56346Y-48515D01*
X56154Y-48515D01*
X55976Y-48589D01*
X55839Y-48725D01*
X55765Y-48903D01*
X55765Y-49095D01*
X55839Y-49273D01*
X55975Y-49410D01*
X56153Y-49484D01*
X56345Y-49484D01*
X56523Y-49410D01*
X56660Y-49274D01*
X56734Y-49096D01*
X56734Y-48904D01*
X56734Y-49850D01*
X55734Y-49850D01*
X55734Y-48904D01*
X55734Y-47904D01*
X55660Y-47726D01*
X55524Y-47589D01*
X55346Y-47515D01*
X55154Y-47515D01*
X54976Y-47589D01*
X54839Y-47725D01*
X54765Y-47903D01*
X54765Y-48095D01*
X54839Y-48273D01*
X54975Y-48410D01*
X55153Y-48484D01*
X55345Y-48484D01*
X55523Y-48410D01*
X55660Y-48274D01*
X55734Y-48096D01*
X55734Y-47904D01*
X55734Y-48904D01*
X55660Y-48726D01*
X55524Y-48589D01*
X55346Y-48515D01*
X55154Y-48515D01*
X54976Y-48589D01*
X54839Y-48725D01*
X54765Y-48903D01*
X54765Y-49095D01*
X54839Y-49273D01*
X54975Y-49410D01*
X55153Y-49484D01*
X55345Y-49484D01*
X55523Y-49410D01*
X55660Y-49274D01*
X55734Y-49096D01*
X55734Y-48904D01*
X55734Y-49850D01*
X54734Y-49850D01*
X54734Y-48904D01*
X54734Y-47904D01*
X54660Y-47726D01*
X54524Y-47589D01*
X54346Y-47515D01*
X54154Y-47515D01*
X53976Y-47589D01*
X53839Y-47725D01*
X53765Y-47903D01*
X53765Y-48095D01*
X53839Y-48273D01*
X53975Y-48410D01*
X54153Y-48484D01*
X54345Y-48484D01*
X54523Y-48410D01*
X54660Y-48274D01*
X54734Y-48096D01*
X54734Y-47904D01*
X54734Y-48904D01*
X54660Y-48726D01*
X54524Y-48589D01*
X54346Y-48515D01*
X54154Y-48515D01*
X53976Y-48589D01*
X53839Y-48725D01*
X53765Y-48903D01*
X53765Y-49095D01*
X53839Y-49273D01*
X53975Y-49410D01*
X54153Y-49484D01*
X54345Y-49484D01*
X54523Y-49410D01*
X54660Y-49274D01*
X54734Y-49096D01*
X54734Y-48904D01*
X54734Y-49850D01*
X53734Y-49850D01*
X53734Y-48904D01*
X53734Y-47904D01*
X53660Y-47726D01*
X53524Y-47589D01*
X53346Y-47515D01*
X53154Y-47515D01*
X52976Y-47589D01*
X52839Y-47725D01*
X52765Y-47903D01*
X52765Y-48095D01*
X52839Y-48273D01*
X52975Y-48410D01*
X53153Y-48484D01*
X53345Y-48484D01*
X53523Y-48410D01*
X53660Y-48274D01*
X53734Y-48096D01*
X53734Y-47904D01*
X53734Y-48904D01*
X53660Y-48726D01*
X53524Y-48589D01*
X53346Y-48515D01*
X53154Y-48515D01*
X52976Y-48589D01*
X52839Y-48725D01*
X52765Y-48903D01*
X52765Y-49095D01*
X52839Y-49273D01*
X52975Y-49410D01*
X53153Y-49484D01*
X53345Y-49484D01*
X53523Y-49410D01*
X53660Y-49274D01*
X53734Y-49096D01*
X53734Y-48904D01*
X53734Y-49850D01*
X52734Y-49850D01*
X52734Y-48904D01*
X52734Y-47904D01*
X52660Y-47726D01*
X52524Y-47589D01*
X52346Y-47515D01*
X52154Y-47515D01*
X51976Y-47589D01*
X51839Y-47725D01*
X51765Y-47903D01*
X51765Y-48095D01*
X51839Y-48273D01*
X51975Y-48410D01*
X52153Y-48484D01*
X52345Y-48484D01*
X52523Y-48410D01*
X52660Y-48274D01*
X52734Y-48096D01*
X52734Y-47904D01*
X52734Y-48904D01*
X52660Y-48726D01*
X52524Y-48589D01*
X52346Y-48515D01*
X52154Y-48515D01*
X51976Y-48589D01*
X51839Y-48725D01*
X51765Y-48903D01*
X51765Y-49095D01*
X51839Y-49273D01*
X51975Y-49410D01*
X52153Y-49484D01*
X52345Y-49484D01*
X52523Y-49410D01*
X52660Y-49274D01*
X52734Y-49096D01*
X52734Y-48904D01*
X52734Y-49850D01*
X51734Y-49850D01*
X51734Y-48904D01*
X51734Y-47904D01*
X51660Y-47726D01*
X51524Y-47589D01*
X51346Y-47515D01*
X51154Y-47515D01*
X50976Y-47589D01*
X50839Y-47725D01*
X50765Y-47903D01*
X50765Y-48095D01*
X50839Y-48273D01*
X50975Y-48410D01*
X51153Y-48484D01*
X51345Y-48484D01*
X51523Y-48410D01*
X51660Y-48274D01*
X51734Y-48096D01*
X51734Y-47904D01*
X51734Y-48904D01*
X51660Y-48726D01*
X51524Y-48589D01*
X51346Y-48515D01*
X51154Y-48515D01*
X50976Y-48589D01*
X50839Y-48725D01*
X50765Y-48903D01*
X50765Y-49095D01*
X50839Y-49273D01*
X50975Y-49410D01*
X51153Y-49484D01*
X51345Y-49484D01*
X51523Y-49410D01*
X51660Y-49274D01*
X51734Y-49096D01*
X51734Y-48904D01*
X51734Y-49850D01*
X50734Y-49850D01*
X50734Y-48904D01*
X50734Y-47904D01*
X50660Y-47726D01*
X50524Y-47589D01*
X50346Y-47515D01*
X50337Y-47515D01*
X50337Y-42800D01*
X50337Y-41800D01*
X50337Y-40600D01*
X50337Y-39600D01*
X50337Y-38400D01*
X50337Y-37400D01*
X50305Y-37236D01*
X50212Y-37098D01*
X50074Y-37005D01*
X49911Y-36973D01*
X49288Y-36973D01*
X49125Y-37005D01*
X48987Y-37098D01*
X48894Y-37236D01*
X48862Y-37400D01*
X48894Y-37563D01*
X48987Y-37701D01*
X49125Y-37794D01*
X49288Y-37826D01*
X49911Y-37826D01*
X50074Y-37794D01*
X50212Y-37701D01*
X50305Y-37563D01*
X50337Y-37400D01*
X50337Y-38400D01*
X50305Y-38236D01*
X50212Y-38098D01*
X50074Y-38005D01*
X49911Y-37973D01*
X49288Y-37973D01*
X49125Y-38005D01*
X48987Y-38098D01*
X48894Y-38236D01*
X48862Y-38400D01*
X48894Y-38563D01*
X48987Y-38701D01*
X49125Y-38794D01*
X49288Y-38826D01*
X49911Y-38826D01*
X50074Y-38794D01*
X50212Y-38701D01*
X50305Y-38563D01*
X50337Y-38400D01*
X50337Y-39600D01*
X50305Y-39436D01*
X50212Y-39298D01*
X50074Y-39205D01*
X49911Y-39173D01*
X49288Y-39173D01*
X49125Y-39205D01*
X48987Y-39298D01*
X48894Y-39436D01*
X48862Y-39600D01*
X48894Y-39763D01*
X48987Y-39901D01*
X49125Y-39994D01*
X49288Y-40026D01*
X49911Y-40026D01*
X50074Y-39994D01*
X50212Y-39901D01*
X50305Y-39763D01*
X50337Y-39600D01*
X50337Y-40600D01*
X50305Y-40436D01*
X50212Y-40298D01*
X50074Y-40205D01*
X49911Y-40173D01*
X49288Y-40173D01*
X49125Y-40205D01*
X48987Y-40298D01*
X48894Y-40436D01*
X48862Y-40600D01*
X48894Y-40763D01*
X48987Y-40901D01*
X49125Y-40994D01*
X49288Y-41026D01*
X49911Y-41026D01*
X50074Y-40994D01*
X50212Y-40901D01*
X50305Y-40763D01*
X50337Y-40600D01*
X50337Y-41800D01*
X50305Y-41636D01*
X50212Y-41498D01*
X50074Y-41405D01*
X49911Y-41373D01*
X49288Y-41373D01*
X49125Y-41405D01*
X48987Y-41498D01*
X48894Y-41636D01*
X48862Y-41800D01*
X48894Y-41963D01*
X48987Y-42101D01*
X49125Y-42194D01*
X49288Y-42226D01*
X49911Y-42226D01*
X50074Y-42194D01*
X50212Y-42101D01*
X50305Y-41963D01*
X50337Y-41800D01*
X50337Y-42800D01*
X50305Y-42636D01*
X50212Y-42498D01*
X50074Y-42405D01*
X49911Y-42373D01*
X49288Y-42373D01*
X49125Y-42405D01*
X48987Y-42498D01*
X48894Y-42636D01*
X48862Y-42800D01*
X48894Y-42963D01*
X48987Y-43101D01*
X49125Y-43194D01*
X49288Y-43226D01*
X49911Y-43226D01*
X50074Y-43194D01*
X50212Y-43101D01*
X50305Y-42963D01*
X50337Y-42800D01*
X50337Y-47515D01*
X50154Y-47515D01*
X49976Y-47589D01*
X49839Y-47725D01*
X49765Y-47903D01*
X49765Y-48095D01*
X49839Y-48273D01*
X49975Y-48410D01*
X50153Y-48484D01*
X50345Y-48484D01*
X50523Y-48410D01*
X50660Y-48274D01*
X50734Y-48096D01*
X50734Y-47904D01*
X50734Y-48904D01*
X50660Y-48726D01*
X50524Y-48589D01*
X50346Y-48515D01*
X50154Y-48515D01*
X49976Y-48589D01*
X49839Y-48725D01*
X49765Y-48903D01*
X49765Y-49095D01*
X49839Y-49273D01*
X49975Y-49410D01*
X50153Y-49484D01*
X50345Y-49484D01*
X50523Y-49410D01*
X50660Y-49274D01*
X50734Y-49096D01*
X50734Y-48904D01*
X50734Y-49850D01*
X49734Y-49850D01*
X49734Y-48904D01*
X49734Y-47904D01*
X49660Y-47726D01*
X49524Y-47589D01*
X49346Y-47515D01*
X49154Y-47515D01*
X48976Y-47589D01*
X48839Y-47725D01*
X48765Y-47903D01*
X48765Y-48095D01*
X48839Y-48273D01*
X48975Y-48410D01*
X49153Y-48484D01*
X49345Y-48484D01*
X49523Y-48410D01*
X49660Y-48274D01*
X49734Y-48096D01*
X49734Y-47904D01*
X49734Y-48904D01*
X49660Y-48726D01*
X49524Y-48589D01*
X49346Y-48515D01*
X49154Y-48515D01*
X48976Y-48589D01*
X48839Y-48725D01*
X48765Y-48903D01*
X48765Y-49095D01*
X48839Y-49273D01*
X48975Y-49410D01*
X49153Y-49484D01*
X49345Y-49484D01*
X49523Y-49410D01*
X49660Y-49274D01*
X49734Y-49096D01*
X49734Y-48904D01*
X49734Y-49850D01*
X48734Y-49850D01*
X48734Y-48904D01*
X48734Y-47904D01*
X48660Y-47726D01*
X48524Y-47589D01*
X48346Y-47515D01*
X48154Y-47515D01*
X47976Y-47589D01*
X47839Y-47725D01*
X47765Y-47903D01*
X47765Y-48095D01*
X47839Y-48273D01*
X47975Y-48410D01*
X48153Y-48484D01*
X48345Y-48484D01*
X48523Y-48410D01*
X48660Y-48274D01*
X48734Y-48096D01*
X48734Y-47904D01*
X48734Y-48904D01*
X48660Y-48726D01*
X48524Y-48589D01*
X48346Y-48515D01*
X48154Y-48515D01*
X47976Y-48589D01*
X47839Y-48725D01*
X47765Y-48903D01*
X47765Y-49095D01*
X47839Y-49273D01*
X47975Y-49410D01*
X48153Y-49484D01*
X48345Y-49484D01*
X48523Y-49410D01*
X48660Y-49274D01*
X48734Y-49096D01*
X48734Y-48904D01*
X48734Y-49850D01*
X47734Y-49850D01*
X47734Y-48904D01*
X47734Y-47904D01*
X47660Y-47726D01*
X47524Y-47589D01*
X47346Y-47515D01*
X47154Y-47515D01*
X46976Y-47589D01*
X46839Y-47725D01*
X46765Y-47903D01*
X46765Y-48095D01*
X46839Y-48273D01*
X46975Y-48410D01*
X47153Y-48484D01*
X47345Y-48484D01*
X47523Y-48410D01*
X47660Y-48274D01*
X47734Y-48096D01*
X47734Y-47904D01*
X47734Y-48904D01*
X47660Y-48726D01*
X47524Y-48589D01*
X47346Y-48515D01*
X47154Y-48515D01*
X46976Y-48589D01*
X46839Y-48725D01*
X46765Y-48903D01*
X46765Y-49095D01*
X46839Y-49273D01*
X46975Y-49410D01*
X47153Y-49484D01*
X47345Y-49484D01*
X47523Y-49410D01*
X47660Y-49274D01*
X47734Y-49096D01*
X47734Y-48904D01*
X47734Y-49850D01*
X46734Y-49850D01*
X46734Y-48904D01*
X46734Y-47904D01*
X46660Y-47726D01*
X46524Y-47589D01*
X46346Y-47515D01*
X46154Y-47515D01*
X45976Y-47589D01*
X45839Y-47725D01*
X45765Y-47903D01*
X45765Y-48095D01*
X45839Y-48273D01*
X45975Y-48410D01*
X46153Y-48484D01*
X46345Y-48484D01*
X46523Y-48410D01*
X46660Y-48274D01*
X46734Y-48096D01*
X46734Y-47904D01*
X46734Y-48904D01*
X46660Y-48726D01*
X46524Y-48589D01*
X46346Y-48515D01*
X46154Y-48515D01*
X45976Y-48589D01*
X45839Y-48725D01*
X45765Y-48903D01*
X45765Y-49095D01*
X45839Y-49273D01*
X45975Y-49410D01*
X46153Y-49484D01*
X46345Y-49484D01*
X46523Y-49410D01*
X46660Y-49274D01*
X46734Y-49096D01*
X46734Y-48904D01*
X46734Y-49850D01*
X45400Y-49850D01*
X45400Y-47474D01*
X45400Y-30974D01*
X45399Y-30517D01*
X45227Y-30101D01*
X45069Y-30001D01*
X44998Y-30071D01*
X44998Y-29930D01*
X44898Y-29772D01*
X44474Y-29599D01*
X44017Y-29600D01*
X43601Y-29772D01*
X43501Y-29930D01*
X44250Y-30679D01*
X44998Y-29930D01*
X44998Y-30071D01*
X44320Y-30750D01*
X45069Y-31498D01*
X45227Y-31398D01*
X45400Y-30974D01*
X45400Y-47474D01*
X45399Y-47017D01*
X45227Y-46601D01*
X45069Y-46501D01*
X44998Y-46571D01*
X44998Y-46430D01*
X44998Y-31569D01*
X44250Y-30820D01*
X44179Y-30891D01*
X44179Y-30750D01*
X43430Y-30001D01*
X43272Y-30101D01*
X43099Y-30525D01*
X43100Y-30982D01*
X43272Y-31398D01*
X43430Y-31498D01*
X44179Y-30750D01*
X44179Y-30891D01*
X43501Y-31569D01*
X43601Y-31727D01*
X44025Y-31900D01*
X44482Y-31899D01*
X44898Y-31727D01*
X44998Y-31569D01*
X44998Y-46430D01*
X44898Y-46272D01*
X44474Y-46099D01*
X44017Y-46100D01*
X43601Y-46272D01*
X43501Y-46430D01*
X44250Y-47179D01*
X44998Y-46430D01*
X44998Y-46571D01*
X44320Y-47250D01*
X45069Y-47998D01*
X45227Y-47898D01*
X45400Y-47474D01*
X45400Y-49850D01*
X44998Y-49850D01*
X44998Y-48069D01*
X44250Y-47320D01*
X44179Y-47391D01*
X44179Y-47250D01*
X43430Y-46501D01*
X43272Y-46601D01*
X43099Y-47025D01*
X43100Y-47482D01*
X43272Y-47898D01*
X43430Y-47998D01*
X44179Y-47250D01*
X44179Y-47391D01*
X43501Y-48069D01*
X43601Y-48227D01*
X44025Y-48400D01*
X44482Y-48399D01*
X44898Y-48227D01*
X44998Y-48069D01*
X44998Y-49850D01*
X40950Y-49850D01*
X40950Y-27950D01*
X76850Y-27950D01*
X76850Y-49850D01*
M02*
