G04 (created by PCBNEW (2013-09-06 BZR 4312)-stable) date T 02 sept  2014 16:17:06 EEST*
%MOIN*%
G04 Gerber Fmt 3.4, Leading zero omitted, Abs format*
%FSLAX34Y34*%
G01*
G70*
G90*
G04 APERTURE LIST*
%ADD10C,0.000787*%
%ADD11C,0.180000*%
%ADD12R,0.070866X0.070866*%
%ADD13C,0.070866*%
%ADD14R,0.025000X0.045000*%
%ADD15O,0.118700X0.059300*%
%ADD16R,0.060000X0.060000*%
%ADD17C,0.060000*%
%ADD18R,0.045000X0.020000*%
%ADD19R,0.045000X0.025000*%
%ADD20R,0.080000X0.060000*%
%ADD21C,0.035000*%
%ADD22C,0.012000*%
%ADD23C,0.016000*%
%ADD24C,0.024000*%
%ADD25C,0.010000*%
G04 APERTURE END LIST*
G54D10*
G54D11*
X44250Y-30750D03*
X70250Y-29500D03*
X70250Y-48500D03*
X44250Y-47250D03*
G54D12*
X68250Y-29000D03*
G54D13*
X68250Y-30000D03*
X67250Y-29000D03*
X67250Y-30000D03*
X66250Y-29000D03*
X66250Y-30000D03*
X65250Y-29000D03*
X65250Y-30000D03*
X64250Y-29000D03*
X64250Y-30000D03*
X63250Y-29000D03*
X63250Y-30000D03*
X62250Y-29000D03*
X62250Y-30000D03*
X61250Y-29000D03*
X61250Y-30000D03*
X60250Y-29000D03*
X60250Y-30000D03*
X59250Y-29000D03*
X59250Y-30000D03*
X58250Y-29000D03*
X58250Y-30000D03*
X57250Y-29000D03*
X57250Y-30000D03*
X56250Y-29000D03*
X56250Y-30000D03*
X55250Y-29000D03*
X55250Y-30000D03*
X54250Y-29000D03*
X54250Y-30000D03*
X53250Y-29000D03*
X53250Y-30000D03*
X52250Y-29000D03*
X52250Y-30000D03*
X51250Y-29000D03*
X51250Y-30000D03*
X50250Y-29000D03*
X50250Y-30000D03*
X49250Y-29000D03*
X49250Y-30000D03*
X48250Y-29000D03*
X48250Y-30000D03*
X47250Y-29000D03*
X47250Y-30000D03*
X46250Y-29000D03*
X46250Y-30000D03*
G54D12*
X68250Y-48000D03*
G54D13*
X68250Y-49000D03*
X67250Y-48000D03*
X67250Y-49000D03*
X66250Y-48000D03*
X66250Y-49000D03*
X65250Y-48000D03*
X65250Y-49000D03*
X64250Y-48000D03*
X64250Y-49000D03*
X63250Y-48000D03*
X63250Y-49000D03*
X62250Y-48000D03*
X62250Y-49000D03*
X61250Y-48000D03*
X61250Y-49000D03*
X60250Y-48000D03*
X60250Y-49000D03*
X59250Y-48000D03*
X59250Y-49000D03*
X58250Y-48000D03*
X58250Y-49000D03*
X57250Y-48000D03*
X57250Y-49000D03*
X56250Y-48000D03*
X56250Y-49000D03*
X55250Y-48000D03*
X55250Y-49000D03*
X54250Y-48000D03*
X54250Y-49000D03*
X53250Y-48000D03*
X53250Y-49000D03*
X52250Y-48000D03*
X52250Y-49000D03*
X51250Y-48000D03*
X51250Y-49000D03*
X50250Y-48000D03*
X50250Y-49000D03*
X49250Y-48000D03*
X49250Y-49000D03*
X48250Y-48000D03*
X48250Y-49000D03*
X47250Y-48000D03*
X47250Y-49000D03*
X46250Y-48000D03*
X46250Y-49000D03*
X70250Y-31500D03*
X70250Y-32500D03*
X69250Y-31500D03*
X69250Y-32500D03*
G54D14*
X58100Y-39000D03*
X57500Y-39000D03*
X58600Y-44000D03*
X58000Y-44000D03*
G54D15*
X49600Y-36200D03*
X49600Y-35200D03*
X49600Y-38400D03*
X49600Y-37400D03*
X49600Y-40600D03*
X49600Y-39600D03*
X49600Y-42800D03*
X49600Y-41800D03*
G54D16*
X64000Y-33500D03*
G54D17*
X65000Y-33500D03*
X64000Y-34500D03*
X65000Y-34500D03*
X64000Y-35500D03*
X65000Y-35500D03*
X64000Y-36500D03*
X65000Y-36500D03*
X64000Y-37500D03*
X65000Y-37500D03*
G54D16*
X64000Y-40500D03*
G54D17*
X65000Y-40500D03*
X64000Y-41500D03*
X65000Y-41500D03*
X64000Y-42500D03*
X65000Y-42500D03*
X64000Y-43500D03*
X65000Y-43500D03*
X64000Y-44500D03*
X65000Y-44500D03*
G54D14*
X58000Y-44800D03*
X58600Y-44800D03*
X58000Y-45600D03*
X58600Y-45600D03*
G54D18*
X58650Y-38350D03*
X58650Y-37350D03*
X58650Y-36850D03*
X58650Y-36350D03*
X58650Y-35850D03*
X58650Y-35350D03*
X58650Y-34850D03*
X61150Y-34850D03*
X61150Y-35350D03*
X61150Y-35850D03*
X61150Y-36350D03*
X61150Y-36850D03*
X61150Y-37350D03*
X61150Y-37850D03*
X61150Y-38350D03*
X58650Y-37850D03*
X58650Y-43150D03*
X58650Y-42150D03*
X58650Y-41650D03*
X58650Y-41150D03*
X58650Y-40650D03*
X58650Y-40150D03*
X58650Y-39650D03*
X61150Y-39650D03*
X61150Y-40150D03*
X61150Y-40650D03*
X61150Y-41150D03*
X61150Y-41650D03*
X61150Y-42150D03*
X61150Y-42650D03*
X61150Y-43150D03*
X58650Y-42650D03*
G54D19*
X68300Y-32300D03*
X68300Y-31700D03*
X48150Y-33350D03*
X48150Y-32750D03*
G54D14*
X47550Y-31550D03*
X46950Y-31550D03*
G54D20*
X49600Y-32400D03*
X49600Y-33700D03*
G54D14*
X48750Y-34000D03*
X48150Y-34000D03*
X48750Y-32100D03*
X48150Y-32100D03*
X45600Y-34500D03*
X46200Y-34500D03*
X45600Y-35250D03*
X46200Y-35250D03*
G54D18*
X44700Y-33800D03*
X44700Y-33300D03*
X44700Y-32800D03*
X44700Y-32300D03*
X47200Y-32300D03*
X47200Y-32800D03*
X47200Y-33300D03*
X47200Y-33800D03*
G54D21*
X51850Y-32000D03*
X58650Y-43550D03*
X58600Y-38950D03*
X66500Y-33500D03*
X49600Y-31800D03*
X63150Y-44000D03*
X61400Y-39300D03*
X62150Y-39300D03*
X61150Y-34500D03*
X57650Y-44050D03*
X57100Y-39000D03*
X46650Y-32800D03*
X44700Y-34250D03*
X46500Y-31700D03*
X46750Y-30450D03*
X47250Y-30900D03*
X61500Y-44500D03*
X60150Y-44450D03*
X64000Y-39050D03*
X62200Y-34850D03*
X63000Y-33900D03*
G54D22*
X58600Y-45600D02*
X58600Y-47500D01*
X60750Y-48500D02*
X61250Y-48000D01*
X58850Y-48500D02*
X60750Y-48500D01*
X58750Y-48400D02*
X58850Y-48500D01*
X58750Y-47650D02*
X58750Y-48400D01*
X58600Y-47500D02*
X58750Y-47650D01*
X61150Y-38350D02*
X61150Y-38950D01*
X61450Y-43150D02*
X61150Y-43150D01*
X61600Y-43000D02*
X61450Y-43150D01*
X61600Y-42000D02*
X61600Y-43000D01*
X61500Y-41900D02*
X61600Y-42000D01*
X60850Y-41900D02*
X61500Y-41900D01*
X60750Y-41800D02*
X60850Y-41900D01*
X60750Y-39350D02*
X60750Y-41800D01*
X61150Y-38950D02*
X60750Y-39350D01*
X61150Y-43150D02*
X61150Y-47900D01*
X61150Y-47900D02*
X61250Y-48000D01*
X58600Y-44800D02*
X58900Y-44800D01*
X59150Y-42750D02*
X59050Y-42650D01*
X59150Y-44550D02*
X59150Y-42750D01*
X58900Y-44800D02*
X59150Y-44550D01*
X58650Y-42650D02*
X59050Y-42650D01*
X58950Y-37850D02*
X58650Y-37850D01*
X59150Y-38050D02*
X58950Y-37850D01*
X59150Y-42550D02*
X59150Y-38050D01*
X59050Y-42650D02*
X59150Y-42550D01*
X57250Y-48000D02*
X57250Y-43600D01*
X58200Y-42650D02*
X58650Y-42650D01*
X57250Y-43600D02*
X58200Y-42650D01*
X58000Y-45600D02*
X58000Y-44800D01*
X58000Y-44800D02*
X58600Y-44200D01*
X58600Y-44200D02*
X58600Y-44000D01*
G54D23*
X46200Y-35250D02*
X46200Y-34500D01*
X46200Y-34500D02*
X46200Y-32700D01*
X46200Y-32700D02*
X46550Y-32350D01*
X46550Y-32350D02*
X47150Y-32350D01*
X47150Y-32350D02*
X47200Y-32300D01*
X47200Y-32300D02*
X47200Y-31900D01*
X47200Y-31900D02*
X47550Y-31550D01*
G54D24*
X47550Y-31550D02*
X47600Y-31550D01*
X51200Y-31350D02*
X51850Y-32000D01*
X47800Y-31350D02*
X51200Y-31350D01*
X47600Y-31550D02*
X47800Y-31350D01*
X58600Y-44000D02*
X58600Y-43600D01*
X58600Y-43600D02*
X58650Y-43550D01*
X58650Y-43550D02*
X58650Y-43150D01*
X58650Y-38350D02*
X58650Y-38900D01*
X58650Y-38900D02*
X58600Y-38950D01*
X58550Y-39000D02*
X58100Y-39000D01*
X58600Y-38950D02*
X58550Y-39000D01*
X67250Y-29000D02*
X67250Y-30000D01*
X67250Y-30000D02*
X67250Y-32250D01*
X67250Y-32250D02*
X67250Y-32750D01*
X67250Y-32750D02*
X66500Y-33500D01*
X49600Y-32400D02*
X49600Y-31800D01*
X49600Y-32400D02*
X49050Y-32400D01*
X49050Y-32400D02*
X48750Y-32100D01*
X48850Y-40600D02*
X48350Y-41100D01*
X48950Y-42800D02*
X49600Y-42800D01*
X48350Y-42200D02*
X48950Y-42800D01*
X48350Y-41100D02*
X48350Y-42200D01*
X48900Y-38400D02*
X48850Y-38400D01*
X48850Y-40600D02*
X49600Y-40600D01*
X48350Y-40100D02*
X48850Y-40600D01*
X48350Y-38900D02*
X48350Y-40100D01*
X48850Y-38400D02*
X48350Y-38900D01*
X49600Y-36200D02*
X48850Y-36200D01*
X48900Y-38400D02*
X49600Y-38400D01*
X48350Y-37850D02*
X48900Y-38400D01*
X48350Y-36700D02*
X48350Y-37850D01*
X48850Y-36200D02*
X48350Y-36700D01*
X68300Y-31700D02*
X69050Y-31700D01*
X69050Y-31700D02*
X69250Y-31500D01*
X48750Y-34000D02*
X49300Y-34000D01*
X49300Y-34000D02*
X49600Y-33700D01*
X49600Y-33700D02*
X49600Y-35200D01*
X50300Y-39600D02*
X50850Y-40150D01*
X50200Y-41800D02*
X49600Y-41800D01*
X50850Y-41150D02*
X50200Y-41800D01*
X50850Y-40150D02*
X50850Y-41150D01*
X50350Y-37400D02*
X50850Y-37900D01*
X50300Y-39600D02*
X49600Y-39600D01*
X50850Y-39050D02*
X50300Y-39600D01*
X50850Y-37900D02*
X50850Y-39050D01*
X49600Y-37400D02*
X50350Y-37400D01*
X50300Y-35200D02*
X49600Y-35200D01*
X50850Y-35750D02*
X50300Y-35200D01*
X50850Y-36900D02*
X50850Y-35750D01*
X50350Y-37400D02*
X50850Y-36900D01*
G54D22*
X61150Y-39550D02*
X61400Y-39300D01*
X61150Y-39550D02*
X61150Y-39650D01*
X61150Y-34850D02*
X61150Y-34500D01*
X58000Y-44000D02*
X57700Y-44000D01*
X57700Y-44000D02*
X57650Y-44050D01*
X57500Y-39000D02*
X57100Y-39000D01*
X47200Y-32800D02*
X46650Y-32800D01*
X44700Y-33800D02*
X44700Y-34250D01*
X44700Y-33300D02*
X44700Y-33800D01*
X46950Y-31550D02*
X46650Y-31550D01*
X46650Y-31550D02*
X46500Y-31700D01*
X44700Y-32300D02*
X44450Y-32300D01*
X44950Y-35250D02*
X45600Y-35250D01*
X44250Y-34550D02*
X44950Y-35250D01*
X44250Y-32500D02*
X44250Y-34550D01*
X44450Y-32300D02*
X44250Y-32500D01*
X46100Y-30900D02*
X44700Y-32300D01*
X46300Y-30900D02*
X46100Y-30900D01*
X46750Y-30450D02*
X46300Y-30900D01*
X45600Y-34500D02*
X45600Y-33400D01*
X45000Y-32800D02*
X44700Y-32800D01*
X45600Y-33400D02*
X45000Y-32800D01*
X44700Y-32800D02*
X44850Y-32800D01*
X46750Y-30900D02*
X47250Y-30900D01*
X44850Y-32800D02*
X46750Y-30900D01*
X64000Y-37500D02*
X63250Y-37500D01*
X59750Y-35350D02*
X60500Y-36100D01*
X60500Y-36100D02*
X61850Y-36100D01*
X59750Y-35350D02*
X58650Y-35350D01*
X63250Y-37500D02*
X61850Y-36100D01*
X58650Y-35850D02*
X59350Y-35850D01*
X60150Y-44450D02*
X60200Y-44400D01*
X60200Y-44400D02*
X60200Y-42650D01*
X60200Y-36700D02*
X60200Y-42650D01*
X59400Y-35900D02*
X60200Y-36700D01*
X61500Y-44500D02*
X64000Y-44500D01*
X59350Y-35850D02*
X59400Y-35900D01*
X61150Y-35850D02*
X61650Y-35850D01*
X61650Y-35850D02*
X64000Y-33500D01*
X61150Y-36350D02*
X61650Y-36350D01*
X64000Y-38700D02*
X64000Y-39050D01*
X61650Y-36350D02*
X64000Y-38700D01*
G54D24*
X48150Y-33350D02*
X48150Y-34000D01*
G54D23*
X47200Y-33800D02*
X47950Y-33800D01*
X47950Y-33800D02*
X48150Y-34000D01*
G54D24*
X68300Y-32300D02*
X69050Y-32300D01*
X69050Y-32300D02*
X69250Y-32500D01*
G54D23*
X47200Y-33300D02*
X47600Y-33300D01*
X47600Y-33300D02*
X48150Y-32750D01*
G54D24*
X48150Y-32750D02*
X48150Y-32100D01*
G54D22*
X63250Y-30000D02*
X63250Y-30700D01*
X64500Y-35000D02*
X64500Y-31950D01*
X64500Y-35000D02*
X64000Y-35500D01*
X63250Y-30700D02*
X64500Y-31950D01*
X64000Y-42500D02*
X64500Y-43000D01*
X66250Y-47300D02*
X66250Y-48000D01*
X64500Y-45550D02*
X66250Y-47300D01*
X64500Y-43000D02*
X64500Y-45550D01*
X56250Y-43900D02*
X56250Y-43800D01*
X56250Y-48300D02*
X56250Y-43900D01*
X57350Y-42700D02*
X56600Y-43450D01*
X57350Y-42700D02*
X57900Y-42150D01*
X56250Y-43800D02*
X56600Y-43450D01*
X58650Y-42150D02*
X57900Y-42150D01*
X58000Y-37650D02*
X57800Y-37850D01*
X58300Y-37350D02*
X58000Y-37650D01*
X58300Y-37350D02*
X58650Y-37350D01*
X57800Y-41400D02*
X57800Y-41450D01*
X57800Y-37850D02*
X57800Y-41400D01*
X57800Y-41450D02*
X57800Y-42050D01*
X57900Y-42150D02*
X57800Y-42050D01*
X60700Y-42650D02*
X60700Y-42700D01*
X60500Y-47750D02*
X60250Y-48000D01*
X60500Y-42900D02*
X60500Y-47750D01*
X60700Y-42700D02*
X60500Y-42900D01*
X61150Y-37850D02*
X60800Y-37850D01*
X60700Y-42650D02*
X61150Y-42650D01*
X60500Y-42450D02*
X60700Y-42650D01*
X60500Y-38150D02*
X60500Y-42450D01*
X60800Y-37850D02*
X60500Y-38150D01*
X61150Y-42650D02*
X60950Y-42650D01*
X64500Y-37900D02*
X64500Y-39300D01*
X64500Y-37000D02*
X64500Y-37900D01*
X61150Y-40650D02*
X61750Y-40650D01*
X64500Y-37000D02*
X64000Y-36500D01*
X62800Y-39600D02*
X61750Y-40650D01*
X64200Y-39600D02*
X62800Y-39600D01*
X64500Y-39300D02*
X64200Y-39600D01*
X61150Y-41150D02*
X61650Y-41150D01*
X61650Y-41150D02*
X64000Y-43500D01*
X54250Y-30000D02*
X54250Y-32200D01*
X56900Y-34850D02*
X58650Y-34850D01*
X54250Y-32200D02*
X56900Y-34850D01*
X54750Y-30950D02*
X54750Y-32000D01*
X54750Y-29500D02*
X54750Y-30000D01*
X54750Y-30000D02*
X54750Y-30950D01*
X54250Y-29000D02*
X54750Y-29500D01*
X60350Y-35350D02*
X61150Y-35350D01*
X59450Y-34450D02*
X60350Y-35350D01*
X57200Y-34450D02*
X59450Y-34450D01*
X54750Y-32000D02*
X57200Y-34450D01*
X58200Y-35600D02*
X57000Y-35600D01*
X53250Y-29000D02*
X53750Y-29500D01*
X60600Y-36600D02*
X59600Y-35600D01*
X59600Y-35600D02*
X58200Y-35600D01*
X61750Y-37150D02*
X61750Y-36900D01*
X61600Y-40150D02*
X61750Y-40000D01*
X61750Y-40000D02*
X61750Y-37150D01*
X61600Y-40150D02*
X61150Y-40150D01*
X61450Y-36600D02*
X60650Y-36600D01*
X61750Y-36900D02*
X61450Y-36600D01*
X60650Y-36600D02*
X60600Y-36600D01*
X53750Y-32350D02*
X53750Y-29500D01*
X57000Y-35600D02*
X53750Y-32350D01*
X60850Y-34050D02*
X61400Y-34050D01*
X56250Y-30000D02*
X56250Y-32750D01*
X57550Y-34050D02*
X60850Y-34050D01*
X56250Y-32750D02*
X57550Y-34050D01*
X61400Y-34050D02*
X62200Y-34850D01*
X60850Y-33600D02*
X62700Y-33600D01*
X57250Y-32950D02*
X57900Y-33600D01*
X57900Y-33600D02*
X60850Y-33600D01*
X57250Y-30000D02*
X57250Y-32950D01*
X62700Y-33600D02*
X63000Y-33900D01*
X64750Y-30400D02*
X64750Y-31150D01*
X65300Y-42500D02*
X66050Y-41750D01*
X66050Y-41750D02*
X66050Y-33050D01*
X65000Y-42500D02*
X65300Y-42500D01*
X63350Y-29000D02*
X63850Y-29500D01*
X63850Y-29500D02*
X64500Y-29500D01*
X64500Y-29500D02*
X64750Y-29750D01*
X64750Y-29750D02*
X64750Y-30400D01*
G54D25*
X63350Y-29000D02*
X63250Y-29000D01*
G54D22*
X66050Y-32450D02*
X66050Y-33050D01*
X64750Y-31150D02*
X66050Y-32450D01*
X63750Y-30400D02*
X63750Y-30550D01*
X65250Y-41500D02*
X65700Y-41050D01*
X65700Y-41050D02*
X65700Y-33050D01*
G54D25*
X65000Y-41500D02*
X65250Y-41500D01*
G54D22*
X62750Y-29500D02*
X63500Y-29500D01*
X63500Y-29500D02*
X63750Y-29750D01*
X63750Y-29750D02*
X63750Y-30400D01*
X62750Y-29500D02*
X62250Y-29000D01*
X65700Y-32500D02*
X65700Y-33050D01*
X63750Y-30550D02*
X65700Y-32500D01*
G54D10*
G36*
X61560Y-39381D02*
X61516Y-39338D01*
X61424Y-39300D01*
X61325Y-39300D01*
X61262Y-39300D01*
X61200Y-39362D01*
X61200Y-39600D01*
X61207Y-39600D01*
X61207Y-39700D01*
X61200Y-39700D01*
X61200Y-39707D01*
X61100Y-39707D01*
X61100Y-39700D01*
X61092Y-39700D01*
X61092Y-39600D01*
X61100Y-39600D01*
X61100Y-39362D01*
X61053Y-39315D01*
X61284Y-39084D01*
X61325Y-39022D01*
X61340Y-38950D01*
X61340Y-38580D01*
X61400Y-38580D01*
X61448Y-38560D01*
X61485Y-38523D01*
X61505Y-38475D01*
X61505Y-38424D01*
X61505Y-38224D01*
X61485Y-38176D01*
X61448Y-38139D01*
X61400Y-38120D01*
X61349Y-38120D01*
X60899Y-38120D01*
X60851Y-38139D01*
X60814Y-38176D01*
X60795Y-38224D01*
X60795Y-38275D01*
X60795Y-38475D01*
X60814Y-38523D01*
X60851Y-38560D01*
X60899Y-38580D01*
X60950Y-38580D01*
X60960Y-38580D01*
X60960Y-38871D01*
X60690Y-39141D01*
X60690Y-38228D01*
X60856Y-38062D01*
X60899Y-38080D01*
X60950Y-38080D01*
X61400Y-38080D01*
X61448Y-38060D01*
X61485Y-38023D01*
X61505Y-37975D01*
X61505Y-37924D01*
X61505Y-37724D01*
X61505Y-37475D01*
X61505Y-37424D01*
X61505Y-37224D01*
X61485Y-37176D01*
X61448Y-37139D01*
X61400Y-37120D01*
X61349Y-37120D01*
X60899Y-37120D01*
X60851Y-37139D01*
X60814Y-37176D01*
X60795Y-37224D01*
X60795Y-37275D01*
X60795Y-37475D01*
X60814Y-37523D01*
X60851Y-37560D01*
X60899Y-37580D01*
X60950Y-37580D01*
X61400Y-37580D01*
X61448Y-37560D01*
X61485Y-37523D01*
X61505Y-37475D01*
X61505Y-37724D01*
X61485Y-37676D01*
X61448Y-37639D01*
X61400Y-37620D01*
X61349Y-37620D01*
X60899Y-37620D01*
X60851Y-37639D01*
X60831Y-37660D01*
X60800Y-37660D01*
X60800Y-37659D01*
X60727Y-37674D01*
X60665Y-37715D01*
X60390Y-37991D01*
X60390Y-36700D01*
X60379Y-36648D01*
X60465Y-36734D01*
X60465Y-36734D01*
X60527Y-36775D01*
X60600Y-36790D01*
X60650Y-36790D01*
X60795Y-36790D01*
X60795Y-36975D01*
X60814Y-37023D01*
X60851Y-37060D01*
X60899Y-37080D01*
X60950Y-37080D01*
X61400Y-37080D01*
X61448Y-37060D01*
X61485Y-37023D01*
X61505Y-36975D01*
X61505Y-36924D01*
X61505Y-36923D01*
X61560Y-36978D01*
X61560Y-37150D01*
X61560Y-39381D01*
X61560Y-39381D01*
G37*
G54D25*
X61560Y-39381D02*
X61516Y-39338D01*
X61424Y-39300D01*
X61325Y-39300D01*
X61262Y-39300D01*
X61200Y-39362D01*
X61200Y-39600D01*
X61207Y-39600D01*
X61207Y-39700D01*
X61200Y-39700D01*
X61200Y-39707D01*
X61100Y-39707D01*
X61100Y-39700D01*
X61092Y-39700D01*
X61092Y-39600D01*
X61100Y-39600D01*
X61100Y-39362D01*
X61053Y-39315D01*
X61284Y-39084D01*
X61325Y-39022D01*
X61340Y-38950D01*
X61340Y-38580D01*
X61400Y-38580D01*
X61448Y-38560D01*
X61485Y-38523D01*
X61505Y-38475D01*
X61505Y-38424D01*
X61505Y-38224D01*
X61485Y-38176D01*
X61448Y-38139D01*
X61400Y-38120D01*
X61349Y-38120D01*
X60899Y-38120D01*
X60851Y-38139D01*
X60814Y-38176D01*
X60795Y-38224D01*
X60795Y-38275D01*
X60795Y-38475D01*
X60814Y-38523D01*
X60851Y-38560D01*
X60899Y-38580D01*
X60950Y-38580D01*
X60960Y-38580D01*
X60960Y-38871D01*
X60690Y-39141D01*
X60690Y-38228D01*
X60856Y-38062D01*
X60899Y-38080D01*
X60950Y-38080D01*
X61400Y-38080D01*
X61448Y-38060D01*
X61485Y-38023D01*
X61505Y-37975D01*
X61505Y-37924D01*
X61505Y-37724D01*
X61505Y-37475D01*
X61505Y-37424D01*
X61505Y-37224D01*
X61485Y-37176D01*
X61448Y-37139D01*
X61400Y-37120D01*
X61349Y-37120D01*
X60899Y-37120D01*
X60851Y-37139D01*
X60814Y-37176D01*
X60795Y-37224D01*
X60795Y-37275D01*
X60795Y-37475D01*
X60814Y-37523D01*
X60851Y-37560D01*
X60899Y-37580D01*
X60950Y-37580D01*
X61400Y-37580D01*
X61448Y-37560D01*
X61485Y-37523D01*
X61505Y-37475D01*
X61505Y-37724D01*
X61485Y-37676D01*
X61448Y-37639D01*
X61400Y-37620D01*
X61349Y-37620D01*
X60899Y-37620D01*
X60851Y-37639D01*
X60831Y-37660D01*
X60800Y-37660D01*
X60800Y-37659D01*
X60727Y-37674D01*
X60665Y-37715D01*
X60390Y-37991D01*
X60390Y-36700D01*
X60379Y-36648D01*
X60465Y-36734D01*
X60465Y-36734D01*
X60527Y-36775D01*
X60600Y-36790D01*
X60650Y-36790D01*
X60795Y-36790D01*
X60795Y-36975D01*
X60814Y-37023D01*
X60851Y-37060D01*
X60899Y-37080D01*
X60950Y-37080D01*
X61400Y-37080D01*
X61448Y-37060D01*
X61485Y-37023D01*
X61505Y-36975D01*
X61505Y-36924D01*
X61505Y-36923D01*
X61560Y-36978D01*
X61560Y-37150D01*
X61560Y-39381D01*
G54D10*
G36*
X64310Y-39221D02*
X64121Y-39410D01*
X62800Y-39410D01*
X62800Y-39409D01*
X62727Y-39424D01*
X62665Y-39465D01*
X62665Y-39465D01*
X61671Y-40460D01*
X61468Y-40460D01*
X61448Y-40439D01*
X61400Y-40420D01*
X61349Y-40420D01*
X60940Y-40420D01*
X60940Y-40380D01*
X60950Y-40380D01*
X61400Y-40380D01*
X61448Y-40360D01*
X61468Y-40340D01*
X61600Y-40340D01*
X61672Y-40325D01*
X61734Y-40284D01*
X61884Y-40134D01*
X61884Y-40134D01*
X61884Y-40134D01*
X61925Y-40072D01*
X61940Y-40000D01*
X61940Y-37150D01*
X61940Y-36908D01*
X63810Y-38778D01*
X63810Y-38808D01*
X63741Y-38877D01*
X63695Y-38989D01*
X63694Y-39110D01*
X63741Y-39222D01*
X63827Y-39308D01*
X63939Y-39354D01*
X64060Y-39355D01*
X64172Y-39308D01*
X64258Y-39222D01*
X64304Y-39110D01*
X64305Y-38989D01*
X64258Y-38877D01*
X64190Y-38808D01*
X64190Y-38700D01*
X64190Y-38700D01*
X64190Y-38700D01*
X64175Y-38627D01*
X64134Y-38565D01*
X63258Y-37690D01*
X63613Y-37690D01*
X63635Y-37743D01*
X63756Y-37864D01*
X63914Y-37929D01*
X64085Y-37930D01*
X64243Y-37864D01*
X64310Y-37798D01*
X64310Y-37900D01*
X64310Y-39221D01*
X64310Y-39221D01*
G37*
G54D25*
X64310Y-39221D02*
X64121Y-39410D01*
X62800Y-39410D01*
X62800Y-39409D01*
X62727Y-39424D01*
X62665Y-39465D01*
X62665Y-39465D01*
X61671Y-40460D01*
X61468Y-40460D01*
X61448Y-40439D01*
X61400Y-40420D01*
X61349Y-40420D01*
X60940Y-40420D01*
X60940Y-40380D01*
X60950Y-40380D01*
X61400Y-40380D01*
X61448Y-40360D01*
X61468Y-40340D01*
X61600Y-40340D01*
X61672Y-40325D01*
X61734Y-40284D01*
X61884Y-40134D01*
X61884Y-40134D01*
X61884Y-40134D01*
X61925Y-40072D01*
X61940Y-40000D01*
X61940Y-37150D01*
X61940Y-36908D01*
X63810Y-38778D01*
X63810Y-38808D01*
X63741Y-38877D01*
X63695Y-38989D01*
X63694Y-39110D01*
X63741Y-39222D01*
X63827Y-39308D01*
X63939Y-39354D01*
X64060Y-39355D01*
X64172Y-39308D01*
X64258Y-39222D01*
X64304Y-39110D01*
X64305Y-38989D01*
X64258Y-38877D01*
X64190Y-38808D01*
X64190Y-38700D01*
X64190Y-38700D01*
X64190Y-38700D01*
X64175Y-38627D01*
X64134Y-38565D01*
X63258Y-37690D01*
X63613Y-37690D01*
X63635Y-37743D01*
X63756Y-37864D01*
X63914Y-37929D01*
X64085Y-37930D01*
X64243Y-37864D01*
X64310Y-37798D01*
X64310Y-37900D01*
X64310Y-39221D01*
G54D10*
G36*
X64310Y-44201D02*
X64243Y-44135D01*
X64085Y-44070D01*
X63914Y-44069D01*
X63756Y-44135D01*
X63635Y-44256D01*
X63613Y-44310D01*
X61741Y-44310D01*
X61672Y-44241D01*
X61560Y-44195D01*
X61439Y-44194D01*
X61340Y-44236D01*
X61340Y-43380D01*
X61400Y-43380D01*
X61448Y-43360D01*
X61473Y-43335D01*
X61522Y-43325D01*
X61584Y-43284D01*
X61734Y-43134D01*
X61734Y-43134D01*
X61734Y-43134D01*
X61775Y-43072D01*
X61790Y-43000D01*
X61790Y-42000D01*
X61775Y-41927D01*
X61734Y-41865D01*
X61634Y-41765D01*
X61572Y-41724D01*
X61505Y-41710D01*
X61505Y-41524D01*
X61485Y-41476D01*
X61448Y-41439D01*
X61400Y-41420D01*
X61349Y-41420D01*
X60940Y-41420D01*
X60940Y-41380D01*
X60950Y-41380D01*
X61400Y-41380D01*
X61448Y-41360D01*
X61468Y-41340D01*
X61571Y-41340D01*
X63592Y-43360D01*
X63570Y-43414D01*
X63569Y-43585D01*
X63635Y-43743D01*
X63756Y-43864D01*
X63914Y-43929D01*
X64085Y-43930D01*
X64243Y-43864D01*
X64310Y-43798D01*
X64310Y-44201D01*
X64310Y-44201D01*
G37*
G54D25*
X64310Y-44201D02*
X64243Y-44135D01*
X64085Y-44070D01*
X63914Y-44069D01*
X63756Y-44135D01*
X63635Y-44256D01*
X63613Y-44310D01*
X61741Y-44310D01*
X61672Y-44241D01*
X61560Y-44195D01*
X61439Y-44194D01*
X61340Y-44236D01*
X61340Y-43380D01*
X61400Y-43380D01*
X61448Y-43360D01*
X61473Y-43335D01*
X61522Y-43325D01*
X61584Y-43284D01*
X61734Y-43134D01*
X61734Y-43134D01*
X61734Y-43134D01*
X61775Y-43072D01*
X61790Y-43000D01*
X61790Y-42000D01*
X61775Y-41927D01*
X61734Y-41865D01*
X61634Y-41765D01*
X61572Y-41724D01*
X61505Y-41710D01*
X61505Y-41524D01*
X61485Y-41476D01*
X61448Y-41439D01*
X61400Y-41420D01*
X61349Y-41420D01*
X60940Y-41420D01*
X60940Y-41380D01*
X60950Y-41380D01*
X61400Y-41380D01*
X61448Y-41360D01*
X61468Y-41340D01*
X61571Y-41340D01*
X63592Y-43360D01*
X63570Y-43414D01*
X63569Y-43585D01*
X63635Y-43743D01*
X63756Y-43864D01*
X63914Y-43929D01*
X64085Y-43930D01*
X64243Y-43864D01*
X64310Y-43798D01*
X64310Y-44201D01*
G54D10*
G36*
X75950Y-36450D02*
X71400Y-36450D01*
X71400Y-29724D01*
X71399Y-29267D01*
X71227Y-28851D01*
X71069Y-28751D01*
X70998Y-28821D01*
X70998Y-28680D01*
X70898Y-28522D01*
X70474Y-28349D01*
X70017Y-28350D01*
X69601Y-28522D01*
X69501Y-28680D01*
X70250Y-29429D01*
X70998Y-28680D01*
X70998Y-28821D01*
X70320Y-29500D01*
X71069Y-30248D01*
X71227Y-30148D01*
X71400Y-29724D01*
X71400Y-36450D01*
X70998Y-36450D01*
X70998Y-30319D01*
X70250Y-29570D01*
X70179Y-29641D01*
X70179Y-29500D01*
X69430Y-28751D01*
X69272Y-28851D01*
X69099Y-29275D01*
X69100Y-29732D01*
X69272Y-30148D01*
X69430Y-30248D01*
X70179Y-29500D01*
X70179Y-29641D01*
X69501Y-30319D01*
X69601Y-30477D01*
X70025Y-30650D01*
X70482Y-30649D01*
X70898Y-30477D01*
X70998Y-30319D01*
X70998Y-36450D01*
X70734Y-36450D01*
X70734Y-32404D01*
X70734Y-31404D01*
X70660Y-31226D01*
X70524Y-31089D01*
X70346Y-31015D01*
X70154Y-31015D01*
X69976Y-31089D01*
X69839Y-31225D01*
X69765Y-31403D01*
X69765Y-31595D01*
X69839Y-31773D01*
X69975Y-31910D01*
X70153Y-31984D01*
X70345Y-31984D01*
X70523Y-31910D01*
X70660Y-31774D01*
X70734Y-31596D01*
X70734Y-31404D01*
X70734Y-32404D01*
X70660Y-32226D01*
X70524Y-32089D01*
X70346Y-32015D01*
X70154Y-32015D01*
X69976Y-32089D01*
X69839Y-32225D01*
X69765Y-32403D01*
X69765Y-32595D01*
X69839Y-32773D01*
X69975Y-32910D01*
X70153Y-32984D01*
X70345Y-32984D01*
X70523Y-32910D01*
X70660Y-32774D01*
X70734Y-32596D01*
X70734Y-32404D01*
X70734Y-36450D01*
X69734Y-36450D01*
X69734Y-32404D01*
X69734Y-31404D01*
X69660Y-31226D01*
X69524Y-31089D01*
X69346Y-31015D01*
X69154Y-31015D01*
X68976Y-31089D01*
X68858Y-31206D01*
X68858Y-30094D01*
X68854Y-29987D01*
X68848Y-29854D01*
X68776Y-29679D01*
X68675Y-29645D01*
X68720Y-29600D01*
X68703Y-29583D01*
X68745Y-29566D01*
X68816Y-29495D01*
X68854Y-29404D01*
X68854Y-29304D01*
X68854Y-29112D01*
X68854Y-28887D01*
X68854Y-28695D01*
X68854Y-28595D01*
X68816Y-28504D01*
X68745Y-28433D01*
X68654Y-28395D01*
X68362Y-28395D01*
X68300Y-28458D01*
X68300Y-28950D01*
X68791Y-28950D01*
X68854Y-28887D01*
X68854Y-29112D01*
X68791Y-29050D01*
X68300Y-29050D01*
X68300Y-29057D01*
X68200Y-29057D01*
X68200Y-29050D01*
X68192Y-29050D01*
X68192Y-28950D01*
X68200Y-28950D01*
X68200Y-28458D01*
X68137Y-28395D01*
X67845Y-28395D01*
X67754Y-28433D01*
X67683Y-28504D01*
X67645Y-28595D01*
X67645Y-28695D01*
X67645Y-28710D01*
X67524Y-28589D01*
X67346Y-28515D01*
X67154Y-28515D01*
X66976Y-28589D01*
X66839Y-28725D01*
X66765Y-28903D01*
X66765Y-29095D01*
X66839Y-29273D01*
X66975Y-29410D01*
X67000Y-29420D01*
X67000Y-29579D01*
X66976Y-29589D01*
X66839Y-29725D01*
X66765Y-29903D01*
X66765Y-30095D01*
X66839Y-30273D01*
X66975Y-30410D01*
X67000Y-30420D01*
X67000Y-32250D01*
X67000Y-32646D01*
X66734Y-32912D01*
X66734Y-29904D01*
X66734Y-28904D01*
X66660Y-28726D01*
X66524Y-28589D01*
X66346Y-28515D01*
X66154Y-28515D01*
X65976Y-28589D01*
X65839Y-28725D01*
X65765Y-28903D01*
X65765Y-29095D01*
X65839Y-29273D01*
X65975Y-29410D01*
X66153Y-29484D01*
X66345Y-29484D01*
X66523Y-29410D01*
X66660Y-29274D01*
X66734Y-29096D01*
X66734Y-28904D01*
X66734Y-29904D01*
X66660Y-29726D01*
X66524Y-29589D01*
X66346Y-29515D01*
X66154Y-29515D01*
X65976Y-29589D01*
X65839Y-29725D01*
X65765Y-29903D01*
X65765Y-30095D01*
X65839Y-30273D01*
X65975Y-30410D01*
X66153Y-30484D01*
X66345Y-30484D01*
X66523Y-30410D01*
X66660Y-30274D01*
X66734Y-30096D01*
X66734Y-29904D01*
X66734Y-32912D01*
X66451Y-33194D01*
X66439Y-33194D01*
X66327Y-33241D01*
X66241Y-33327D01*
X66240Y-33330D01*
X66240Y-33050D01*
X66240Y-32450D01*
X66225Y-32377D01*
X66184Y-32315D01*
X64940Y-31071D01*
X64940Y-30400D01*
X64940Y-30375D01*
X64975Y-30410D01*
X65153Y-30484D01*
X65345Y-30484D01*
X65523Y-30410D01*
X65660Y-30274D01*
X65734Y-30096D01*
X65734Y-29904D01*
X65734Y-28904D01*
X65660Y-28726D01*
X65524Y-28589D01*
X65346Y-28515D01*
X65154Y-28515D01*
X64976Y-28589D01*
X64839Y-28725D01*
X64765Y-28903D01*
X64765Y-29095D01*
X64839Y-29273D01*
X64975Y-29410D01*
X65153Y-29484D01*
X65345Y-29484D01*
X65523Y-29410D01*
X65660Y-29274D01*
X65734Y-29096D01*
X65734Y-28904D01*
X65734Y-29904D01*
X65660Y-29726D01*
X65524Y-29589D01*
X65346Y-29515D01*
X65154Y-29515D01*
X64976Y-29589D01*
X64910Y-29654D01*
X64884Y-29615D01*
X64884Y-29615D01*
X64884Y-29615D01*
X64634Y-29365D01*
X64595Y-29339D01*
X64660Y-29274D01*
X64734Y-29096D01*
X64734Y-28904D01*
X64660Y-28726D01*
X64524Y-28589D01*
X64346Y-28515D01*
X64154Y-28515D01*
X63976Y-28589D01*
X63839Y-28725D01*
X63765Y-28903D01*
X63765Y-29095D01*
X63801Y-29182D01*
X63728Y-29110D01*
X63734Y-29096D01*
X63734Y-28904D01*
X63660Y-28726D01*
X63524Y-28589D01*
X63346Y-28515D01*
X63154Y-28515D01*
X62976Y-28589D01*
X62839Y-28725D01*
X62765Y-28903D01*
X62765Y-29095D01*
X62839Y-29273D01*
X62875Y-29310D01*
X62828Y-29310D01*
X62699Y-29180D01*
X62734Y-29096D01*
X62734Y-28904D01*
X62660Y-28726D01*
X62524Y-28589D01*
X62346Y-28515D01*
X62154Y-28515D01*
X61976Y-28589D01*
X61839Y-28725D01*
X61765Y-28903D01*
X61765Y-29095D01*
X61839Y-29273D01*
X61975Y-29410D01*
X62153Y-29484D01*
X62345Y-29484D01*
X62430Y-29449D01*
X62615Y-29634D01*
X62677Y-29675D01*
X62750Y-29690D01*
X62874Y-29690D01*
X62839Y-29725D01*
X62765Y-29903D01*
X62765Y-30095D01*
X62839Y-30273D01*
X62975Y-30410D01*
X63060Y-30445D01*
X63060Y-30700D01*
X63074Y-30772D01*
X63115Y-30834D01*
X64310Y-32028D01*
X64310Y-33070D01*
X64274Y-33070D01*
X63674Y-33070D01*
X63626Y-33089D01*
X63589Y-33126D01*
X63570Y-33174D01*
X63570Y-33225D01*
X63570Y-33661D01*
X63304Y-33926D01*
X63305Y-33839D01*
X63258Y-33727D01*
X63172Y-33641D01*
X63060Y-33595D01*
X62963Y-33594D01*
X62834Y-33465D01*
X62772Y-33424D01*
X62734Y-33416D01*
X62734Y-29904D01*
X62660Y-29726D01*
X62524Y-29589D01*
X62346Y-29515D01*
X62154Y-29515D01*
X61976Y-29589D01*
X61839Y-29725D01*
X61765Y-29903D01*
X61765Y-30095D01*
X61839Y-30273D01*
X61975Y-30410D01*
X62153Y-30484D01*
X62345Y-30484D01*
X62523Y-30410D01*
X62660Y-30274D01*
X62734Y-30096D01*
X62734Y-29904D01*
X62734Y-33416D01*
X62700Y-33410D01*
X61734Y-33410D01*
X61734Y-29904D01*
X61734Y-28904D01*
X61660Y-28726D01*
X61524Y-28589D01*
X61346Y-28515D01*
X61154Y-28515D01*
X60976Y-28589D01*
X60839Y-28725D01*
X60765Y-28903D01*
X60765Y-29095D01*
X60839Y-29273D01*
X60975Y-29410D01*
X61153Y-29484D01*
X61345Y-29484D01*
X61523Y-29410D01*
X61660Y-29274D01*
X61734Y-29096D01*
X61734Y-28904D01*
X61734Y-29904D01*
X61660Y-29726D01*
X61524Y-29589D01*
X61346Y-29515D01*
X61154Y-29515D01*
X60976Y-29589D01*
X60839Y-29725D01*
X60765Y-29903D01*
X60765Y-30095D01*
X60839Y-30273D01*
X60975Y-30410D01*
X61153Y-30484D01*
X61345Y-30484D01*
X61523Y-30410D01*
X61660Y-30274D01*
X61734Y-30096D01*
X61734Y-29904D01*
X61734Y-33410D01*
X60850Y-33410D01*
X60734Y-33410D01*
X60734Y-29904D01*
X60734Y-28904D01*
X60660Y-28726D01*
X60524Y-28589D01*
X60346Y-28515D01*
X60154Y-28515D01*
X59976Y-28589D01*
X59839Y-28725D01*
X59765Y-28903D01*
X59765Y-29095D01*
X59839Y-29273D01*
X59975Y-29410D01*
X60153Y-29484D01*
X60345Y-29484D01*
X60523Y-29410D01*
X60660Y-29274D01*
X60734Y-29096D01*
X60734Y-28904D01*
X60734Y-29904D01*
X60660Y-29726D01*
X60524Y-29589D01*
X60346Y-29515D01*
X60154Y-29515D01*
X59976Y-29589D01*
X59839Y-29725D01*
X59765Y-29903D01*
X59765Y-30095D01*
X59839Y-30273D01*
X59975Y-30410D01*
X60153Y-30484D01*
X60345Y-30484D01*
X60523Y-30410D01*
X60660Y-30274D01*
X60734Y-30096D01*
X60734Y-29904D01*
X60734Y-33410D01*
X59734Y-33410D01*
X59734Y-29904D01*
X59734Y-28904D01*
X59660Y-28726D01*
X59524Y-28589D01*
X59346Y-28515D01*
X59154Y-28515D01*
X58976Y-28589D01*
X58839Y-28725D01*
X58765Y-28903D01*
X58765Y-29095D01*
X58839Y-29273D01*
X58975Y-29410D01*
X59153Y-29484D01*
X59345Y-29484D01*
X59523Y-29410D01*
X59660Y-29274D01*
X59734Y-29096D01*
X59734Y-28904D01*
X59734Y-29904D01*
X59660Y-29726D01*
X59524Y-29589D01*
X59346Y-29515D01*
X59154Y-29515D01*
X58976Y-29589D01*
X58839Y-29725D01*
X58765Y-29903D01*
X58765Y-30095D01*
X58839Y-30273D01*
X58975Y-30410D01*
X59153Y-30484D01*
X59345Y-30484D01*
X59523Y-30410D01*
X59660Y-30274D01*
X59734Y-30096D01*
X59734Y-29904D01*
X59734Y-33410D01*
X58734Y-33410D01*
X58734Y-29904D01*
X58734Y-28904D01*
X58660Y-28726D01*
X58524Y-28589D01*
X58346Y-28515D01*
X58154Y-28515D01*
X57976Y-28589D01*
X57839Y-28725D01*
X57765Y-28903D01*
X57765Y-29095D01*
X57839Y-29273D01*
X57975Y-29410D01*
X58153Y-29484D01*
X58345Y-29484D01*
X58523Y-29410D01*
X58660Y-29274D01*
X58734Y-29096D01*
X58734Y-28904D01*
X58734Y-29904D01*
X58660Y-29726D01*
X58524Y-29589D01*
X58346Y-29515D01*
X58154Y-29515D01*
X57976Y-29589D01*
X57839Y-29725D01*
X57765Y-29903D01*
X57765Y-30095D01*
X57839Y-30273D01*
X57975Y-30410D01*
X58153Y-30484D01*
X58345Y-30484D01*
X58523Y-30410D01*
X58660Y-30274D01*
X58734Y-30096D01*
X58734Y-29904D01*
X58734Y-33410D01*
X57978Y-33410D01*
X57440Y-32871D01*
X57440Y-30445D01*
X57523Y-30410D01*
X57660Y-30274D01*
X57734Y-30096D01*
X57734Y-29904D01*
X57734Y-28904D01*
X57660Y-28726D01*
X57524Y-28589D01*
X57346Y-28515D01*
X57154Y-28515D01*
X56976Y-28589D01*
X56839Y-28725D01*
X56765Y-28903D01*
X56765Y-29095D01*
X56839Y-29273D01*
X56975Y-29410D01*
X57153Y-29484D01*
X57345Y-29484D01*
X57523Y-29410D01*
X57660Y-29274D01*
X57734Y-29096D01*
X57734Y-28904D01*
X57734Y-29904D01*
X57660Y-29726D01*
X57524Y-29589D01*
X57346Y-29515D01*
X57154Y-29515D01*
X56976Y-29589D01*
X56839Y-29725D01*
X56765Y-29903D01*
X56765Y-30095D01*
X56839Y-30273D01*
X56975Y-30410D01*
X57060Y-30445D01*
X57060Y-32950D01*
X57074Y-33022D01*
X57115Y-33084D01*
X57765Y-33734D01*
X57765Y-33734D01*
X57765Y-33734D01*
X57827Y-33775D01*
X57900Y-33790D01*
X57900Y-33790D01*
X57900Y-33790D01*
X60850Y-33790D01*
X62621Y-33790D01*
X62695Y-33863D01*
X62694Y-33960D01*
X62741Y-34072D01*
X62827Y-34158D01*
X62939Y-34204D01*
X63026Y-34205D01*
X62486Y-34744D01*
X62458Y-34677D01*
X62372Y-34591D01*
X62260Y-34545D01*
X62163Y-34544D01*
X61534Y-33915D01*
X61472Y-33874D01*
X61400Y-33860D01*
X60850Y-33860D01*
X57628Y-33860D01*
X56440Y-32671D01*
X56440Y-30445D01*
X56523Y-30410D01*
X56660Y-30274D01*
X56734Y-30096D01*
X56734Y-29904D01*
X56734Y-28904D01*
X56660Y-28726D01*
X56524Y-28589D01*
X56346Y-28515D01*
X56154Y-28515D01*
X55976Y-28589D01*
X55839Y-28725D01*
X55765Y-28903D01*
X55765Y-29095D01*
X55839Y-29273D01*
X55975Y-29410D01*
X56153Y-29484D01*
X56345Y-29484D01*
X56523Y-29410D01*
X56660Y-29274D01*
X56734Y-29096D01*
X56734Y-28904D01*
X56734Y-29904D01*
X56660Y-29726D01*
X56524Y-29589D01*
X56346Y-29515D01*
X56154Y-29515D01*
X55976Y-29589D01*
X55839Y-29725D01*
X55765Y-29903D01*
X55765Y-30095D01*
X55839Y-30273D01*
X55975Y-30410D01*
X56060Y-30445D01*
X56060Y-32750D01*
X56074Y-32822D01*
X56115Y-32884D01*
X57415Y-34184D01*
X57477Y-34225D01*
X57550Y-34240D01*
X60850Y-34240D01*
X61321Y-34240D01*
X61895Y-34813D01*
X61894Y-34910D01*
X61941Y-35022D01*
X62027Y-35108D01*
X62094Y-35136D01*
X61571Y-35660D01*
X61468Y-35660D01*
X61448Y-35639D01*
X61400Y-35620D01*
X61349Y-35620D01*
X60899Y-35620D01*
X60851Y-35639D01*
X60814Y-35676D01*
X60795Y-35724D01*
X60795Y-35775D01*
X60795Y-35910D01*
X60578Y-35910D01*
X59884Y-35215D01*
X59822Y-35174D01*
X59750Y-35160D01*
X58968Y-35160D01*
X58948Y-35139D01*
X58900Y-35120D01*
X58849Y-35120D01*
X58399Y-35120D01*
X58351Y-35139D01*
X58314Y-35176D01*
X58295Y-35224D01*
X58295Y-35275D01*
X58295Y-35410D01*
X58200Y-35410D01*
X57078Y-35410D01*
X53940Y-32271D01*
X53940Y-30375D01*
X53975Y-30410D01*
X54060Y-30445D01*
X54060Y-32200D01*
X54074Y-32272D01*
X54115Y-32334D01*
X56765Y-34984D01*
X56765Y-34984D01*
X56827Y-35025D01*
X56900Y-35040D01*
X58331Y-35040D01*
X58351Y-35060D01*
X58399Y-35080D01*
X58450Y-35080D01*
X58900Y-35080D01*
X58948Y-35060D01*
X58985Y-35023D01*
X59005Y-34975D01*
X59005Y-34924D01*
X59005Y-34724D01*
X58985Y-34676D01*
X58948Y-34640D01*
X59371Y-34640D01*
X60215Y-35484D01*
X60277Y-35525D01*
X60350Y-35540D01*
X60831Y-35540D01*
X60851Y-35560D01*
X60899Y-35580D01*
X60950Y-35580D01*
X61400Y-35580D01*
X61448Y-35560D01*
X61485Y-35523D01*
X61505Y-35475D01*
X61505Y-35424D01*
X61505Y-35224D01*
X61485Y-35176D01*
X61484Y-35175D01*
X61516Y-35161D01*
X61586Y-35091D01*
X61625Y-34999D01*
X61625Y-34962D01*
X61625Y-34737D01*
X61625Y-34700D01*
X61586Y-34608D01*
X61516Y-34538D01*
X61424Y-34500D01*
X61325Y-34500D01*
X61262Y-34500D01*
X61200Y-34562D01*
X61200Y-34800D01*
X61562Y-34800D01*
X61625Y-34737D01*
X61625Y-34962D01*
X61562Y-34900D01*
X61200Y-34900D01*
X61200Y-34907D01*
X61100Y-34907D01*
X61100Y-34900D01*
X61100Y-34800D01*
X61100Y-34562D01*
X61037Y-34500D01*
X60974Y-34500D01*
X60875Y-34500D01*
X60783Y-34538D01*
X60713Y-34608D01*
X60675Y-34700D01*
X60675Y-34737D01*
X60737Y-34800D01*
X61100Y-34800D01*
X61100Y-34900D01*
X60737Y-34900D01*
X60675Y-34962D01*
X60675Y-34999D01*
X60713Y-35091D01*
X60781Y-35160D01*
X60428Y-35160D01*
X59584Y-34315D01*
X59522Y-34274D01*
X59450Y-34260D01*
X57278Y-34260D01*
X54940Y-31921D01*
X54940Y-30950D01*
X54940Y-30375D01*
X54975Y-30410D01*
X55153Y-30484D01*
X55345Y-30484D01*
X55523Y-30410D01*
X55660Y-30274D01*
X55734Y-30096D01*
X55734Y-29904D01*
X55734Y-28904D01*
X55660Y-28726D01*
X55524Y-28589D01*
X55346Y-28515D01*
X55154Y-28515D01*
X54976Y-28589D01*
X54839Y-28725D01*
X54765Y-28903D01*
X54765Y-29095D01*
X54839Y-29273D01*
X54975Y-29410D01*
X55153Y-29484D01*
X55345Y-29484D01*
X55523Y-29410D01*
X55660Y-29274D01*
X55734Y-29096D01*
X55734Y-28904D01*
X55734Y-29904D01*
X55660Y-29726D01*
X55524Y-29589D01*
X55346Y-29515D01*
X55154Y-29515D01*
X54976Y-29589D01*
X54940Y-29625D01*
X54940Y-29500D01*
X54925Y-29427D01*
X54884Y-29365D01*
X54699Y-29180D01*
X54734Y-29096D01*
X54734Y-28904D01*
X54660Y-28726D01*
X54524Y-28589D01*
X54346Y-28515D01*
X54154Y-28515D01*
X53976Y-28589D01*
X53839Y-28725D01*
X53765Y-28903D01*
X53765Y-29095D01*
X53839Y-29273D01*
X53975Y-29410D01*
X54153Y-29484D01*
X54345Y-29484D01*
X54430Y-29449D01*
X54560Y-29578D01*
X54560Y-29624D01*
X54524Y-29589D01*
X54346Y-29515D01*
X54154Y-29515D01*
X53976Y-29589D01*
X53940Y-29625D01*
X53940Y-29500D01*
X53925Y-29427D01*
X53884Y-29365D01*
X53699Y-29180D01*
X53734Y-29096D01*
X53734Y-28904D01*
X53660Y-28726D01*
X53524Y-28589D01*
X53346Y-28515D01*
X53154Y-28515D01*
X52976Y-28589D01*
X52839Y-28725D01*
X52765Y-28903D01*
X52765Y-29095D01*
X52839Y-29273D01*
X52975Y-29410D01*
X53153Y-29484D01*
X53345Y-29484D01*
X53430Y-29449D01*
X53560Y-29578D01*
X53560Y-29624D01*
X53524Y-29589D01*
X53346Y-29515D01*
X53154Y-29515D01*
X52976Y-29589D01*
X52839Y-29725D01*
X52765Y-29903D01*
X52765Y-30095D01*
X52839Y-30273D01*
X52975Y-30410D01*
X53153Y-30484D01*
X53345Y-30484D01*
X53523Y-30410D01*
X53560Y-30374D01*
X53560Y-32350D01*
X53574Y-32422D01*
X53615Y-32484D01*
X56865Y-35734D01*
X56927Y-35775D01*
X57000Y-35790D01*
X58200Y-35790D01*
X58295Y-35790D01*
X58295Y-35975D01*
X58314Y-36023D01*
X58351Y-36060D01*
X58399Y-36080D01*
X58450Y-36080D01*
X58900Y-36080D01*
X58948Y-36060D01*
X58968Y-36040D01*
X59271Y-36040D01*
X60010Y-36778D01*
X60010Y-42650D01*
X60010Y-44177D01*
X59977Y-44191D01*
X59891Y-44277D01*
X59845Y-44389D01*
X59844Y-44510D01*
X59891Y-44622D01*
X59977Y-44708D01*
X60089Y-44754D01*
X60210Y-44755D01*
X60310Y-44713D01*
X60310Y-47515D01*
X60154Y-47515D01*
X59976Y-47589D01*
X59839Y-47725D01*
X59765Y-47903D01*
X59765Y-48095D01*
X59839Y-48273D01*
X59875Y-48310D01*
X59625Y-48310D01*
X59660Y-48274D01*
X59734Y-48096D01*
X59734Y-47904D01*
X59660Y-47726D01*
X59524Y-47589D01*
X59346Y-47515D01*
X59340Y-47515D01*
X59340Y-44550D01*
X59340Y-44549D01*
X59340Y-42750D01*
X59325Y-42677D01*
X59307Y-42650D01*
X59325Y-42622D01*
X59340Y-42550D01*
X59340Y-38050D01*
X59325Y-37977D01*
X59284Y-37915D01*
X59284Y-37915D01*
X59084Y-37715D01*
X59022Y-37674D01*
X58973Y-37664D01*
X58948Y-37639D01*
X58900Y-37620D01*
X58849Y-37620D01*
X58399Y-37620D01*
X58351Y-37639D01*
X58314Y-37676D01*
X58295Y-37724D01*
X58295Y-37775D01*
X58295Y-37975D01*
X58314Y-38023D01*
X58351Y-38060D01*
X58399Y-38080D01*
X58450Y-38080D01*
X58900Y-38080D01*
X58908Y-38076D01*
X58960Y-38128D01*
X58960Y-38151D01*
X58948Y-38139D01*
X58900Y-38120D01*
X58849Y-38120D01*
X58747Y-38120D01*
X58745Y-38119D01*
X58650Y-38100D01*
X58554Y-38119D01*
X58552Y-38120D01*
X58399Y-38120D01*
X58351Y-38139D01*
X58314Y-38176D01*
X58295Y-38224D01*
X58295Y-38275D01*
X58295Y-38475D01*
X58314Y-38523D01*
X58351Y-38560D01*
X58399Y-38580D01*
X58400Y-38580D01*
X58400Y-38718D01*
X58368Y-38750D01*
X58355Y-38750D01*
X58355Y-38749D01*
X58335Y-38701D01*
X58298Y-38664D01*
X58250Y-38645D01*
X58199Y-38645D01*
X57990Y-38645D01*
X57990Y-37928D01*
X58134Y-37784D01*
X58134Y-37784D01*
X58134Y-37784D01*
X58356Y-37562D01*
X58399Y-37580D01*
X58450Y-37580D01*
X58900Y-37580D01*
X58948Y-37560D01*
X58985Y-37523D01*
X59005Y-37475D01*
X59005Y-37424D01*
X59005Y-37224D01*
X59005Y-36975D01*
X59005Y-36924D01*
X59005Y-36724D01*
X59005Y-36475D01*
X59005Y-36424D01*
X59005Y-36224D01*
X58985Y-36176D01*
X58948Y-36139D01*
X58900Y-36120D01*
X58849Y-36120D01*
X58399Y-36120D01*
X58351Y-36139D01*
X58314Y-36176D01*
X58295Y-36224D01*
X58295Y-36275D01*
X58295Y-36475D01*
X58314Y-36523D01*
X58351Y-36560D01*
X58399Y-36580D01*
X58450Y-36580D01*
X58900Y-36580D01*
X58948Y-36560D01*
X58985Y-36523D01*
X59005Y-36475D01*
X59005Y-36724D01*
X58985Y-36676D01*
X58948Y-36639D01*
X58900Y-36620D01*
X58849Y-36620D01*
X58399Y-36620D01*
X58351Y-36639D01*
X58314Y-36676D01*
X58295Y-36724D01*
X58295Y-36775D01*
X58295Y-36975D01*
X58314Y-37023D01*
X58351Y-37060D01*
X58399Y-37080D01*
X58450Y-37080D01*
X58900Y-37080D01*
X58948Y-37060D01*
X58985Y-37023D01*
X59005Y-36975D01*
X59005Y-37224D01*
X58985Y-37176D01*
X58948Y-37139D01*
X58900Y-37120D01*
X58849Y-37120D01*
X58399Y-37120D01*
X58351Y-37139D01*
X58331Y-37160D01*
X58300Y-37160D01*
X58300Y-37159D01*
X58227Y-37174D01*
X58165Y-37215D01*
X57865Y-37515D01*
X57865Y-37515D01*
X57665Y-37715D01*
X57624Y-37777D01*
X57610Y-37850D01*
X57610Y-38527D01*
X57550Y-38587D01*
X57550Y-38950D01*
X57557Y-38950D01*
X57557Y-39050D01*
X57550Y-39050D01*
X57550Y-39412D01*
X57610Y-39472D01*
X57610Y-41400D01*
X57610Y-41450D01*
X57610Y-42050D01*
X57624Y-42122D01*
X57638Y-42143D01*
X57450Y-42331D01*
X57450Y-39412D01*
X57450Y-39050D01*
X57450Y-38950D01*
X57450Y-38587D01*
X57387Y-38525D01*
X57325Y-38525D01*
X57233Y-38563D01*
X57163Y-38633D01*
X57125Y-38725D01*
X57125Y-38824D01*
X57125Y-38887D01*
X57187Y-38950D01*
X57450Y-38950D01*
X57450Y-39050D01*
X57187Y-39050D01*
X57125Y-39112D01*
X57125Y-39175D01*
X57125Y-39274D01*
X57163Y-39366D01*
X57233Y-39436D01*
X57325Y-39475D01*
X57387Y-39475D01*
X57450Y-39412D01*
X57450Y-42331D01*
X57215Y-42565D01*
X56465Y-43315D01*
X56115Y-43665D01*
X56074Y-43727D01*
X56060Y-43800D01*
X56060Y-43900D01*
X56060Y-47554D01*
X55976Y-47589D01*
X55839Y-47725D01*
X55765Y-47903D01*
X55765Y-48095D01*
X55839Y-48273D01*
X55975Y-48410D01*
X56153Y-48484D01*
X56221Y-48484D01*
X56250Y-48490D01*
X56278Y-48484D01*
X56345Y-48484D01*
X56523Y-48410D01*
X56660Y-48274D01*
X56734Y-48096D01*
X56734Y-47904D01*
X56660Y-47726D01*
X56524Y-47589D01*
X56440Y-47554D01*
X56440Y-43900D01*
X56440Y-43878D01*
X56734Y-43584D01*
X57484Y-42834D01*
X57978Y-42340D01*
X58331Y-42340D01*
X58351Y-42360D01*
X58399Y-42380D01*
X58450Y-42380D01*
X58900Y-42380D01*
X58948Y-42360D01*
X58960Y-42348D01*
X58960Y-42451D01*
X58948Y-42439D01*
X58900Y-42420D01*
X58849Y-42420D01*
X58399Y-42420D01*
X58351Y-42439D01*
X58331Y-42460D01*
X58200Y-42460D01*
X58127Y-42474D01*
X58065Y-42515D01*
X57115Y-43465D01*
X57074Y-43527D01*
X57060Y-43600D01*
X57060Y-47554D01*
X56976Y-47589D01*
X56839Y-47725D01*
X56765Y-47903D01*
X56765Y-48095D01*
X56839Y-48273D01*
X56975Y-48410D01*
X57153Y-48484D01*
X57345Y-48484D01*
X57523Y-48410D01*
X57660Y-48274D01*
X57734Y-48096D01*
X57734Y-47904D01*
X57660Y-47726D01*
X57524Y-47589D01*
X57440Y-47554D01*
X57440Y-43678D01*
X58278Y-42840D01*
X58331Y-42840D01*
X58351Y-42860D01*
X58399Y-42880D01*
X58450Y-42880D01*
X58900Y-42880D01*
X58948Y-42860D01*
X58960Y-42848D01*
X58960Y-42951D01*
X58948Y-42939D01*
X58900Y-42920D01*
X58849Y-42920D01*
X58747Y-42920D01*
X58745Y-42919D01*
X58650Y-42900D01*
X58554Y-42919D01*
X58552Y-42920D01*
X58399Y-42920D01*
X58351Y-42939D01*
X58314Y-42976D01*
X58295Y-43024D01*
X58295Y-43075D01*
X58295Y-43275D01*
X58314Y-43323D01*
X58351Y-43360D01*
X58391Y-43376D01*
X58391Y-43377D01*
X58345Y-43489D01*
X58344Y-43610D01*
X58350Y-43622D01*
X58350Y-43664D01*
X58336Y-43633D01*
X58266Y-43563D01*
X58174Y-43525D01*
X58112Y-43525D01*
X58050Y-43587D01*
X58050Y-43950D01*
X58057Y-43950D01*
X58057Y-44050D01*
X58050Y-44050D01*
X58050Y-44057D01*
X57950Y-44057D01*
X57950Y-44050D01*
X57950Y-43950D01*
X57950Y-43587D01*
X57887Y-43525D01*
X57825Y-43525D01*
X57733Y-43563D01*
X57663Y-43633D01*
X57625Y-43725D01*
X57625Y-43824D01*
X57625Y-43887D01*
X57687Y-43950D01*
X57950Y-43950D01*
X57950Y-44050D01*
X57687Y-44050D01*
X57625Y-44112D01*
X57625Y-44175D01*
X57625Y-44274D01*
X57663Y-44366D01*
X57733Y-44436D01*
X57801Y-44465D01*
X57764Y-44501D01*
X57745Y-44549D01*
X57745Y-44600D01*
X57745Y-45050D01*
X57764Y-45098D01*
X57801Y-45135D01*
X57810Y-45138D01*
X57810Y-45261D01*
X57801Y-45264D01*
X57764Y-45301D01*
X57745Y-45349D01*
X57745Y-45400D01*
X57745Y-45850D01*
X57764Y-45898D01*
X57801Y-45935D01*
X57849Y-45955D01*
X57900Y-45955D01*
X58150Y-45955D01*
X58198Y-45935D01*
X58235Y-45898D01*
X58255Y-45850D01*
X58255Y-45799D01*
X58255Y-45349D01*
X58235Y-45301D01*
X58198Y-45264D01*
X58190Y-45261D01*
X58190Y-45138D01*
X58198Y-45135D01*
X58235Y-45098D01*
X58255Y-45050D01*
X58255Y-44999D01*
X58255Y-44813D01*
X58345Y-44723D01*
X58345Y-45050D01*
X58364Y-45098D01*
X58401Y-45135D01*
X58449Y-45155D01*
X58500Y-45155D01*
X58750Y-45155D01*
X58798Y-45135D01*
X58835Y-45098D01*
X58855Y-45050D01*
X58855Y-44999D01*
X58855Y-44990D01*
X58900Y-44990D01*
X58972Y-44975D01*
X59034Y-44934D01*
X59284Y-44684D01*
X59284Y-44684D01*
X59284Y-44684D01*
X59325Y-44622D01*
X59340Y-44550D01*
X59340Y-44550D01*
X59340Y-47515D01*
X59154Y-47515D01*
X58976Y-47589D01*
X58935Y-47629D01*
X58925Y-47577D01*
X58884Y-47515D01*
X58884Y-47515D01*
X58790Y-47421D01*
X58790Y-45938D01*
X58798Y-45935D01*
X58835Y-45898D01*
X58855Y-45850D01*
X58855Y-45799D01*
X58855Y-45349D01*
X58835Y-45301D01*
X58798Y-45264D01*
X58750Y-45245D01*
X58699Y-45245D01*
X58449Y-45245D01*
X58401Y-45264D01*
X58364Y-45301D01*
X58345Y-45349D01*
X58345Y-45400D01*
X58345Y-45850D01*
X58364Y-45898D01*
X58401Y-45935D01*
X58410Y-45938D01*
X58410Y-47500D01*
X58419Y-47545D01*
X58346Y-47515D01*
X58154Y-47515D01*
X57976Y-47589D01*
X57839Y-47725D01*
X57765Y-47903D01*
X57765Y-48095D01*
X57839Y-48273D01*
X57975Y-48410D01*
X58153Y-48484D01*
X58345Y-48484D01*
X58523Y-48410D01*
X58560Y-48374D01*
X58560Y-48400D01*
X58574Y-48472D01*
X58615Y-48534D01*
X58715Y-48634D01*
X58777Y-48675D01*
X58850Y-48690D01*
X58874Y-48690D01*
X58839Y-48725D01*
X58765Y-48903D01*
X58765Y-49095D01*
X58839Y-49273D01*
X58975Y-49410D01*
X59153Y-49484D01*
X59345Y-49484D01*
X59523Y-49410D01*
X59660Y-49274D01*
X59734Y-49096D01*
X59734Y-48904D01*
X59660Y-48726D01*
X59624Y-48690D01*
X59874Y-48690D01*
X59839Y-48725D01*
X59765Y-48903D01*
X59765Y-49095D01*
X59839Y-49273D01*
X59975Y-49410D01*
X60153Y-49484D01*
X60345Y-49484D01*
X60523Y-49410D01*
X60660Y-49274D01*
X60734Y-49096D01*
X60734Y-48904D01*
X60660Y-48726D01*
X60624Y-48690D01*
X60750Y-48690D01*
X60822Y-48675D01*
X60884Y-48634D01*
X61069Y-48449D01*
X61153Y-48484D01*
X61345Y-48484D01*
X61523Y-48410D01*
X61660Y-48274D01*
X61734Y-48096D01*
X61734Y-47904D01*
X61660Y-47726D01*
X61524Y-47589D01*
X61346Y-47515D01*
X61340Y-47515D01*
X61340Y-44763D01*
X61439Y-44804D01*
X61560Y-44805D01*
X61672Y-44758D01*
X61741Y-44690D01*
X63613Y-44690D01*
X63635Y-44743D01*
X63756Y-44864D01*
X63914Y-44929D01*
X64085Y-44930D01*
X64243Y-44864D01*
X64310Y-44798D01*
X64310Y-45550D01*
X64324Y-45622D01*
X64365Y-45684D01*
X66060Y-47378D01*
X66060Y-47554D01*
X65976Y-47589D01*
X65839Y-47725D01*
X65765Y-47903D01*
X65765Y-48095D01*
X65839Y-48273D01*
X65975Y-48410D01*
X66153Y-48484D01*
X66345Y-48484D01*
X66523Y-48410D01*
X66660Y-48274D01*
X66734Y-48096D01*
X66734Y-47904D01*
X66660Y-47726D01*
X66524Y-47589D01*
X66440Y-47554D01*
X66440Y-47300D01*
X66425Y-47227D01*
X66384Y-47165D01*
X65554Y-46336D01*
X65554Y-44581D01*
X65554Y-43581D01*
X65543Y-43363D01*
X65481Y-43212D01*
X65385Y-43184D01*
X65070Y-43500D01*
X65385Y-43815D01*
X65481Y-43787D01*
X65554Y-43581D01*
X65554Y-44581D01*
X65543Y-44363D01*
X65481Y-44212D01*
X65385Y-44184D01*
X65070Y-44500D01*
X65385Y-44815D01*
X65481Y-44787D01*
X65554Y-44581D01*
X65554Y-46336D01*
X64690Y-45471D01*
X64690Y-44904D01*
X64712Y-44981D01*
X64918Y-45054D01*
X65136Y-45043D01*
X65287Y-44981D01*
X65315Y-44885D01*
X65000Y-44570D01*
X64994Y-44576D01*
X64923Y-44505D01*
X64929Y-44500D01*
X64923Y-44494D01*
X64994Y-44423D01*
X65000Y-44429D01*
X65315Y-44114D01*
X65287Y-44018D01*
X65239Y-44001D01*
X65287Y-43981D01*
X65315Y-43885D01*
X65000Y-43570D01*
X64994Y-43576D01*
X64923Y-43505D01*
X64929Y-43500D01*
X64923Y-43494D01*
X64994Y-43423D01*
X65000Y-43429D01*
X65315Y-43114D01*
X65287Y-43018D01*
X65081Y-42945D01*
X64863Y-42956D01*
X64712Y-43018D01*
X64690Y-43095D01*
X64690Y-43000D01*
X64675Y-42927D01*
X64634Y-42865D01*
X64407Y-42639D01*
X64429Y-42585D01*
X64430Y-42414D01*
X64430Y-41414D01*
X64430Y-41414D01*
X64430Y-40825D01*
X64430Y-40774D01*
X64430Y-40174D01*
X64410Y-40126D01*
X64373Y-40089D01*
X64325Y-40070D01*
X64274Y-40070D01*
X63674Y-40070D01*
X63626Y-40089D01*
X63589Y-40126D01*
X63570Y-40174D01*
X63570Y-40225D01*
X63570Y-40825D01*
X63589Y-40873D01*
X63626Y-40910D01*
X63674Y-40930D01*
X63725Y-40930D01*
X64325Y-40930D01*
X64373Y-40910D01*
X64410Y-40873D01*
X64430Y-40825D01*
X64430Y-41414D01*
X64364Y-41256D01*
X64243Y-41135D01*
X64085Y-41070D01*
X63914Y-41069D01*
X63756Y-41135D01*
X63635Y-41256D01*
X63570Y-41414D01*
X63569Y-41585D01*
X63635Y-41743D01*
X63756Y-41864D01*
X63914Y-41929D01*
X64085Y-41930D01*
X64243Y-41864D01*
X64364Y-41743D01*
X64429Y-41585D01*
X64430Y-41414D01*
X64430Y-42414D01*
X64364Y-42256D01*
X64243Y-42135D01*
X64085Y-42070D01*
X63914Y-42069D01*
X63756Y-42135D01*
X63635Y-42256D01*
X63570Y-42414D01*
X63569Y-42585D01*
X63635Y-42743D01*
X63756Y-42864D01*
X63914Y-42929D01*
X64085Y-42930D01*
X64139Y-42907D01*
X64310Y-43078D01*
X64310Y-43201D01*
X64243Y-43135D01*
X64085Y-43070D01*
X63914Y-43069D01*
X63860Y-43092D01*
X61784Y-41015D01*
X61722Y-40974D01*
X61650Y-40960D01*
X61468Y-40960D01*
X61448Y-40939D01*
X61400Y-40920D01*
X61349Y-40920D01*
X60940Y-40920D01*
X60940Y-40880D01*
X60950Y-40880D01*
X61400Y-40880D01*
X61448Y-40860D01*
X61468Y-40840D01*
X61750Y-40840D01*
X61822Y-40825D01*
X61884Y-40784D01*
X62878Y-39790D01*
X64200Y-39790D01*
X64272Y-39775D01*
X64334Y-39734D01*
X64634Y-39434D01*
X64675Y-39372D01*
X64690Y-39300D01*
X64690Y-39300D01*
X64690Y-39299D01*
X64690Y-37904D01*
X64712Y-37981D01*
X64918Y-38054D01*
X65136Y-38043D01*
X65287Y-37981D01*
X65315Y-37885D01*
X65000Y-37570D01*
X64994Y-37576D01*
X64923Y-37505D01*
X64929Y-37500D01*
X64923Y-37494D01*
X64994Y-37423D01*
X65000Y-37429D01*
X65315Y-37114D01*
X65287Y-37018D01*
X65239Y-37001D01*
X65287Y-36981D01*
X65315Y-36885D01*
X65000Y-36570D01*
X64994Y-36576D01*
X64923Y-36505D01*
X64929Y-36500D01*
X64614Y-36184D01*
X64518Y-36212D01*
X64445Y-36418D01*
X64456Y-36636D01*
X64492Y-36723D01*
X64407Y-36639D01*
X64429Y-36585D01*
X64430Y-36414D01*
X64364Y-36256D01*
X64243Y-36135D01*
X64085Y-36070D01*
X63914Y-36069D01*
X63756Y-36135D01*
X63635Y-36256D01*
X63570Y-36414D01*
X63569Y-36585D01*
X63635Y-36743D01*
X63756Y-36864D01*
X63914Y-36929D01*
X64085Y-36930D01*
X64139Y-36907D01*
X64310Y-37078D01*
X64310Y-37201D01*
X64243Y-37135D01*
X64085Y-37070D01*
X63914Y-37069D01*
X63756Y-37135D01*
X63635Y-37256D01*
X63613Y-37310D01*
X63328Y-37310D01*
X61984Y-35965D01*
X61922Y-35924D01*
X61857Y-35911D01*
X63838Y-33930D01*
X64310Y-33930D01*
X64310Y-34201D01*
X64243Y-34135D01*
X64085Y-34070D01*
X63914Y-34069D01*
X63756Y-34135D01*
X63635Y-34256D01*
X63570Y-34414D01*
X63569Y-34585D01*
X63635Y-34743D01*
X63756Y-34864D01*
X63914Y-34929D01*
X64085Y-34930D01*
X64243Y-34864D01*
X64310Y-34798D01*
X64310Y-34921D01*
X64139Y-35092D01*
X64085Y-35070D01*
X63914Y-35069D01*
X63756Y-35135D01*
X63635Y-35256D01*
X63570Y-35414D01*
X63569Y-35585D01*
X63635Y-35743D01*
X63756Y-35864D01*
X63914Y-35929D01*
X64085Y-35930D01*
X64243Y-35864D01*
X64364Y-35743D01*
X64429Y-35585D01*
X64430Y-35414D01*
X64407Y-35360D01*
X64634Y-35134D01*
X64675Y-35072D01*
X64690Y-35000D01*
X64690Y-34798D01*
X64756Y-34864D01*
X64914Y-34929D01*
X65085Y-34930D01*
X65243Y-34864D01*
X65364Y-34743D01*
X65429Y-34585D01*
X65430Y-34414D01*
X65364Y-34256D01*
X65243Y-34135D01*
X65085Y-34070D01*
X64914Y-34069D01*
X64756Y-34135D01*
X64690Y-34201D01*
X64690Y-33798D01*
X64756Y-33864D01*
X64914Y-33929D01*
X65085Y-33930D01*
X65243Y-33864D01*
X65364Y-33743D01*
X65429Y-33585D01*
X65430Y-33414D01*
X65364Y-33256D01*
X65243Y-33135D01*
X65085Y-33070D01*
X64914Y-33069D01*
X64756Y-33135D01*
X64690Y-33201D01*
X64690Y-31950D01*
X64675Y-31877D01*
X64634Y-31815D01*
X63440Y-30621D01*
X63440Y-30445D01*
X63523Y-30410D01*
X63560Y-30374D01*
X63560Y-30400D01*
X63560Y-30550D01*
X63574Y-30622D01*
X63615Y-30684D01*
X65510Y-32578D01*
X65510Y-33050D01*
X65510Y-36281D01*
X65481Y-36212D01*
X65430Y-36197D01*
X65430Y-35414D01*
X65364Y-35256D01*
X65243Y-35135D01*
X65085Y-35070D01*
X64914Y-35069D01*
X64756Y-35135D01*
X64635Y-35256D01*
X64570Y-35414D01*
X64569Y-35585D01*
X64635Y-35743D01*
X64756Y-35864D01*
X64914Y-35929D01*
X65085Y-35930D01*
X65243Y-35864D01*
X65364Y-35743D01*
X65429Y-35585D01*
X65430Y-35414D01*
X65430Y-36197D01*
X65385Y-36184D01*
X65315Y-36255D01*
X65315Y-36114D01*
X65287Y-36018D01*
X65081Y-35945D01*
X64863Y-35956D01*
X64712Y-36018D01*
X64684Y-36114D01*
X65000Y-36429D01*
X65315Y-36114D01*
X65315Y-36255D01*
X65070Y-36500D01*
X65385Y-36815D01*
X65481Y-36787D01*
X65510Y-36707D01*
X65510Y-37281D01*
X65481Y-37212D01*
X65385Y-37184D01*
X65070Y-37500D01*
X65385Y-37815D01*
X65481Y-37787D01*
X65510Y-37707D01*
X65510Y-40971D01*
X65430Y-41051D01*
X65430Y-40414D01*
X65364Y-40256D01*
X65243Y-40135D01*
X65085Y-40070D01*
X64914Y-40069D01*
X64756Y-40135D01*
X64635Y-40256D01*
X64570Y-40414D01*
X64569Y-40585D01*
X64635Y-40743D01*
X64756Y-40864D01*
X64914Y-40929D01*
X65085Y-40930D01*
X65243Y-40864D01*
X65364Y-40743D01*
X65429Y-40585D01*
X65430Y-40414D01*
X65430Y-41051D01*
X65294Y-41186D01*
X65243Y-41135D01*
X65085Y-41070D01*
X64914Y-41069D01*
X64756Y-41135D01*
X64635Y-41256D01*
X64570Y-41414D01*
X64569Y-41585D01*
X64635Y-41743D01*
X64756Y-41864D01*
X64914Y-41929D01*
X65085Y-41930D01*
X65243Y-41864D01*
X65364Y-41743D01*
X65427Y-41590D01*
X65834Y-41184D01*
X65860Y-41145D01*
X65860Y-41671D01*
X65319Y-42211D01*
X65243Y-42135D01*
X65085Y-42070D01*
X64914Y-42069D01*
X64756Y-42135D01*
X64635Y-42256D01*
X64570Y-42414D01*
X64569Y-42585D01*
X64635Y-42743D01*
X64756Y-42864D01*
X64914Y-42929D01*
X65085Y-42930D01*
X65243Y-42864D01*
X65364Y-42743D01*
X65400Y-42657D01*
X65434Y-42634D01*
X66184Y-41884D01*
X66225Y-41822D01*
X66240Y-41750D01*
X66240Y-33669D01*
X66241Y-33672D01*
X66327Y-33758D01*
X66439Y-33804D01*
X66560Y-33805D01*
X66672Y-33758D01*
X66758Y-33672D01*
X66804Y-33560D01*
X66804Y-33548D01*
X67426Y-32926D01*
X67480Y-32845D01*
X67500Y-32750D01*
X67500Y-32250D01*
X67500Y-30420D01*
X67523Y-30410D01*
X67660Y-30274D01*
X67682Y-30221D01*
X67723Y-30320D01*
X67824Y-30354D01*
X68179Y-30000D01*
X68173Y-29994D01*
X68244Y-29923D01*
X68250Y-29929D01*
X68255Y-29923D01*
X68326Y-29994D01*
X68320Y-30000D01*
X68675Y-30354D01*
X68776Y-30320D01*
X68858Y-30094D01*
X68858Y-31206D01*
X68839Y-31225D01*
X68765Y-31403D01*
X68765Y-31450D01*
X68604Y-31450D01*
X68604Y-30425D01*
X68250Y-30070D01*
X67895Y-30425D01*
X67929Y-30526D01*
X68155Y-30608D01*
X68395Y-30598D01*
X68570Y-30526D01*
X68604Y-30425D01*
X68604Y-31450D01*
X68562Y-31450D01*
X68550Y-31445D01*
X68499Y-31445D01*
X68049Y-31445D01*
X68001Y-31464D01*
X67964Y-31501D01*
X67945Y-31549D01*
X67945Y-31600D01*
X67945Y-31850D01*
X67964Y-31898D01*
X68001Y-31935D01*
X68049Y-31955D01*
X68100Y-31955D01*
X68550Y-31955D01*
X68562Y-31950D01*
X69050Y-31950D01*
X69064Y-31947D01*
X69153Y-31984D01*
X69345Y-31984D01*
X69523Y-31910D01*
X69660Y-31774D01*
X69734Y-31596D01*
X69734Y-31404D01*
X69734Y-32404D01*
X69660Y-32226D01*
X69524Y-32089D01*
X69346Y-32015D01*
X69154Y-32015D01*
X69064Y-32052D01*
X69050Y-32050D01*
X68562Y-32050D01*
X68550Y-32045D01*
X68499Y-32045D01*
X68049Y-32045D01*
X68001Y-32064D01*
X67964Y-32101D01*
X67945Y-32149D01*
X67945Y-32200D01*
X67945Y-32450D01*
X67964Y-32498D01*
X68001Y-32535D01*
X68049Y-32555D01*
X68100Y-32555D01*
X68550Y-32555D01*
X68562Y-32550D01*
X68765Y-32550D01*
X68765Y-32595D01*
X68839Y-32773D01*
X68975Y-32910D01*
X69153Y-32984D01*
X69345Y-32984D01*
X69523Y-32910D01*
X69660Y-32774D01*
X69734Y-32596D01*
X69734Y-32404D01*
X69734Y-36450D01*
X67950Y-36450D01*
X67950Y-43550D01*
X73200Y-43550D01*
X73200Y-49700D01*
X71400Y-49700D01*
X71400Y-48724D01*
X71399Y-48267D01*
X71227Y-47851D01*
X71069Y-47751D01*
X70998Y-47821D01*
X70998Y-47680D01*
X70898Y-47522D01*
X70474Y-47349D01*
X70017Y-47350D01*
X69601Y-47522D01*
X69501Y-47680D01*
X70250Y-48429D01*
X70998Y-47680D01*
X70998Y-47821D01*
X70320Y-48500D01*
X71069Y-49248D01*
X71227Y-49148D01*
X71400Y-48724D01*
X71400Y-49700D01*
X70998Y-49700D01*
X70998Y-49319D01*
X70250Y-48570D01*
X70179Y-48641D01*
X70179Y-48500D01*
X69430Y-47751D01*
X69272Y-47851D01*
X69099Y-48275D01*
X69100Y-48732D01*
X69272Y-49148D01*
X69430Y-49248D01*
X70179Y-48500D01*
X70179Y-48641D01*
X69501Y-49319D01*
X69601Y-49477D01*
X70025Y-49650D01*
X70482Y-49649D01*
X70898Y-49477D01*
X70998Y-49319D01*
X70998Y-49700D01*
X68858Y-49700D01*
X68858Y-49094D01*
X68854Y-48987D01*
X68848Y-48854D01*
X68776Y-48679D01*
X68675Y-48645D01*
X68720Y-48600D01*
X68703Y-48583D01*
X68745Y-48566D01*
X68816Y-48495D01*
X68854Y-48404D01*
X68854Y-48304D01*
X68854Y-48112D01*
X68854Y-47887D01*
X68854Y-47695D01*
X68854Y-47595D01*
X68816Y-47504D01*
X68745Y-47433D01*
X68654Y-47395D01*
X68362Y-47395D01*
X68300Y-47458D01*
X68300Y-47950D01*
X68791Y-47950D01*
X68854Y-47887D01*
X68854Y-48112D01*
X68791Y-48050D01*
X68300Y-48050D01*
X68300Y-48057D01*
X68200Y-48057D01*
X68200Y-48050D01*
X68192Y-48050D01*
X68192Y-47950D01*
X68200Y-47950D01*
X68200Y-47458D01*
X68137Y-47395D01*
X67845Y-47395D01*
X67754Y-47433D01*
X67683Y-47504D01*
X67645Y-47595D01*
X67645Y-47695D01*
X67645Y-47710D01*
X67524Y-47589D01*
X67346Y-47515D01*
X67154Y-47515D01*
X66976Y-47589D01*
X66839Y-47725D01*
X66765Y-47903D01*
X66765Y-48095D01*
X66839Y-48273D01*
X66975Y-48410D01*
X67153Y-48484D01*
X67345Y-48484D01*
X67523Y-48410D01*
X67645Y-48289D01*
X67645Y-48304D01*
X67645Y-48404D01*
X67683Y-48495D01*
X67754Y-48566D01*
X67796Y-48583D01*
X67779Y-48600D01*
X67824Y-48645D01*
X67723Y-48679D01*
X67685Y-48784D01*
X67660Y-48726D01*
X67524Y-48589D01*
X67346Y-48515D01*
X67154Y-48515D01*
X66976Y-48589D01*
X66839Y-48725D01*
X66765Y-48903D01*
X66765Y-49095D01*
X66839Y-49273D01*
X66975Y-49410D01*
X67153Y-49484D01*
X67345Y-49484D01*
X67523Y-49410D01*
X67660Y-49274D01*
X67682Y-49221D01*
X67723Y-49320D01*
X67824Y-49354D01*
X68179Y-49000D01*
X68173Y-48994D01*
X68244Y-48923D01*
X68250Y-48929D01*
X68255Y-48923D01*
X68326Y-48994D01*
X68320Y-49000D01*
X68675Y-49354D01*
X68776Y-49320D01*
X68858Y-49094D01*
X68858Y-49700D01*
X68604Y-49700D01*
X68604Y-49425D01*
X68250Y-49070D01*
X68179Y-49141D01*
X67895Y-49425D01*
X67929Y-49526D01*
X68155Y-49608D01*
X68395Y-49598D01*
X68570Y-49526D01*
X68604Y-49425D01*
X68604Y-49700D01*
X66734Y-49700D01*
X66734Y-48904D01*
X66660Y-48726D01*
X66524Y-48589D01*
X66346Y-48515D01*
X66154Y-48515D01*
X65976Y-48589D01*
X65839Y-48725D01*
X65765Y-48903D01*
X65765Y-49095D01*
X65839Y-49273D01*
X65975Y-49410D01*
X66153Y-49484D01*
X66345Y-49484D01*
X66523Y-49410D01*
X66660Y-49274D01*
X66734Y-49096D01*
X66734Y-48904D01*
X66734Y-49700D01*
X65734Y-49700D01*
X65734Y-48904D01*
X65734Y-47904D01*
X65660Y-47726D01*
X65524Y-47589D01*
X65346Y-47515D01*
X65154Y-47515D01*
X64976Y-47589D01*
X64839Y-47725D01*
X64765Y-47903D01*
X64765Y-48095D01*
X64839Y-48273D01*
X64975Y-48410D01*
X65153Y-48484D01*
X65345Y-48484D01*
X65523Y-48410D01*
X65660Y-48274D01*
X65734Y-48096D01*
X65734Y-47904D01*
X65734Y-48904D01*
X65660Y-48726D01*
X65524Y-48589D01*
X65346Y-48515D01*
X65154Y-48515D01*
X64976Y-48589D01*
X64839Y-48725D01*
X64765Y-48903D01*
X64765Y-49095D01*
X64839Y-49273D01*
X64975Y-49410D01*
X65153Y-49484D01*
X65345Y-49484D01*
X65523Y-49410D01*
X65660Y-49274D01*
X65734Y-49096D01*
X65734Y-48904D01*
X65734Y-49700D01*
X64734Y-49700D01*
X64734Y-48904D01*
X64734Y-47904D01*
X64660Y-47726D01*
X64524Y-47589D01*
X64346Y-47515D01*
X64154Y-47515D01*
X63976Y-47589D01*
X63839Y-47725D01*
X63765Y-47903D01*
X63765Y-48095D01*
X63839Y-48273D01*
X63975Y-48410D01*
X64153Y-48484D01*
X64345Y-48484D01*
X64523Y-48410D01*
X64660Y-48274D01*
X64734Y-48096D01*
X64734Y-47904D01*
X64734Y-48904D01*
X64660Y-48726D01*
X64524Y-48589D01*
X64346Y-48515D01*
X64154Y-48515D01*
X63976Y-48589D01*
X63839Y-48725D01*
X63765Y-48903D01*
X63765Y-49095D01*
X63839Y-49273D01*
X63975Y-49410D01*
X64153Y-49484D01*
X64345Y-49484D01*
X64523Y-49410D01*
X64660Y-49274D01*
X64734Y-49096D01*
X64734Y-48904D01*
X64734Y-49700D01*
X63734Y-49700D01*
X63734Y-48904D01*
X63734Y-47904D01*
X63660Y-47726D01*
X63524Y-47589D01*
X63346Y-47515D01*
X63154Y-47515D01*
X62976Y-47589D01*
X62839Y-47725D01*
X62765Y-47903D01*
X62765Y-48095D01*
X62839Y-48273D01*
X62975Y-48410D01*
X63153Y-48484D01*
X63345Y-48484D01*
X63523Y-48410D01*
X63660Y-48274D01*
X63734Y-48096D01*
X63734Y-47904D01*
X63734Y-48904D01*
X63660Y-48726D01*
X63524Y-48589D01*
X63346Y-48515D01*
X63154Y-48515D01*
X62976Y-48589D01*
X62839Y-48725D01*
X62765Y-48903D01*
X62765Y-49095D01*
X62839Y-49273D01*
X62975Y-49410D01*
X63153Y-49484D01*
X63345Y-49484D01*
X63523Y-49410D01*
X63660Y-49274D01*
X63734Y-49096D01*
X63734Y-48904D01*
X63734Y-49700D01*
X62734Y-49700D01*
X62734Y-48904D01*
X62734Y-47904D01*
X62660Y-47726D01*
X62524Y-47589D01*
X62346Y-47515D01*
X62154Y-47515D01*
X61976Y-47589D01*
X61839Y-47725D01*
X61765Y-47903D01*
X61765Y-48095D01*
X61839Y-48273D01*
X61975Y-48410D01*
X62153Y-48484D01*
X62345Y-48484D01*
X62523Y-48410D01*
X62660Y-48274D01*
X62734Y-48096D01*
X62734Y-47904D01*
X62734Y-48904D01*
X62660Y-48726D01*
X62524Y-48589D01*
X62346Y-48515D01*
X62154Y-48515D01*
X61976Y-48589D01*
X61839Y-48725D01*
X61765Y-48903D01*
X61765Y-49095D01*
X61839Y-49273D01*
X61975Y-49410D01*
X62153Y-49484D01*
X62345Y-49484D01*
X62523Y-49410D01*
X62660Y-49274D01*
X62734Y-49096D01*
X62734Y-48904D01*
X62734Y-49700D01*
X61734Y-49700D01*
X61734Y-48904D01*
X61660Y-48726D01*
X61524Y-48589D01*
X61346Y-48515D01*
X61154Y-48515D01*
X60976Y-48589D01*
X60839Y-48725D01*
X60765Y-48903D01*
X60765Y-49095D01*
X60839Y-49273D01*
X60975Y-49410D01*
X61153Y-49484D01*
X61345Y-49484D01*
X61523Y-49410D01*
X61660Y-49274D01*
X61734Y-49096D01*
X61734Y-48904D01*
X61734Y-49700D01*
X58734Y-49700D01*
X58734Y-48904D01*
X58660Y-48726D01*
X58524Y-48589D01*
X58346Y-48515D01*
X58154Y-48515D01*
X57976Y-48589D01*
X57839Y-48725D01*
X57765Y-48903D01*
X57765Y-49095D01*
X57839Y-49273D01*
X57975Y-49410D01*
X58153Y-49484D01*
X58345Y-49484D01*
X58523Y-49410D01*
X58660Y-49274D01*
X58734Y-49096D01*
X58734Y-48904D01*
X58734Y-49700D01*
X57734Y-49700D01*
X57734Y-48904D01*
X57660Y-48726D01*
X57524Y-48589D01*
X57346Y-48515D01*
X57154Y-48515D01*
X56976Y-48589D01*
X56839Y-48725D01*
X56765Y-48903D01*
X56765Y-49095D01*
X56839Y-49273D01*
X56975Y-49410D01*
X57153Y-49484D01*
X57345Y-49484D01*
X57523Y-49410D01*
X57660Y-49274D01*
X57734Y-49096D01*
X57734Y-48904D01*
X57734Y-49700D01*
X56734Y-49700D01*
X56734Y-48904D01*
X56660Y-48726D01*
X56524Y-48589D01*
X56346Y-48515D01*
X56154Y-48515D01*
X55976Y-48589D01*
X55839Y-48725D01*
X55765Y-48903D01*
X55765Y-49095D01*
X55839Y-49273D01*
X55975Y-49410D01*
X56153Y-49484D01*
X56345Y-49484D01*
X56523Y-49410D01*
X56660Y-49274D01*
X56734Y-49096D01*
X56734Y-48904D01*
X56734Y-49700D01*
X55734Y-49700D01*
X55734Y-48904D01*
X55734Y-47904D01*
X55660Y-47726D01*
X55524Y-47589D01*
X55346Y-47515D01*
X55154Y-47515D01*
X54976Y-47589D01*
X54839Y-47725D01*
X54765Y-47903D01*
X54765Y-48095D01*
X54839Y-48273D01*
X54975Y-48410D01*
X55153Y-48484D01*
X55345Y-48484D01*
X55523Y-48410D01*
X55660Y-48274D01*
X55734Y-48096D01*
X55734Y-47904D01*
X55734Y-48904D01*
X55660Y-48726D01*
X55524Y-48589D01*
X55346Y-48515D01*
X55154Y-48515D01*
X54976Y-48589D01*
X54839Y-48725D01*
X54765Y-48903D01*
X54765Y-49095D01*
X54839Y-49273D01*
X54975Y-49410D01*
X55153Y-49484D01*
X55345Y-49484D01*
X55523Y-49410D01*
X55660Y-49274D01*
X55734Y-49096D01*
X55734Y-48904D01*
X55734Y-49700D01*
X54734Y-49700D01*
X54734Y-48904D01*
X54734Y-47904D01*
X54660Y-47726D01*
X54524Y-47589D01*
X54346Y-47515D01*
X54154Y-47515D01*
X53976Y-47589D01*
X53839Y-47725D01*
X53765Y-47903D01*
X53765Y-48095D01*
X53839Y-48273D01*
X53975Y-48410D01*
X54153Y-48484D01*
X54345Y-48484D01*
X54523Y-48410D01*
X54660Y-48274D01*
X54734Y-48096D01*
X54734Y-47904D01*
X54734Y-48904D01*
X54660Y-48726D01*
X54524Y-48589D01*
X54346Y-48515D01*
X54154Y-48515D01*
X53976Y-48589D01*
X53839Y-48725D01*
X53765Y-48903D01*
X53765Y-49095D01*
X53839Y-49273D01*
X53975Y-49410D01*
X54153Y-49484D01*
X54345Y-49484D01*
X54523Y-49410D01*
X54660Y-49274D01*
X54734Y-49096D01*
X54734Y-48904D01*
X54734Y-49700D01*
X53734Y-49700D01*
X53734Y-48904D01*
X53734Y-47904D01*
X53660Y-47726D01*
X53524Y-47589D01*
X53346Y-47515D01*
X53154Y-47515D01*
X52976Y-47589D01*
X52839Y-47725D01*
X52765Y-47903D01*
X52765Y-48095D01*
X52839Y-48273D01*
X52975Y-48410D01*
X53153Y-48484D01*
X53345Y-48484D01*
X53523Y-48410D01*
X53660Y-48274D01*
X53734Y-48096D01*
X53734Y-47904D01*
X53734Y-48904D01*
X53660Y-48726D01*
X53524Y-48589D01*
X53346Y-48515D01*
X53154Y-48515D01*
X52976Y-48589D01*
X52839Y-48725D01*
X52765Y-48903D01*
X52765Y-49095D01*
X52839Y-49273D01*
X52975Y-49410D01*
X53153Y-49484D01*
X53345Y-49484D01*
X53523Y-49410D01*
X53660Y-49274D01*
X53734Y-49096D01*
X53734Y-48904D01*
X53734Y-49700D01*
X52734Y-49700D01*
X52734Y-48904D01*
X52734Y-47904D01*
X52734Y-29904D01*
X52734Y-28904D01*
X52660Y-28726D01*
X52524Y-28589D01*
X52346Y-28515D01*
X52154Y-28515D01*
X51976Y-28589D01*
X51839Y-28725D01*
X51765Y-28903D01*
X51765Y-29095D01*
X51839Y-29273D01*
X51975Y-29410D01*
X52153Y-29484D01*
X52345Y-29484D01*
X52523Y-29410D01*
X52660Y-29274D01*
X52734Y-29096D01*
X52734Y-28904D01*
X52734Y-29904D01*
X52660Y-29726D01*
X52524Y-29589D01*
X52346Y-29515D01*
X52154Y-29515D01*
X51976Y-29589D01*
X51839Y-29725D01*
X51765Y-29903D01*
X51765Y-30095D01*
X51839Y-30273D01*
X51975Y-30410D01*
X52153Y-30484D01*
X52345Y-30484D01*
X52523Y-30410D01*
X52660Y-30274D01*
X52734Y-30096D01*
X52734Y-29904D01*
X52734Y-47904D01*
X52660Y-47726D01*
X52524Y-47589D01*
X52346Y-47515D01*
X52155Y-47515D01*
X52155Y-31939D01*
X52108Y-31827D01*
X52022Y-31741D01*
X51910Y-31695D01*
X51898Y-31695D01*
X51734Y-31530D01*
X51734Y-29904D01*
X51734Y-28904D01*
X51660Y-28726D01*
X51524Y-28589D01*
X51346Y-28515D01*
X51154Y-28515D01*
X50976Y-28589D01*
X50839Y-28725D01*
X50765Y-28903D01*
X50765Y-29095D01*
X50839Y-29273D01*
X50975Y-29410D01*
X51153Y-29484D01*
X51345Y-29484D01*
X51523Y-29410D01*
X51660Y-29274D01*
X51734Y-29096D01*
X51734Y-28904D01*
X51734Y-29904D01*
X51660Y-29726D01*
X51524Y-29589D01*
X51346Y-29515D01*
X51154Y-29515D01*
X50976Y-29589D01*
X50839Y-29725D01*
X50765Y-29903D01*
X50765Y-30095D01*
X50839Y-30273D01*
X50975Y-30410D01*
X51153Y-30484D01*
X51345Y-30484D01*
X51523Y-30410D01*
X51660Y-30274D01*
X51734Y-30096D01*
X51734Y-29904D01*
X51734Y-31530D01*
X51376Y-31173D01*
X51295Y-31119D01*
X51200Y-31100D01*
X50734Y-31100D01*
X50734Y-29904D01*
X50734Y-28904D01*
X50660Y-28726D01*
X50524Y-28589D01*
X50346Y-28515D01*
X50154Y-28515D01*
X49976Y-28589D01*
X49839Y-28725D01*
X49765Y-28903D01*
X49765Y-29095D01*
X49839Y-29273D01*
X49975Y-29410D01*
X50153Y-29484D01*
X50345Y-29484D01*
X50523Y-29410D01*
X50660Y-29274D01*
X50734Y-29096D01*
X50734Y-28904D01*
X50734Y-29904D01*
X50660Y-29726D01*
X50524Y-29589D01*
X50346Y-29515D01*
X50154Y-29515D01*
X49976Y-29589D01*
X49839Y-29725D01*
X49765Y-29903D01*
X49765Y-30095D01*
X49839Y-30273D01*
X49975Y-30410D01*
X50153Y-30484D01*
X50345Y-30484D01*
X50523Y-30410D01*
X50660Y-30274D01*
X50734Y-30096D01*
X50734Y-29904D01*
X50734Y-31100D01*
X49734Y-31100D01*
X49734Y-29904D01*
X49734Y-28904D01*
X49660Y-28726D01*
X49524Y-28589D01*
X49346Y-28515D01*
X49154Y-28515D01*
X48976Y-28589D01*
X48839Y-28725D01*
X48765Y-28903D01*
X48765Y-29095D01*
X48839Y-29273D01*
X48975Y-29410D01*
X49153Y-29484D01*
X49345Y-29484D01*
X49523Y-29410D01*
X49660Y-29274D01*
X49734Y-29096D01*
X49734Y-28904D01*
X49734Y-29904D01*
X49660Y-29726D01*
X49524Y-29589D01*
X49346Y-29515D01*
X49154Y-29515D01*
X48976Y-29589D01*
X48839Y-29725D01*
X48765Y-29903D01*
X48765Y-30095D01*
X48839Y-30273D01*
X48975Y-30410D01*
X49153Y-30484D01*
X49345Y-30484D01*
X49523Y-30410D01*
X49660Y-30274D01*
X49734Y-30096D01*
X49734Y-29904D01*
X49734Y-31100D01*
X48734Y-31100D01*
X48734Y-29904D01*
X48734Y-28904D01*
X48660Y-28726D01*
X48524Y-28589D01*
X48346Y-28515D01*
X48154Y-28515D01*
X47976Y-28589D01*
X47839Y-28725D01*
X47817Y-28778D01*
X47776Y-28679D01*
X47675Y-28645D01*
X47604Y-28716D01*
X47604Y-28574D01*
X47570Y-28473D01*
X47344Y-28391D01*
X47104Y-28401D01*
X46929Y-28473D01*
X46895Y-28574D01*
X47250Y-28929D01*
X47604Y-28574D01*
X47604Y-28716D01*
X47320Y-29000D01*
X47675Y-29354D01*
X47776Y-29320D01*
X47814Y-29215D01*
X47839Y-29273D01*
X47975Y-29410D01*
X48153Y-29484D01*
X48345Y-29484D01*
X48523Y-29410D01*
X48660Y-29274D01*
X48734Y-29096D01*
X48734Y-28904D01*
X48734Y-29904D01*
X48660Y-29726D01*
X48524Y-29589D01*
X48346Y-29515D01*
X48154Y-29515D01*
X47976Y-29589D01*
X47839Y-29725D01*
X47817Y-29778D01*
X47776Y-29679D01*
X47675Y-29645D01*
X47604Y-29716D01*
X47604Y-29574D01*
X47579Y-29500D01*
X47604Y-29425D01*
X47250Y-29070D01*
X47179Y-29141D01*
X47179Y-29000D01*
X46824Y-28645D01*
X46750Y-28670D01*
X46675Y-28645D01*
X46320Y-29000D01*
X46675Y-29354D01*
X46750Y-29329D01*
X46824Y-29354D01*
X47179Y-29000D01*
X47179Y-29141D01*
X46895Y-29425D01*
X46920Y-29500D01*
X46895Y-29574D01*
X47250Y-29929D01*
X47604Y-29574D01*
X47604Y-29716D01*
X47320Y-30000D01*
X47675Y-30354D01*
X47776Y-30320D01*
X47814Y-30215D01*
X47839Y-30273D01*
X47975Y-30410D01*
X48153Y-30484D01*
X48345Y-30484D01*
X48523Y-30410D01*
X48660Y-30274D01*
X48734Y-30096D01*
X48734Y-29904D01*
X48734Y-31100D01*
X47800Y-31100D01*
X47704Y-31119D01*
X47671Y-31140D01*
X47623Y-31173D01*
X47623Y-31173D01*
X47601Y-31195D01*
X47399Y-31195D01*
X47351Y-31214D01*
X47315Y-31251D01*
X47295Y-31205D01*
X47310Y-31205D01*
X47422Y-31158D01*
X47508Y-31072D01*
X47554Y-30960D01*
X47555Y-30839D01*
X47508Y-30727D01*
X47422Y-30641D01*
X47326Y-30601D01*
X47395Y-30598D01*
X47570Y-30526D01*
X47604Y-30425D01*
X47250Y-30070D01*
X47244Y-30076D01*
X47173Y-30005D01*
X47179Y-30000D01*
X46824Y-29645D01*
X46750Y-29670D01*
X46675Y-29645D01*
X46604Y-29716D01*
X46604Y-29574D01*
X46579Y-29500D01*
X46604Y-29425D01*
X46250Y-29070D01*
X46179Y-29141D01*
X46179Y-29000D01*
X45824Y-28645D01*
X45723Y-28679D01*
X45641Y-28905D01*
X45651Y-29145D01*
X45723Y-29320D01*
X45824Y-29354D01*
X46179Y-29000D01*
X46179Y-29141D01*
X45895Y-29425D01*
X45920Y-29500D01*
X45895Y-29574D01*
X46250Y-29929D01*
X46604Y-29574D01*
X46604Y-29716D01*
X46320Y-30000D01*
X46326Y-30005D01*
X46255Y-30076D01*
X46250Y-30070D01*
X46179Y-30141D01*
X46179Y-30000D01*
X45824Y-29645D01*
X45723Y-29679D01*
X45641Y-29905D01*
X45651Y-30145D01*
X45723Y-30320D01*
X45824Y-30354D01*
X46179Y-30000D01*
X46179Y-30141D01*
X45895Y-30425D01*
X45929Y-30526D01*
X46155Y-30608D01*
X46329Y-30601D01*
X46221Y-30710D01*
X46100Y-30710D01*
X46027Y-30724D01*
X45965Y-30765D01*
X45965Y-30765D01*
X45400Y-31330D01*
X45400Y-30974D01*
X45399Y-30517D01*
X45227Y-30101D01*
X45069Y-30001D01*
X44998Y-30071D01*
X44320Y-30750D01*
X45069Y-31498D01*
X45227Y-31398D01*
X45400Y-30974D01*
X45400Y-31330D01*
X44998Y-31732D01*
X44998Y-31569D01*
X44250Y-30820D01*
X43501Y-31569D01*
X43601Y-31727D01*
X44025Y-31900D01*
X44482Y-31899D01*
X44898Y-31727D01*
X44998Y-31569D01*
X44998Y-31732D01*
X44661Y-32070D01*
X44449Y-32070D01*
X44401Y-32089D01*
X44364Y-32126D01*
X44361Y-32135D01*
X44361Y-32135D01*
X44315Y-32165D01*
X44315Y-32165D01*
X44115Y-32365D01*
X44074Y-32427D01*
X44060Y-32500D01*
X44060Y-34550D01*
X44074Y-34622D01*
X44115Y-34684D01*
X44815Y-35384D01*
X44877Y-35425D01*
X44950Y-35440D01*
X44950Y-35440D01*
X44950Y-35440D01*
X45345Y-35440D01*
X45345Y-35500D01*
X45364Y-35548D01*
X45401Y-35585D01*
X45449Y-35605D01*
X45500Y-35605D01*
X45750Y-35605D01*
X45798Y-35585D01*
X45835Y-35548D01*
X45855Y-35500D01*
X45855Y-35449D01*
X45855Y-34999D01*
X45835Y-34951D01*
X45798Y-34914D01*
X45750Y-34895D01*
X45699Y-34895D01*
X45449Y-34895D01*
X45401Y-34914D01*
X45364Y-34951D01*
X45345Y-34999D01*
X45345Y-35050D01*
X45345Y-35060D01*
X45175Y-35060D01*
X45175Y-33949D01*
X45175Y-33912D01*
X45175Y-33687D01*
X45175Y-33650D01*
X45136Y-33558D01*
X45128Y-33550D01*
X45136Y-33541D01*
X45175Y-33449D01*
X45175Y-33412D01*
X45112Y-33350D01*
X44750Y-33350D01*
X44750Y-33512D01*
X44750Y-33587D01*
X44750Y-33750D01*
X45112Y-33750D01*
X45175Y-33687D01*
X45175Y-33912D01*
X45112Y-33850D01*
X44750Y-33850D01*
X44750Y-34087D01*
X44812Y-34150D01*
X44875Y-34150D01*
X44974Y-34150D01*
X45066Y-34111D01*
X45136Y-34041D01*
X45175Y-33949D01*
X45175Y-35060D01*
X45028Y-35060D01*
X44440Y-34471D01*
X44440Y-34150D01*
X44524Y-34150D01*
X44587Y-34150D01*
X44650Y-34087D01*
X44650Y-33850D01*
X44642Y-33850D01*
X44642Y-33750D01*
X44650Y-33750D01*
X44650Y-33587D01*
X44650Y-33512D01*
X44650Y-33350D01*
X44642Y-33350D01*
X44642Y-33250D01*
X44650Y-33250D01*
X44650Y-33242D01*
X44750Y-33242D01*
X44750Y-33250D01*
X45112Y-33250D01*
X45146Y-33215D01*
X45410Y-33478D01*
X45410Y-34161D01*
X45401Y-34164D01*
X45364Y-34201D01*
X45345Y-34249D01*
X45345Y-34300D01*
X45345Y-34750D01*
X45364Y-34798D01*
X45401Y-34835D01*
X45449Y-34855D01*
X45500Y-34855D01*
X45750Y-34855D01*
X45798Y-34835D01*
X45835Y-34798D01*
X45855Y-34750D01*
X45855Y-34699D01*
X45855Y-34249D01*
X45835Y-34201D01*
X45798Y-34164D01*
X45790Y-34161D01*
X45790Y-33400D01*
X45775Y-33327D01*
X45734Y-33265D01*
X45734Y-33265D01*
X45193Y-32724D01*
X46575Y-31343D01*
X46575Y-31374D01*
X46575Y-31437D01*
X46637Y-31500D01*
X46900Y-31500D01*
X46900Y-31492D01*
X47000Y-31492D01*
X47000Y-31500D01*
X47007Y-31500D01*
X47007Y-31600D01*
X47000Y-31600D01*
X47000Y-31849D01*
X46990Y-31900D01*
X46990Y-32070D01*
X46949Y-32070D01*
X46901Y-32089D01*
X46900Y-32091D01*
X46900Y-31962D01*
X46900Y-31600D01*
X46637Y-31600D01*
X46575Y-31662D01*
X46575Y-31725D01*
X46575Y-31824D01*
X46613Y-31916D01*
X46683Y-31986D01*
X46775Y-32025D01*
X46837Y-32025D01*
X46900Y-31962D01*
X46900Y-32091D01*
X46864Y-32126D01*
X46859Y-32140D01*
X46550Y-32140D01*
X46469Y-32155D01*
X46401Y-32201D01*
X46051Y-32551D01*
X46005Y-32619D01*
X45990Y-32700D01*
X45990Y-34176D01*
X45964Y-34201D01*
X45945Y-34249D01*
X45945Y-34300D01*
X45945Y-34750D01*
X45964Y-34798D01*
X45990Y-34823D01*
X45990Y-34926D01*
X45964Y-34951D01*
X45945Y-34999D01*
X45945Y-35050D01*
X45945Y-35500D01*
X45964Y-35548D01*
X46001Y-35585D01*
X46049Y-35605D01*
X46100Y-35605D01*
X46350Y-35605D01*
X46398Y-35585D01*
X46435Y-35548D01*
X46455Y-35500D01*
X46455Y-35449D01*
X46455Y-34999D01*
X46435Y-34951D01*
X46410Y-34926D01*
X46410Y-34823D01*
X46435Y-34798D01*
X46455Y-34750D01*
X46455Y-34699D01*
X46455Y-34249D01*
X46435Y-34201D01*
X46410Y-34176D01*
X46410Y-32786D01*
X46636Y-32560D01*
X46762Y-32560D01*
X46725Y-32650D01*
X46725Y-32687D01*
X46787Y-32750D01*
X47150Y-32750D01*
X47150Y-32742D01*
X47250Y-32742D01*
X47250Y-32750D01*
X47612Y-32750D01*
X47675Y-32687D01*
X47675Y-32650D01*
X47636Y-32558D01*
X47566Y-32488D01*
X47534Y-32474D01*
X47535Y-32473D01*
X47555Y-32425D01*
X47555Y-32374D01*
X47555Y-32174D01*
X47535Y-32126D01*
X47498Y-32089D01*
X47450Y-32070D01*
X47410Y-32070D01*
X47410Y-31986D01*
X47491Y-31905D01*
X47700Y-31905D01*
X47748Y-31885D01*
X47785Y-31848D01*
X47805Y-31800D01*
X47805Y-31749D01*
X47805Y-31698D01*
X47903Y-31600D01*
X49368Y-31600D01*
X49341Y-31627D01*
X49295Y-31739D01*
X49294Y-31860D01*
X49340Y-31970D01*
X49174Y-31970D01*
X49126Y-31989D01*
X49089Y-32026D01*
X49072Y-32068D01*
X49005Y-32001D01*
X49005Y-31849D01*
X48985Y-31801D01*
X48948Y-31764D01*
X48900Y-31745D01*
X48849Y-31745D01*
X48599Y-31745D01*
X48551Y-31764D01*
X48514Y-31801D01*
X48495Y-31849D01*
X48495Y-31900D01*
X48495Y-32350D01*
X48514Y-32398D01*
X48551Y-32435D01*
X48599Y-32455D01*
X48650Y-32455D01*
X48751Y-32455D01*
X48873Y-32576D01*
X48954Y-32630D01*
X49050Y-32650D01*
X49070Y-32650D01*
X49070Y-32725D01*
X49089Y-32773D01*
X49126Y-32810D01*
X49174Y-32830D01*
X49225Y-32830D01*
X50025Y-32830D01*
X50073Y-32810D01*
X50110Y-32773D01*
X50130Y-32725D01*
X50130Y-32674D01*
X50130Y-32074D01*
X50110Y-32026D01*
X50073Y-31989D01*
X50025Y-31970D01*
X49974Y-31970D01*
X49859Y-31970D01*
X49904Y-31860D01*
X49905Y-31739D01*
X49858Y-31627D01*
X49831Y-31600D01*
X51096Y-31600D01*
X51544Y-32048D01*
X51544Y-32060D01*
X51591Y-32172D01*
X51677Y-32258D01*
X51789Y-32304D01*
X51910Y-32305D01*
X52022Y-32258D01*
X52108Y-32172D01*
X52154Y-32060D01*
X52155Y-31939D01*
X52155Y-47515D01*
X52154Y-47515D01*
X51976Y-47589D01*
X51839Y-47725D01*
X51765Y-47903D01*
X51765Y-48095D01*
X51839Y-48273D01*
X51975Y-48410D01*
X52153Y-48484D01*
X52345Y-48484D01*
X52523Y-48410D01*
X52660Y-48274D01*
X52734Y-48096D01*
X52734Y-47904D01*
X52734Y-48904D01*
X52660Y-48726D01*
X52524Y-48589D01*
X52346Y-48515D01*
X52154Y-48515D01*
X51976Y-48589D01*
X51839Y-48725D01*
X51765Y-48903D01*
X51765Y-49095D01*
X51839Y-49273D01*
X51975Y-49410D01*
X52153Y-49484D01*
X52345Y-49484D01*
X52523Y-49410D01*
X52660Y-49274D01*
X52734Y-49096D01*
X52734Y-48904D01*
X52734Y-49700D01*
X51734Y-49700D01*
X51734Y-48904D01*
X51734Y-47904D01*
X51660Y-47726D01*
X51524Y-47589D01*
X51346Y-47515D01*
X51154Y-47515D01*
X51100Y-47537D01*
X51100Y-41150D01*
X51100Y-41149D01*
X51100Y-40150D01*
X51080Y-40054D01*
X51080Y-40054D01*
X51026Y-39973D01*
X50653Y-39600D01*
X51026Y-39226D01*
X51080Y-39145D01*
X51080Y-39145D01*
X51100Y-39050D01*
X51100Y-37900D01*
X51080Y-37804D01*
X51026Y-37723D01*
X50703Y-37400D01*
X51026Y-37076D01*
X51080Y-36995D01*
X51100Y-36900D01*
X51100Y-35750D01*
X51080Y-35654D01*
X51080Y-35654D01*
X51026Y-35573D01*
X50476Y-35023D01*
X50395Y-34969D01*
X50300Y-34950D01*
X50247Y-34950D01*
X50212Y-34898D01*
X50074Y-34805D01*
X49911Y-34773D01*
X49850Y-34773D01*
X49850Y-34130D01*
X50025Y-34130D01*
X50073Y-34110D01*
X50110Y-34073D01*
X50130Y-34025D01*
X50130Y-33974D01*
X50130Y-33374D01*
X50110Y-33326D01*
X50073Y-33289D01*
X50025Y-33270D01*
X49974Y-33270D01*
X49174Y-33270D01*
X49126Y-33289D01*
X49089Y-33326D01*
X49070Y-33374D01*
X49070Y-33425D01*
X49070Y-33750D01*
X49005Y-33750D01*
X49005Y-33749D01*
X48985Y-33701D01*
X48948Y-33664D01*
X48900Y-33645D01*
X48849Y-33645D01*
X48599Y-33645D01*
X48551Y-33664D01*
X48514Y-33701D01*
X48505Y-33724D01*
X48505Y-33500D01*
X48505Y-33449D01*
X48505Y-33199D01*
X48485Y-33151D01*
X48448Y-33114D01*
X48400Y-33095D01*
X48349Y-33095D01*
X48101Y-33095D01*
X48191Y-33005D01*
X48400Y-33005D01*
X48448Y-32985D01*
X48485Y-32948D01*
X48505Y-32900D01*
X48505Y-32849D01*
X48505Y-32599D01*
X48485Y-32551D01*
X48448Y-32514D01*
X48400Y-32495D01*
X48400Y-32495D01*
X48400Y-32362D01*
X48405Y-32350D01*
X48405Y-32299D01*
X48405Y-31849D01*
X48385Y-31801D01*
X48348Y-31764D01*
X48300Y-31745D01*
X48249Y-31745D01*
X47999Y-31745D01*
X47951Y-31764D01*
X47914Y-31801D01*
X47895Y-31849D01*
X47895Y-31900D01*
X47895Y-32350D01*
X47900Y-32362D01*
X47900Y-32495D01*
X47899Y-32495D01*
X47851Y-32514D01*
X47814Y-32551D01*
X47795Y-32599D01*
X47795Y-32650D01*
X47795Y-32808D01*
X47675Y-32928D01*
X47675Y-32912D01*
X47612Y-32850D01*
X47250Y-32850D01*
X47250Y-32857D01*
X47150Y-32857D01*
X47150Y-32850D01*
X46787Y-32850D01*
X46725Y-32912D01*
X46725Y-32949D01*
X46763Y-33041D01*
X46833Y-33111D01*
X46865Y-33125D01*
X46864Y-33126D01*
X46845Y-33174D01*
X46845Y-33225D01*
X46845Y-33425D01*
X46864Y-33473D01*
X46901Y-33510D01*
X46949Y-33530D01*
X47000Y-33530D01*
X47450Y-33530D01*
X47498Y-33510D01*
X47498Y-33510D01*
X47600Y-33510D01*
X47680Y-33494D01*
X47748Y-33448D01*
X47795Y-33401D01*
X47795Y-33500D01*
X47814Y-33548D01*
X47851Y-33585D01*
X47862Y-33590D01*
X47498Y-33590D01*
X47498Y-33589D01*
X47450Y-33570D01*
X47399Y-33570D01*
X46949Y-33570D01*
X46901Y-33589D01*
X46864Y-33626D01*
X46845Y-33674D01*
X46845Y-33725D01*
X46845Y-33925D01*
X46864Y-33973D01*
X46901Y-34010D01*
X46949Y-34030D01*
X47000Y-34030D01*
X47450Y-34030D01*
X47498Y-34010D01*
X47498Y-34010D01*
X47863Y-34010D01*
X47895Y-34041D01*
X47895Y-34250D01*
X47914Y-34298D01*
X47951Y-34335D01*
X47999Y-34355D01*
X48050Y-34355D01*
X48300Y-34355D01*
X48348Y-34335D01*
X48385Y-34298D01*
X48405Y-34250D01*
X48405Y-34199D01*
X48405Y-33749D01*
X48400Y-33737D01*
X48400Y-33605D01*
X48400Y-33605D01*
X48448Y-33585D01*
X48485Y-33548D01*
X48505Y-33500D01*
X48505Y-33724D01*
X48495Y-33749D01*
X48495Y-33800D01*
X48495Y-34250D01*
X48514Y-34298D01*
X48551Y-34335D01*
X48599Y-34355D01*
X48650Y-34355D01*
X48900Y-34355D01*
X48948Y-34335D01*
X48985Y-34298D01*
X49005Y-34250D01*
X49005Y-34250D01*
X49300Y-34250D01*
X49350Y-34240D01*
X49350Y-34773D01*
X49288Y-34773D01*
X49125Y-34805D01*
X48987Y-34898D01*
X48894Y-35036D01*
X48862Y-35200D01*
X48894Y-35363D01*
X48987Y-35501D01*
X49125Y-35594D01*
X49288Y-35626D01*
X49911Y-35626D01*
X50074Y-35594D01*
X50212Y-35501D01*
X50226Y-35480D01*
X50600Y-35853D01*
X50600Y-36796D01*
X50246Y-37149D01*
X50212Y-37098D01*
X50074Y-37005D01*
X49911Y-36973D01*
X49288Y-36973D01*
X49125Y-37005D01*
X48987Y-37098D01*
X48894Y-37236D01*
X48862Y-37400D01*
X48894Y-37563D01*
X48987Y-37701D01*
X49125Y-37794D01*
X49288Y-37826D01*
X49911Y-37826D01*
X50074Y-37794D01*
X50212Y-37701D01*
X50246Y-37650D01*
X50600Y-38003D01*
X50600Y-38946D01*
X50226Y-39319D01*
X50212Y-39298D01*
X50074Y-39205D01*
X49911Y-39173D01*
X49288Y-39173D01*
X49125Y-39205D01*
X48987Y-39298D01*
X48894Y-39436D01*
X48862Y-39600D01*
X48894Y-39763D01*
X48987Y-39901D01*
X49125Y-39994D01*
X49288Y-40026D01*
X49911Y-40026D01*
X50074Y-39994D01*
X50212Y-39901D01*
X50226Y-39880D01*
X50600Y-40253D01*
X50600Y-41046D01*
X50173Y-41472D01*
X50074Y-41405D01*
X49911Y-41373D01*
X49288Y-41373D01*
X49125Y-41405D01*
X48987Y-41498D01*
X48894Y-41636D01*
X48862Y-41800D01*
X48894Y-41963D01*
X48987Y-42101D01*
X49125Y-42194D01*
X49288Y-42226D01*
X49911Y-42226D01*
X50074Y-42194D01*
X50212Y-42101D01*
X50254Y-42039D01*
X50295Y-42030D01*
X50376Y-41976D01*
X51026Y-41326D01*
X51080Y-41245D01*
X51100Y-41150D01*
X51100Y-41150D01*
X51100Y-47537D01*
X50976Y-47589D01*
X50839Y-47725D01*
X50765Y-47903D01*
X50765Y-48095D01*
X50839Y-48273D01*
X50975Y-48410D01*
X51153Y-48484D01*
X51345Y-48484D01*
X51523Y-48410D01*
X51660Y-48274D01*
X51734Y-48096D01*
X51734Y-47904D01*
X51734Y-48904D01*
X51660Y-48726D01*
X51524Y-48589D01*
X51346Y-48515D01*
X51154Y-48515D01*
X50976Y-48589D01*
X50839Y-48725D01*
X50765Y-48903D01*
X50765Y-49095D01*
X50839Y-49273D01*
X50975Y-49410D01*
X51153Y-49484D01*
X51345Y-49484D01*
X51523Y-49410D01*
X51660Y-49274D01*
X51734Y-49096D01*
X51734Y-48904D01*
X51734Y-49700D01*
X50734Y-49700D01*
X50734Y-48904D01*
X50734Y-47904D01*
X50660Y-47726D01*
X50524Y-47589D01*
X50346Y-47515D01*
X50337Y-47515D01*
X50337Y-42800D01*
X50305Y-42636D01*
X50212Y-42498D01*
X50074Y-42405D01*
X49911Y-42373D01*
X49288Y-42373D01*
X49125Y-42405D01*
X48996Y-42492D01*
X48600Y-42096D01*
X48600Y-41203D01*
X48953Y-40850D01*
X48987Y-40901D01*
X49125Y-40994D01*
X49288Y-41026D01*
X49911Y-41026D01*
X50074Y-40994D01*
X50212Y-40901D01*
X50305Y-40763D01*
X50337Y-40600D01*
X50305Y-40436D01*
X50212Y-40298D01*
X50074Y-40205D01*
X49911Y-40173D01*
X49288Y-40173D01*
X49125Y-40205D01*
X48987Y-40298D01*
X48953Y-40349D01*
X48600Y-39996D01*
X48600Y-39003D01*
X48953Y-38650D01*
X48987Y-38701D01*
X49125Y-38794D01*
X49288Y-38826D01*
X49911Y-38826D01*
X50074Y-38794D01*
X50212Y-38701D01*
X50305Y-38563D01*
X50337Y-38400D01*
X50305Y-38236D01*
X50212Y-38098D01*
X50074Y-38005D01*
X49911Y-37973D01*
X49288Y-37973D01*
X49125Y-38005D01*
X48987Y-38098D01*
X48973Y-38119D01*
X48600Y-37746D01*
X48600Y-36803D01*
X48953Y-36450D01*
X48987Y-36501D01*
X49125Y-36594D01*
X49288Y-36626D01*
X49911Y-36626D01*
X50074Y-36594D01*
X50212Y-36501D01*
X50305Y-36363D01*
X50337Y-36200D01*
X50305Y-36036D01*
X50212Y-35898D01*
X50074Y-35805D01*
X49911Y-35773D01*
X49288Y-35773D01*
X49125Y-35805D01*
X48987Y-35898D01*
X48952Y-35950D01*
X48850Y-35950D01*
X48754Y-35969D01*
X48673Y-36023D01*
X48173Y-36523D01*
X48119Y-36604D01*
X48100Y-36700D01*
X48100Y-37850D01*
X48119Y-37945D01*
X48173Y-38026D01*
X48521Y-38375D01*
X48173Y-38723D01*
X48119Y-38804D01*
X48100Y-38900D01*
X48100Y-40100D01*
X48119Y-40195D01*
X48173Y-40276D01*
X48496Y-40600D01*
X48173Y-40923D01*
X48119Y-41004D01*
X48100Y-41100D01*
X48100Y-42200D01*
X48119Y-42295D01*
X48173Y-42376D01*
X48773Y-42976D01*
X48773Y-42976D01*
X48821Y-43009D01*
X48854Y-43030D01*
X48854Y-43030D01*
X48950Y-43050D01*
X48952Y-43050D01*
X48987Y-43101D01*
X49125Y-43194D01*
X49288Y-43226D01*
X49911Y-43226D01*
X50074Y-43194D01*
X50212Y-43101D01*
X50305Y-42963D01*
X50337Y-42800D01*
X50337Y-47515D01*
X50154Y-47515D01*
X49976Y-47589D01*
X49839Y-47725D01*
X49765Y-47903D01*
X49765Y-48095D01*
X49839Y-48273D01*
X49975Y-48410D01*
X50153Y-48484D01*
X50345Y-48484D01*
X50523Y-48410D01*
X50660Y-48274D01*
X50734Y-48096D01*
X50734Y-47904D01*
X50734Y-48904D01*
X50660Y-48726D01*
X50524Y-48589D01*
X50346Y-48515D01*
X50154Y-48515D01*
X49976Y-48589D01*
X49839Y-48725D01*
X49765Y-48903D01*
X49765Y-49095D01*
X49839Y-49273D01*
X49975Y-49410D01*
X50153Y-49484D01*
X50345Y-49484D01*
X50523Y-49410D01*
X50660Y-49274D01*
X50734Y-49096D01*
X50734Y-48904D01*
X50734Y-49700D01*
X49734Y-49700D01*
X49734Y-48904D01*
X49734Y-47904D01*
X49660Y-47726D01*
X49524Y-47589D01*
X49346Y-47515D01*
X49154Y-47515D01*
X48976Y-47589D01*
X48839Y-47725D01*
X48765Y-47903D01*
X48765Y-48095D01*
X48839Y-48273D01*
X48975Y-48410D01*
X49153Y-48484D01*
X49345Y-48484D01*
X49523Y-48410D01*
X49660Y-48274D01*
X49734Y-48096D01*
X49734Y-47904D01*
X49734Y-48904D01*
X49660Y-48726D01*
X49524Y-48589D01*
X49346Y-48515D01*
X49154Y-48515D01*
X48976Y-48589D01*
X48839Y-48725D01*
X48765Y-48903D01*
X48765Y-49095D01*
X48839Y-49273D01*
X48975Y-49410D01*
X49153Y-49484D01*
X49345Y-49484D01*
X49523Y-49410D01*
X49660Y-49274D01*
X49734Y-49096D01*
X49734Y-48904D01*
X49734Y-49700D01*
X48734Y-49700D01*
X48734Y-48904D01*
X48734Y-47904D01*
X48660Y-47726D01*
X48524Y-47589D01*
X48346Y-47515D01*
X48154Y-47515D01*
X47976Y-47589D01*
X47839Y-47725D01*
X47765Y-47903D01*
X47765Y-48095D01*
X47839Y-48273D01*
X47975Y-48410D01*
X48153Y-48484D01*
X48345Y-48484D01*
X48523Y-48410D01*
X48660Y-48274D01*
X48734Y-48096D01*
X48734Y-47904D01*
X48734Y-48904D01*
X48660Y-48726D01*
X48524Y-48589D01*
X48346Y-48515D01*
X48154Y-48515D01*
X47976Y-48589D01*
X47839Y-48725D01*
X47765Y-48903D01*
X47765Y-49095D01*
X47839Y-49273D01*
X47975Y-49410D01*
X48153Y-49484D01*
X48345Y-49484D01*
X48523Y-49410D01*
X48660Y-49274D01*
X48734Y-49096D01*
X48734Y-48904D01*
X48734Y-49700D01*
X47734Y-49700D01*
X47734Y-48904D01*
X47734Y-47904D01*
X47660Y-47726D01*
X47524Y-47589D01*
X47346Y-47515D01*
X47154Y-47515D01*
X46976Y-47589D01*
X46839Y-47725D01*
X46765Y-47903D01*
X46765Y-48095D01*
X46839Y-48273D01*
X46975Y-48410D01*
X47153Y-48484D01*
X47345Y-48484D01*
X47523Y-48410D01*
X47660Y-48274D01*
X47734Y-48096D01*
X47734Y-47904D01*
X47734Y-48904D01*
X47660Y-48726D01*
X47524Y-48589D01*
X47346Y-48515D01*
X47154Y-48515D01*
X46976Y-48589D01*
X46839Y-48725D01*
X46765Y-48903D01*
X46765Y-49095D01*
X46839Y-49273D01*
X46975Y-49410D01*
X47153Y-49484D01*
X47345Y-49484D01*
X47523Y-49410D01*
X47660Y-49274D01*
X47734Y-49096D01*
X47734Y-48904D01*
X47734Y-49700D01*
X47005Y-49700D01*
X46734Y-49638D01*
X46734Y-48904D01*
X46734Y-47904D01*
X46660Y-47726D01*
X46524Y-47589D01*
X46346Y-47515D01*
X46154Y-47515D01*
X45976Y-47589D01*
X45839Y-47725D01*
X45765Y-47903D01*
X45765Y-48095D01*
X45839Y-48273D01*
X45975Y-48410D01*
X46153Y-48484D01*
X46345Y-48484D01*
X46523Y-48410D01*
X46660Y-48274D01*
X46734Y-48096D01*
X46734Y-47904D01*
X46734Y-48904D01*
X46660Y-48726D01*
X46524Y-48589D01*
X46346Y-48515D01*
X46154Y-48515D01*
X45976Y-48589D01*
X45839Y-48725D01*
X45765Y-48903D01*
X45765Y-49095D01*
X45839Y-49273D01*
X45975Y-49410D01*
X46153Y-49484D01*
X46345Y-49484D01*
X46523Y-49410D01*
X46660Y-49274D01*
X46734Y-49096D01*
X46734Y-48904D01*
X46734Y-49638D01*
X45400Y-49335D01*
X45400Y-47474D01*
X45399Y-47017D01*
X45227Y-46601D01*
X45069Y-46501D01*
X44998Y-46571D01*
X44998Y-46430D01*
X44898Y-46272D01*
X44474Y-46099D01*
X44017Y-46100D01*
X43601Y-46272D01*
X43501Y-46430D01*
X44250Y-47179D01*
X44998Y-46430D01*
X44998Y-46571D01*
X44320Y-47250D01*
X45069Y-47998D01*
X45227Y-47898D01*
X45400Y-47474D01*
X45400Y-49335D01*
X44998Y-49243D01*
X44998Y-48069D01*
X44250Y-47320D01*
X44179Y-47391D01*
X44179Y-47250D01*
X43430Y-46501D01*
X43272Y-46601D01*
X43099Y-47025D01*
X43100Y-47482D01*
X43272Y-47898D01*
X43430Y-47998D01*
X44179Y-47250D01*
X44179Y-47391D01*
X43501Y-48069D01*
X43601Y-48227D01*
X44025Y-48400D01*
X44482Y-48399D01*
X44898Y-48227D01*
X44998Y-48069D01*
X44998Y-49243D01*
X44820Y-49203D01*
X43436Y-48214D01*
X42447Y-46680D01*
X42050Y-44695D01*
X42050Y-33305D01*
X42546Y-31071D01*
X43245Y-30168D01*
X43099Y-30525D01*
X43100Y-30982D01*
X43272Y-31398D01*
X43430Y-31498D01*
X44179Y-30750D01*
X44173Y-30744D01*
X44244Y-30673D01*
X44250Y-30679D01*
X44998Y-29930D01*
X44898Y-29772D01*
X44474Y-29599D01*
X44017Y-29600D01*
X43601Y-29772D01*
X43501Y-29930D01*
X43461Y-29890D01*
X43734Y-29537D01*
X45168Y-28647D01*
X45918Y-28505D01*
X45895Y-28574D01*
X46250Y-28929D01*
X46604Y-28574D01*
X46570Y-28473D01*
X46405Y-28413D01*
X47004Y-28300D01*
X73445Y-28300D01*
X74430Y-28497D01*
X75312Y-29085D01*
X75802Y-29917D01*
X75950Y-30754D01*
X75950Y-36450D01*
X75950Y-36450D01*
G37*
G54D25*
X75950Y-36450D02*
X71400Y-36450D01*
X71400Y-29724D01*
X71399Y-29267D01*
X71227Y-28851D01*
X71069Y-28751D01*
X70998Y-28821D01*
X70998Y-28680D01*
X70898Y-28522D01*
X70474Y-28349D01*
X70017Y-28350D01*
X69601Y-28522D01*
X69501Y-28680D01*
X70250Y-29429D01*
X70998Y-28680D01*
X70998Y-28821D01*
X70320Y-29500D01*
X71069Y-30248D01*
X71227Y-30148D01*
X71400Y-29724D01*
X71400Y-36450D01*
X70998Y-36450D01*
X70998Y-30319D01*
X70250Y-29570D01*
X70179Y-29641D01*
X70179Y-29500D01*
X69430Y-28751D01*
X69272Y-28851D01*
X69099Y-29275D01*
X69100Y-29732D01*
X69272Y-30148D01*
X69430Y-30248D01*
X70179Y-29500D01*
X70179Y-29641D01*
X69501Y-30319D01*
X69601Y-30477D01*
X70025Y-30650D01*
X70482Y-30649D01*
X70898Y-30477D01*
X70998Y-30319D01*
X70998Y-36450D01*
X70734Y-36450D01*
X70734Y-32404D01*
X70734Y-31404D01*
X70660Y-31226D01*
X70524Y-31089D01*
X70346Y-31015D01*
X70154Y-31015D01*
X69976Y-31089D01*
X69839Y-31225D01*
X69765Y-31403D01*
X69765Y-31595D01*
X69839Y-31773D01*
X69975Y-31910D01*
X70153Y-31984D01*
X70345Y-31984D01*
X70523Y-31910D01*
X70660Y-31774D01*
X70734Y-31596D01*
X70734Y-31404D01*
X70734Y-32404D01*
X70660Y-32226D01*
X70524Y-32089D01*
X70346Y-32015D01*
X70154Y-32015D01*
X69976Y-32089D01*
X69839Y-32225D01*
X69765Y-32403D01*
X69765Y-32595D01*
X69839Y-32773D01*
X69975Y-32910D01*
X70153Y-32984D01*
X70345Y-32984D01*
X70523Y-32910D01*
X70660Y-32774D01*
X70734Y-32596D01*
X70734Y-32404D01*
X70734Y-36450D01*
X69734Y-36450D01*
X69734Y-32404D01*
X69734Y-31404D01*
X69660Y-31226D01*
X69524Y-31089D01*
X69346Y-31015D01*
X69154Y-31015D01*
X68976Y-31089D01*
X68858Y-31206D01*
X68858Y-30094D01*
X68854Y-29987D01*
X68848Y-29854D01*
X68776Y-29679D01*
X68675Y-29645D01*
X68720Y-29600D01*
X68703Y-29583D01*
X68745Y-29566D01*
X68816Y-29495D01*
X68854Y-29404D01*
X68854Y-29304D01*
X68854Y-29112D01*
X68854Y-28887D01*
X68854Y-28695D01*
X68854Y-28595D01*
X68816Y-28504D01*
X68745Y-28433D01*
X68654Y-28395D01*
X68362Y-28395D01*
X68300Y-28458D01*
X68300Y-28950D01*
X68791Y-28950D01*
X68854Y-28887D01*
X68854Y-29112D01*
X68791Y-29050D01*
X68300Y-29050D01*
X68300Y-29057D01*
X68200Y-29057D01*
X68200Y-29050D01*
X68192Y-29050D01*
X68192Y-28950D01*
X68200Y-28950D01*
X68200Y-28458D01*
X68137Y-28395D01*
X67845Y-28395D01*
X67754Y-28433D01*
X67683Y-28504D01*
X67645Y-28595D01*
X67645Y-28695D01*
X67645Y-28710D01*
X67524Y-28589D01*
X67346Y-28515D01*
X67154Y-28515D01*
X66976Y-28589D01*
X66839Y-28725D01*
X66765Y-28903D01*
X66765Y-29095D01*
X66839Y-29273D01*
X66975Y-29410D01*
X67000Y-29420D01*
X67000Y-29579D01*
X66976Y-29589D01*
X66839Y-29725D01*
X66765Y-29903D01*
X66765Y-30095D01*
X66839Y-30273D01*
X66975Y-30410D01*
X67000Y-30420D01*
X67000Y-32250D01*
X67000Y-32646D01*
X66734Y-32912D01*
X66734Y-29904D01*
X66734Y-28904D01*
X66660Y-28726D01*
X66524Y-28589D01*
X66346Y-28515D01*
X66154Y-28515D01*
X65976Y-28589D01*
X65839Y-28725D01*
X65765Y-28903D01*
X65765Y-29095D01*
X65839Y-29273D01*
X65975Y-29410D01*
X66153Y-29484D01*
X66345Y-29484D01*
X66523Y-29410D01*
X66660Y-29274D01*
X66734Y-29096D01*
X66734Y-28904D01*
X66734Y-29904D01*
X66660Y-29726D01*
X66524Y-29589D01*
X66346Y-29515D01*
X66154Y-29515D01*
X65976Y-29589D01*
X65839Y-29725D01*
X65765Y-29903D01*
X65765Y-30095D01*
X65839Y-30273D01*
X65975Y-30410D01*
X66153Y-30484D01*
X66345Y-30484D01*
X66523Y-30410D01*
X66660Y-30274D01*
X66734Y-30096D01*
X66734Y-29904D01*
X66734Y-32912D01*
X66451Y-33194D01*
X66439Y-33194D01*
X66327Y-33241D01*
X66241Y-33327D01*
X66240Y-33330D01*
X66240Y-33050D01*
X66240Y-32450D01*
X66225Y-32377D01*
X66184Y-32315D01*
X64940Y-31071D01*
X64940Y-30400D01*
X64940Y-30375D01*
X64975Y-30410D01*
X65153Y-30484D01*
X65345Y-30484D01*
X65523Y-30410D01*
X65660Y-30274D01*
X65734Y-30096D01*
X65734Y-29904D01*
X65734Y-28904D01*
X65660Y-28726D01*
X65524Y-28589D01*
X65346Y-28515D01*
X65154Y-28515D01*
X64976Y-28589D01*
X64839Y-28725D01*
X64765Y-28903D01*
X64765Y-29095D01*
X64839Y-29273D01*
X64975Y-29410D01*
X65153Y-29484D01*
X65345Y-29484D01*
X65523Y-29410D01*
X65660Y-29274D01*
X65734Y-29096D01*
X65734Y-28904D01*
X65734Y-29904D01*
X65660Y-29726D01*
X65524Y-29589D01*
X65346Y-29515D01*
X65154Y-29515D01*
X64976Y-29589D01*
X64910Y-29654D01*
X64884Y-29615D01*
X64884Y-29615D01*
X64884Y-29615D01*
X64634Y-29365D01*
X64595Y-29339D01*
X64660Y-29274D01*
X64734Y-29096D01*
X64734Y-28904D01*
X64660Y-28726D01*
X64524Y-28589D01*
X64346Y-28515D01*
X64154Y-28515D01*
X63976Y-28589D01*
X63839Y-28725D01*
X63765Y-28903D01*
X63765Y-29095D01*
X63801Y-29182D01*
X63728Y-29110D01*
X63734Y-29096D01*
X63734Y-28904D01*
X63660Y-28726D01*
X63524Y-28589D01*
X63346Y-28515D01*
X63154Y-28515D01*
X62976Y-28589D01*
X62839Y-28725D01*
X62765Y-28903D01*
X62765Y-29095D01*
X62839Y-29273D01*
X62875Y-29310D01*
X62828Y-29310D01*
X62699Y-29180D01*
X62734Y-29096D01*
X62734Y-28904D01*
X62660Y-28726D01*
X62524Y-28589D01*
X62346Y-28515D01*
X62154Y-28515D01*
X61976Y-28589D01*
X61839Y-28725D01*
X61765Y-28903D01*
X61765Y-29095D01*
X61839Y-29273D01*
X61975Y-29410D01*
X62153Y-29484D01*
X62345Y-29484D01*
X62430Y-29449D01*
X62615Y-29634D01*
X62677Y-29675D01*
X62750Y-29690D01*
X62874Y-29690D01*
X62839Y-29725D01*
X62765Y-29903D01*
X62765Y-30095D01*
X62839Y-30273D01*
X62975Y-30410D01*
X63060Y-30445D01*
X63060Y-30700D01*
X63074Y-30772D01*
X63115Y-30834D01*
X64310Y-32028D01*
X64310Y-33070D01*
X64274Y-33070D01*
X63674Y-33070D01*
X63626Y-33089D01*
X63589Y-33126D01*
X63570Y-33174D01*
X63570Y-33225D01*
X63570Y-33661D01*
X63304Y-33926D01*
X63305Y-33839D01*
X63258Y-33727D01*
X63172Y-33641D01*
X63060Y-33595D01*
X62963Y-33594D01*
X62834Y-33465D01*
X62772Y-33424D01*
X62734Y-33416D01*
X62734Y-29904D01*
X62660Y-29726D01*
X62524Y-29589D01*
X62346Y-29515D01*
X62154Y-29515D01*
X61976Y-29589D01*
X61839Y-29725D01*
X61765Y-29903D01*
X61765Y-30095D01*
X61839Y-30273D01*
X61975Y-30410D01*
X62153Y-30484D01*
X62345Y-30484D01*
X62523Y-30410D01*
X62660Y-30274D01*
X62734Y-30096D01*
X62734Y-29904D01*
X62734Y-33416D01*
X62700Y-33410D01*
X61734Y-33410D01*
X61734Y-29904D01*
X61734Y-28904D01*
X61660Y-28726D01*
X61524Y-28589D01*
X61346Y-28515D01*
X61154Y-28515D01*
X60976Y-28589D01*
X60839Y-28725D01*
X60765Y-28903D01*
X60765Y-29095D01*
X60839Y-29273D01*
X60975Y-29410D01*
X61153Y-29484D01*
X61345Y-29484D01*
X61523Y-29410D01*
X61660Y-29274D01*
X61734Y-29096D01*
X61734Y-28904D01*
X61734Y-29904D01*
X61660Y-29726D01*
X61524Y-29589D01*
X61346Y-29515D01*
X61154Y-29515D01*
X60976Y-29589D01*
X60839Y-29725D01*
X60765Y-29903D01*
X60765Y-30095D01*
X60839Y-30273D01*
X60975Y-30410D01*
X61153Y-30484D01*
X61345Y-30484D01*
X61523Y-30410D01*
X61660Y-30274D01*
X61734Y-30096D01*
X61734Y-29904D01*
X61734Y-33410D01*
X60850Y-33410D01*
X60734Y-33410D01*
X60734Y-29904D01*
X60734Y-28904D01*
X60660Y-28726D01*
X60524Y-28589D01*
X60346Y-28515D01*
X60154Y-28515D01*
X59976Y-28589D01*
X59839Y-28725D01*
X59765Y-28903D01*
X59765Y-29095D01*
X59839Y-29273D01*
X59975Y-29410D01*
X60153Y-29484D01*
X60345Y-29484D01*
X60523Y-29410D01*
X60660Y-29274D01*
X60734Y-29096D01*
X60734Y-28904D01*
X60734Y-29904D01*
X60660Y-29726D01*
X60524Y-29589D01*
X60346Y-29515D01*
X60154Y-29515D01*
X59976Y-29589D01*
X59839Y-29725D01*
X59765Y-29903D01*
X59765Y-30095D01*
X59839Y-30273D01*
X59975Y-30410D01*
X60153Y-30484D01*
X60345Y-30484D01*
X60523Y-30410D01*
X60660Y-30274D01*
X60734Y-30096D01*
X60734Y-29904D01*
X60734Y-33410D01*
X59734Y-33410D01*
X59734Y-29904D01*
X59734Y-28904D01*
X59660Y-28726D01*
X59524Y-28589D01*
X59346Y-28515D01*
X59154Y-28515D01*
X58976Y-28589D01*
X58839Y-28725D01*
X58765Y-28903D01*
X58765Y-29095D01*
X58839Y-29273D01*
X58975Y-29410D01*
X59153Y-29484D01*
X59345Y-29484D01*
X59523Y-29410D01*
X59660Y-29274D01*
X59734Y-29096D01*
X59734Y-28904D01*
X59734Y-29904D01*
X59660Y-29726D01*
X59524Y-29589D01*
X59346Y-29515D01*
X59154Y-29515D01*
X58976Y-29589D01*
X58839Y-29725D01*
X58765Y-29903D01*
X58765Y-30095D01*
X58839Y-30273D01*
X58975Y-30410D01*
X59153Y-30484D01*
X59345Y-30484D01*
X59523Y-30410D01*
X59660Y-30274D01*
X59734Y-30096D01*
X59734Y-29904D01*
X59734Y-33410D01*
X58734Y-33410D01*
X58734Y-29904D01*
X58734Y-28904D01*
X58660Y-28726D01*
X58524Y-28589D01*
X58346Y-28515D01*
X58154Y-28515D01*
X57976Y-28589D01*
X57839Y-28725D01*
X57765Y-28903D01*
X57765Y-29095D01*
X57839Y-29273D01*
X57975Y-29410D01*
X58153Y-29484D01*
X58345Y-29484D01*
X58523Y-29410D01*
X58660Y-29274D01*
X58734Y-29096D01*
X58734Y-28904D01*
X58734Y-29904D01*
X58660Y-29726D01*
X58524Y-29589D01*
X58346Y-29515D01*
X58154Y-29515D01*
X57976Y-29589D01*
X57839Y-29725D01*
X57765Y-29903D01*
X57765Y-30095D01*
X57839Y-30273D01*
X57975Y-30410D01*
X58153Y-30484D01*
X58345Y-30484D01*
X58523Y-30410D01*
X58660Y-30274D01*
X58734Y-30096D01*
X58734Y-29904D01*
X58734Y-33410D01*
X57978Y-33410D01*
X57440Y-32871D01*
X57440Y-30445D01*
X57523Y-30410D01*
X57660Y-30274D01*
X57734Y-30096D01*
X57734Y-29904D01*
X57734Y-28904D01*
X57660Y-28726D01*
X57524Y-28589D01*
X57346Y-28515D01*
X57154Y-28515D01*
X56976Y-28589D01*
X56839Y-28725D01*
X56765Y-28903D01*
X56765Y-29095D01*
X56839Y-29273D01*
X56975Y-29410D01*
X57153Y-29484D01*
X57345Y-29484D01*
X57523Y-29410D01*
X57660Y-29274D01*
X57734Y-29096D01*
X57734Y-28904D01*
X57734Y-29904D01*
X57660Y-29726D01*
X57524Y-29589D01*
X57346Y-29515D01*
X57154Y-29515D01*
X56976Y-29589D01*
X56839Y-29725D01*
X56765Y-29903D01*
X56765Y-30095D01*
X56839Y-30273D01*
X56975Y-30410D01*
X57060Y-30445D01*
X57060Y-32950D01*
X57074Y-33022D01*
X57115Y-33084D01*
X57765Y-33734D01*
X57765Y-33734D01*
X57765Y-33734D01*
X57827Y-33775D01*
X57900Y-33790D01*
X57900Y-33790D01*
X57900Y-33790D01*
X60850Y-33790D01*
X62621Y-33790D01*
X62695Y-33863D01*
X62694Y-33960D01*
X62741Y-34072D01*
X62827Y-34158D01*
X62939Y-34204D01*
X63026Y-34205D01*
X62486Y-34744D01*
X62458Y-34677D01*
X62372Y-34591D01*
X62260Y-34545D01*
X62163Y-34544D01*
X61534Y-33915D01*
X61472Y-33874D01*
X61400Y-33860D01*
X60850Y-33860D01*
X57628Y-33860D01*
X56440Y-32671D01*
X56440Y-30445D01*
X56523Y-30410D01*
X56660Y-30274D01*
X56734Y-30096D01*
X56734Y-29904D01*
X56734Y-28904D01*
X56660Y-28726D01*
X56524Y-28589D01*
X56346Y-28515D01*
X56154Y-28515D01*
X55976Y-28589D01*
X55839Y-28725D01*
X55765Y-28903D01*
X55765Y-29095D01*
X55839Y-29273D01*
X55975Y-29410D01*
X56153Y-29484D01*
X56345Y-29484D01*
X56523Y-29410D01*
X56660Y-29274D01*
X56734Y-29096D01*
X56734Y-28904D01*
X56734Y-29904D01*
X56660Y-29726D01*
X56524Y-29589D01*
X56346Y-29515D01*
X56154Y-29515D01*
X55976Y-29589D01*
X55839Y-29725D01*
X55765Y-29903D01*
X55765Y-30095D01*
X55839Y-30273D01*
X55975Y-30410D01*
X56060Y-30445D01*
X56060Y-32750D01*
X56074Y-32822D01*
X56115Y-32884D01*
X57415Y-34184D01*
X57477Y-34225D01*
X57550Y-34240D01*
X60850Y-34240D01*
X61321Y-34240D01*
X61895Y-34813D01*
X61894Y-34910D01*
X61941Y-35022D01*
X62027Y-35108D01*
X62094Y-35136D01*
X61571Y-35660D01*
X61468Y-35660D01*
X61448Y-35639D01*
X61400Y-35620D01*
X61349Y-35620D01*
X60899Y-35620D01*
X60851Y-35639D01*
X60814Y-35676D01*
X60795Y-35724D01*
X60795Y-35775D01*
X60795Y-35910D01*
X60578Y-35910D01*
X59884Y-35215D01*
X59822Y-35174D01*
X59750Y-35160D01*
X58968Y-35160D01*
X58948Y-35139D01*
X58900Y-35120D01*
X58849Y-35120D01*
X58399Y-35120D01*
X58351Y-35139D01*
X58314Y-35176D01*
X58295Y-35224D01*
X58295Y-35275D01*
X58295Y-35410D01*
X58200Y-35410D01*
X57078Y-35410D01*
X53940Y-32271D01*
X53940Y-30375D01*
X53975Y-30410D01*
X54060Y-30445D01*
X54060Y-32200D01*
X54074Y-32272D01*
X54115Y-32334D01*
X56765Y-34984D01*
X56765Y-34984D01*
X56827Y-35025D01*
X56900Y-35040D01*
X58331Y-35040D01*
X58351Y-35060D01*
X58399Y-35080D01*
X58450Y-35080D01*
X58900Y-35080D01*
X58948Y-35060D01*
X58985Y-35023D01*
X59005Y-34975D01*
X59005Y-34924D01*
X59005Y-34724D01*
X58985Y-34676D01*
X58948Y-34640D01*
X59371Y-34640D01*
X60215Y-35484D01*
X60277Y-35525D01*
X60350Y-35540D01*
X60831Y-35540D01*
X60851Y-35560D01*
X60899Y-35580D01*
X60950Y-35580D01*
X61400Y-35580D01*
X61448Y-35560D01*
X61485Y-35523D01*
X61505Y-35475D01*
X61505Y-35424D01*
X61505Y-35224D01*
X61485Y-35176D01*
X61484Y-35175D01*
X61516Y-35161D01*
X61586Y-35091D01*
X61625Y-34999D01*
X61625Y-34962D01*
X61625Y-34737D01*
X61625Y-34700D01*
X61586Y-34608D01*
X61516Y-34538D01*
X61424Y-34500D01*
X61325Y-34500D01*
X61262Y-34500D01*
X61200Y-34562D01*
X61200Y-34800D01*
X61562Y-34800D01*
X61625Y-34737D01*
X61625Y-34962D01*
X61562Y-34900D01*
X61200Y-34900D01*
X61200Y-34907D01*
X61100Y-34907D01*
X61100Y-34900D01*
X61100Y-34800D01*
X61100Y-34562D01*
X61037Y-34500D01*
X60974Y-34500D01*
X60875Y-34500D01*
X60783Y-34538D01*
X60713Y-34608D01*
X60675Y-34700D01*
X60675Y-34737D01*
X60737Y-34800D01*
X61100Y-34800D01*
X61100Y-34900D01*
X60737Y-34900D01*
X60675Y-34962D01*
X60675Y-34999D01*
X60713Y-35091D01*
X60781Y-35160D01*
X60428Y-35160D01*
X59584Y-34315D01*
X59522Y-34274D01*
X59450Y-34260D01*
X57278Y-34260D01*
X54940Y-31921D01*
X54940Y-30950D01*
X54940Y-30375D01*
X54975Y-30410D01*
X55153Y-30484D01*
X55345Y-30484D01*
X55523Y-30410D01*
X55660Y-30274D01*
X55734Y-30096D01*
X55734Y-29904D01*
X55734Y-28904D01*
X55660Y-28726D01*
X55524Y-28589D01*
X55346Y-28515D01*
X55154Y-28515D01*
X54976Y-28589D01*
X54839Y-28725D01*
X54765Y-28903D01*
X54765Y-29095D01*
X54839Y-29273D01*
X54975Y-29410D01*
X55153Y-29484D01*
X55345Y-29484D01*
X55523Y-29410D01*
X55660Y-29274D01*
X55734Y-29096D01*
X55734Y-28904D01*
X55734Y-29904D01*
X55660Y-29726D01*
X55524Y-29589D01*
X55346Y-29515D01*
X55154Y-29515D01*
X54976Y-29589D01*
X54940Y-29625D01*
X54940Y-29500D01*
X54925Y-29427D01*
X54884Y-29365D01*
X54699Y-29180D01*
X54734Y-29096D01*
X54734Y-28904D01*
X54660Y-28726D01*
X54524Y-28589D01*
X54346Y-28515D01*
X54154Y-28515D01*
X53976Y-28589D01*
X53839Y-28725D01*
X53765Y-28903D01*
X53765Y-29095D01*
X53839Y-29273D01*
X53975Y-29410D01*
X54153Y-29484D01*
X54345Y-29484D01*
X54430Y-29449D01*
X54560Y-29578D01*
X54560Y-29624D01*
X54524Y-29589D01*
X54346Y-29515D01*
X54154Y-29515D01*
X53976Y-29589D01*
X53940Y-29625D01*
X53940Y-29500D01*
X53925Y-29427D01*
X53884Y-29365D01*
X53699Y-29180D01*
X53734Y-29096D01*
X53734Y-28904D01*
X53660Y-28726D01*
X53524Y-28589D01*
X53346Y-28515D01*
X53154Y-28515D01*
X52976Y-28589D01*
X52839Y-28725D01*
X52765Y-28903D01*
X52765Y-29095D01*
X52839Y-29273D01*
X52975Y-29410D01*
X53153Y-29484D01*
X53345Y-29484D01*
X53430Y-29449D01*
X53560Y-29578D01*
X53560Y-29624D01*
X53524Y-29589D01*
X53346Y-29515D01*
X53154Y-29515D01*
X52976Y-29589D01*
X52839Y-29725D01*
X52765Y-29903D01*
X52765Y-30095D01*
X52839Y-30273D01*
X52975Y-30410D01*
X53153Y-30484D01*
X53345Y-30484D01*
X53523Y-30410D01*
X53560Y-30374D01*
X53560Y-32350D01*
X53574Y-32422D01*
X53615Y-32484D01*
X56865Y-35734D01*
X56927Y-35775D01*
X57000Y-35790D01*
X58200Y-35790D01*
X58295Y-35790D01*
X58295Y-35975D01*
X58314Y-36023D01*
X58351Y-36060D01*
X58399Y-36080D01*
X58450Y-36080D01*
X58900Y-36080D01*
X58948Y-36060D01*
X58968Y-36040D01*
X59271Y-36040D01*
X60010Y-36778D01*
X60010Y-42650D01*
X60010Y-44177D01*
X59977Y-44191D01*
X59891Y-44277D01*
X59845Y-44389D01*
X59844Y-44510D01*
X59891Y-44622D01*
X59977Y-44708D01*
X60089Y-44754D01*
X60210Y-44755D01*
X60310Y-44713D01*
X60310Y-47515D01*
X60154Y-47515D01*
X59976Y-47589D01*
X59839Y-47725D01*
X59765Y-47903D01*
X59765Y-48095D01*
X59839Y-48273D01*
X59875Y-48310D01*
X59625Y-48310D01*
X59660Y-48274D01*
X59734Y-48096D01*
X59734Y-47904D01*
X59660Y-47726D01*
X59524Y-47589D01*
X59346Y-47515D01*
X59340Y-47515D01*
X59340Y-44550D01*
X59340Y-44549D01*
X59340Y-42750D01*
X59325Y-42677D01*
X59307Y-42650D01*
X59325Y-42622D01*
X59340Y-42550D01*
X59340Y-38050D01*
X59325Y-37977D01*
X59284Y-37915D01*
X59284Y-37915D01*
X59084Y-37715D01*
X59022Y-37674D01*
X58973Y-37664D01*
X58948Y-37639D01*
X58900Y-37620D01*
X58849Y-37620D01*
X58399Y-37620D01*
X58351Y-37639D01*
X58314Y-37676D01*
X58295Y-37724D01*
X58295Y-37775D01*
X58295Y-37975D01*
X58314Y-38023D01*
X58351Y-38060D01*
X58399Y-38080D01*
X58450Y-38080D01*
X58900Y-38080D01*
X58908Y-38076D01*
X58960Y-38128D01*
X58960Y-38151D01*
X58948Y-38139D01*
X58900Y-38120D01*
X58849Y-38120D01*
X58747Y-38120D01*
X58745Y-38119D01*
X58650Y-38100D01*
X58554Y-38119D01*
X58552Y-38120D01*
X58399Y-38120D01*
X58351Y-38139D01*
X58314Y-38176D01*
X58295Y-38224D01*
X58295Y-38275D01*
X58295Y-38475D01*
X58314Y-38523D01*
X58351Y-38560D01*
X58399Y-38580D01*
X58400Y-38580D01*
X58400Y-38718D01*
X58368Y-38750D01*
X58355Y-38750D01*
X58355Y-38749D01*
X58335Y-38701D01*
X58298Y-38664D01*
X58250Y-38645D01*
X58199Y-38645D01*
X57990Y-38645D01*
X57990Y-37928D01*
X58134Y-37784D01*
X58134Y-37784D01*
X58134Y-37784D01*
X58356Y-37562D01*
X58399Y-37580D01*
X58450Y-37580D01*
X58900Y-37580D01*
X58948Y-37560D01*
X58985Y-37523D01*
X59005Y-37475D01*
X59005Y-37424D01*
X59005Y-37224D01*
X59005Y-36975D01*
X59005Y-36924D01*
X59005Y-36724D01*
X59005Y-36475D01*
X59005Y-36424D01*
X59005Y-36224D01*
X58985Y-36176D01*
X58948Y-36139D01*
X58900Y-36120D01*
X58849Y-36120D01*
X58399Y-36120D01*
X58351Y-36139D01*
X58314Y-36176D01*
X58295Y-36224D01*
X58295Y-36275D01*
X58295Y-36475D01*
X58314Y-36523D01*
X58351Y-36560D01*
X58399Y-36580D01*
X58450Y-36580D01*
X58900Y-36580D01*
X58948Y-36560D01*
X58985Y-36523D01*
X59005Y-36475D01*
X59005Y-36724D01*
X58985Y-36676D01*
X58948Y-36639D01*
X58900Y-36620D01*
X58849Y-36620D01*
X58399Y-36620D01*
X58351Y-36639D01*
X58314Y-36676D01*
X58295Y-36724D01*
X58295Y-36775D01*
X58295Y-36975D01*
X58314Y-37023D01*
X58351Y-37060D01*
X58399Y-37080D01*
X58450Y-37080D01*
X58900Y-37080D01*
X58948Y-37060D01*
X58985Y-37023D01*
X59005Y-36975D01*
X59005Y-37224D01*
X58985Y-37176D01*
X58948Y-37139D01*
X58900Y-37120D01*
X58849Y-37120D01*
X58399Y-37120D01*
X58351Y-37139D01*
X58331Y-37160D01*
X58300Y-37160D01*
X58300Y-37159D01*
X58227Y-37174D01*
X58165Y-37215D01*
X57865Y-37515D01*
X57865Y-37515D01*
X57665Y-37715D01*
X57624Y-37777D01*
X57610Y-37850D01*
X57610Y-38527D01*
X57550Y-38587D01*
X57550Y-38950D01*
X57557Y-38950D01*
X57557Y-39050D01*
X57550Y-39050D01*
X57550Y-39412D01*
X57610Y-39472D01*
X57610Y-41400D01*
X57610Y-41450D01*
X57610Y-42050D01*
X57624Y-42122D01*
X57638Y-42143D01*
X57450Y-42331D01*
X57450Y-39412D01*
X57450Y-39050D01*
X57450Y-38950D01*
X57450Y-38587D01*
X57387Y-38525D01*
X57325Y-38525D01*
X57233Y-38563D01*
X57163Y-38633D01*
X57125Y-38725D01*
X57125Y-38824D01*
X57125Y-38887D01*
X57187Y-38950D01*
X57450Y-38950D01*
X57450Y-39050D01*
X57187Y-39050D01*
X57125Y-39112D01*
X57125Y-39175D01*
X57125Y-39274D01*
X57163Y-39366D01*
X57233Y-39436D01*
X57325Y-39475D01*
X57387Y-39475D01*
X57450Y-39412D01*
X57450Y-42331D01*
X57215Y-42565D01*
X56465Y-43315D01*
X56115Y-43665D01*
X56074Y-43727D01*
X56060Y-43800D01*
X56060Y-43900D01*
X56060Y-47554D01*
X55976Y-47589D01*
X55839Y-47725D01*
X55765Y-47903D01*
X55765Y-48095D01*
X55839Y-48273D01*
X55975Y-48410D01*
X56153Y-48484D01*
X56221Y-48484D01*
X56250Y-48490D01*
X56278Y-48484D01*
X56345Y-48484D01*
X56523Y-48410D01*
X56660Y-48274D01*
X56734Y-48096D01*
X56734Y-47904D01*
X56660Y-47726D01*
X56524Y-47589D01*
X56440Y-47554D01*
X56440Y-43900D01*
X56440Y-43878D01*
X56734Y-43584D01*
X57484Y-42834D01*
X57978Y-42340D01*
X58331Y-42340D01*
X58351Y-42360D01*
X58399Y-42380D01*
X58450Y-42380D01*
X58900Y-42380D01*
X58948Y-42360D01*
X58960Y-42348D01*
X58960Y-42451D01*
X58948Y-42439D01*
X58900Y-42420D01*
X58849Y-42420D01*
X58399Y-42420D01*
X58351Y-42439D01*
X58331Y-42460D01*
X58200Y-42460D01*
X58127Y-42474D01*
X58065Y-42515D01*
X57115Y-43465D01*
X57074Y-43527D01*
X57060Y-43600D01*
X57060Y-47554D01*
X56976Y-47589D01*
X56839Y-47725D01*
X56765Y-47903D01*
X56765Y-48095D01*
X56839Y-48273D01*
X56975Y-48410D01*
X57153Y-48484D01*
X57345Y-48484D01*
X57523Y-48410D01*
X57660Y-48274D01*
X57734Y-48096D01*
X57734Y-47904D01*
X57660Y-47726D01*
X57524Y-47589D01*
X57440Y-47554D01*
X57440Y-43678D01*
X58278Y-42840D01*
X58331Y-42840D01*
X58351Y-42860D01*
X58399Y-42880D01*
X58450Y-42880D01*
X58900Y-42880D01*
X58948Y-42860D01*
X58960Y-42848D01*
X58960Y-42951D01*
X58948Y-42939D01*
X58900Y-42920D01*
X58849Y-42920D01*
X58747Y-42920D01*
X58745Y-42919D01*
X58650Y-42900D01*
X58554Y-42919D01*
X58552Y-42920D01*
X58399Y-42920D01*
X58351Y-42939D01*
X58314Y-42976D01*
X58295Y-43024D01*
X58295Y-43075D01*
X58295Y-43275D01*
X58314Y-43323D01*
X58351Y-43360D01*
X58391Y-43376D01*
X58391Y-43377D01*
X58345Y-43489D01*
X58344Y-43610D01*
X58350Y-43622D01*
X58350Y-43664D01*
X58336Y-43633D01*
X58266Y-43563D01*
X58174Y-43525D01*
X58112Y-43525D01*
X58050Y-43587D01*
X58050Y-43950D01*
X58057Y-43950D01*
X58057Y-44050D01*
X58050Y-44050D01*
X58050Y-44057D01*
X57950Y-44057D01*
X57950Y-44050D01*
X57950Y-43950D01*
X57950Y-43587D01*
X57887Y-43525D01*
X57825Y-43525D01*
X57733Y-43563D01*
X57663Y-43633D01*
X57625Y-43725D01*
X57625Y-43824D01*
X57625Y-43887D01*
X57687Y-43950D01*
X57950Y-43950D01*
X57950Y-44050D01*
X57687Y-44050D01*
X57625Y-44112D01*
X57625Y-44175D01*
X57625Y-44274D01*
X57663Y-44366D01*
X57733Y-44436D01*
X57801Y-44465D01*
X57764Y-44501D01*
X57745Y-44549D01*
X57745Y-44600D01*
X57745Y-45050D01*
X57764Y-45098D01*
X57801Y-45135D01*
X57810Y-45138D01*
X57810Y-45261D01*
X57801Y-45264D01*
X57764Y-45301D01*
X57745Y-45349D01*
X57745Y-45400D01*
X57745Y-45850D01*
X57764Y-45898D01*
X57801Y-45935D01*
X57849Y-45955D01*
X57900Y-45955D01*
X58150Y-45955D01*
X58198Y-45935D01*
X58235Y-45898D01*
X58255Y-45850D01*
X58255Y-45799D01*
X58255Y-45349D01*
X58235Y-45301D01*
X58198Y-45264D01*
X58190Y-45261D01*
X58190Y-45138D01*
X58198Y-45135D01*
X58235Y-45098D01*
X58255Y-45050D01*
X58255Y-44999D01*
X58255Y-44813D01*
X58345Y-44723D01*
X58345Y-45050D01*
X58364Y-45098D01*
X58401Y-45135D01*
X58449Y-45155D01*
X58500Y-45155D01*
X58750Y-45155D01*
X58798Y-45135D01*
X58835Y-45098D01*
X58855Y-45050D01*
X58855Y-44999D01*
X58855Y-44990D01*
X58900Y-44990D01*
X58972Y-44975D01*
X59034Y-44934D01*
X59284Y-44684D01*
X59284Y-44684D01*
X59284Y-44684D01*
X59325Y-44622D01*
X59340Y-44550D01*
X59340Y-44550D01*
X59340Y-47515D01*
X59154Y-47515D01*
X58976Y-47589D01*
X58935Y-47629D01*
X58925Y-47577D01*
X58884Y-47515D01*
X58884Y-47515D01*
X58790Y-47421D01*
X58790Y-45938D01*
X58798Y-45935D01*
X58835Y-45898D01*
X58855Y-45850D01*
X58855Y-45799D01*
X58855Y-45349D01*
X58835Y-45301D01*
X58798Y-45264D01*
X58750Y-45245D01*
X58699Y-45245D01*
X58449Y-45245D01*
X58401Y-45264D01*
X58364Y-45301D01*
X58345Y-45349D01*
X58345Y-45400D01*
X58345Y-45850D01*
X58364Y-45898D01*
X58401Y-45935D01*
X58410Y-45938D01*
X58410Y-47500D01*
X58419Y-47545D01*
X58346Y-47515D01*
X58154Y-47515D01*
X57976Y-47589D01*
X57839Y-47725D01*
X57765Y-47903D01*
X57765Y-48095D01*
X57839Y-48273D01*
X57975Y-48410D01*
X58153Y-48484D01*
X58345Y-48484D01*
X58523Y-48410D01*
X58560Y-48374D01*
X58560Y-48400D01*
X58574Y-48472D01*
X58615Y-48534D01*
X58715Y-48634D01*
X58777Y-48675D01*
X58850Y-48690D01*
X58874Y-48690D01*
X58839Y-48725D01*
X58765Y-48903D01*
X58765Y-49095D01*
X58839Y-49273D01*
X58975Y-49410D01*
X59153Y-49484D01*
X59345Y-49484D01*
X59523Y-49410D01*
X59660Y-49274D01*
X59734Y-49096D01*
X59734Y-48904D01*
X59660Y-48726D01*
X59624Y-48690D01*
X59874Y-48690D01*
X59839Y-48725D01*
X59765Y-48903D01*
X59765Y-49095D01*
X59839Y-49273D01*
X59975Y-49410D01*
X60153Y-49484D01*
X60345Y-49484D01*
X60523Y-49410D01*
X60660Y-49274D01*
X60734Y-49096D01*
X60734Y-48904D01*
X60660Y-48726D01*
X60624Y-48690D01*
X60750Y-48690D01*
X60822Y-48675D01*
X60884Y-48634D01*
X61069Y-48449D01*
X61153Y-48484D01*
X61345Y-48484D01*
X61523Y-48410D01*
X61660Y-48274D01*
X61734Y-48096D01*
X61734Y-47904D01*
X61660Y-47726D01*
X61524Y-47589D01*
X61346Y-47515D01*
X61340Y-47515D01*
X61340Y-44763D01*
X61439Y-44804D01*
X61560Y-44805D01*
X61672Y-44758D01*
X61741Y-44690D01*
X63613Y-44690D01*
X63635Y-44743D01*
X63756Y-44864D01*
X63914Y-44929D01*
X64085Y-44930D01*
X64243Y-44864D01*
X64310Y-44798D01*
X64310Y-45550D01*
X64324Y-45622D01*
X64365Y-45684D01*
X66060Y-47378D01*
X66060Y-47554D01*
X65976Y-47589D01*
X65839Y-47725D01*
X65765Y-47903D01*
X65765Y-48095D01*
X65839Y-48273D01*
X65975Y-48410D01*
X66153Y-48484D01*
X66345Y-48484D01*
X66523Y-48410D01*
X66660Y-48274D01*
X66734Y-48096D01*
X66734Y-47904D01*
X66660Y-47726D01*
X66524Y-47589D01*
X66440Y-47554D01*
X66440Y-47300D01*
X66425Y-47227D01*
X66384Y-47165D01*
X65554Y-46336D01*
X65554Y-44581D01*
X65554Y-43581D01*
X65543Y-43363D01*
X65481Y-43212D01*
X65385Y-43184D01*
X65070Y-43500D01*
X65385Y-43815D01*
X65481Y-43787D01*
X65554Y-43581D01*
X65554Y-44581D01*
X65543Y-44363D01*
X65481Y-44212D01*
X65385Y-44184D01*
X65070Y-44500D01*
X65385Y-44815D01*
X65481Y-44787D01*
X65554Y-44581D01*
X65554Y-46336D01*
X64690Y-45471D01*
X64690Y-44904D01*
X64712Y-44981D01*
X64918Y-45054D01*
X65136Y-45043D01*
X65287Y-44981D01*
X65315Y-44885D01*
X65000Y-44570D01*
X64994Y-44576D01*
X64923Y-44505D01*
X64929Y-44500D01*
X64923Y-44494D01*
X64994Y-44423D01*
X65000Y-44429D01*
X65315Y-44114D01*
X65287Y-44018D01*
X65239Y-44001D01*
X65287Y-43981D01*
X65315Y-43885D01*
X65000Y-43570D01*
X64994Y-43576D01*
X64923Y-43505D01*
X64929Y-43500D01*
X64923Y-43494D01*
X64994Y-43423D01*
X65000Y-43429D01*
X65315Y-43114D01*
X65287Y-43018D01*
X65081Y-42945D01*
X64863Y-42956D01*
X64712Y-43018D01*
X64690Y-43095D01*
X64690Y-43000D01*
X64675Y-42927D01*
X64634Y-42865D01*
X64407Y-42639D01*
X64429Y-42585D01*
X64430Y-42414D01*
X64430Y-41414D01*
X64430Y-41414D01*
X64430Y-40825D01*
X64430Y-40774D01*
X64430Y-40174D01*
X64410Y-40126D01*
X64373Y-40089D01*
X64325Y-40070D01*
X64274Y-40070D01*
X63674Y-40070D01*
X63626Y-40089D01*
X63589Y-40126D01*
X63570Y-40174D01*
X63570Y-40225D01*
X63570Y-40825D01*
X63589Y-40873D01*
X63626Y-40910D01*
X63674Y-40930D01*
X63725Y-40930D01*
X64325Y-40930D01*
X64373Y-40910D01*
X64410Y-40873D01*
X64430Y-40825D01*
X64430Y-41414D01*
X64364Y-41256D01*
X64243Y-41135D01*
X64085Y-41070D01*
X63914Y-41069D01*
X63756Y-41135D01*
X63635Y-41256D01*
X63570Y-41414D01*
X63569Y-41585D01*
X63635Y-41743D01*
X63756Y-41864D01*
X63914Y-41929D01*
X64085Y-41930D01*
X64243Y-41864D01*
X64364Y-41743D01*
X64429Y-41585D01*
X64430Y-41414D01*
X64430Y-42414D01*
X64364Y-42256D01*
X64243Y-42135D01*
X64085Y-42070D01*
X63914Y-42069D01*
X63756Y-42135D01*
X63635Y-42256D01*
X63570Y-42414D01*
X63569Y-42585D01*
X63635Y-42743D01*
X63756Y-42864D01*
X63914Y-42929D01*
X64085Y-42930D01*
X64139Y-42907D01*
X64310Y-43078D01*
X64310Y-43201D01*
X64243Y-43135D01*
X64085Y-43070D01*
X63914Y-43069D01*
X63860Y-43092D01*
X61784Y-41015D01*
X61722Y-40974D01*
X61650Y-40960D01*
X61468Y-40960D01*
X61448Y-40939D01*
X61400Y-40920D01*
X61349Y-40920D01*
X60940Y-40920D01*
X60940Y-40880D01*
X60950Y-40880D01*
X61400Y-40880D01*
X61448Y-40860D01*
X61468Y-40840D01*
X61750Y-40840D01*
X61822Y-40825D01*
X61884Y-40784D01*
X62878Y-39790D01*
X64200Y-39790D01*
X64272Y-39775D01*
X64334Y-39734D01*
X64634Y-39434D01*
X64675Y-39372D01*
X64690Y-39300D01*
X64690Y-39300D01*
X64690Y-39299D01*
X64690Y-37904D01*
X64712Y-37981D01*
X64918Y-38054D01*
X65136Y-38043D01*
X65287Y-37981D01*
X65315Y-37885D01*
X65000Y-37570D01*
X64994Y-37576D01*
X64923Y-37505D01*
X64929Y-37500D01*
X64923Y-37494D01*
X64994Y-37423D01*
X65000Y-37429D01*
X65315Y-37114D01*
X65287Y-37018D01*
X65239Y-37001D01*
X65287Y-36981D01*
X65315Y-36885D01*
X65000Y-36570D01*
X64994Y-36576D01*
X64923Y-36505D01*
X64929Y-36500D01*
X64614Y-36184D01*
X64518Y-36212D01*
X64445Y-36418D01*
X64456Y-36636D01*
X64492Y-36723D01*
X64407Y-36639D01*
X64429Y-36585D01*
X64430Y-36414D01*
X64364Y-36256D01*
X64243Y-36135D01*
X64085Y-36070D01*
X63914Y-36069D01*
X63756Y-36135D01*
X63635Y-36256D01*
X63570Y-36414D01*
X63569Y-36585D01*
X63635Y-36743D01*
X63756Y-36864D01*
X63914Y-36929D01*
X64085Y-36930D01*
X64139Y-36907D01*
X64310Y-37078D01*
X64310Y-37201D01*
X64243Y-37135D01*
X64085Y-37070D01*
X63914Y-37069D01*
X63756Y-37135D01*
X63635Y-37256D01*
X63613Y-37310D01*
X63328Y-37310D01*
X61984Y-35965D01*
X61922Y-35924D01*
X61857Y-35911D01*
X63838Y-33930D01*
X64310Y-33930D01*
X64310Y-34201D01*
X64243Y-34135D01*
X64085Y-34070D01*
X63914Y-34069D01*
X63756Y-34135D01*
X63635Y-34256D01*
X63570Y-34414D01*
X63569Y-34585D01*
X63635Y-34743D01*
X63756Y-34864D01*
X63914Y-34929D01*
X64085Y-34930D01*
X64243Y-34864D01*
X64310Y-34798D01*
X64310Y-34921D01*
X64139Y-35092D01*
X64085Y-35070D01*
X63914Y-35069D01*
X63756Y-35135D01*
X63635Y-35256D01*
X63570Y-35414D01*
X63569Y-35585D01*
X63635Y-35743D01*
X63756Y-35864D01*
X63914Y-35929D01*
X64085Y-35930D01*
X64243Y-35864D01*
X64364Y-35743D01*
X64429Y-35585D01*
X64430Y-35414D01*
X64407Y-35360D01*
X64634Y-35134D01*
X64675Y-35072D01*
X64690Y-35000D01*
X64690Y-34798D01*
X64756Y-34864D01*
X64914Y-34929D01*
X65085Y-34930D01*
X65243Y-34864D01*
X65364Y-34743D01*
X65429Y-34585D01*
X65430Y-34414D01*
X65364Y-34256D01*
X65243Y-34135D01*
X65085Y-34070D01*
X64914Y-34069D01*
X64756Y-34135D01*
X64690Y-34201D01*
X64690Y-33798D01*
X64756Y-33864D01*
X64914Y-33929D01*
X65085Y-33930D01*
X65243Y-33864D01*
X65364Y-33743D01*
X65429Y-33585D01*
X65430Y-33414D01*
X65364Y-33256D01*
X65243Y-33135D01*
X65085Y-33070D01*
X64914Y-33069D01*
X64756Y-33135D01*
X64690Y-33201D01*
X64690Y-31950D01*
X64675Y-31877D01*
X64634Y-31815D01*
X63440Y-30621D01*
X63440Y-30445D01*
X63523Y-30410D01*
X63560Y-30374D01*
X63560Y-30400D01*
X63560Y-30550D01*
X63574Y-30622D01*
X63615Y-30684D01*
X65510Y-32578D01*
X65510Y-33050D01*
X65510Y-36281D01*
X65481Y-36212D01*
X65430Y-36197D01*
X65430Y-35414D01*
X65364Y-35256D01*
X65243Y-35135D01*
X65085Y-35070D01*
X64914Y-35069D01*
X64756Y-35135D01*
X64635Y-35256D01*
X64570Y-35414D01*
X64569Y-35585D01*
X64635Y-35743D01*
X64756Y-35864D01*
X64914Y-35929D01*
X65085Y-35930D01*
X65243Y-35864D01*
X65364Y-35743D01*
X65429Y-35585D01*
X65430Y-35414D01*
X65430Y-36197D01*
X65385Y-36184D01*
X65315Y-36255D01*
X65315Y-36114D01*
X65287Y-36018D01*
X65081Y-35945D01*
X64863Y-35956D01*
X64712Y-36018D01*
X64684Y-36114D01*
X65000Y-36429D01*
X65315Y-36114D01*
X65315Y-36255D01*
X65070Y-36500D01*
X65385Y-36815D01*
X65481Y-36787D01*
X65510Y-36707D01*
X65510Y-37281D01*
X65481Y-37212D01*
X65385Y-37184D01*
X65070Y-37500D01*
X65385Y-37815D01*
X65481Y-37787D01*
X65510Y-37707D01*
X65510Y-40971D01*
X65430Y-41051D01*
X65430Y-40414D01*
X65364Y-40256D01*
X65243Y-40135D01*
X65085Y-40070D01*
X64914Y-40069D01*
X64756Y-40135D01*
X64635Y-40256D01*
X64570Y-40414D01*
X64569Y-40585D01*
X64635Y-40743D01*
X64756Y-40864D01*
X64914Y-40929D01*
X65085Y-40930D01*
X65243Y-40864D01*
X65364Y-40743D01*
X65429Y-40585D01*
X65430Y-40414D01*
X65430Y-41051D01*
X65294Y-41186D01*
X65243Y-41135D01*
X65085Y-41070D01*
X64914Y-41069D01*
X64756Y-41135D01*
X64635Y-41256D01*
X64570Y-41414D01*
X64569Y-41585D01*
X64635Y-41743D01*
X64756Y-41864D01*
X64914Y-41929D01*
X65085Y-41930D01*
X65243Y-41864D01*
X65364Y-41743D01*
X65427Y-41590D01*
X65834Y-41184D01*
X65860Y-41145D01*
X65860Y-41671D01*
X65319Y-42211D01*
X65243Y-42135D01*
X65085Y-42070D01*
X64914Y-42069D01*
X64756Y-42135D01*
X64635Y-42256D01*
X64570Y-42414D01*
X64569Y-42585D01*
X64635Y-42743D01*
X64756Y-42864D01*
X64914Y-42929D01*
X65085Y-42930D01*
X65243Y-42864D01*
X65364Y-42743D01*
X65400Y-42657D01*
X65434Y-42634D01*
X66184Y-41884D01*
X66225Y-41822D01*
X66240Y-41750D01*
X66240Y-33669D01*
X66241Y-33672D01*
X66327Y-33758D01*
X66439Y-33804D01*
X66560Y-33805D01*
X66672Y-33758D01*
X66758Y-33672D01*
X66804Y-33560D01*
X66804Y-33548D01*
X67426Y-32926D01*
X67480Y-32845D01*
X67500Y-32750D01*
X67500Y-32250D01*
X67500Y-30420D01*
X67523Y-30410D01*
X67660Y-30274D01*
X67682Y-30221D01*
X67723Y-30320D01*
X67824Y-30354D01*
X68179Y-30000D01*
X68173Y-29994D01*
X68244Y-29923D01*
X68250Y-29929D01*
X68255Y-29923D01*
X68326Y-29994D01*
X68320Y-30000D01*
X68675Y-30354D01*
X68776Y-30320D01*
X68858Y-30094D01*
X68858Y-31206D01*
X68839Y-31225D01*
X68765Y-31403D01*
X68765Y-31450D01*
X68604Y-31450D01*
X68604Y-30425D01*
X68250Y-30070D01*
X67895Y-30425D01*
X67929Y-30526D01*
X68155Y-30608D01*
X68395Y-30598D01*
X68570Y-30526D01*
X68604Y-30425D01*
X68604Y-31450D01*
X68562Y-31450D01*
X68550Y-31445D01*
X68499Y-31445D01*
X68049Y-31445D01*
X68001Y-31464D01*
X67964Y-31501D01*
X67945Y-31549D01*
X67945Y-31600D01*
X67945Y-31850D01*
X67964Y-31898D01*
X68001Y-31935D01*
X68049Y-31955D01*
X68100Y-31955D01*
X68550Y-31955D01*
X68562Y-31950D01*
X69050Y-31950D01*
X69064Y-31947D01*
X69153Y-31984D01*
X69345Y-31984D01*
X69523Y-31910D01*
X69660Y-31774D01*
X69734Y-31596D01*
X69734Y-31404D01*
X69734Y-32404D01*
X69660Y-32226D01*
X69524Y-32089D01*
X69346Y-32015D01*
X69154Y-32015D01*
X69064Y-32052D01*
X69050Y-32050D01*
X68562Y-32050D01*
X68550Y-32045D01*
X68499Y-32045D01*
X68049Y-32045D01*
X68001Y-32064D01*
X67964Y-32101D01*
X67945Y-32149D01*
X67945Y-32200D01*
X67945Y-32450D01*
X67964Y-32498D01*
X68001Y-32535D01*
X68049Y-32555D01*
X68100Y-32555D01*
X68550Y-32555D01*
X68562Y-32550D01*
X68765Y-32550D01*
X68765Y-32595D01*
X68839Y-32773D01*
X68975Y-32910D01*
X69153Y-32984D01*
X69345Y-32984D01*
X69523Y-32910D01*
X69660Y-32774D01*
X69734Y-32596D01*
X69734Y-32404D01*
X69734Y-36450D01*
X67950Y-36450D01*
X67950Y-43550D01*
X73200Y-43550D01*
X73200Y-49700D01*
X71400Y-49700D01*
X71400Y-48724D01*
X71399Y-48267D01*
X71227Y-47851D01*
X71069Y-47751D01*
X70998Y-47821D01*
X70998Y-47680D01*
X70898Y-47522D01*
X70474Y-47349D01*
X70017Y-47350D01*
X69601Y-47522D01*
X69501Y-47680D01*
X70250Y-48429D01*
X70998Y-47680D01*
X70998Y-47821D01*
X70320Y-48500D01*
X71069Y-49248D01*
X71227Y-49148D01*
X71400Y-48724D01*
X71400Y-49700D01*
X70998Y-49700D01*
X70998Y-49319D01*
X70250Y-48570D01*
X70179Y-48641D01*
X70179Y-48500D01*
X69430Y-47751D01*
X69272Y-47851D01*
X69099Y-48275D01*
X69100Y-48732D01*
X69272Y-49148D01*
X69430Y-49248D01*
X70179Y-48500D01*
X70179Y-48641D01*
X69501Y-49319D01*
X69601Y-49477D01*
X70025Y-49650D01*
X70482Y-49649D01*
X70898Y-49477D01*
X70998Y-49319D01*
X70998Y-49700D01*
X68858Y-49700D01*
X68858Y-49094D01*
X68854Y-48987D01*
X68848Y-48854D01*
X68776Y-48679D01*
X68675Y-48645D01*
X68720Y-48600D01*
X68703Y-48583D01*
X68745Y-48566D01*
X68816Y-48495D01*
X68854Y-48404D01*
X68854Y-48304D01*
X68854Y-48112D01*
X68854Y-47887D01*
X68854Y-47695D01*
X68854Y-47595D01*
X68816Y-47504D01*
X68745Y-47433D01*
X68654Y-47395D01*
X68362Y-47395D01*
X68300Y-47458D01*
X68300Y-47950D01*
X68791Y-47950D01*
X68854Y-47887D01*
X68854Y-48112D01*
X68791Y-48050D01*
X68300Y-48050D01*
X68300Y-48057D01*
X68200Y-48057D01*
X68200Y-48050D01*
X68192Y-48050D01*
X68192Y-47950D01*
X68200Y-47950D01*
X68200Y-47458D01*
X68137Y-47395D01*
X67845Y-47395D01*
X67754Y-47433D01*
X67683Y-47504D01*
X67645Y-47595D01*
X67645Y-47695D01*
X67645Y-47710D01*
X67524Y-47589D01*
X67346Y-47515D01*
X67154Y-47515D01*
X66976Y-47589D01*
X66839Y-47725D01*
X66765Y-47903D01*
X66765Y-48095D01*
X66839Y-48273D01*
X66975Y-48410D01*
X67153Y-48484D01*
X67345Y-48484D01*
X67523Y-48410D01*
X67645Y-48289D01*
X67645Y-48304D01*
X67645Y-48404D01*
X67683Y-48495D01*
X67754Y-48566D01*
X67796Y-48583D01*
X67779Y-48600D01*
X67824Y-48645D01*
X67723Y-48679D01*
X67685Y-48784D01*
X67660Y-48726D01*
X67524Y-48589D01*
X67346Y-48515D01*
X67154Y-48515D01*
X66976Y-48589D01*
X66839Y-48725D01*
X66765Y-48903D01*
X66765Y-49095D01*
X66839Y-49273D01*
X66975Y-49410D01*
X67153Y-49484D01*
X67345Y-49484D01*
X67523Y-49410D01*
X67660Y-49274D01*
X67682Y-49221D01*
X67723Y-49320D01*
X67824Y-49354D01*
X68179Y-49000D01*
X68173Y-48994D01*
X68244Y-48923D01*
X68250Y-48929D01*
X68255Y-48923D01*
X68326Y-48994D01*
X68320Y-49000D01*
X68675Y-49354D01*
X68776Y-49320D01*
X68858Y-49094D01*
X68858Y-49700D01*
X68604Y-49700D01*
X68604Y-49425D01*
X68250Y-49070D01*
X68179Y-49141D01*
X67895Y-49425D01*
X67929Y-49526D01*
X68155Y-49608D01*
X68395Y-49598D01*
X68570Y-49526D01*
X68604Y-49425D01*
X68604Y-49700D01*
X66734Y-49700D01*
X66734Y-48904D01*
X66660Y-48726D01*
X66524Y-48589D01*
X66346Y-48515D01*
X66154Y-48515D01*
X65976Y-48589D01*
X65839Y-48725D01*
X65765Y-48903D01*
X65765Y-49095D01*
X65839Y-49273D01*
X65975Y-49410D01*
X66153Y-49484D01*
X66345Y-49484D01*
X66523Y-49410D01*
X66660Y-49274D01*
X66734Y-49096D01*
X66734Y-48904D01*
X66734Y-49700D01*
X65734Y-49700D01*
X65734Y-48904D01*
X65734Y-47904D01*
X65660Y-47726D01*
X65524Y-47589D01*
X65346Y-47515D01*
X65154Y-47515D01*
X64976Y-47589D01*
X64839Y-47725D01*
X64765Y-47903D01*
X64765Y-48095D01*
X64839Y-48273D01*
X64975Y-48410D01*
X65153Y-48484D01*
X65345Y-48484D01*
X65523Y-48410D01*
X65660Y-48274D01*
X65734Y-48096D01*
X65734Y-47904D01*
X65734Y-48904D01*
X65660Y-48726D01*
X65524Y-48589D01*
X65346Y-48515D01*
X65154Y-48515D01*
X64976Y-48589D01*
X64839Y-48725D01*
X64765Y-48903D01*
X64765Y-49095D01*
X64839Y-49273D01*
X64975Y-49410D01*
X65153Y-49484D01*
X65345Y-49484D01*
X65523Y-49410D01*
X65660Y-49274D01*
X65734Y-49096D01*
X65734Y-48904D01*
X65734Y-49700D01*
X64734Y-49700D01*
X64734Y-48904D01*
X64734Y-47904D01*
X64660Y-47726D01*
X64524Y-47589D01*
X64346Y-47515D01*
X64154Y-47515D01*
X63976Y-47589D01*
X63839Y-47725D01*
X63765Y-47903D01*
X63765Y-48095D01*
X63839Y-48273D01*
X63975Y-48410D01*
X64153Y-48484D01*
X64345Y-48484D01*
X64523Y-48410D01*
X64660Y-48274D01*
X64734Y-48096D01*
X64734Y-47904D01*
X64734Y-48904D01*
X64660Y-48726D01*
X64524Y-48589D01*
X64346Y-48515D01*
X64154Y-48515D01*
X63976Y-48589D01*
X63839Y-48725D01*
X63765Y-48903D01*
X63765Y-49095D01*
X63839Y-49273D01*
X63975Y-49410D01*
X64153Y-49484D01*
X64345Y-49484D01*
X64523Y-49410D01*
X64660Y-49274D01*
X64734Y-49096D01*
X64734Y-48904D01*
X64734Y-49700D01*
X63734Y-49700D01*
X63734Y-48904D01*
X63734Y-47904D01*
X63660Y-47726D01*
X63524Y-47589D01*
X63346Y-47515D01*
X63154Y-47515D01*
X62976Y-47589D01*
X62839Y-47725D01*
X62765Y-47903D01*
X62765Y-48095D01*
X62839Y-48273D01*
X62975Y-48410D01*
X63153Y-48484D01*
X63345Y-48484D01*
X63523Y-48410D01*
X63660Y-48274D01*
X63734Y-48096D01*
X63734Y-47904D01*
X63734Y-48904D01*
X63660Y-48726D01*
X63524Y-48589D01*
X63346Y-48515D01*
X63154Y-48515D01*
X62976Y-48589D01*
X62839Y-48725D01*
X62765Y-48903D01*
X62765Y-49095D01*
X62839Y-49273D01*
X62975Y-49410D01*
X63153Y-49484D01*
X63345Y-49484D01*
X63523Y-49410D01*
X63660Y-49274D01*
X63734Y-49096D01*
X63734Y-48904D01*
X63734Y-49700D01*
X62734Y-49700D01*
X62734Y-48904D01*
X62734Y-47904D01*
X62660Y-47726D01*
X62524Y-47589D01*
X62346Y-47515D01*
X62154Y-47515D01*
X61976Y-47589D01*
X61839Y-47725D01*
X61765Y-47903D01*
X61765Y-48095D01*
X61839Y-48273D01*
X61975Y-48410D01*
X62153Y-48484D01*
X62345Y-48484D01*
X62523Y-48410D01*
X62660Y-48274D01*
X62734Y-48096D01*
X62734Y-47904D01*
X62734Y-48904D01*
X62660Y-48726D01*
X62524Y-48589D01*
X62346Y-48515D01*
X62154Y-48515D01*
X61976Y-48589D01*
X61839Y-48725D01*
X61765Y-48903D01*
X61765Y-49095D01*
X61839Y-49273D01*
X61975Y-49410D01*
X62153Y-49484D01*
X62345Y-49484D01*
X62523Y-49410D01*
X62660Y-49274D01*
X62734Y-49096D01*
X62734Y-48904D01*
X62734Y-49700D01*
X61734Y-49700D01*
X61734Y-48904D01*
X61660Y-48726D01*
X61524Y-48589D01*
X61346Y-48515D01*
X61154Y-48515D01*
X60976Y-48589D01*
X60839Y-48725D01*
X60765Y-48903D01*
X60765Y-49095D01*
X60839Y-49273D01*
X60975Y-49410D01*
X61153Y-49484D01*
X61345Y-49484D01*
X61523Y-49410D01*
X61660Y-49274D01*
X61734Y-49096D01*
X61734Y-48904D01*
X61734Y-49700D01*
X58734Y-49700D01*
X58734Y-48904D01*
X58660Y-48726D01*
X58524Y-48589D01*
X58346Y-48515D01*
X58154Y-48515D01*
X57976Y-48589D01*
X57839Y-48725D01*
X57765Y-48903D01*
X57765Y-49095D01*
X57839Y-49273D01*
X57975Y-49410D01*
X58153Y-49484D01*
X58345Y-49484D01*
X58523Y-49410D01*
X58660Y-49274D01*
X58734Y-49096D01*
X58734Y-48904D01*
X58734Y-49700D01*
X57734Y-49700D01*
X57734Y-48904D01*
X57660Y-48726D01*
X57524Y-48589D01*
X57346Y-48515D01*
X57154Y-48515D01*
X56976Y-48589D01*
X56839Y-48725D01*
X56765Y-48903D01*
X56765Y-49095D01*
X56839Y-49273D01*
X56975Y-49410D01*
X57153Y-49484D01*
X57345Y-49484D01*
X57523Y-49410D01*
X57660Y-49274D01*
X57734Y-49096D01*
X57734Y-48904D01*
X57734Y-49700D01*
X56734Y-49700D01*
X56734Y-48904D01*
X56660Y-48726D01*
X56524Y-48589D01*
X56346Y-48515D01*
X56154Y-48515D01*
X55976Y-48589D01*
X55839Y-48725D01*
X55765Y-48903D01*
X55765Y-49095D01*
X55839Y-49273D01*
X55975Y-49410D01*
X56153Y-49484D01*
X56345Y-49484D01*
X56523Y-49410D01*
X56660Y-49274D01*
X56734Y-49096D01*
X56734Y-48904D01*
X56734Y-49700D01*
X55734Y-49700D01*
X55734Y-48904D01*
X55734Y-47904D01*
X55660Y-47726D01*
X55524Y-47589D01*
X55346Y-47515D01*
X55154Y-47515D01*
X54976Y-47589D01*
X54839Y-47725D01*
X54765Y-47903D01*
X54765Y-48095D01*
X54839Y-48273D01*
X54975Y-48410D01*
X55153Y-48484D01*
X55345Y-48484D01*
X55523Y-48410D01*
X55660Y-48274D01*
X55734Y-48096D01*
X55734Y-47904D01*
X55734Y-48904D01*
X55660Y-48726D01*
X55524Y-48589D01*
X55346Y-48515D01*
X55154Y-48515D01*
X54976Y-48589D01*
X54839Y-48725D01*
X54765Y-48903D01*
X54765Y-49095D01*
X54839Y-49273D01*
X54975Y-49410D01*
X55153Y-49484D01*
X55345Y-49484D01*
X55523Y-49410D01*
X55660Y-49274D01*
X55734Y-49096D01*
X55734Y-48904D01*
X55734Y-49700D01*
X54734Y-49700D01*
X54734Y-48904D01*
X54734Y-47904D01*
X54660Y-47726D01*
X54524Y-47589D01*
X54346Y-47515D01*
X54154Y-47515D01*
X53976Y-47589D01*
X53839Y-47725D01*
X53765Y-47903D01*
X53765Y-48095D01*
X53839Y-48273D01*
X53975Y-48410D01*
X54153Y-48484D01*
X54345Y-48484D01*
X54523Y-48410D01*
X54660Y-48274D01*
X54734Y-48096D01*
X54734Y-47904D01*
X54734Y-48904D01*
X54660Y-48726D01*
X54524Y-48589D01*
X54346Y-48515D01*
X54154Y-48515D01*
X53976Y-48589D01*
X53839Y-48725D01*
X53765Y-48903D01*
X53765Y-49095D01*
X53839Y-49273D01*
X53975Y-49410D01*
X54153Y-49484D01*
X54345Y-49484D01*
X54523Y-49410D01*
X54660Y-49274D01*
X54734Y-49096D01*
X54734Y-48904D01*
X54734Y-49700D01*
X53734Y-49700D01*
X53734Y-48904D01*
X53734Y-47904D01*
X53660Y-47726D01*
X53524Y-47589D01*
X53346Y-47515D01*
X53154Y-47515D01*
X52976Y-47589D01*
X52839Y-47725D01*
X52765Y-47903D01*
X52765Y-48095D01*
X52839Y-48273D01*
X52975Y-48410D01*
X53153Y-48484D01*
X53345Y-48484D01*
X53523Y-48410D01*
X53660Y-48274D01*
X53734Y-48096D01*
X53734Y-47904D01*
X53734Y-48904D01*
X53660Y-48726D01*
X53524Y-48589D01*
X53346Y-48515D01*
X53154Y-48515D01*
X52976Y-48589D01*
X52839Y-48725D01*
X52765Y-48903D01*
X52765Y-49095D01*
X52839Y-49273D01*
X52975Y-49410D01*
X53153Y-49484D01*
X53345Y-49484D01*
X53523Y-49410D01*
X53660Y-49274D01*
X53734Y-49096D01*
X53734Y-48904D01*
X53734Y-49700D01*
X52734Y-49700D01*
X52734Y-48904D01*
X52734Y-47904D01*
X52734Y-29904D01*
X52734Y-28904D01*
X52660Y-28726D01*
X52524Y-28589D01*
X52346Y-28515D01*
X52154Y-28515D01*
X51976Y-28589D01*
X51839Y-28725D01*
X51765Y-28903D01*
X51765Y-29095D01*
X51839Y-29273D01*
X51975Y-29410D01*
X52153Y-29484D01*
X52345Y-29484D01*
X52523Y-29410D01*
X52660Y-29274D01*
X52734Y-29096D01*
X52734Y-28904D01*
X52734Y-29904D01*
X52660Y-29726D01*
X52524Y-29589D01*
X52346Y-29515D01*
X52154Y-29515D01*
X51976Y-29589D01*
X51839Y-29725D01*
X51765Y-29903D01*
X51765Y-30095D01*
X51839Y-30273D01*
X51975Y-30410D01*
X52153Y-30484D01*
X52345Y-30484D01*
X52523Y-30410D01*
X52660Y-30274D01*
X52734Y-30096D01*
X52734Y-29904D01*
X52734Y-47904D01*
X52660Y-47726D01*
X52524Y-47589D01*
X52346Y-47515D01*
X52155Y-47515D01*
X52155Y-31939D01*
X52108Y-31827D01*
X52022Y-31741D01*
X51910Y-31695D01*
X51898Y-31695D01*
X51734Y-31530D01*
X51734Y-29904D01*
X51734Y-28904D01*
X51660Y-28726D01*
X51524Y-28589D01*
X51346Y-28515D01*
X51154Y-28515D01*
X50976Y-28589D01*
X50839Y-28725D01*
X50765Y-28903D01*
X50765Y-29095D01*
X50839Y-29273D01*
X50975Y-29410D01*
X51153Y-29484D01*
X51345Y-29484D01*
X51523Y-29410D01*
X51660Y-29274D01*
X51734Y-29096D01*
X51734Y-28904D01*
X51734Y-29904D01*
X51660Y-29726D01*
X51524Y-29589D01*
X51346Y-29515D01*
X51154Y-29515D01*
X50976Y-29589D01*
X50839Y-29725D01*
X50765Y-29903D01*
X50765Y-30095D01*
X50839Y-30273D01*
X50975Y-30410D01*
X51153Y-30484D01*
X51345Y-30484D01*
X51523Y-30410D01*
X51660Y-30274D01*
X51734Y-30096D01*
X51734Y-29904D01*
X51734Y-31530D01*
X51376Y-31173D01*
X51295Y-31119D01*
X51200Y-31100D01*
X50734Y-31100D01*
X50734Y-29904D01*
X50734Y-28904D01*
X50660Y-28726D01*
X50524Y-28589D01*
X50346Y-28515D01*
X50154Y-28515D01*
X49976Y-28589D01*
X49839Y-28725D01*
X49765Y-28903D01*
X49765Y-29095D01*
X49839Y-29273D01*
X49975Y-29410D01*
X50153Y-29484D01*
X50345Y-29484D01*
X50523Y-29410D01*
X50660Y-29274D01*
X50734Y-29096D01*
X50734Y-28904D01*
X50734Y-29904D01*
X50660Y-29726D01*
X50524Y-29589D01*
X50346Y-29515D01*
X50154Y-29515D01*
X49976Y-29589D01*
X49839Y-29725D01*
X49765Y-29903D01*
X49765Y-30095D01*
X49839Y-30273D01*
X49975Y-30410D01*
X50153Y-30484D01*
X50345Y-30484D01*
X50523Y-30410D01*
X50660Y-30274D01*
X50734Y-30096D01*
X50734Y-29904D01*
X50734Y-31100D01*
X49734Y-31100D01*
X49734Y-29904D01*
X49734Y-28904D01*
X49660Y-28726D01*
X49524Y-28589D01*
X49346Y-28515D01*
X49154Y-28515D01*
X48976Y-28589D01*
X48839Y-28725D01*
X48765Y-28903D01*
X48765Y-29095D01*
X48839Y-29273D01*
X48975Y-29410D01*
X49153Y-29484D01*
X49345Y-29484D01*
X49523Y-29410D01*
X49660Y-29274D01*
X49734Y-29096D01*
X49734Y-28904D01*
X49734Y-29904D01*
X49660Y-29726D01*
X49524Y-29589D01*
X49346Y-29515D01*
X49154Y-29515D01*
X48976Y-29589D01*
X48839Y-29725D01*
X48765Y-29903D01*
X48765Y-30095D01*
X48839Y-30273D01*
X48975Y-30410D01*
X49153Y-30484D01*
X49345Y-30484D01*
X49523Y-30410D01*
X49660Y-30274D01*
X49734Y-30096D01*
X49734Y-29904D01*
X49734Y-31100D01*
X48734Y-31100D01*
X48734Y-29904D01*
X48734Y-28904D01*
X48660Y-28726D01*
X48524Y-28589D01*
X48346Y-28515D01*
X48154Y-28515D01*
X47976Y-28589D01*
X47839Y-28725D01*
X47817Y-28778D01*
X47776Y-28679D01*
X47675Y-28645D01*
X47604Y-28716D01*
X47604Y-28574D01*
X47570Y-28473D01*
X47344Y-28391D01*
X47104Y-28401D01*
X46929Y-28473D01*
X46895Y-28574D01*
X47250Y-28929D01*
X47604Y-28574D01*
X47604Y-28716D01*
X47320Y-29000D01*
X47675Y-29354D01*
X47776Y-29320D01*
X47814Y-29215D01*
X47839Y-29273D01*
X47975Y-29410D01*
X48153Y-29484D01*
X48345Y-29484D01*
X48523Y-29410D01*
X48660Y-29274D01*
X48734Y-29096D01*
X48734Y-28904D01*
X48734Y-29904D01*
X48660Y-29726D01*
X48524Y-29589D01*
X48346Y-29515D01*
X48154Y-29515D01*
X47976Y-29589D01*
X47839Y-29725D01*
X47817Y-29778D01*
X47776Y-29679D01*
X47675Y-29645D01*
X47604Y-29716D01*
X47604Y-29574D01*
X47579Y-29500D01*
X47604Y-29425D01*
X47250Y-29070D01*
X47179Y-29141D01*
X47179Y-29000D01*
X46824Y-28645D01*
X46750Y-28670D01*
X46675Y-28645D01*
X46320Y-29000D01*
X46675Y-29354D01*
X46750Y-29329D01*
X46824Y-29354D01*
X47179Y-29000D01*
X47179Y-29141D01*
X46895Y-29425D01*
X46920Y-29500D01*
X46895Y-29574D01*
X47250Y-29929D01*
X47604Y-29574D01*
X47604Y-29716D01*
X47320Y-30000D01*
X47675Y-30354D01*
X47776Y-30320D01*
X47814Y-30215D01*
X47839Y-30273D01*
X47975Y-30410D01*
X48153Y-30484D01*
X48345Y-30484D01*
X48523Y-30410D01*
X48660Y-30274D01*
X48734Y-30096D01*
X48734Y-29904D01*
X48734Y-31100D01*
X47800Y-31100D01*
X47704Y-31119D01*
X47671Y-31140D01*
X47623Y-31173D01*
X47623Y-31173D01*
X47601Y-31195D01*
X47399Y-31195D01*
X47351Y-31214D01*
X47315Y-31251D01*
X47295Y-31205D01*
X47310Y-31205D01*
X47422Y-31158D01*
X47508Y-31072D01*
X47554Y-30960D01*
X47555Y-30839D01*
X47508Y-30727D01*
X47422Y-30641D01*
X47326Y-30601D01*
X47395Y-30598D01*
X47570Y-30526D01*
X47604Y-30425D01*
X47250Y-30070D01*
X47244Y-30076D01*
X47173Y-30005D01*
X47179Y-30000D01*
X46824Y-29645D01*
X46750Y-29670D01*
X46675Y-29645D01*
X46604Y-29716D01*
X46604Y-29574D01*
X46579Y-29500D01*
X46604Y-29425D01*
X46250Y-29070D01*
X46179Y-29141D01*
X46179Y-29000D01*
X45824Y-28645D01*
X45723Y-28679D01*
X45641Y-28905D01*
X45651Y-29145D01*
X45723Y-29320D01*
X45824Y-29354D01*
X46179Y-29000D01*
X46179Y-29141D01*
X45895Y-29425D01*
X45920Y-29500D01*
X45895Y-29574D01*
X46250Y-29929D01*
X46604Y-29574D01*
X46604Y-29716D01*
X46320Y-30000D01*
X46326Y-30005D01*
X46255Y-30076D01*
X46250Y-30070D01*
X46179Y-30141D01*
X46179Y-30000D01*
X45824Y-29645D01*
X45723Y-29679D01*
X45641Y-29905D01*
X45651Y-30145D01*
X45723Y-30320D01*
X45824Y-30354D01*
X46179Y-30000D01*
X46179Y-30141D01*
X45895Y-30425D01*
X45929Y-30526D01*
X46155Y-30608D01*
X46329Y-30601D01*
X46221Y-30710D01*
X46100Y-30710D01*
X46027Y-30724D01*
X45965Y-30765D01*
X45965Y-30765D01*
X45400Y-31330D01*
X45400Y-30974D01*
X45399Y-30517D01*
X45227Y-30101D01*
X45069Y-30001D01*
X44998Y-30071D01*
X44320Y-30750D01*
X45069Y-31498D01*
X45227Y-31398D01*
X45400Y-30974D01*
X45400Y-31330D01*
X44998Y-31732D01*
X44998Y-31569D01*
X44250Y-30820D01*
X43501Y-31569D01*
X43601Y-31727D01*
X44025Y-31900D01*
X44482Y-31899D01*
X44898Y-31727D01*
X44998Y-31569D01*
X44998Y-31732D01*
X44661Y-32070D01*
X44449Y-32070D01*
X44401Y-32089D01*
X44364Y-32126D01*
X44361Y-32135D01*
X44361Y-32135D01*
X44315Y-32165D01*
X44315Y-32165D01*
X44115Y-32365D01*
X44074Y-32427D01*
X44060Y-32500D01*
X44060Y-34550D01*
X44074Y-34622D01*
X44115Y-34684D01*
X44815Y-35384D01*
X44877Y-35425D01*
X44950Y-35440D01*
X44950Y-35440D01*
X44950Y-35440D01*
X45345Y-35440D01*
X45345Y-35500D01*
X45364Y-35548D01*
X45401Y-35585D01*
X45449Y-35605D01*
X45500Y-35605D01*
X45750Y-35605D01*
X45798Y-35585D01*
X45835Y-35548D01*
X45855Y-35500D01*
X45855Y-35449D01*
X45855Y-34999D01*
X45835Y-34951D01*
X45798Y-34914D01*
X45750Y-34895D01*
X45699Y-34895D01*
X45449Y-34895D01*
X45401Y-34914D01*
X45364Y-34951D01*
X45345Y-34999D01*
X45345Y-35050D01*
X45345Y-35060D01*
X45175Y-35060D01*
X45175Y-33949D01*
X45175Y-33912D01*
X45175Y-33687D01*
X45175Y-33650D01*
X45136Y-33558D01*
X45128Y-33550D01*
X45136Y-33541D01*
X45175Y-33449D01*
X45175Y-33412D01*
X45112Y-33350D01*
X44750Y-33350D01*
X44750Y-33512D01*
X44750Y-33587D01*
X44750Y-33750D01*
X45112Y-33750D01*
X45175Y-33687D01*
X45175Y-33912D01*
X45112Y-33850D01*
X44750Y-33850D01*
X44750Y-34087D01*
X44812Y-34150D01*
X44875Y-34150D01*
X44974Y-34150D01*
X45066Y-34111D01*
X45136Y-34041D01*
X45175Y-33949D01*
X45175Y-35060D01*
X45028Y-35060D01*
X44440Y-34471D01*
X44440Y-34150D01*
X44524Y-34150D01*
X44587Y-34150D01*
X44650Y-34087D01*
X44650Y-33850D01*
X44642Y-33850D01*
X44642Y-33750D01*
X44650Y-33750D01*
X44650Y-33587D01*
X44650Y-33512D01*
X44650Y-33350D01*
X44642Y-33350D01*
X44642Y-33250D01*
X44650Y-33250D01*
X44650Y-33242D01*
X44750Y-33242D01*
X44750Y-33250D01*
X45112Y-33250D01*
X45146Y-33215D01*
X45410Y-33478D01*
X45410Y-34161D01*
X45401Y-34164D01*
X45364Y-34201D01*
X45345Y-34249D01*
X45345Y-34300D01*
X45345Y-34750D01*
X45364Y-34798D01*
X45401Y-34835D01*
X45449Y-34855D01*
X45500Y-34855D01*
X45750Y-34855D01*
X45798Y-34835D01*
X45835Y-34798D01*
X45855Y-34750D01*
X45855Y-34699D01*
X45855Y-34249D01*
X45835Y-34201D01*
X45798Y-34164D01*
X45790Y-34161D01*
X45790Y-33400D01*
X45775Y-33327D01*
X45734Y-33265D01*
X45734Y-33265D01*
X45193Y-32724D01*
X46575Y-31343D01*
X46575Y-31374D01*
X46575Y-31437D01*
X46637Y-31500D01*
X46900Y-31500D01*
X46900Y-31492D01*
X47000Y-31492D01*
X47000Y-31500D01*
X47007Y-31500D01*
X47007Y-31600D01*
X47000Y-31600D01*
X47000Y-31849D01*
X46990Y-31900D01*
X46990Y-32070D01*
X46949Y-32070D01*
X46901Y-32089D01*
X46900Y-32091D01*
X46900Y-31962D01*
X46900Y-31600D01*
X46637Y-31600D01*
X46575Y-31662D01*
X46575Y-31725D01*
X46575Y-31824D01*
X46613Y-31916D01*
X46683Y-31986D01*
X46775Y-32025D01*
X46837Y-32025D01*
X46900Y-31962D01*
X46900Y-32091D01*
X46864Y-32126D01*
X46859Y-32140D01*
X46550Y-32140D01*
X46469Y-32155D01*
X46401Y-32201D01*
X46051Y-32551D01*
X46005Y-32619D01*
X45990Y-32700D01*
X45990Y-34176D01*
X45964Y-34201D01*
X45945Y-34249D01*
X45945Y-34300D01*
X45945Y-34750D01*
X45964Y-34798D01*
X45990Y-34823D01*
X45990Y-34926D01*
X45964Y-34951D01*
X45945Y-34999D01*
X45945Y-35050D01*
X45945Y-35500D01*
X45964Y-35548D01*
X46001Y-35585D01*
X46049Y-35605D01*
X46100Y-35605D01*
X46350Y-35605D01*
X46398Y-35585D01*
X46435Y-35548D01*
X46455Y-35500D01*
X46455Y-35449D01*
X46455Y-34999D01*
X46435Y-34951D01*
X46410Y-34926D01*
X46410Y-34823D01*
X46435Y-34798D01*
X46455Y-34750D01*
X46455Y-34699D01*
X46455Y-34249D01*
X46435Y-34201D01*
X46410Y-34176D01*
X46410Y-32786D01*
X46636Y-32560D01*
X46762Y-32560D01*
X46725Y-32650D01*
X46725Y-32687D01*
X46787Y-32750D01*
X47150Y-32750D01*
X47150Y-32742D01*
X47250Y-32742D01*
X47250Y-32750D01*
X47612Y-32750D01*
X47675Y-32687D01*
X47675Y-32650D01*
X47636Y-32558D01*
X47566Y-32488D01*
X47534Y-32474D01*
X47535Y-32473D01*
X47555Y-32425D01*
X47555Y-32374D01*
X47555Y-32174D01*
X47535Y-32126D01*
X47498Y-32089D01*
X47450Y-32070D01*
X47410Y-32070D01*
X47410Y-31986D01*
X47491Y-31905D01*
X47700Y-31905D01*
X47748Y-31885D01*
X47785Y-31848D01*
X47805Y-31800D01*
X47805Y-31749D01*
X47805Y-31698D01*
X47903Y-31600D01*
X49368Y-31600D01*
X49341Y-31627D01*
X49295Y-31739D01*
X49294Y-31860D01*
X49340Y-31970D01*
X49174Y-31970D01*
X49126Y-31989D01*
X49089Y-32026D01*
X49072Y-32068D01*
X49005Y-32001D01*
X49005Y-31849D01*
X48985Y-31801D01*
X48948Y-31764D01*
X48900Y-31745D01*
X48849Y-31745D01*
X48599Y-31745D01*
X48551Y-31764D01*
X48514Y-31801D01*
X48495Y-31849D01*
X48495Y-31900D01*
X48495Y-32350D01*
X48514Y-32398D01*
X48551Y-32435D01*
X48599Y-32455D01*
X48650Y-32455D01*
X48751Y-32455D01*
X48873Y-32576D01*
X48954Y-32630D01*
X49050Y-32650D01*
X49070Y-32650D01*
X49070Y-32725D01*
X49089Y-32773D01*
X49126Y-32810D01*
X49174Y-32830D01*
X49225Y-32830D01*
X50025Y-32830D01*
X50073Y-32810D01*
X50110Y-32773D01*
X50130Y-32725D01*
X50130Y-32674D01*
X50130Y-32074D01*
X50110Y-32026D01*
X50073Y-31989D01*
X50025Y-31970D01*
X49974Y-31970D01*
X49859Y-31970D01*
X49904Y-31860D01*
X49905Y-31739D01*
X49858Y-31627D01*
X49831Y-31600D01*
X51096Y-31600D01*
X51544Y-32048D01*
X51544Y-32060D01*
X51591Y-32172D01*
X51677Y-32258D01*
X51789Y-32304D01*
X51910Y-32305D01*
X52022Y-32258D01*
X52108Y-32172D01*
X52154Y-32060D01*
X52155Y-31939D01*
X52155Y-47515D01*
X52154Y-47515D01*
X51976Y-47589D01*
X51839Y-47725D01*
X51765Y-47903D01*
X51765Y-48095D01*
X51839Y-48273D01*
X51975Y-48410D01*
X52153Y-48484D01*
X52345Y-48484D01*
X52523Y-48410D01*
X52660Y-48274D01*
X52734Y-48096D01*
X52734Y-47904D01*
X52734Y-48904D01*
X52660Y-48726D01*
X52524Y-48589D01*
X52346Y-48515D01*
X52154Y-48515D01*
X51976Y-48589D01*
X51839Y-48725D01*
X51765Y-48903D01*
X51765Y-49095D01*
X51839Y-49273D01*
X51975Y-49410D01*
X52153Y-49484D01*
X52345Y-49484D01*
X52523Y-49410D01*
X52660Y-49274D01*
X52734Y-49096D01*
X52734Y-48904D01*
X52734Y-49700D01*
X51734Y-49700D01*
X51734Y-48904D01*
X51734Y-47904D01*
X51660Y-47726D01*
X51524Y-47589D01*
X51346Y-47515D01*
X51154Y-47515D01*
X51100Y-47537D01*
X51100Y-41150D01*
X51100Y-41149D01*
X51100Y-40150D01*
X51080Y-40054D01*
X51080Y-40054D01*
X51026Y-39973D01*
X50653Y-39600D01*
X51026Y-39226D01*
X51080Y-39145D01*
X51080Y-39145D01*
X51100Y-39050D01*
X51100Y-37900D01*
X51080Y-37804D01*
X51026Y-37723D01*
X50703Y-37400D01*
X51026Y-37076D01*
X51080Y-36995D01*
X51100Y-36900D01*
X51100Y-35750D01*
X51080Y-35654D01*
X51080Y-35654D01*
X51026Y-35573D01*
X50476Y-35023D01*
X50395Y-34969D01*
X50300Y-34950D01*
X50247Y-34950D01*
X50212Y-34898D01*
X50074Y-34805D01*
X49911Y-34773D01*
X49850Y-34773D01*
X49850Y-34130D01*
X50025Y-34130D01*
X50073Y-34110D01*
X50110Y-34073D01*
X50130Y-34025D01*
X50130Y-33974D01*
X50130Y-33374D01*
X50110Y-33326D01*
X50073Y-33289D01*
X50025Y-33270D01*
X49974Y-33270D01*
X49174Y-33270D01*
X49126Y-33289D01*
X49089Y-33326D01*
X49070Y-33374D01*
X49070Y-33425D01*
X49070Y-33750D01*
X49005Y-33750D01*
X49005Y-33749D01*
X48985Y-33701D01*
X48948Y-33664D01*
X48900Y-33645D01*
X48849Y-33645D01*
X48599Y-33645D01*
X48551Y-33664D01*
X48514Y-33701D01*
X48505Y-33724D01*
X48505Y-33500D01*
X48505Y-33449D01*
X48505Y-33199D01*
X48485Y-33151D01*
X48448Y-33114D01*
X48400Y-33095D01*
X48349Y-33095D01*
X48101Y-33095D01*
X48191Y-33005D01*
X48400Y-33005D01*
X48448Y-32985D01*
X48485Y-32948D01*
X48505Y-32900D01*
X48505Y-32849D01*
X48505Y-32599D01*
X48485Y-32551D01*
X48448Y-32514D01*
X48400Y-32495D01*
X48400Y-32495D01*
X48400Y-32362D01*
X48405Y-32350D01*
X48405Y-32299D01*
X48405Y-31849D01*
X48385Y-31801D01*
X48348Y-31764D01*
X48300Y-31745D01*
X48249Y-31745D01*
X47999Y-31745D01*
X47951Y-31764D01*
X47914Y-31801D01*
X47895Y-31849D01*
X47895Y-31900D01*
X47895Y-32350D01*
X47900Y-32362D01*
X47900Y-32495D01*
X47899Y-32495D01*
X47851Y-32514D01*
X47814Y-32551D01*
X47795Y-32599D01*
X47795Y-32650D01*
X47795Y-32808D01*
X47675Y-32928D01*
X47675Y-32912D01*
X47612Y-32850D01*
X47250Y-32850D01*
X47250Y-32857D01*
X47150Y-32857D01*
X47150Y-32850D01*
X46787Y-32850D01*
X46725Y-32912D01*
X46725Y-32949D01*
X46763Y-33041D01*
X46833Y-33111D01*
X46865Y-33125D01*
X46864Y-33126D01*
X46845Y-33174D01*
X46845Y-33225D01*
X46845Y-33425D01*
X46864Y-33473D01*
X46901Y-33510D01*
X46949Y-33530D01*
X47000Y-33530D01*
X47450Y-33530D01*
X47498Y-33510D01*
X47498Y-33510D01*
X47600Y-33510D01*
X47680Y-33494D01*
X47748Y-33448D01*
X47795Y-33401D01*
X47795Y-33500D01*
X47814Y-33548D01*
X47851Y-33585D01*
X47862Y-33590D01*
X47498Y-33590D01*
X47498Y-33589D01*
X47450Y-33570D01*
X47399Y-33570D01*
X46949Y-33570D01*
X46901Y-33589D01*
X46864Y-33626D01*
X46845Y-33674D01*
X46845Y-33725D01*
X46845Y-33925D01*
X46864Y-33973D01*
X46901Y-34010D01*
X46949Y-34030D01*
X47000Y-34030D01*
X47450Y-34030D01*
X47498Y-34010D01*
X47498Y-34010D01*
X47863Y-34010D01*
X47895Y-34041D01*
X47895Y-34250D01*
X47914Y-34298D01*
X47951Y-34335D01*
X47999Y-34355D01*
X48050Y-34355D01*
X48300Y-34355D01*
X48348Y-34335D01*
X48385Y-34298D01*
X48405Y-34250D01*
X48405Y-34199D01*
X48405Y-33749D01*
X48400Y-33737D01*
X48400Y-33605D01*
X48400Y-33605D01*
X48448Y-33585D01*
X48485Y-33548D01*
X48505Y-33500D01*
X48505Y-33724D01*
X48495Y-33749D01*
X48495Y-33800D01*
X48495Y-34250D01*
X48514Y-34298D01*
X48551Y-34335D01*
X48599Y-34355D01*
X48650Y-34355D01*
X48900Y-34355D01*
X48948Y-34335D01*
X48985Y-34298D01*
X49005Y-34250D01*
X49005Y-34250D01*
X49300Y-34250D01*
X49350Y-34240D01*
X49350Y-34773D01*
X49288Y-34773D01*
X49125Y-34805D01*
X48987Y-34898D01*
X48894Y-35036D01*
X48862Y-35200D01*
X48894Y-35363D01*
X48987Y-35501D01*
X49125Y-35594D01*
X49288Y-35626D01*
X49911Y-35626D01*
X50074Y-35594D01*
X50212Y-35501D01*
X50226Y-35480D01*
X50600Y-35853D01*
X50600Y-36796D01*
X50246Y-37149D01*
X50212Y-37098D01*
X50074Y-37005D01*
X49911Y-36973D01*
X49288Y-36973D01*
X49125Y-37005D01*
X48987Y-37098D01*
X48894Y-37236D01*
X48862Y-37400D01*
X48894Y-37563D01*
X48987Y-37701D01*
X49125Y-37794D01*
X49288Y-37826D01*
X49911Y-37826D01*
X50074Y-37794D01*
X50212Y-37701D01*
X50246Y-37650D01*
X50600Y-38003D01*
X50600Y-38946D01*
X50226Y-39319D01*
X50212Y-39298D01*
X50074Y-39205D01*
X49911Y-39173D01*
X49288Y-39173D01*
X49125Y-39205D01*
X48987Y-39298D01*
X48894Y-39436D01*
X48862Y-39600D01*
X48894Y-39763D01*
X48987Y-39901D01*
X49125Y-39994D01*
X49288Y-40026D01*
X49911Y-40026D01*
X50074Y-39994D01*
X50212Y-39901D01*
X50226Y-39880D01*
X50600Y-40253D01*
X50600Y-41046D01*
X50173Y-41472D01*
X50074Y-41405D01*
X49911Y-41373D01*
X49288Y-41373D01*
X49125Y-41405D01*
X48987Y-41498D01*
X48894Y-41636D01*
X48862Y-41800D01*
X48894Y-41963D01*
X48987Y-42101D01*
X49125Y-42194D01*
X49288Y-42226D01*
X49911Y-42226D01*
X50074Y-42194D01*
X50212Y-42101D01*
X50254Y-42039D01*
X50295Y-42030D01*
X50376Y-41976D01*
X51026Y-41326D01*
X51080Y-41245D01*
X51100Y-41150D01*
X51100Y-41150D01*
X51100Y-47537D01*
X50976Y-47589D01*
X50839Y-47725D01*
X50765Y-47903D01*
X50765Y-48095D01*
X50839Y-48273D01*
X50975Y-48410D01*
X51153Y-48484D01*
X51345Y-48484D01*
X51523Y-48410D01*
X51660Y-48274D01*
X51734Y-48096D01*
X51734Y-47904D01*
X51734Y-48904D01*
X51660Y-48726D01*
X51524Y-48589D01*
X51346Y-48515D01*
X51154Y-48515D01*
X50976Y-48589D01*
X50839Y-48725D01*
X50765Y-48903D01*
X50765Y-49095D01*
X50839Y-49273D01*
X50975Y-49410D01*
X51153Y-49484D01*
X51345Y-49484D01*
X51523Y-49410D01*
X51660Y-49274D01*
X51734Y-49096D01*
X51734Y-48904D01*
X51734Y-49700D01*
X50734Y-49700D01*
X50734Y-48904D01*
X50734Y-47904D01*
X50660Y-47726D01*
X50524Y-47589D01*
X50346Y-47515D01*
X50337Y-47515D01*
X50337Y-42800D01*
X50305Y-42636D01*
X50212Y-42498D01*
X50074Y-42405D01*
X49911Y-42373D01*
X49288Y-42373D01*
X49125Y-42405D01*
X48996Y-42492D01*
X48600Y-42096D01*
X48600Y-41203D01*
X48953Y-40850D01*
X48987Y-40901D01*
X49125Y-40994D01*
X49288Y-41026D01*
X49911Y-41026D01*
X50074Y-40994D01*
X50212Y-40901D01*
X50305Y-40763D01*
X50337Y-40600D01*
X50305Y-40436D01*
X50212Y-40298D01*
X50074Y-40205D01*
X49911Y-40173D01*
X49288Y-40173D01*
X49125Y-40205D01*
X48987Y-40298D01*
X48953Y-40349D01*
X48600Y-39996D01*
X48600Y-39003D01*
X48953Y-38650D01*
X48987Y-38701D01*
X49125Y-38794D01*
X49288Y-38826D01*
X49911Y-38826D01*
X50074Y-38794D01*
X50212Y-38701D01*
X50305Y-38563D01*
X50337Y-38400D01*
X50305Y-38236D01*
X50212Y-38098D01*
X50074Y-38005D01*
X49911Y-37973D01*
X49288Y-37973D01*
X49125Y-38005D01*
X48987Y-38098D01*
X48973Y-38119D01*
X48600Y-37746D01*
X48600Y-36803D01*
X48953Y-36450D01*
X48987Y-36501D01*
X49125Y-36594D01*
X49288Y-36626D01*
X49911Y-36626D01*
X50074Y-36594D01*
X50212Y-36501D01*
X50305Y-36363D01*
X50337Y-36200D01*
X50305Y-36036D01*
X50212Y-35898D01*
X50074Y-35805D01*
X49911Y-35773D01*
X49288Y-35773D01*
X49125Y-35805D01*
X48987Y-35898D01*
X48952Y-35950D01*
X48850Y-35950D01*
X48754Y-35969D01*
X48673Y-36023D01*
X48173Y-36523D01*
X48119Y-36604D01*
X48100Y-36700D01*
X48100Y-37850D01*
X48119Y-37945D01*
X48173Y-38026D01*
X48521Y-38375D01*
X48173Y-38723D01*
X48119Y-38804D01*
X48100Y-38900D01*
X48100Y-40100D01*
X48119Y-40195D01*
X48173Y-40276D01*
X48496Y-40600D01*
X48173Y-40923D01*
X48119Y-41004D01*
X48100Y-41100D01*
X48100Y-42200D01*
X48119Y-42295D01*
X48173Y-42376D01*
X48773Y-42976D01*
X48773Y-42976D01*
X48821Y-43009D01*
X48854Y-43030D01*
X48854Y-43030D01*
X48950Y-43050D01*
X48952Y-43050D01*
X48987Y-43101D01*
X49125Y-43194D01*
X49288Y-43226D01*
X49911Y-43226D01*
X50074Y-43194D01*
X50212Y-43101D01*
X50305Y-42963D01*
X50337Y-42800D01*
X50337Y-47515D01*
X50154Y-47515D01*
X49976Y-47589D01*
X49839Y-47725D01*
X49765Y-47903D01*
X49765Y-48095D01*
X49839Y-48273D01*
X49975Y-48410D01*
X50153Y-48484D01*
X50345Y-48484D01*
X50523Y-48410D01*
X50660Y-48274D01*
X50734Y-48096D01*
X50734Y-47904D01*
X50734Y-48904D01*
X50660Y-48726D01*
X50524Y-48589D01*
X50346Y-48515D01*
X50154Y-48515D01*
X49976Y-48589D01*
X49839Y-48725D01*
X49765Y-48903D01*
X49765Y-49095D01*
X49839Y-49273D01*
X49975Y-49410D01*
X50153Y-49484D01*
X50345Y-49484D01*
X50523Y-49410D01*
X50660Y-49274D01*
X50734Y-49096D01*
X50734Y-48904D01*
X50734Y-49700D01*
X49734Y-49700D01*
X49734Y-48904D01*
X49734Y-47904D01*
X49660Y-47726D01*
X49524Y-47589D01*
X49346Y-47515D01*
X49154Y-47515D01*
X48976Y-47589D01*
X48839Y-47725D01*
X48765Y-47903D01*
X48765Y-48095D01*
X48839Y-48273D01*
X48975Y-48410D01*
X49153Y-48484D01*
X49345Y-48484D01*
X49523Y-48410D01*
X49660Y-48274D01*
X49734Y-48096D01*
X49734Y-47904D01*
X49734Y-48904D01*
X49660Y-48726D01*
X49524Y-48589D01*
X49346Y-48515D01*
X49154Y-48515D01*
X48976Y-48589D01*
X48839Y-48725D01*
X48765Y-48903D01*
X48765Y-49095D01*
X48839Y-49273D01*
X48975Y-49410D01*
X49153Y-49484D01*
X49345Y-49484D01*
X49523Y-49410D01*
X49660Y-49274D01*
X49734Y-49096D01*
X49734Y-48904D01*
X49734Y-49700D01*
X48734Y-49700D01*
X48734Y-48904D01*
X48734Y-47904D01*
X48660Y-47726D01*
X48524Y-47589D01*
X48346Y-47515D01*
X48154Y-47515D01*
X47976Y-47589D01*
X47839Y-47725D01*
X47765Y-47903D01*
X47765Y-48095D01*
X47839Y-48273D01*
X47975Y-48410D01*
X48153Y-48484D01*
X48345Y-48484D01*
X48523Y-48410D01*
X48660Y-48274D01*
X48734Y-48096D01*
X48734Y-47904D01*
X48734Y-48904D01*
X48660Y-48726D01*
X48524Y-48589D01*
X48346Y-48515D01*
X48154Y-48515D01*
X47976Y-48589D01*
X47839Y-48725D01*
X47765Y-48903D01*
X47765Y-49095D01*
X47839Y-49273D01*
X47975Y-49410D01*
X48153Y-49484D01*
X48345Y-49484D01*
X48523Y-49410D01*
X48660Y-49274D01*
X48734Y-49096D01*
X48734Y-48904D01*
X48734Y-49700D01*
X47734Y-49700D01*
X47734Y-48904D01*
X47734Y-47904D01*
X47660Y-47726D01*
X47524Y-47589D01*
X47346Y-47515D01*
X47154Y-47515D01*
X46976Y-47589D01*
X46839Y-47725D01*
X46765Y-47903D01*
X46765Y-48095D01*
X46839Y-48273D01*
X46975Y-48410D01*
X47153Y-48484D01*
X47345Y-48484D01*
X47523Y-48410D01*
X47660Y-48274D01*
X47734Y-48096D01*
X47734Y-47904D01*
X47734Y-48904D01*
X47660Y-48726D01*
X47524Y-48589D01*
X47346Y-48515D01*
X47154Y-48515D01*
X46976Y-48589D01*
X46839Y-48725D01*
X46765Y-48903D01*
X46765Y-49095D01*
X46839Y-49273D01*
X46975Y-49410D01*
X47153Y-49484D01*
X47345Y-49484D01*
X47523Y-49410D01*
X47660Y-49274D01*
X47734Y-49096D01*
X47734Y-48904D01*
X47734Y-49700D01*
X47005Y-49700D01*
X46734Y-49638D01*
X46734Y-48904D01*
X46734Y-47904D01*
X46660Y-47726D01*
X46524Y-47589D01*
X46346Y-47515D01*
X46154Y-47515D01*
X45976Y-47589D01*
X45839Y-47725D01*
X45765Y-47903D01*
X45765Y-48095D01*
X45839Y-48273D01*
X45975Y-48410D01*
X46153Y-48484D01*
X46345Y-48484D01*
X46523Y-48410D01*
X46660Y-48274D01*
X46734Y-48096D01*
X46734Y-47904D01*
X46734Y-48904D01*
X46660Y-48726D01*
X46524Y-48589D01*
X46346Y-48515D01*
X46154Y-48515D01*
X45976Y-48589D01*
X45839Y-48725D01*
X45765Y-48903D01*
X45765Y-49095D01*
X45839Y-49273D01*
X45975Y-49410D01*
X46153Y-49484D01*
X46345Y-49484D01*
X46523Y-49410D01*
X46660Y-49274D01*
X46734Y-49096D01*
X46734Y-48904D01*
X46734Y-49638D01*
X45400Y-49335D01*
X45400Y-47474D01*
X45399Y-47017D01*
X45227Y-46601D01*
X45069Y-46501D01*
X44998Y-46571D01*
X44998Y-46430D01*
X44898Y-46272D01*
X44474Y-46099D01*
X44017Y-46100D01*
X43601Y-46272D01*
X43501Y-46430D01*
X44250Y-47179D01*
X44998Y-46430D01*
X44998Y-46571D01*
X44320Y-47250D01*
X45069Y-47998D01*
X45227Y-47898D01*
X45400Y-47474D01*
X45400Y-49335D01*
X44998Y-49243D01*
X44998Y-48069D01*
X44250Y-47320D01*
X44179Y-47391D01*
X44179Y-47250D01*
X43430Y-46501D01*
X43272Y-46601D01*
X43099Y-47025D01*
X43100Y-47482D01*
X43272Y-47898D01*
X43430Y-47998D01*
X44179Y-47250D01*
X44179Y-47391D01*
X43501Y-48069D01*
X43601Y-48227D01*
X44025Y-48400D01*
X44482Y-48399D01*
X44898Y-48227D01*
X44998Y-48069D01*
X44998Y-49243D01*
X44820Y-49203D01*
X43436Y-48214D01*
X42447Y-46680D01*
X42050Y-44695D01*
X42050Y-33305D01*
X42546Y-31071D01*
X43245Y-30168D01*
X43099Y-30525D01*
X43100Y-30982D01*
X43272Y-31398D01*
X43430Y-31498D01*
X44179Y-30750D01*
X44173Y-30744D01*
X44244Y-30673D01*
X44250Y-30679D01*
X44998Y-29930D01*
X44898Y-29772D01*
X44474Y-29599D01*
X44017Y-29600D01*
X43601Y-29772D01*
X43501Y-29930D01*
X43461Y-29890D01*
X43734Y-29537D01*
X45168Y-28647D01*
X45918Y-28505D01*
X45895Y-28574D01*
X46250Y-28929D01*
X46604Y-28574D01*
X46570Y-28473D01*
X46405Y-28413D01*
X47004Y-28300D01*
X73445Y-28300D01*
X74430Y-28497D01*
X75312Y-29085D01*
X75802Y-29917D01*
X75950Y-30754D01*
X75950Y-36450D01*
M02*
