G04 (created by PCBNEW (2013-09-06 BZR 4312)-stable) date T 02 sept  2014 10:39:25 EEST*
%MOIN*%
G04 Gerber Fmt 3.4, Leading zero omitted, Abs format*
%FSLAX34Y34*%
G01*
G70*
G90*
G04 APERTURE LIST*
%ADD10C,0.000787*%
%ADD11C,0.180000*%
%ADD12R,0.070866X0.070866*%
%ADD13C,0.070866*%
%ADD14R,0.025000X0.045000*%
%ADD15O,0.118700X0.059300*%
%ADD16R,0.060000X0.060000*%
%ADD17C,0.060000*%
%ADD18R,0.045000X0.020000*%
%ADD19R,0.045000X0.025000*%
%ADD20R,0.080000X0.060000*%
%ADD21C,0.035000*%
G04 APERTURE END LIST*
G54D10*
G54D11*
X44250Y-30750D03*
X70250Y-29500D03*
X70250Y-48500D03*
X44250Y-47250D03*
G54D12*
X68250Y-29000D03*
G54D13*
X68250Y-30000D03*
X67250Y-29000D03*
X67250Y-30000D03*
X66250Y-29000D03*
X66250Y-30000D03*
X65250Y-29000D03*
X65250Y-30000D03*
X64250Y-29000D03*
X64250Y-30000D03*
X63250Y-29000D03*
X63250Y-30000D03*
X62250Y-29000D03*
X62250Y-30000D03*
X61250Y-29000D03*
X61250Y-30000D03*
X60250Y-29000D03*
X60250Y-30000D03*
X59250Y-29000D03*
X59250Y-30000D03*
X58250Y-29000D03*
X58250Y-30000D03*
X57250Y-29000D03*
X57250Y-30000D03*
X56250Y-29000D03*
X56250Y-30000D03*
X55250Y-29000D03*
X55250Y-30000D03*
X54250Y-29000D03*
X54250Y-30000D03*
X53250Y-29000D03*
X53250Y-30000D03*
X52250Y-29000D03*
X52250Y-30000D03*
X51250Y-29000D03*
X51250Y-30000D03*
X50250Y-29000D03*
X50250Y-30000D03*
X49250Y-29000D03*
X49250Y-30000D03*
X48250Y-29000D03*
X48250Y-30000D03*
X47250Y-29000D03*
X47250Y-30000D03*
X46250Y-29000D03*
X46250Y-30000D03*
G54D12*
X68250Y-48000D03*
G54D13*
X68250Y-49000D03*
X67250Y-48000D03*
X67250Y-49000D03*
X66250Y-48000D03*
X66250Y-49000D03*
X65250Y-48000D03*
X65250Y-49000D03*
X64250Y-48000D03*
X64250Y-49000D03*
X63250Y-48000D03*
X63250Y-49000D03*
X62250Y-48000D03*
X62250Y-49000D03*
X61250Y-48000D03*
X61250Y-49000D03*
X60250Y-48000D03*
X60250Y-49000D03*
X59250Y-48000D03*
X59250Y-49000D03*
X58250Y-48000D03*
X58250Y-49000D03*
X57250Y-48000D03*
X57250Y-49000D03*
X56250Y-48000D03*
X56250Y-49000D03*
X55250Y-48000D03*
X55250Y-49000D03*
X54250Y-48000D03*
X54250Y-49000D03*
X53250Y-48000D03*
X53250Y-49000D03*
X52250Y-48000D03*
X52250Y-49000D03*
X51250Y-48000D03*
X51250Y-49000D03*
X50250Y-48000D03*
X50250Y-49000D03*
X49250Y-48000D03*
X49250Y-49000D03*
X48250Y-48000D03*
X48250Y-49000D03*
X47250Y-48000D03*
X47250Y-49000D03*
X46250Y-48000D03*
X46250Y-49000D03*
X70250Y-31500D03*
X70250Y-32500D03*
X69250Y-31500D03*
X69250Y-32500D03*
G54D14*
X58100Y-39000D03*
X57500Y-39000D03*
X58600Y-44000D03*
X58000Y-44000D03*
G54D15*
X49600Y-36200D03*
X49600Y-35200D03*
X49600Y-38400D03*
X49600Y-37400D03*
X49600Y-40600D03*
X49600Y-39600D03*
X49600Y-42800D03*
X49600Y-41800D03*
G54D16*
X64000Y-33500D03*
G54D17*
X65000Y-33500D03*
X64000Y-34500D03*
X65000Y-34500D03*
X64000Y-35500D03*
X65000Y-35500D03*
X64000Y-36500D03*
X65000Y-36500D03*
X64000Y-37500D03*
X65000Y-37500D03*
G54D16*
X64000Y-40500D03*
G54D17*
X65000Y-40500D03*
X64000Y-41500D03*
X65000Y-41500D03*
X64000Y-42500D03*
X65000Y-42500D03*
X64000Y-43500D03*
X65000Y-43500D03*
X64000Y-44500D03*
X65000Y-44500D03*
G54D14*
X58000Y-44800D03*
X58600Y-44800D03*
X58000Y-45600D03*
X58600Y-45600D03*
G54D18*
X58650Y-38350D03*
X58650Y-37350D03*
X58650Y-36850D03*
X58650Y-36350D03*
X58650Y-35850D03*
X58650Y-35350D03*
X58650Y-34850D03*
X61150Y-34850D03*
X61150Y-35350D03*
X61150Y-35850D03*
X61150Y-36350D03*
X61150Y-36850D03*
X61150Y-37350D03*
X61150Y-37850D03*
X61150Y-38350D03*
X58650Y-37850D03*
X58650Y-43150D03*
X58650Y-42150D03*
X58650Y-41650D03*
X58650Y-41150D03*
X58650Y-40650D03*
X58650Y-40150D03*
X58650Y-39650D03*
X61150Y-39650D03*
X61150Y-40150D03*
X61150Y-40650D03*
X61150Y-41150D03*
X61150Y-41650D03*
X61150Y-42150D03*
X61150Y-42650D03*
X61150Y-43150D03*
X58650Y-42650D03*
G54D19*
X68300Y-32300D03*
X68300Y-31700D03*
X48150Y-33350D03*
X48150Y-32750D03*
G54D14*
X47550Y-31550D03*
X46950Y-31550D03*
G54D20*
X49600Y-32400D03*
X49600Y-33700D03*
G54D14*
X48750Y-34000D03*
X48150Y-34000D03*
X48750Y-32100D03*
X48150Y-32100D03*
X45600Y-34500D03*
X46200Y-34500D03*
X45600Y-35250D03*
X46200Y-35250D03*
G54D18*
X44700Y-33800D03*
X44700Y-33300D03*
X44700Y-32800D03*
X44700Y-32300D03*
X47200Y-32300D03*
X47200Y-32800D03*
X47200Y-33300D03*
X47200Y-33800D03*
G54D21*
X51850Y-32000D03*
X58650Y-43550D03*
X58600Y-38950D03*
X66500Y-33500D03*
X49600Y-31800D03*
X63150Y-44000D03*
X61400Y-39300D03*
X62150Y-39300D03*
X61150Y-34500D03*
X57650Y-44050D03*
X57100Y-39000D03*
X46650Y-32800D03*
X44700Y-34250D03*
X46500Y-31700D03*
X46750Y-30450D03*
X47250Y-30900D03*
X61500Y-44500D03*
X60150Y-44450D03*
X64000Y-39050D03*
X62200Y-34850D03*
X63000Y-33900D03*
M02*
